%TF.GenerationSoftware,KiCad,Pcbnew,10.0.5*%
%TF.CreationDate,2026-08-19T20:18:01+02:00*%
%TF.ProjectId,koyomi-hdmi-lvds,6b6f796f-6d69-42d6-9864-6d692d6c7664,rev?*%
%TF.SameCoordinates,Original*%
%TF.FileFunction,Copper,L2,Bot*%
%TF.FilePolarity,Positive*%
%FSLAX46Y46*%
G04 Gerber Fmt 4.6, Leading zero omitted, Abs format (unit mm)*
G04 Created by KiCad (PCBNEW 10.0.5) date 2026-08-19 20:18:01*
%MOMM*%
%LPD*%
G01*
G04 APERTURE LIST*
%TA.AperFunction,ComponentPad*%
%ADD10R,1.700000X1.700000*%
%TD*%
%TA.AperFunction,ComponentPad*%
%ADD11C,1.700000*%
%TD*%
%TA.AperFunction,ComponentPad*%
%ADD12O,3.300000X1.500000*%
%TD*%
%TA.AperFunction,ComponentPad*%
%ADD13O,2.700000X1.500000*%
%TD*%
%TA.AperFunction,ComponentPad*%
%ADD14O,1.700000X1.700000*%
%TD*%
%TA.AperFunction,ViaPad*%
%ADD15C,0.600000*%
%TD*%
%TA.AperFunction,Conductor*%
%ADD16C,0.500000*%
%TD*%
%TA.AperFunction,Conductor*%
%ADD17C,0.200000*%
%TD*%
G04 APERTURE END LIST*
D10*
%TO.P,J3,1,Pin_1_1*%
%TO.N,+3V3*%
X68270000Y-71335000D03*
D11*
%TO.P,J3,2,Pin_2_2*%
%TO.N,+5V*%
X70810000Y-71335000D03*
%TO.P,J3,3,Pin_3_3*%
%TO.N,SCL*%
X68270000Y-73875000D03*
%TO.P,J3,4,Pin_4_4*%
%TO.N,SDA*%
X70810000Y-73875000D03*
%TO.P,J3,5,Pin_5_5*%
%TO.N,BL_PWM*%
X68270000Y-76415000D03*
%TO.P,J3,6,Pin_6_6*%
%TO.N,BL_EN*%
X70810000Y-76415000D03*
%TO.P,J3,7,Pin_7_7*%
%TO.N,GND*%
X68270000Y-78955000D03*
%TO.P,J3,8,Pin_8_8*%
X70810000Y-78955000D03*
%TD*%
D12*
%TO.P,HDMI1,20,SHIELD_20*%
%TO.N,GND*%
X76710000Y-49320000D03*
D13*
X70750000Y-49320000D03*
D12*
X76710000Y-63820000D03*
D13*
X70750000Y-63820000D03*
%TD*%
D10*
%TO.P,J2,1,Pin_1_1*%
%TO.N,HDMI_5V*%
X74670000Y-70410000D03*
D11*
%TO.P,J2,2,Pin_2_2*%
%TO.N,HDMI_SCL*%
X77210000Y-70410000D03*
%TO.P,J2,3,Pin_3_3*%
%TO.N,HDMI_SDA*%
X79750000Y-70410000D03*
%TO.P,J2,4,Pin_4_4*%
%TO.N,GND*%
X82290000Y-70410000D03*
%TD*%
D14*
%TO.P,J4,*%
%TO.N,*%
X136770000Y-67995000D03*
X136770000Y-70535000D03*
X149610000Y-52875000D03*
D10*
%TO.P,J4,1,VAD_1*%
%TO.N,VAD*%
X152150000Y-52875000D03*
D14*
%TO.P,J4,2,+5V_2*%
%TO.N,+5V*%
X144530000Y-52875000D03*
%TO.P,J4,3,PWM_3*%
%TO.N,BL_PWM*%
X141990000Y-52875000D03*
%TO.P,J4,4,Enable_4*%
%TO.N,BL_EN*%
X139450000Y-52875000D03*
%TO.P,J4,5,+3V3_5*%
%TO.N,+3V3*%
X136770000Y-60375000D03*
%TO.P,J4,6,SDA_6*%
%TO.N,SDA*%
X136770000Y-62915000D03*
%TO.P,J4,7,SCL_7*%
%TO.N,SCL*%
X136770000Y-65455000D03*
%TO.P,J4,8,VCD1_8*%
%TO.N,VCD1*%
X139450000Y-75775000D03*
%TO.P,J4,9,VCD2_9*%
%TO.N,VCD2*%
X141990000Y-75775000D03*
%TO.P,J4,10,VCD3_10*%
%TO.N,VCD3*%
X144530000Y-75775000D03*
%TO.P,J4,11,VCD4_11*%
%TO.N,VCD4*%
X147070000Y-75775000D03*
%TO.P,J4,12,VCD5_12*%
%TO.N,VCD5*%
X149610000Y-75775000D03*
D10*
%TO.P,J4,13,VCD6_13*%
%TO.N,VCD6*%
X152150000Y-75775000D03*
%TO.P,J4,GND,GND_GND*%
%TO.N,GND*%
X136770000Y-57835000D03*
D14*
X147070000Y-52875000D03*
%TD*%
D15*
%TO.N,+3V3*%
X117030000Y-62220000D03*
X100010000Y-80470000D03*
X129820000Y-60200000D03*
X82400000Y-79490000D03*
X122420000Y-62960000D03*
X132820000Y-59697500D03*
%TO.N,GND*%
X91500000Y-63410000D03*
X101490000Y-48660000D03*
X119700000Y-52700000D03*
X80460000Y-61670000D03*
X75800000Y-60520000D03*
X101710000Y-62470000D03*
X122350000Y-63950000D03*
X70240000Y-52110000D03*
X126930000Y-62290000D03*
X136070000Y-55180000D03*
X128250000Y-69450000D03*
X153370000Y-50180000D03*
X147870000Y-51080000D03*
X126470000Y-76155000D03*
X87100000Y-63000000D03*
X90823921Y-69113447D03*
X90890000Y-65930000D03*
X93800000Y-56670000D03*
X118770000Y-76155000D03*
X118100000Y-52700000D03*
X103870000Y-55420000D03*
X108399566Y-57717494D03*
X148970000Y-50180000D03*
X127570000Y-76155000D03*
X69140000Y-51210000D03*
X101120000Y-63020000D03*
X125370000Y-77055000D03*
X144570000Y-50180000D03*
X91235735Y-58209999D03*
X84400000Y-63270000D03*
X128200000Y-55950000D03*
X106755000Y-64015000D03*
X122070000Y-76155000D03*
X85350000Y-54237156D03*
X105150000Y-77430000D03*
X120650000Y-57100000D03*
X86180000Y-66940000D03*
X90040000Y-52220000D03*
X122000000Y-52700000D03*
X114190000Y-61140000D03*
X120970000Y-78855000D03*
X75800000Y-57630000D03*
X109450000Y-57590000D03*
X69140000Y-52110000D03*
X121710000Y-56840000D03*
X126950000Y-67950000D03*
X79330000Y-61730000D03*
X127570000Y-77055000D03*
X145670000Y-50180000D03*
X95660000Y-70690000D03*
X123170000Y-77055000D03*
X137170000Y-55180000D03*
X86080000Y-69020000D03*
X96795500Y-49530000D03*
X120970000Y-77055000D03*
X87610000Y-52760000D03*
X118770000Y-77080000D03*
X102280000Y-61850000D03*
X138270000Y-56080000D03*
X151170000Y-50180000D03*
X145670000Y-51080000D03*
X75810000Y-59100000D03*
X119870000Y-77955000D03*
X118230000Y-55280000D03*
X126940000Y-60100000D03*
X123600000Y-52700000D03*
X118900000Y-52700000D03*
X91568631Y-54409052D03*
X128020000Y-54860000D03*
X81950000Y-55760000D03*
X134970000Y-56080000D03*
X119870000Y-76155000D03*
X71340000Y-52110000D03*
X70240000Y-51210000D03*
X88800000Y-56270000D03*
X153370000Y-51080000D03*
X125220000Y-60230000D03*
X75790000Y-56100000D03*
X101642108Y-67762398D03*
X123170000Y-76155000D03*
X150070000Y-51080000D03*
X120970000Y-76155000D03*
X125370000Y-76155000D03*
X121200000Y-52700000D03*
X126700000Y-52700000D03*
X110920000Y-60580000D03*
X144570000Y-51080000D03*
X122070000Y-77055000D03*
X124400000Y-55150000D03*
X110370000Y-57620000D03*
X146770000Y-51080000D03*
X91320000Y-60810000D03*
X81570000Y-63200000D03*
X126470000Y-77055000D03*
X119870000Y-77055000D03*
X95270000Y-52400000D03*
X86460612Y-60870196D03*
X108800000Y-54300000D03*
X119870000Y-78855000D03*
X94080000Y-70790000D03*
X137170000Y-56080000D03*
X87625425Y-58359999D03*
X152270000Y-51080000D03*
X113260000Y-71410000D03*
X125700000Y-69450000D03*
X125900000Y-52700000D03*
X125100000Y-52700000D03*
X75580000Y-53340000D03*
X120180000Y-55200000D03*
X71340000Y-51210000D03*
X122350000Y-64750000D03*
X82980000Y-64270000D03*
X83200000Y-54210000D03*
X87630000Y-54310000D03*
X93410000Y-65120000D03*
X148970000Y-51080000D03*
X84370000Y-61470000D03*
X101993178Y-69638857D03*
X136070000Y-56080000D03*
X138270000Y-55180000D03*
X124270000Y-76155000D03*
X122350000Y-65550000D03*
X99910000Y-65400000D03*
X121250000Y-56200000D03*
X117300000Y-52700000D03*
X111290000Y-57560000D03*
X146770000Y-50180000D03*
X151170000Y-51080000D03*
X120970000Y-77955000D03*
X84240000Y-55710000D03*
X116030000Y-54895000D03*
X124270000Y-77055000D03*
X134970000Y-55180000D03*
X93900000Y-58150000D03*
X126460000Y-54870000D03*
X152270000Y-50180000D03*
X126470000Y-57200000D03*
X122800000Y-52700000D03*
X87450000Y-75510000D03*
X118170000Y-62170000D03*
X122520000Y-54970000D03*
X100110000Y-52450000D03*
X150070000Y-50180000D03*
X100430000Y-63450000D03*
X114000000Y-54000000D03*
X127500000Y-52700000D03*
X147870000Y-50180000D03*
%TO.N,TX2+*%
X79785878Y-60930000D03*
X93131997Y-57451495D03*
%TO.N,TX2-*%
X79785878Y-60130000D03*
X92331997Y-57451495D03*
%TO.N,TX1+*%
X80310175Y-59470000D03*
X85740000Y-55100000D03*
%TO.N,TX1-*%
X84940000Y-55100000D03*
X80310175Y-58670000D03*
%TO.N,TX0+*%
X83550000Y-55080000D03*
X79551784Y-57970000D03*
%TO.N,TX0-*%
X82750000Y-55080000D03*
X79551784Y-57170000D03*
%TO.N,TXC+*%
X82550000Y-63430000D03*
X88666611Y-61159999D03*
%TO.N,TXC-*%
X83350000Y-63430000D03*
X88666611Y-61959999D03*
%TO.N,OVDD*%
X100150000Y-68320000D03*
X108020000Y-63440000D03*
X103360000Y-52850000D03*
X107540000Y-53590000D03*
%TO.N,DVDD*%
X101560000Y-61350000D03*
X104350000Y-59710000D03*
%TO.N,VAD*%
X130800000Y-71500000D03*
X113040000Y-69200000D03*
%TO.N,B0*%
X113437999Y-56782001D03*
X96195947Y-64650000D03*
%TO.N,B1*%
X112620000Y-56780000D03*
X96820000Y-63470000D03*
%TO.N,B2*%
X111740000Y-56800000D03*
X97680000Y-63460000D03*
%TO.N,B3*%
X98729933Y-63339933D03*
X110820000Y-56830000D03*
%TO.N,B4*%
X109920000Y-56840000D03*
X98604433Y-64356389D03*
%TO.N,B5*%
X109020000Y-56840000D03*
X99150000Y-65120000D03*
%TO.N,G0*%
X100520000Y-64830000D03*
X126747235Y-56267235D03*
%TO.N,G1*%
X126100000Y-55640000D03*
X100980000Y-64130000D03*
%TO.N,G2*%
X101660000Y-63650000D03*
X125320000Y-55864511D03*
%TO.N,G3*%
X124180000Y-56480000D03*
X102290000Y-63140000D03*
%TO.N,G4*%
X123405735Y-56915735D03*
X102862985Y-62581707D03*
%TO.N,G5*%
X103160000Y-61790000D03*
X122660000Y-56610000D03*
%TD*%
%TO.N,+3V3*%
D16*
X100010000Y-80470000D02*
X100368000Y-80828000D01*
X125010288Y-80828000D02*
X132943000Y-72895288D01*
X100368000Y-80828000D02*
X125010288Y-80828000D01*
D17*
X129820000Y-61580000D02*
X129820000Y-60200000D01*
D16*
X79970000Y-79490000D02*
X72430000Y-71950000D01*
D17*
X122460000Y-63000000D02*
X123500000Y-63000000D01*
X128400000Y-63000000D02*
X129820000Y-61580000D01*
D16*
X68295000Y-69930000D02*
X68295000Y-71310000D01*
X68770000Y-69455000D02*
X68295000Y-69930000D01*
X132820000Y-71397000D02*
X132820000Y-59697500D01*
X132943000Y-72895288D02*
X132943000Y-71520000D01*
D17*
X117810000Y-63000000D02*
X117030000Y-62220000D01*
D16*
X71395000Y-69455000D02*
X68770000Y-69455000D01*
D17*
X122420000Y-62960000D02*
X122460000Y-63000000D01*
D16*
X72430000Y-71950000D02*
X72430000Y-70490000D01*
D17*
X123500000Y-63000000D02*
X117810000Y-63000000D01*
D16*
X72430000Y-70490000D02*
X71395000Y-69455000D01*
X132943000Y-71520000D02*
X132820000Y-71397000D01*
D17*
X123500000Y-63000000D02*
X128400000Y-63000000D01*
D16*
X82400000Y-79490000D02*
X79970000Y-79490000D01*
%TO.N,+5V*%
X133570000Y-73155000D02*
X133570000Y-53030000D01*
X101853840Y-81476000D02*
X101874840Y-81455000D01*
X125270000Y-81455000D02*
X133570000Y-73155000D01*
X101874840Y-81455000D02*
X125270000Y-81455000D01*
X80951000Y-81476000D02*
X101853840Y-81476000D01*
X135770000Y-50830000D02*
X142485000Y-50830000D01*
X70810000Y-71335000D02*
X80951000Y-81476000D01*
X142485000Y-50830000D02*
X144530000Y-52875000D01*
X133570000Y-53030000D02*
X135770000Y-50830000D01*
%TO.N,SCL*%
D17*
X134970000Y-65455000D02*
X134374000Y-66051000D01*
X134374000Y-66051000D02*
X134374000Y-73501000D01*
X136770000Y-65455000D02*
X134970000Y-65455000D01*
X78984448Y-82280000D02*
X71857448Y-75153000D01*
X69548000Y-75153000D02*
X68270000Y-73875000D01*
X134374000Y-73501000D02*
X125595000Y-82280000D01*
X125595000Y-82280000D02*
X78984448Y-82280000D01*
X71857448Y-75153000D02*
X69548000Y-75153000D01*
%TO.N,SDA*%
X71992896Y-74826000D02*
X71761000Y-74826000D01*
X102051420Y-81953000D02*
X79119896Y-81953000D01*
X102072420Y-81932000D02*
X102051420Y-81953000D01*
X125467580Y-81932000D02*
X102072420Y-81932000D01*
X134047000Y-73352580D02*
X125467580Y-81932000D01*
X134047000Y-63678000D02*
X134047000Y-73352580D01*
X136610000Y-62755000D02*
X134970000Y-62755000D01*
X79119896Y-81953000D02*
X71992896Y-74826000D01*
X134970000Y-62755000D02*
X134047000Y-63678000D01*
X71761000Y-74826000D02*
X70810000Y-73875000D01*
%TO.N,BL_PWM*%
X139777000Y-70623000D02*
X136543000Y-73857000D01*
X136543000Y-73857000D02*
X134955448Y-73857000D01*
X125878448Y-82934000D02*
X78713552Y-82934000D01*
X73459552Y-77680000D02*
X69545000Y-77680000D01*
X78713552Y-82934000D02*
X73459552Y-77680000D01*
X69545000Y-77680000D02*
X68280000Y-76415000D01*
X139777000Y-55088000D02*
X139777000Y-70623000D01*
X141990000Y-52875000D02*
X139777000Y-55088000D01*
X134955448Y-73857000D02*
X125878448Y-82934000D01*
%TO.N,BL_EN*%
X125743000Y-82607000D02*
X134820000Y-73530000D01*
X136395000Y-73530000D02*
X139450000Y-70475000D01*
X139450000Y-70475000D02*
X139450000Y-52875000D01*
X73266000Y-77024000D02*
X72657000Y-76415000D01*
X73266000Y-77024000D02*
X78849000Y-82607000D01*
X134820000Y-73530000D02*
X136395000Y-73530000D01*
X78849000Y-82607000D02*
X125743000Y-82607000D01*
X72657000Y-76415000D02*
X70810000Y-76415000D01*
%TO.N,TX2+*%
X79985878Y-60730000D02*
X85640000Y-60730000D01*
X92931997Y-58270847D02*
X92931997Y-57651495D01*
X92931997Y-57651495D02*
X93131997Y-57451495D01*
X79785878Y-60930000D02*
X79985878Y-60730000D01*
X91572844Y-59630000D02*
X92931997Y-58270847D01*
X86740000Y-59630000D02*
X91572844Y-59630000D01*
X85640000Y-60730000D02*
X86740000Y-59630000D01*
%TO.N,TX2-*%
X86570000Y-59230000D02*
X91407156Y-59230000D01*
X92531997Y-57651495D02*
X92331997Y-57451495D01*
X85470000Y-60330000D02*
X86570000Y-59230000D01*
X79985878Y-60330000D02*
X85470000Y-60330000D01*
X91407156Y-59230000D02*
X92531997Y-58105159D01*
X92531997Y-58105159D02*
X92531997Y-57651495D01*
X79785878Y-60130000D02*
X79985878Y-60330000D01*
%TO.N,TX1+*%
X84699171Y-59270000D02*
X80510175Y-59270000D01*
X80510175Y-59270000D02*
X80310175Y-59470000D01*
X85540000Y-58429171D02*
X85540000Y-55300000D01*
X85740000Y-55100000D02*
X85540000Y-55300000D01*
X84699171Y-59270000D02*
X85540000Y-58429171D01*
%TO.N,TX1-*%
X84533483Y-58870000D02*
X80510175Y-58870000D01*
X85140000Y-58263483D02*
X85140000Y-55300000D01*
X80510175Y-58870000D02*
X80310175Y-58670000D01*
X84940000Y-55100000D02*
X85140000Y-55300000D01*
X84533483Y-58870000D02*
X85140000Y-58263483D01*
%TO.N,TX0+*%
X79751784Y-57770000D02*
X80266928Y-57770000D01*
X80276928Y-57780000D02*
X82132844Y-57780000D01*
X83350000Y-56562844D02*
X83350000Y-55280000D01*
X79551784Y-57970000D02*
X79751784Y-57770000D01*
X82132844Y-57780000D02*
X83350000Y-56562844D01*
X83350000Y-55280000D02*
X83550000Y-55080000D01*
X80266928Y-57770000D02*
X80276928Y-57780000D01*
%TO.N,TX0-*%
X80430000Y-57380000D02*
X81967156Y-57380000D01*
X81967156Y-57380000D02*
X82950000Y-56397156D01*
X79751784Y-57370000D02*
X80420000Y-57370000D01*
X82950000Y-56397156D02*
X82950000Y-55280000D01*
X79551784Y-57170000D02*
X79751784Y-57370000D01*
X80420000Y-57370000D02*
X80430000Y-57380000D01*
X82950000Y-55280000D02*
X82750000Y-55080000D01*
%TO.N,TXC+*%
X82750000Y-63181471D02*
X82750000Y-63230000D01*
X88466611Y-61359999D02*
X86807157Y-61359999D01*
X86807157Y-61359999D02*
X85917156Y-62250000D01*
X83101471Y-62830000D02*
X82750000Y-63181471D01*
X82750000Y-63230000D02*
X82550000Y-63430000D01*
X85917156Y-62250000D02*
X83730000Y-62250000D01*
X83730000Y-62250000D02*
X83150000Y-62830000D01*
X83150000Y-62830000D02*
X83101471Y-62830000D01*
X88666611Y-61159999D02*
X88466611Y-61359999D01*
%TO.N,TXC-*%
X88666611Y-61959999D02*
X88466611Y-61759999D01*
X83350000Y-63195686D02*
X83350000Y-63430000D01*
X86972845Y-61759999D02*
X86082844Y-62650000D01*
X83895686Y-62650000D02*
X83350000Y-63195686D01*
X86082844Y-62650000D02*
X83895686Y-62650000D01*
X88466611Y-61759999D02*
X86972845Y-61759999D01*
%TO.N,OVDD*%
D16*
X107540000Y-53590000D02*
X106800000Y-52850000D01*
X108020000Y-63810661D02*
X106780661Y-65050000D01*
X108020000Y-63440000D02*
X108020000Y-63810661D01*
X101850000Y-68820000D02*
X100650000Y-68820000D01*
X105620000Y-65050000D02*
X101850000Y-68820000D01*
X106780661Y-65050000D02*
X105620000Y-65050000D01*
X100650000Y-68820000D02*
X100150000Y-68320000D01*
X106800000Y-52850000D02*
X103360000Y-52850000D01*
%TO.N,DVDD*%
X102624820Y-60742000D02*
X103656820Y-59710000D01*
X102148000Y-60742000D02*
X102624820Y-60742000D01*
X103656820Y-59710000D02*
X104350000Y-59710000D01*
X101560000Y-61350000D02*
X101560000Y-61330000D01*
X101560000Y-61330000D02*
X102148000Y-60742000D01*
%TO.N,VAD*%
X113040000Y-69200000D02*
X113040000Y-69940000D01*
X113040000Y-69940000D02*
X113960000Y-70860000D01*
X113960000Y-70860000D02*
X130160000Y-70860000D01*
X130160000Y-70860000D02*
X130800000Y-71500000D01*
%TO.N,B0*%
D17*
X96195947Y-63245524D02*
X96195947Y-64650000D01*
X113437999Y-56782001D02*
X113437999Y-55537999D01*
X101520000Y-58630000D02*
X100811471Y-58630000D01*
X113437999Y-55537999D02*
X112800000Y-54900000D01*
X100811471Y-58630000D02*
X96195947Y-63245524D01*
X112800000Y-54900000D02*
X105250000Y-54900000D01*
X105250000Y-54900000D02*
X101520000Y-58630000D01*
%TO.N,B1*%
X112620000Y-55570000D02*
X112277000Y-55227000D01*
X105385448Y-55227000D02*
X101655448Y-58957000D01*
X101655448Y-58957000D02*
X100946919Y-58957000D01*
X96820000Y-63083919D02*
X96820000Y-63470000D01*
X100946919Y-58957000D02*
X96820000Y-63083919D01*
X112620000Y-56780000D02*
X112620000Y-55570000D01*
X112277000Y-55227000D02*
X105385448Y-55227000D01*
%TO.N,B2*%
X102020896Y-59284000D02*
X105750896Y-55554000D01*
X97680000Y-63460000D02*
X97680000Y-62686367D01*
X111740000Y-56270000D02*
X111740000Y-56800000D01*
X105750896Y-55554000D02*
X111024000Y-55554000D01*
X111024000Y-55554000D02*
X111740000Y-56270000D01*
X97680000Y-62686367D02*
X101082367Y-59284000D01*
X101082367Y-59284000D02*
X102020896Y-59284000D01*
%TO.N,B3*%
X98729933Y-62098882D02*
X101217815Y-59611000D01*
X110820000Y-56430000D02*
X110820000Y-56830000D01*
X110271000Y-55881000D02*
X110820000Y-56430000D01*
X98729933Y-63339933D02*
X98729933Y-62098882D01*
X105886344Y-55881000D02*
X110271000Y-55881000D01*
X101217815Y-59611000D02*
X102156344Y-59611000D01*
X102156344Y-59611000D02*
X105886344Y-55881000D01*
%TO.N,B4*%
X102291792Y-59938000D02*
X101353263Y-59938000D01*
X101353263Y-59938000D02*
X99430000Y-61861263D01*
X109920000Y-56620000D02*
X109508000Y-56208000D01*
X99430000Y-61861263D02*
X99430000Y-63530822D01*
X106021792Y-56208000D02*
X102291792Y-59938000D01*
X109920000Y-56840000D02*
X109920000Y-56620000D01*
X109508000Y-56208000D02*
X106021792Y-56208000D01*
X99430000Y-63530822D02*
X98604433Y-64356389D01*
%TO.N,B5*%
X109020000Y-56840000D02*
X108715000Y-56535000D01*
X102427240Y-60265000D02*
X101488711Y-60265000D01*
X106157240Y-56535000D02*
X102427240Y-60265000D01*
X99757000Y-61996711D02*
X99757000Y-63783000D01*
X101488711Y-60265000D02*
X99757000Y-61996711D01*
X99290000Y-64980000D02*
X99150000Y-65120000D01*
X99757000Y-63783000D02*
X99290000Y-64250000D01*
X99290000Y-64250000D02*
X99290000Y-64980000D01*
X108715000Y-56535000D02*
X106157240Y-56535000D01*
%TO.N,G0*%
X105797240Y-63425000D02*
X109322240Y-59900000D01*
X100610000Y-64920000D02*
X101794000Y-64920000D01*
X122670000Y-59900000D02*
X126302765Y-56267235D01*
X103693344Y-64394000D02*
X104662344Y-63425000D01*
X104662344Y-63425000D02*
X105797240Y-63425000D01*
X109322240Y-59900000D02*
X122670000Y-59900000D01*
X101794000Y-64920000D02*
X102320000Y-64394000D01*
X100520000Y-64830000D02*
X100610000Y-64920000D01*
X102320000Y-64394000D02*
X103693344Y-64394000D01*
X126302765Y-56267235D02*
X126747235Y-56267235D01*
%TO.N,G1*%
X100980000Y-64130000D02*
X101100000Y-64250000D01*
X105661792Y-63098000D02*
X109186792Y-59573000D01*
X109186792Y-59573000D02*
X122534552Y-59573000D01*
X122534552Y-59573000D02*
X125920000Y-56187552D01*
X101908529Y-64250000D02*
X102091529Y-64067000D01*
X103557896Y-64067000D02*
X104526896Y-63098000D01*
X101100000Y-64250000D02*
X101908529Y-64250000D01*
X125920000Y-56187552D02*
X125920000Y-55820000D01*
X104526896Y-63098000D02*
X105661792Y-63098000D01*
X102091529Y-64067000D02*
X103557896Y-64067000D01*
X125920000Y-55820000D02*
X126100000Y-55640000D01*
%TO.N,G2*%
X104391448Y-62771000D02*
X105526344Y-62771000D01*
X109051344Y-59246000D02*
X122399104Y-59246000D01*
X101750000Y-63740000D02*
X103422448Y-63740000D01*
X122399104Y-59246000D02*
X125320000Y-56325104D01*
X103422448Y-63740000D02*
X104391448Y-62771000D01*
X101660000Y-63650000D02*
X101750000Y-63740000D01*
X125320000Y-56325104D02*
X125320000Y-55864511D01*
X105526344Y-62771000D02*
X109051344Y-59246000D01*
%TO.N,G3*%
X122251000Y-58919000D02*
X108915896Y-58919000D01*
X104256000Y-62444000D02*
X103518293Y-63181707D01*
X105390896Y-62444000D02*
X104256000Y-62444000D01*
X103518293Y-63181707D02*
X102331707Y-63181707D01*
X124180000Y-56990000D02*
X122251000Y-58919000D01*
X102331707Y-63181707D02*
X102290000Y-63140000D01*
X108915896Y-58919000D02*
X105390896Y-62444000D01*
X124180000Y-56480000D02*
X124180000Y-56990000D01*
%TO.N,G4*%
X108780448Y-58592000D02*
X105255448Y-62117000D01*
X121795000Y-58525000D02*
X121796470Y-58525000D01*
X103833000Y-62117000D02*
X103368293Y-62581707D01*
X121796470Y-58525000D02*
X123405735Y-56915735D01*
X105255448Y-62117000D02*
X103833000Y-62117000D01*
X121728000Y-58592000D02*
X108780448Y-58592000D01*
X121728000Y-58592000D02*
X121795000Y-58525000D01*
X103368293Y-62581707D02*
X102862985Y-62581707D01*
%TO.N,G5*%
X122660000Y-57049552D02*
X121444552Y-58265000D01*
X108645000Y-58265000D02*
X105120000Y-61790000D01*
X121444552Y-58265000D02*
X108645000Y-58265000D01*
X105120000Y-61790000D02*
X103160000Y-61790000D01*
X122660000Y-56610000D02*
X122660000Y-57049552D01*
%TD*%
%TA.AperFunction,Conductor*%
%TO.N,GND*%
G36*
X153173522Y-46680752D02*
G01*
X153198505Y-46682538D01*
X153376345Y-46695258D01*
X153390308Y-46697265D01*
X153585549Y-46739737D01*
X153599089Y-46743713D01*
X153786288Y-46813534D01*
X153799122Y-46819395D01*
X153974479Y-46915148D01*
X153986358Y-46922782D01*
X154146292Y-47042507D01*
X154156968Y-47051757D01*
X154298242Y-47193031D01*
X154307492Y-47203707D01*
X154427217Y-47363641D01*
X154434853Y-47375523D01*
X154530600Y-47550869D01*
X154536468Y-47563718D01*
X154606284Y-47750904D01*
X154610264Y-47764457D01*
X154652732Y-47959681D01*
X154654742Y-47973662D01*
X154669248Y-48176476D01*
X154669500Y-48183539D01*
X154669500Y-81676460D01*
X154669248Y-81683523D01*
X154654742Y-81886337D01*
X154652732Y-81900318D01*
X154610264Y-82095542D01*
X154606284Y-82109095D01*
X154536468Y-82296281D01*
X154530600Y-82309130D01*
X154434853Y-82484476D01*
X154427217Y-82496358D01*
X154307492Y-82656292D01*
X154298242Y-82666968D01*
X154156968Y-82808242D01*
X154146292Y-82817492D01*
X153986358Y-82937217D01*
X153974476Y-82944853D01*
X153799130Y-83040600D01*
X153786281Y-83046468D01*
X153599095Y-83116284D01*
X153585542Y-83120264D01*
X153390318Y-83162732D01*
X153376337Y-83164742D01*
X153173523Y-83179248D01*
X153166460Y-83179500D01*
X126296927Y-83179500D01*
X126238736Y-83160593D01*
X126202772Y-83111093D01*
X126202772Y-83049907D01*
X126226923Y-83010496D01*
X133565887Y-75671532D01*
X138399500Y-75671532D01*
X138399500Y-75878467D01*
X138439869Y-76081418D01*
X138519058Y-76272597D01*
X138545076Y-76311536D01*
X138634023Y-76444655D01*
X138780345Y-76590977D01*
X138952402Y-76705941D01*
X139143580Y-76785130D01*
X139346535Y-76825500D01*
X139346536Y-76825500D01*
X139553464Y-76825500D01*
X139553465Y-76825500D01*
X139756420Y-76785130D01*
X139947598Y-76705941D01*
X140119655Y-76590977D01*
X140265977Y-76444655D01*
X140380941Y-76272598D01*
X140460130Y-76081420D01*
X140500500Y-75878465D01*
X140500500Y-75671535D01*
X140500499Y-75671532D01*
X140939500Y-75671532D01*
X140939500Y-75878467D01*
X140979869Y-76081418D01*
X141059058Y-76272597D01*
X141085076Y-76311536D01*
X141174023Y-76444655D01*
X141320345Y-76590977D01*
X141492402Y-76705941D01*
X141683580Y-76785130D01*
X141886535Y-76825500D01*
X141886536Y-76825500D01*
X142093464Y-76825500D01*
X142093465Y-76825500D01*
X142296420Y-76785130D01*
X142487598Y-76705941D01*
X142659655Y-76590977D01*
X142805977Y-76444655D01*
X142920941Y-76272598D01*
X143000130Y-76081420D01*
X143040500Y-75878465D01*
X143040500Y-75671535D01*
X143040499Y-75671532D01*
X143479500Y-75671532D01*
X143479500Y-75878467D01*
X143519869Y-76081418D01*
X143599058Y-76272597D01*
X143625076Y-76311536D01*
X143714023Y-76444655D01*
X143860345Y-76590977D01*
X144032402Y-76705941D01*
X144223580Y-76785130D01*
X144426535Y-76825500D01*
X144426536Y-76825500D01*
X144633464Y-76825500D01*
X144633465Y-76825500D01*
X144836420Y-76785130D01*
X145027598Y-76705941D01*
X145199655Y-76590977D01*
X145345977Y-76444655D01*
X145460941Y-76272598D01*
X145540130Y-76081420D01*
X145580500Y-75878465D01*
X145580500Y-75671535D01*
X145580499Y-75671532D01*
X146019500Y-75671532D01*
X146019500Y-75878467D01*
X146059869Y-76081418D01*
X146139058Y-76272597D01*
X146165076Y-76311536D01*
X146254023Y-76444655D01*
X146400345Y-76590977D01*
X146572402Y-76705941D01*
X146763580Y-76785130D01*
X146966535Y-76825500D01*
X146966536Y-76825500D01*
X147173464Y-76825500D01*
X147173465Y-76825500D01*
X147376420Y-76785130D01*
X147567598Y-76705941D01*
X147739655Y-76590977D01*
X147885977Y-76444655D01*
X148000941Y-76272598D01*
X148080130Y-76081420D01*
X148120500Y-75878465D01*
X148120500Y-75671535D01*
X148120499Y-75671532D01*
X148559500Y-75671532D01*
X148559500Y-75878467D01*
X148599869Y-76081418D01*
X148679058Y-76272597D01*
X148705076Y-76311536D01*
X148794023Y-76444655D01*
X148940345Y-76590977D01*
X149112402Y-76705941D01*
X149303580Y-76785130D01*
X149506535Y-76825500D01*
X149506536Y-76825500D01*
X149713464Y-76825500D01*
X149713465Y-76825500D01*
X149916420Y-76785130D01*
X150107598Y-76705941D01*
X150279655Y-76590977D01*
X150425977Y-76444655D01*
X150540941Y-76272598D01*
X150620130Y-76081420D01*
X150660500Y-75878465D01*
X150660500Y-75671535D01*
X150620130Y-75468580D01*
X150540941Y-75277402D01*
X150425977Y-75105345D01*
X150279655Y-74959023D01*
X150229484Y-74925500D01*
X150199182Y-74905253D01*
X151099500Y-74905253D01*
X151099500Y-76644746D01*
X151099501Y-76644758D01*
X151111132Y-76703227D01*
X151111134Y-76703233D01*
X151131964Y-76734407D01*
X151155448Y-76769552D01*
X151221769Y-76813867D01*
X151266231Y-76822711D01*
X151280241Y-76825498D01*
X151280246Y-76825498D01*
X151280252Y-76825500D01*
X151280253Y-76825500D01*
X153019747Y-76825500D01*
X153019748Y-76825500D01*
X153078231Y-76813867D01*
X153144552Y-76769552D01*
X153188867Y-76703231D01*
X153200500Y-76644748D01*
X153200500Y-74905252D01*
X153188867Y-74846769D01*
X153144552Y-74780448D01*
X153144548Y-74780445D01*
X153078233Y-74736134D01*
X153078231Y-74736133D01*
X153078228Y-74736132D01*
X153078227Y-74736132D01*
X153019758Y-74724501D01*
X153019748Y-74724500D01*
X151280252Y-74724500D01*
X151280251Y-74724500D01*
X151280241Y-74724501D01*
X151221772Y-74736132D01*
X151221766Y-74736134D01*
X151155451Y-74780445D01*
X151155445Y-74780451D01*
X151111134Y-74846766D01*
X151111132Y-74846772D01*
X151099501Y-74905241D01*
X151099500Y-74905253D01*
X150199182Y-74905253D01*
X150107597Y-74844058D01*
X149916418Y-74764869D01*
X149713467Y-74724500D01*
X149713465Y-74724500D01*
X149506535Y-74724500D01*
X149506532Y-74724500D01*
X149303581Y-74764869D01*
X149112402Y-74844058D01*
X148940348Y-74959020D01*
X148794020Y-75105348D01*
X148679058Y-75277402D01*
X148599869Y-75468581D01*
X148559500Y-75671532D01*
X148120499Y-75671532D01*
X148080130Y-75468580D01*
X148000941Y-75277402D01*
X147885977Y-75105345D01*
X147739655Y-74959023D01*
X147689484Y-74925500D01*
X147567597Y-74844058D01*
X147376418Y-74764869D01*
X147173467Y-74724500D01*
X147173465Y-74724500D01*
X146966535Y-74724500D01*
X146966532Y-74724500D01*
X146763581Y-74764869D01*
X146572402Y-74844058D01*
X146400348Y-74959020D01*
X146254020Y-75105348D01*
X146139058Y-75277402D01*
X146059869Y-75468581D01*
X146019500Y-75671532D01*
X145580499Y-75671532D01*
X145540130Y-75468580D01*
X145460941Y-75277402D01*
X145345977Y-75105345D01*
X145199655Y-74959023D01*
X145149484Y-74925500D01*
X145027597Y-74844058D01*
X144836418Y-74764869D01*
X144633467Y-74724500D01*
X144633465Y-74724500D01*
X144426535Y-74724500D01*
X144426532Y-74724500D01*
X144223581Y-74764869D01*
X144032402Y-74844058D01*
X143860348Y-74959020D01*
X143714020Y-75105348D01*
X143599058Y-75277402D01*
X143519869Y-75468581D01*
X143479500Y-75671532D01*
X143040499Y-75671532D01*
X143000130Y-75468580D01*
X142920941Y-75277402D01*
X142805977Y-75105345D01*
X142659655Y-74959023D01*
X142609484Y-74925500D01*
X142487597Y-74844058D01*
X142296418Y-74764869D01*
X142093467Y-74724500D01*
X142093465Y-74724500D01*
X141886535Y-74724500D01*
X141886532Y-74724500D01*
X141683581Y-74764869D01*
X141492402Y-74844058D01*
X141320348Y-74959020D01*
X141174020Y-75105348D01*
X141059058Y-75277402D01*
X140979869Y-75468581D01*
X140939500Y-75671532D01*
X140500499Y-75671532D01*
X140460130Y-75468580D01*
X140380941Y-75277402D01*
X140265977Y-75105345D01*
X140119655Y-74959023D01*
X140069484Y-74925500D01*
X139947597Y-74844058D01*
X139756418Y-74764869D01*
X139553467Y-74724500D01*
X139553465Y-74724500D01*
X139346535Y-74724500D01*
X139346532Y-74724500D01*
X139143581Y-74764869D01*
X138952402Y-74844058D01*
X138780348Y-74959020D01*
X138634020Y-75105348D01*
X138519058Y-75277402D01*
X138439869Y-75468581D01*
X138399500Y-75671532D01*
X133565887Y-75671532D01*
X135050923Y-74186496D01*
X135105440Y-74158719D01*
X135120927Y-74157500D01*
X136582563Y-74157500D01*
X136582563Y-74157499D01*
X136658989Y-74137021D01*
X136727511Y-74097460D01*
X136783460Y-74041511D01*
X140017460Y-70807511D01*
X140033283Y-70780105D01*
X140057020Y-70738992D01*
X140057020Y-70738990D01*
X140057022Y-70738988D01*
X140077500Y-70662562D01*
X140077500Y-70583438D01*
X140077500Y-55253478D01*
X140096407Y-55195287D01*
X140106490Y-55183480D01*
X141439708Y-53850261D01*
X141494223Y-53822486D01*
X141547595Y-53828802D01*
X141683580Y-53885130D01*
X141886535Y-53925500D01*
X141886536Y-53925500D01*
X142093464Y-53925500D01*
X142093465Y-53925500D01*
X142296420Y-53885130D01*
X142487598Y-53805941D01*
X142659655Y-53690977D01*
X142805977Y-53544655D01*
X142920941Y-53372598D01*
X143000130Y-53181420D01*
X143040500Y-52978465D01*
X143040500Y-52771535D01*
X143000130Y-52568580D01*
X142920941Y-52377402D01*
X142805977Y-52205345D01*
X142659655Y-52059023D01*
X142579182Y-52005253D01*
X142487597Y-51944058D01*
X142296418Y-51864869D01*
X142093467Y-51824500D01*
X142093465Y-51824500D01*
X141886535Y-51824500D01*
X141886532Y-51824500D01*
X141683581Y-51864869D01*
X141492402Y-51944058D01*
X141320348Y-52059020D01*
X141174020Y-52205348D01*
X141059058Y-52377402D01*
X140979869Y-52568581D01*
X140939500Y-52771532D01*
X140939500Y-52978467D01*
X140979869Y-53181418D01*
X141036196Y-53317402D01*
X141040997Y-53378399D01*
X141014736Y-53425292D01*
X139919504Y-54520524D01*
X139864987Y-54548301D01*
X139804555Y-54538730D01*
X139761290Y-54495465D01*
X139750500Y-54450520D01*
X139750500Y-53953731D01*
X139769407Y-53895540D01*
X139811614Y-53862267D01*
X139947598Y-53805941D01*
X140119655Y-53690977D01*
X140265977Y-53544655D01*
X140380941Y-53372598D01*
X140460130Y-53181420D01*
X140500500Y-52978465D01*
X140500500Y-52771535D01*
X140460130Y-52568580D01*
X140380941Y-52377402D01*
X140265977Y-52205345D01*
X140119655Y-52059023D01*
X140039182Y-52005253D01*
X139947597Y-51944058D01*
X139756418Y-51864869D01*
X139553467Y-51824500D01*
X139553465Y-51824500D01*
X139346535Y-51824500D01*
X139346532Y-51824500D01*
X139143581Y-51864869D01*
X138952402Y-51944058D01*
X138780348Y-52059020D01*
X138634020Y-52205348D01*
X138519058Y-52377402D01*
X138439869Y-52568581D01*
X138399500Y-52771532D01*
X138399500Y-52978467D01*
X138439869Y-53181418D01*
X138519058Y-53372597D01*
X138633805Y-53544329D01*
X138634023Y-53544655D01*
X138780345Y-53690977D01*
X138952402Y-53805941D01*
X139088385Y-53862267D01*
X139134911Y-53902003D01*
X139149500Y-53953731D01*
X139149500Y-70309521D01*
X139130593Y-70367712D01*
X139120504Y-70379525D01*
X136299525Y-73200504D01*
X136245008Y-73228281D01*
X136229521Y-73229500D01*
X134773949Y-73229500D01*
X134773949Y-73226404D01*
X134726240Y-73217550D01*
X134684134Y-73173158D01*
X134674500Y-73130559D01*
X134674500Y-70431532D01*
X135719500Y-70431532D01*
X135719500Y-70638467D01*
X135759869Y-70841418D01*
X135839058Y-71032597D01*
X135946028Y-71192690D01*
X135954023Y-71204655D01*
X136100345Y-71350977D01*
X136272402Y-71465941D01*
X136463580Y-71545130D01*
X136666535Y-71585500D01*
X136666536Y-71585500D01*
X136873464Y-71585500D01*
X136873465Y-71585500D01*
X137076420Y-71545130D01*
X137267598Y-71465941D01*
X137439655Y-71350977D01*
X137585977Y-71204655D01*
X137700941Y-71032598D01*
X137780130Y-70841420D01*
X137820500Y-70638465D01*
X137820500Y-70431535D01*
X137780130Y-70228580D01*
X137700941Y-70037402D01*
X137585977Y-69865345D01*
X137439655Y-69719023D01*
X137439651Y-69719020D01*
X137267597Y-69604058D01*
X137076418Y-69524869D01*
X136873467Y-69484500D01*
X136873465Y-69484500D01*
X136666535Y-69484500D01*
X136666532Y-69484500D01*
X136463581Y-69524869D01*
X136272402Y-69604058D01*
X136100348Y-69719020D01*
X135954020Y-69865348D01*
X135839058Y-70037402D01*
X135759869Y-70228581D01*
X135719500Y-70431532D01*
X134674500Y-70431532D01*
X134674500Y-67891532D01*
X135719500Y-67891532D01*
X135719500Y-68098467D01*
X135759869Y-68301418D01*
X135839058Y-68492597D01*
X135954020Y-68664651D01*
X135954023Y-68664655D01*
X136100345Y-68810977D01*
X136272402Y-68925941D01*
X136463580Y-69005130D01*
X136666535Y-69045500D01*
X136666536Y-69045500D01*
X136873464Y-69045500D01*
X136873465Y-69045500D01*
X137076420Y-69005130D01*
X137267598Y-68925941D01*
X137439655Y-68810977D01*
X137585977Y-68664655D01*
X137700941Y-68492598D01*
X137780130Y-68301420D01*
X137820500Y-68098465D01*
X137820500Y-67891535D01*
X137780130Y-67688580D01*
X137700941Y-67497402D01*
X137585977Y-67325345D01*
X137439655Y-67179023D01*
X137321388Y-67100000D01*
X137267597Y-67064058D01*
X137076418Y-66984869D01*
X136873467Y-66944500D01*
X136873465Y-66944500D01*
X136666535Y-66944500D01*
X136666532Y-66944500D01*
X136463581Y-66984869D01*
X136272402Y-67064058D01*
X136100348Y-67179020D01*
X135954020Y-67325348D01*
X135839058Y-67497402D01*
X135759869Y-67688581D01*
X135719500Y-67891532D01*
X134674500Y-67891532D01*
X134674500Y-66216479D01*
X134693407Y-66158288D01*
X134703496Y-66146475D01*
X135065475Y-65784496D01*
X135119992Y-65756719D01*
X135135479Y-65755500D01*
X135691268Y-65755500D01*
X135749459Y-65774407D01*
X135782732Y-65816614D01*
X135839058Y-65952597D01*
X135839059Y-65952598D01*
X135954023Y-66124655D01*
X136100345Y-66270977D01*
X136272402Y-66385941D01*
X136463580Y-66465130D01*
X136666535Y-66505500D01*
X136666536Y-66505500D01*
X136873464Y-66505500D01*
X136873465Y-66505500D01*
X137076420Y-66465130D01*
X137267598Y-66385941D01*
X137439655Y-66270977D01*
X137585977Y-66124655D01*
X137700941Y-65952598D01*
X137780130Y-65761420D01*
X137820500Y-65558465D01*
X137820500Y-65351535D01*
X137780130Y-65148580D01*
X137700941Y-64957402D01*
X137585977Y-64785345D01*
X137439655Y-64639023D01*
X137436349Y-64636814D01*
X137267597Y-64524058D01*
X137076418Y-64444869D01*
X136873467Y-64404500D01*
X136873465Y-64404500D01*
X136666535Y-64404500D01*
X136666532Y-64404500D01*
X136463581Y-64444869D01*
X136272402Y-64524058D01*
X136100348Y-64639020D01*
X135954020Y-64785348D01*
X135839058Y-64957402D01*
X135782732Y-65093386D01*
X135742995Y-65139912D01*
X135691268Y-65154500D01*
X134930435Y-65154500D01*
X134854011Y-65174978D01*
X134854007Y-65174980D01*
X134785489Y-65214539D01*
X134516503Y-65483525D01*
X134461987Y-65511302D01*
X134401555Y-65501731D01*
X134358290Y-65458466D01*
X134347500Y-65413521D01*
X134347500Y-63843479D01*
X134366407Y-63785288D01*
X134376496Y-63773475D01*
X135065475Y-63084496D01*
X135119992Y-63056719D01*
X135135479Y-63055500D01*
X135645619Y-63055500D01*
X135703810Y-63074407D01*
X135739774Y-63123907D01*
X135742717Y-63135186D01*
X135759869Y-63221418D01*
X135839058Y-63412597D01*
X135954020Y-63584651D01*
X135954023Y-63584655D01*
X136100345Y-63730977D01*
X136272402Y-63845941D01*
X136463580Y-63925130D01*
X136666535Y-63965500D01*
X136666536Y-63965500D01*
X136873464Y-63965500D01*
X136873465Y-63965500D01*
X137076420Y-63925130D01*
X137267598Y-63845941D01*
X137439655Y-63730977D01*
X137585977Y-63584655D01*
X137700941Y-63412598D01*
X137780130Y-63221420D01*
X137820500Y-63018465D01*
X137820500Y-62811535D01*
X137780130Y-62608580D01*
X137700941Y-62417402D01*
X137585977Y-62245345D01*
X137439655Y-62099023D01*
X137429276Y-62092088D01*
X137267597Y-61984058D01*
X137076418Y-61904869D01*
X136873467Y-61864500D01*
X136873465Y-61864500D01*
X136666535Y-61864500D01*
X136666532Y-61864500D01*
X136463581Y-61904869D01*
X136272402Y-61984058D01*
X136100348Y-62099020D01*
X135954020Y-62245348D01*
X135843670Y-62410501D01*
X135795620Y-62448381D01*
X135761354Y-62454500D01*
X134930435Y-62454500D01*
X134854011Y-62474978D01*
X134854007Y-62474980D01*
X134785491Y-62514538D01*
X134189504Y-63110525D01*
X134134987Y-63138302D01*
X134074555Y-63128731D01*
X134031290Y-63085466D01*
X134020500Y-63040521D01*
X134020500Y-60271532D01*
X135719500Y-60271532D01*
X135719500Y-60478467D01*
X135759869Y-60681418D01*
X135839058Y-60872597D01*
X135902008Y-60966809D01*
X135954023Y-61044655D01*
X136100345Y-61190977D01*
X136272402Y-61305941D01*
X136463580Y-61385130D01*
X136666535Y-61425500D01*
X136666536Y-61425500D01*
X136873464Y-61425500D01*
X136873465Y-61425500D01*
X137076420Y-61385130D01*
X137267598Y-61305941D01*
X137439655Y-61190977D01*
X137585977Y-61044655D01*
X137700941Y-60872598D01*
X137780130Y-60681420D01*
X137820500Y-60478465D01*
X137820500Y-60271535D01*
X137780130Y-60068580D01*
X137700941Y-59877402D01*
X137585977Y-59705345D01*
X137439655Y-59559023D01*
X137439651Y-59559020D01*
X137267597Y-59444058D01*
X137076418Y-59364869D01*
X136873467Y-59324500D01*
X136873465Y-59324500D01*
X136666535Y-59324500D01*
X136666532Y-59324500D01*
X136463581Y-59364869D01*
X136272402Y-59444058D01*
X136100348Y-59559020D01*
X135954020Y-59705348D01*
X135839058Y-59877402D01*
X135759869Y-60068581D01*
X135719500Y-60271532D01*
X134020500Y-60271532D01*
X134020500Y-56965299D01*
X135720000Y-56965299D01*
X135720000Y-57734999D01*
X135720001Y-57735000D01*
X136279157Y-57735000D01*
X136270000Y-57769174D01*
X136270000Y-57900826D01*
X136279157Y-57935000D01*
X135720001Y-57935000D01*
X135720000Y-57935001D01*
X135720000Y-58704700D01*
X135731603Y-58763036D01*
X135775806Y-58829189D01*
X135775810Y-58829193D01*
X135841963Y-58873396D01*
X135900299Y-58884999D01*
X135900303Y-58885000D01*
X136669999Y-58885000D01*
X136670000Y-58884999D01*
X136670000Y-58325842D01*
X136704174Y-58335000D01*
X136835826Y-58335000D01*
X136870000Y-58325842D01*
X136870000Y-58884999D01*
X136870001Y-58885000D01*
X137639697Y-58885000D01*
X137639700Y-58884999D01*
X137698036Y-58873396D01*
X137764189Y-58829193D01*
X137764193Y-58829189D01*
X137808396Y-58763036D01*
X137819999Y-58704700D01*
X137820000Y-58704697D01*
X137820000Y-57935001D01*
X137819999Y-57935000D01*
X137260843Y-57935000D01*
X137270000Y-57900826D01*
X137270000Y-57769174D01*
X137260843Y-57735000D01*
X137819999Y-57735000D01*
X137820000Y-57734999D01*
X137820000Y-56965302D01*
X137819999Y-56965299D01*
X137808396Y-56906963D01*
X137764193Y-56840810D01*
X137764189Y-56840806D01*
X137698036Y-56796603D01*
X137639700Y-56785000D01*
X136870001Y-56785000D01*
X136870000Y-56785001D01*
X136870000Y-57344157D01*
X136835826Y-57335000D01*
X136704174Y-57335000D01*
X136670000Y-57344157D01*
X136670000Y-56785001D01*
X136669999Y-56785000D01*
X135900299Y-56785000D01*
X135841963Y-56796603D01*
X135775810Y-56840806D01*
X135775806Y-56840810D01*
X135731603Y-56906963D01*
X135720000Y-56965299D01*
X134020500Y-56965299D01*
X134020500Y-53257611D01*
X134039407Y-53199420D01*
X134049496Y-53187607D01*
X135927608Y-51309496D01*
X135982125Y-51281719D01*
X135997612Y-51280500D01*
X142257389Y-51280500D01*
X142315580Y-51299407D01*
X142327393Y-51309496D01*
X143493503Y-52475607D01*
X143521280Y-52530124D01*
X143520597Y-52564925D01*
X143479500Y-52771532D01*
X143479500Y-52978467D01*
X143519869Y-53181418D01*
X143599058Y-53372597D01*
X143713805Y-53544329D01*
X143714023Y-53544655D01*
X143860345Y-53690977D01*
X144032402Y-53805941D01*
X144223580Y-53885130D01*
X144426535Y-53925500D01*
X144426536Y-53925500D01*
X144633464Y-53925500D01*
X144633465Y-53925500D01*
X144836420Y-53885130D01*
X145027598Y-53805941D01*
X145199655Y-53690977D01*
X145345977Y-53544655D01*
X145460941Y-53372598D01*
X145540130Y-53181420D01*
X145580500Y-52978465D01*
X145580500Y-52771581D01*
X146020000Y-52771581D01*
X146020000Y-52774999D01*
X146020001Y-52775000D01*
X146579157Y-52775000D01*
X146570000Y-52809174D01*
X146570000Y-52940826D01*
X146579157Y-52975000D01*
X146020001Y-52975000D01*
X146020000Y-52975001D01*
X146020000Y-52978418D01*
X146060349Y-53181272D01*
X146139501Y-53372360D01*
X146139508Y-53372374D01*
X146254405Y-53544329D01*
X146400670Y-53690594D01*
X146572625Y-53805491D01*
X146572639Y-53805498D01*
X146763727Y-53884650D01*
X146966581Y-53924999D01*
X146966586Y-53925000D01*
X146969999Y-53925000D01*
X146970000Y-53924999D01*
X146970000Y-53365842D01*
X147004174Y-53375000D01*
X147135826Y-53375000D01*
X147170000Y-53365842D01*
X147170000Y-53924999D01*
X147170001Y-53925000D01*
X147173414Y-53925000D01*
X147173418Y-53924999D01*
X147376272Y-53884650D01*
X147567360Y-53805498D01*
X147567374Y-53805491D01*
X147739329Y-53690594D01*
X147885594Y-53544329D01*
X148000491Y-53372374D01*
X148000498Y-53372360D01*
X148079650Y-53181272D01*
X148119999Y-52978418D01*
X148120000Y-52978413D01*
X148120000Y-52975001D01*
X148119999Y-52975000D01*
X147560843Y-52975000D01*
X147570000Y-52940826D01*
X147570000Y-52809174D01*
X147560843Y-52775000D01*
X148119999Y-52775000D01*
X148120000Y-52774999D01*
X148120000Y-52771585D01*
X148119999Y-52771582D01*
X148119989Y-52771532D01*
X148559500Y-52771532D01*
X148559500Y-52978467D01*
X148599869Y-53181418D01*
X148679058Y-53372597D01*
X148793805Y-53544329D01*
X148794023Y-53544655D01*
X148940345Y-53690977D01*
X149112402Y-53805941D01*
X149303580Y-53885130D01*
X149506535Y-53925500D01*
X149506536Y-53925500D01*
X149713464Y-53925500D01*
X149713465Y-53925500D01*
X149916420Y-53885130D01*
X150107598Y-53805941D01*
X150279655Y-53690977D01*
X150425977Y-53544655D01*
X150540941Y-53372598D01*
X150620130Y-53181420D01*
X150660500Y-52978465D01*
X150660500Y-52771535D01*
X150620130Y-52568580D01*
X150540941Y-52377402D01*
X150425977Y-52205345D01*
X150279655Y-52059023D01*
X150199182Y-52005253D01*
X151099500Y-52005253D01*
X151099500Y-53744746D01*
X151099501Y-53744758D01*
X151111132Y-53803227D01*
X151111134Y-53803233D01*
X151112944Y-53805942D01*
X151155448Y-53869552D01*
X151221769Y-53913867D01*
X151266231Y-53922711D01*
X151280241Y-53925498D01*
X151280246Y-53925498D01*
X151280252Y-53925500D01*
X151280253Y-53925500D01*
X153019747Y-53925500D01*
X153019748Y-53925500D01*
X153078231Y-53913867D01*
X153144552Y-53869552D01*
X153188867Y-53803231D01*
X153200500Y-53744748D01*
X153200500Y-52005252D01*
X153188867Y-51946769D01*
X153144552Y-51880448D01*
X153144548Y-51880445D01*
X153078233Y-51836134D01*
X153078231Y-51836133D01*
X153078228Y-51836132D01*
X153078227Y-51836132D01*
X153019758Y-51824501D01*
X153019748Y-51824500D01*
X151280252Y-51824500D01*
X151280251Y-51824500D01*
X151280241Y-51824501D01*
X151221772Y-51836132D01*
X151221766Y-51836134D01*
X151155451Y-51880445D01*
X151155445Y-51880451D01*
X151111134Y-51946766D01*
X151111132Y-51946772D01*
X151099501Y-52005241D01*
X151099500Y-52005253D01*
X150199182Y-52005253D01*
X150107597Y-51944058D01*
X149916418Y-51864869D01*
X149713467Y-51824500D01*
X149713465Y-51824500D01*
X149506535Y-51824500D01*
X149506532Y-51824500D01*
X149303581Y-51864869D01*
X149112402Y-51944058D01*
X148940348Y-52059020D01*
X148794020Y-52205348D01*
X148679058Y-52377402D01*
X148599869Y-52568581D01*
X148559500Y-52771532D01*
X148119989Y-52771532D01*
X148079650Y-52568727D01*
X148000498Y-52377639D01*
X148000491Y-52377625D01*
X147885594Y-52205670D01*
X147739329Y-52059405D01*
X147567374Y-51944508D01*
X147567360Y-51944501D01*
X147376272Y-51865349D01*
X147173418Y-51825000D01*
X147170001Y-51825000D01*
X147170000Y-51825001D01*
X147170000Y-52384157D01*
X147135826Y-52375000D01*
X147004174Y-52375000D01*
X146970000Y-52384157D01*
X146970000Y-51825001D01*
X146969999Y-51825000D01*
X146966581Y-51825000D01*
X146763727Y-51865349D01*
X146572639Y-51944501D01*
X146572625Y-51944508D01*
X146400670Y-52059405D01*
X146254405Y-52205670D01*
X146139508Y-52377625D01*
X146139501Y-52377639D01*
X146060349Y-52568727D01*
X146020000Y-52771581D01*
X145580500Y-52771581D01*
X145580500Y-52771535D01*
X145540130Y-52568580D01*
X145460941Y-52377402D01*
X145345977Y-52205345D01*
X145199655Y-52059023D01*
X145119182Y-52005253D01*
X145027597Y-51944058D01*
X144836418Y-51864869D01*
X144633467Y-51824500D01*
X144633465Y-51824500D01*
X144426535Y-51824500D01*
X144426532Y-51824500D01*
X144219925Y-51865597D01*
X144159164Y-51858405D01*
X144130607Y-51838503D01*
X144087613Y-51795509D01*
X142761614Y-50469511D01*
X142761611Y-50469509D01*
X142761610Y-50469508D01*
X142761609Y-50469507D01*
X142658890Y-50410202D01*
X142658886Y-50410200D01*
X142634673Y-50403712D01*
X142634673Y-50403713D01*
X142544309Y-50379500D01*
X135710691Y-50379500D01*
X135665508Y-50391606D01*
X135620325Y-50403713D01*
X135620324Y-50403712D01*
X135596115Y-50410200D01*
X135596113Y-50410200D01*
X135596113Y-50410201D01*
X135493391Y-50469507D01*
X135493386Y-50469510D01*
X133209508Y-52753389D01*
X133209507Y-52753390D01*
X133150200Y-52856112D01*
X133150200Y-52856113D01*
X133150201Y-52856114D01*
X133127503Y-52940826D01*
X133119500Y-52970692D01*
X133119500Y-59130575D01*
X133100593Y-59188766D01*
X133051093Y-59224730D01*
X132994878Y-59226202D01*
X132927561Y-59208165D01*
X132885892Y-59197000D01*
X132754108Y-59197000D01*
X132676200Y-59217875D01*
X132626809Y-59231109D01*
X132512690Y-59296996D01*
X132419496Y-59390190D01*
X132353609Y-59504309D01*
X132346492Y-59530871D01*
X132319500Y-59631608D01*
X132319500Y-59763392D01*
X132353608Y-59890686D01*
X132356234Y-59895235D01*
X132369500Y-59944738D01*
X132369500Y-71456309D01*
X132370623Y-71460499D01*
X132393300Y-71545131D01*
X132400199Y-71570882D01*
X132400203Y-71570892D01*
X132459507Y-71673609D01*
X132459509Y-71673611D01*
X132459511Y-71673614D01*
X132463505Y-71677608D01*
X132491281Y-71732123D01*
X132492500Y-71747610D01*
X132492500Y-72667677D01*
X132473593Y-72725868D01*
X132463504Y-72737681D01*
X124852681Y-80348504D01*
X124798164Y-80376281D01*
X124782677Y-80377500D01*
X100595611Y-80377500D01*
X100537420Y-80358593D01*
X100525607Y-80348504D01*
X100503374Y-80326271D01*
X100477751Y-80281887D01*
X100476392Y-80276815D01*
X100476392Y-80276814D01*
X100410500Y-80162686D01*
X100317314Y-80069500D01*
X100317311Y-80069498D01*
X100317309Y-80069496D01*
X100203189Y-80003609D01*
X100203191Y-80003609D01*
X100153799Y-79990375D01*
X100075892Y-79969500D01*
X99944108Y-79969500D01*
X99866200Y-79990375D01*
X99816809Y-80003609D01*
X99702690Y-80069496D01*
X99609496Y-80162690D01*
X99543609Y-80276809D01*
X99535382Y-80307515D01*
X99509500Y-80404108D01*
X99509500Y-80535892D01*
X99539579Y-80648151D01*
X99543609Y-80663190D01*
X99609496Y-80777309D01*
X99609498Y-80777311D01*
X99609500Y-80777314D01*
X99688684Y-80856498D01*
X99716460Y-80911013D01*
X99706889Y-80971445D01*
X99663624Y-81014710D01*
X99618679Y-81025500D01*
X81178612Y-81025500D01*
X81120421Y-81006593D01*
X81108608Y-80996504D01*
X80221608Y-80109504D01*
X80193831Y-80054987D01*
X80203402Y-79994555D01*
X80246667Y-79951290D01*
X80291612Y-79940500D01*
X82152761Y-79940500D01*
X82202258Y-79953761D01*
X82206814Y-79956392D01*
X82334108Y-79990500D01*
X82334110Y-79990500D01*
X82465890Y-79990500D01*
X82465892Y-79990500D01*
X82593186Y-79956392D01*
X82593188Y-79956390D01*
X82593190Y-79956390D01*
X82707309Y-79890503D01*
X82707309Y-79890502D01*
X82707314Y-79890500D01*
X82800500Y-79797314D01*
X82866392Y-79683186D01*
X82900500Y-79555892D01*
X82900500Y-79424108D01*
X82866392Y-79296814D01*
X82866390Y-79296811D01*
X82866390Y-79296809D01*
X82800503Y-79182690D01*
X82800501Y-79182688D01*
X82800500Y-79182686D01*
X82707314Y-79089500D01*
X82707311Y-79089498D01*
X82707309Y-79089496D01*
X82593189Y-79023609D01*
X82593191Y-79023609D01*
X82543799Y-79010375D01*
X82465892Y-78989500D01*
X82334108Y-78989500D01*
X82255719Y-79010504D01*
X82206813Y-79023608D01*
X82202259Y-79026238D01*
X82152761Y-79039500D01*
X80197611Y-79039500D01*
X80139420Y-79020593D01*
X80127607Y-79010504D01*
X72909496Y-71792393D01*
X72881719Y-71737876D01*
X72880500Y-71722389D01*
X72880500Y-70430692D01*
X72874955Y-70409999D01*
X72849799Y-70316114D01*
X72849799Y-70316113D01*
X72849799Y-70316112D01*
X72790492Y-70213390D01*
X72790490Y-70213388D01*
X72790489Y-70213386D01*
X72117356Y-69540253D01*
X73619500Y-69540253D01*
X73619500Y-71279746D01*
X73619501Y-71279758D01*
X73631132Y-71338227D01*
X73631134Y-71338233D01*
X73639651Y-71350979D01*
X73675448Y-71404552D01*
X73741769Y-71448867D01*
X73786231Y-71457711D01*
X73800241Y-71460498D01*
X73800246Y-71460498D01*
X73800252Y-71460500D01*
X73800253Y-71460500D01*
X75539747Y-71460500D01*
X75539748Y-71460500D01*
X75598231Y-71448867D01*
X75664552Y-71404552D01*
X75708867Y-71338231D01*
X75720500Y-71279748D01*
X75720500Y-70306532D01*
X76159500Y-70306532D01*
X76159500Y-70513467D01*
X76199869Y-70716418D01*
X76279058Y-70907597D01*
X76363256Y-71033609D01*
X76394023Y-71079655D01*
X76540345Y-71225977D01*
X76712402Y-71340941D01*
X76903580Y-71420130D01*
X77106535Y-71460500D01*
X77106536Y-71460500D01*
X77313464Y-71460500D01*
X77313465Y-71460500D01*
X77516420Y-71420130D01*
X77707598Y-71340941D01*
X77879655Y-71225977D01*
X78025977Y-71079655D01*
X78140941Y-70907598D01*
X78220130Y-70716420D01*
X78260500Y-70513465D01*
X78260500Y-70306535D01*
X78260499Y-70306532D01*
X78699500Y-70306532D01*
X78699500Y-70513467D01*
X78739869Y-70716418D01*
X78819058Y-70907597D01*
X78903256Y-71033609D01*
X78934023Y-71079655D01*
X79080345Y-71225977D01*
X79252402Y-71340941D01*
X79443580Y-71420130D01*
X79646535Y-71460500D01*
X79646536Y-71460500D01*
X79853464Y-71460500D01*
X79853465Y-71460500D01*
X80056420Y-71420130D01*
X80247598Y-71340941D01*
X80419655Y-71225977D01*
X80565977Y-71079655D01*
X80680941Y-70907598D01*
X80760130Y-70716420D01*
X80800500Y-70513465D01*
X80800500Y-70306581D01*
X81240000Y-70306581D01*
X81240000Y-70513418D01*
X81280349Y-70716272D01*
X81359501Y-70907360D01*
X81359508Y-70907374D01*
X81474405Y-71079329D01*
X81476826Y-71081750D01*
X81872210Y-70686365D01*
X81889901Y-70717007D01*
X81982993Y-70810099D01*
X82013632Y-70827788D01*
X81618249Y-71223173D01*
X81620670Y-71225594D01*
X81792625Y-71340491D01*
X81792639Y-71340498D01*
X81983727Y-71419650D01*
X82186581Y-71459999D01*
X82186586Y-71460000D01*
X82393414Y-71460000D01*
X82393418Y-71459999D01*
X82596272Y-71419650D01*
X82787360Y-71340498D01*
X82787366Y-71340495D01*
X82959333Y-71225591D01*
X82961750Y-71223173D01*
X82566366Y-70827789D01*
X82597007Y-70810099D01*
X82690099Y-70717007D01*
X82707789Y-70686366D01*
X83103173Y-71081750D01*
X83105591Y-71079333D01*
X83220495Y-70907366D01*
X83220498Y-70907360D01*
X83299650Y-70716272D01*
X83339999Y-70513418D01*
X83340000Y-70513413D01*
X83340000Y-70306586D01*
X83339999Y-70306581D01*
X83299650Y-70103727D01*
X83220498Y-69912639D01*
X83220491Y-69912625D01*
X83105594Y-69740670D01*
X83103173Y-69738249D01*
X82707788Y-70133632D01*
X82690099Y-70102993D01*
X82597007Y-70009901D01*
X82566365Y-69992210D01*
X82961750Y-69596826D01*
X82959329Y-69594405D01*
X82787374Y-69479508D01*
X82787360Y-69479501D01*
X82596272Y-69400349D01*
X82393418Y-69360000D01*
X82186581Y-69360000D01*
X81983727Y-69400349D01*
X81792639Y-69479501D01*
X81792630Y-69479505D01*
X81620665Y-69594410D01*
X81618248Y-69596825D01*
X82013633Y-69992210D01*
X81982993Y-70009901D01*
X81889901Y-70102993D01*
X81872210Y-70133633D01*
X81476825Y-69738248D01*
X81474410Y-69740665D01*
X81359505Y-69912630D01*
X81359501Y-69912639D01*
X81280349Y-70103727D01*
X81240000Y-70306581D01*
X80800500Y-70306581D01*
X80800500Y-70306535D01*
X80760130Y-70103580D01*
X80680941Y-69912402D01*
X80565977Y-69740345D01*
X80419655Y-69594023D01*
X80339182Y-69540253D01*
X80247597Y-69479058D01*
X80056418Y-69399869D01*
X79853467Y-69359500D01*
X79853465Y-69359500D01*
X79646535Y-69359500D01*
X79646532Y-69359500D01*
X79443581Y-69399869D01*
X79252402Y-69479058D01*
X79080348Y-69594020D01*
X78934020Y-69740348D01*
X78819058Y-69912402D01*
X78739869Y-70103581D01*
X78699500Y-70306532D01*
X78260499Y-70306532D01*
X78220130Y-70103580D01*
X78140941Y-69912402D01*
X78025977Y-69740345D01*
X77879655Y-69594023D01*
X77799182Y-69540253D01*
X77707597Y-69479058D01*
X77516418Y-69399869D01*
X77313467Y-69359500D01*
X77313465Y-69359500D01*
X77106535Y-69359500D01*
X77106532Y-69359500D01*
X76903581Y-69399869D01*
X76712402Y-69479058D01*
X76540348Y-69594020D01*
X76394020Y-69740348D01*
X76279058Y-69912402D01*
X76199869Y-70103581D01*
X76159500Y-70306532D01*
X75720500Y-70306532D01*
X75720500Y-69540252D01*
X75708867Y-69481769D01*
X75664552Y-69415448D01*
X75664548Y-69415445D01*
X75598233Y-69371134D01*
X75598231Y-69371133D01*
X75598228Y-69371132D01*
X75598227Y-69371132D01*
X75539758Y-69359501D01*
X75539748Y-69359500D01*
X73800252Y-69359500D01*
X73800251Y-69359500D01*
X73800241Y-69359501D01*
X73741772Y-69371132D01*
X73741766Y-69371134D01*
X73675451Y-69415445D01*
X73675445Y-69415451D01*
X73631134Y-69481766D01*
X73631132Y-69481772D01*
X73619501Y-69540241D01*
X73619500Y-69540253D01*
X72117356Y-69540253D01*
X71671614Y-69094511D01*
X71671611Y-69094509D01*
X71671609Y-69094507D01*
X71568890Y-69035202D01*
X71568888Y-69035201D01*
X71534973Y-69026113D01*
X71534973Y-69026114D01*
X71454309Y-69004500D01*
X68710691Y-69004500D01*
X68640567Y-69023289D01*
X68596109Y-69035202D01*
X68578276Y-69045499D01*
X68493388Y-69094509D01*
X67934507Y-69653390D01*
X67875200Y-69756112D01*
X67875200Y-69756113D01*
X67875201Y-69756114D01*
X67845933Y-69865345D01*
X67844500Y-69870692D01*
X67844500Y-70185500D01*
X67825593Y-70243691D01*
X67776093Y-70279655D01*
X67745500Y-70284500D01*
X67400252Y-70284500D01*
X67400251Y-70284500D01*
X67400241Y-70284501D01*
X67341772Y-70296132D01*
X67341766Y-70296134D01*
X67275451Y-70340445D01*
X67275445Y-70340451D01*
X67231134Y-70406766D01*
X67231132Y-70406772D01*
X67219501Y-70465241D01*
X67219500Y-70465253D01*
X67219500Y-72204746D01*
X67219501Y-72204758D01*
X67231132Y-72263227D01*
X67231134Y-72263233D01*
X67272821Y-72325621D01*
X67275448Y-72329552D01*
X67341769Y-72373867D01*
X67386231Y-72382711D01*
X67400241Y-72385498D01*
X67400246Y-72385498D01*
X67400252Y-72385500D01*
X67400253Y-72385500D01*
X69139747Y-72385500D01*
X69139748Y-72385500D01*
X69198231Y-72373867D01*
X69264552Y-72329552D01*
X69308867Y-72263231D01*
X69320500Y-72204748D01*
X69320500Y-70465252D01*
X69308867Y-70406769D01*
X69264552Y-70340448D01*
X69264548Y-70340445D01*
X69198233Y-70296134D01*
X69198231Y-70296133D01*
X69198228Y-70296132D01*
X69198227Y-70296132D01*
X69139758Y-70284501D01*
X69139748Y-70284500D01*
X69139747Y-70284500D01*
X68844500Y-70284500D01*
X68786309Y-70265593D01*
X68750345Y-70216093D01*
X68745500Y-70185500D01*
X68745500Y-70157611D01*
X68764407Y-70099420D01*
X68774496Y-70087607D01*
X68927607Y-69934496D01*
X68982124Y-69906719D01*
X68997611Y-69905500D01*
X71167389Y-69905500D01*
X71225580Y-69924407D01*
X71237393Y-69934496D01*
X71950504Y-70647607D01*
X71978281Y-70702124D01*
X71979500Y-70717611D01*
X71979500Y-70915627D01*
X71960593Y-70973818D01*
X71911093Y-71009782D01*
X71849907Y-71009782D01*
X71800407Y-70973818D01*
X71789036Y-70953513D01*
X71740941Y-70837402D01*
X71625979Y-70665348D01*
X71625977Y-70665345D01*
X71479655Y-70519023D01*
X71471334Y-70513463D01*
X71307597Y-70404058D01*
X71116418Y-70324869D01*
X70913467Y-70284500D01*
X70913465Y-70284500D01*
X70706535Y-70284500D01*
X70706532Y-70284500D01*
X70503581Y-70324869D01*
X70312402Y-70404058D01*
X70140348Y-70519020D01*
X69994020Y-70665348D01*
X69879058Y-70837402D01*
X69799869Y-71028581D01*
X69759500Y-71231532D01*
X69759500Y-71438467D01*
X69799869Y-71641418D01*
X69879058Y-71832597D01*
X69994020Y-72004651D01*
X69994023Y-72004655D01*
X70140345Y-72150977D01*
X70312402Y-72265941D01*
X70503580Y-72345130D01*
X70706535Y-72385500D01*
X70706536Y-72385500D01*
X70913464Y-72385500D01*
X70913465Y-72385500D01*
X71116420Y-72345130D01*
X71116424Y-72345128D01*
X71120075Y-72344402D01*
X71180836Y-72351594D01*
X71209393Y-72371496D01*
X80321392Y-81483496D01*
X80349169Y-81538013D01*
X80339598Y-81598445D01*
X80296333Y-81641710D01*
X80251388Y-81652500D01*
X79285375Y-81652500D01*
X79227184Y-81633593D01*
X79215371Y-81623504D01*
X75701960Y-78110093D01*
X72177407Y-74585540D01*
X72177404Y-74585538D01*
X72108888Y-74545980D01*
X72108884Y-74545978D01*
X72032460Y-74525500D01*
X72032458Y-74525500D01*
X71926479Y-74525500D01*
X71868288Y-74506593D01*
X71856475Y-74496504D01*
X71785263Y-74425292D01*
X71757486Y-74370775D01*
X71763802Y-74317405D01*
X71820130Y-74181420D01*
X71860500Y-73978465D01*
X71860500Y-73771535D01*
X71820130Y-73568580D01*
X71740941Y-73377402D01*
X71625977Y-73205345D01*
X71479655Y-73059023D01*
X71307598Y-72944059D01*
X71307599Y-72944059D01*
X71307597Y-72944058D01*
X71116418Y-72864869D01*
X70913467Y-72824500D01*
X70913465Y-72824500D01*
X70706535Y-72824500D01*
X70706532Y-72824500D01*
X70503581Y-72864869D01*
X70312402Y-72944058D01*
X70140348Y-73059020D01*
X69994020Y-73205348D01*
X69879058Y-73377402D01*
X69799869Y-73568581D01*
X69759500Y-73771532D01*
X69759500Y-73978467D01*
X69799869Y-74181418D01*
X69879058Y-74372597D01*
X69968591Y-74506593D01*
X69994023Y-74544655D01*
X70132866Y-74683498D01*
X70160642Y-74738013D01*
X70151071Y-74798445D01*
X70107806Y-74841710D01*
X70062861Y-74852500D01*
X69713479Y-74852500D01*
X69655288Y-74833593D01*
X69643475Y-74823504D01*
X69245263Y-74425292D01*
X69217486Y-74370775D01*
X69223802Y-74317405D01*
X69280130Y-74181420D01*
X69320500Y-73978465D01*
X69320500Y-73771535D01*
X69280130Y-73568580D01*
X69200941Y-73377402D01*
X69085977Y-73205345D01*
X68939655Y-73059023D01*
X68767598Y-72944059D01*
X68767599Y-72944059D01*
X68767597Y-72944058D01*
X68576418Y-72864869D01*
X68373467Y-72824500D01*
X68373465Y-72824500D01*
X68166535Y-72824500D01*
X68166532Y-72824500D01*
X67963581Y-72864869D01*
X67772402Y-72944058D01*
X67600348Y-73059020D01*
X67454020Y-73205348D01*
X67339058Y-73377402D01*
X67259869Y-73568581D01*
X67219500Y-73771532D01*
X67219500Y-73978467D01*
X67259869Y-74181418D01*
X67339058Y-74372597D01*
X67428591Y-74506593D01*
X67454023Y-74544655D01*
X67600345Y-74690977D01*
X67772402Y-74805941D01*
X67963580Y-74885130D01*
X68166535Y-74925500D01*
X68166536Y-74925500D01*
X68373464Y-74925500D01*
X68373465Y-74925500D01*
X68576420Y-74885130D01*
X68712405Y-74828802D01*
X68773399Y-74824002D01*
X68820292Y-74850263D01*
X69307540Y-75337511D01*
X69307539Y-75337511D01*
X69363489Y-75393460D01*
X69432007Y-75433019D01*
X69432011Y-75433021D01*
X69508435Y-75453499D01*
X69508437Y-75453500D01*
X69508438Y-75453500D01*
X70046861Y-75453500D01*
X70105052Y-75472407D01*
X70141016Y-75521907D01*
X70141016Y-75583093D01*
X70116866Y-75622501D01*
X69994023Y-75745345D01*
X69994020Y-75745348D01*
X69879058Y-75917402D01*
X69799869Y-76108581D01*
X69759500Y-76311532D01*
X69759500Y-76518467D01*
X69799869Y-76721418D01*
X69879058Y-76912597D01*
X69879059Y-76912598D01*
X69994023Y-77084655D01*
X70119866Y-77210498D01*
X70147642Y-77265013D01*
X70138071Y-77325445D01*
X70094806Y-77368710D01*
X70049861Y-77379500D01*
X69710479Y-77379500D01*
X69652288Y-77360593D01*
X69640475Y-77350504D01*
X69248192Y-76958221D01*
X69220415Y-76903704D01*
X69226732Y-76850331D01*
X69280130Y-76721420D01*
X69320500Y-76518465D01*
X69320500Y-76311535D01*
X69280130Y-76108580D01*
X69200941Y-75917402D01*
X69085977Y-75745345D01*
X68939655Y-75599023D01*
X68915814Y-75583093D01*
X68767597Y-75484058D01*
X68576418Y-75404869D01*
X68373467Y-75364500D01*
X68373465Y-75364500D01*
X68166535Y-75364500D01*
X68166532Y-75364500D01*
X67963581Y-75404869D01*
X67772402Y-75484058D01*
X67600348Y-75599020D01*
X67454020Y-75745348D01*
X67339058Y-75917402D01*
X67259869Y-76108581D01*
X67219500Y-76311532D01*
X67219500Y-76518467D01*
X67259869Y-76721418D01*
X67339058Y-76912597D01*
X67339059Y-76912598D01*
X67454023Y-77084655D01*
X67600345Y-77230977D01*
X67772402Y-77345941D01*
X67963580Y-77425130D01*
X68166535Y-77465500D01*
X68166536Y-77465500D01*
X68373464Y-77465500D01*
X68373465Y-77465500D01*
X68576420Y-77425130D01*
X68719476Y-77365873D01*
X68780470Y-77361073D01*
X68827363Y-77387334D01*
X69304540Y-77864511D01*
X69304539Y-77864511D01*
X69360489Y-77920460D01*
X69429007Y-77960019D01*
X69429011Y-77960021D01*
X69505435Y-77980499D01*
X69505437Y-77980500D01*
X69505438Y-77980500D01*
X69584562Y-77980500D01*
X70060564Y-77980500D01*
X70118755Y-77999407D01*
X70154719Y-78048907D01*
X70154719Y-78110093D01*
X70138248Y-78136963D01*
X70138248Y-78141825D01*
X70533633Y-78537210D01*
X70502993Y-78554901D01*
X70409901Y-78647993D01*
X70392210Y-78678633D01*
X69996825Y-78283248D01*
X69994410Y-78285665D01*
X69879505Y-78457630D01*
X69879501Y-78457639D01*
X69800349Y-78648727D01*
X69760000Y-78851581D01*
X69760000Y-79058418D01*
X69800349Y-79261272D01*
X69879501Y-79452360D01*
X69879508Y-79452374D01*
X69994405Y-79624329D01*
X69996826Y-79626750D01*
X70392210Y-79231365D01*
X70409901Y-79262007D01*
X70502993Y-79355099D01*
X70533632Y-79372788D01*
X70138249Y-79768173D01*
X70140670Y-79770594D01*
X70312625Y-79885491D01*
X70312639Y-79885498D01*
X70503727Y-79964650D01*
X70706581Y-80004999D01*
X70706586Y-80005000D01*
X70913414Y-80005000D01*
X70913418Y-80004999D01*
X71116272Y-79964650D01*
X71307360Y-79885498D01*
X71307366Y-79885495D01*
X71479333Y-79770591D01*
X71481750Y-79768173D01*
X71086366Y-79372789D01*
X71117007Y-79355099D01*
X71210099Y-79262007D01*
X71227789Y-79231366D01*
X71623173Y-79626750D01*
X71625591Y-79624333D01*
X71740495Y-79452366D01*
X71740498Y-79452360D01*
X71819650Y-79261272D01*
X71859999Y-79058418D01*
X71860000Y-79058413D01*
X71860000Y-78851586D01*
X71859999Y-78851581D01*
X71819650Y-78648727D01*
X71740498Y-78457639D01*
X71740491Y-78457625D01*
X71625594Y-78285670D01*
X71623173Y-78283249D01*
X71227788Y-78678632D01*
X71210099Y-78647993D01*
X71117007Y-78554901D01*
X71086365Y-78537210D01*
X71481751Y-78141825D01*
X71481751Y-78134436D01*
X71461651Y-78094987D01*
X71471222Y-78034555D01*
X71514487Y-77991290D01*
X71559432Y-77980500D01*
X73294073Y-77980500D01*
X73352264Y-77999407D01*
X73364077Y-78009496D01*
X78365077Y-83010496D01*
X78392854Y-83065013D01*
X78383283Y-83125445D01*
X78340018Y-83168710D01*
X78295073Y-83179500D01*
X68073540Y-83179500D01*
X68066477Y-83179248D01*
X67863662Y-83164742D01*
X67849681Y-83162732D01*
X67654457Y-83120264D01*
X67640904Y-83116284D01*
X67453718Y-83046468D01*
X67440869Y-83040600D01*
X67265523Y-82944853D01*
X67253641Y-82937217D01*
X67093707Y-82817492D01*
X67083031Y-82808242D01*
X66941757Y-82666968D01*
X66932507Y-82656292D01*
X66812782Y-82496358D01*
X66805146Y-82484476D01*
X66772815Y-82425266D01*
X66709395Y-82309122D01*
X66703534Y-82296288D01*
X66633713Y-82109089D01*
X66629737Y-82095549D01*
X66587265Y-81900308D01*
X66585258Y-81886345D01*
X66570752Y-81683522D01*
X66570500Y-81676460D01*
X66570500Y-78851581D01*
X67220000Y-78851581D01*
X67220000Y-79058418D01*
X67260349Y-79261272D01*
X67339501Y-79452360D01*
X67339508Y-79452374D01*
X67454405Y-79624329D01*
X67456826Y-79626750D01*
X67852210Y-79231365D01*
X67869901Y-79262007D01*
X67962993Y-79355099D01*
X67993632Y-79372788D01*
X67598249Y-79768173D01*
X67600670Y-79770594D01*
X67772625Y-79885491D01*
X67772639Y-79885498D01*
X67963727Y-79964650D01*
X68166581Y-80004999D01*
X68166586Y-80005000D01*
X68373414Y-80005000D01*
X68373418Y-80004999D01*
X68576272Y-79964650D01*
X68767360Y-79885498D01*
X68767366Y-79885495D01*
X68939333Y-79770591D01*
X68941750Y-79768173D01*
X68546366Y-79372789D01*
X68577007Y-79355099D01*
X68670099Y-79262007D01*
X68687789Y-79231366D01*
X69083173Y-79626750D01*
X69085591Y-79624333D01*
X69200495Y-79452366D01*
X69200498Y-79452360D01*
X69279650Y-79261272D01*
X69319999Y-79058418D01*
X69320000Y-79058413D01*
X69320000Y-78851586D01*
X69319999Y-78851581D01*
X69279650Y-78648727D01*
X69200498Y-78457639D01*
X69200491Y-78457625D01*
X69085594Y-78285670D01*
X69083173Y-78283249D01*
X68687788Y-78678632D01*
X68670099Y-78647993D01*
X68577007Y-78554901D01*
X68546365Y-78537210D01*
X68941750Y-78141826D01*
X68939329Y-78139405D01*
X68767374Y-78024508D01*
X68767360Y-78024501D01*
X68576272Y-77945349D01*
X68373418Y-77905000D01*
X68166581Y-77905000D01*
X67963727Y-77945349D01*
X67772639Y-78024501D01*
X67772630Y-78024505D01*
X67600665Y-78139410D01*
X67598248Y-78141825D01*
X67993633Y-78537210D01*
X67962993Y-78554901D01*
X67869901Y-78647993D01*
X67852210Y-78678633D01*
X67456825Y-78283248D01*
X67454410Y-78285665D01*
X67339505Y-78457630D01*
X67339501Y-78457639D01*
X67260349Y-78648727D01*
X67220000Y-78851581D01*
X66570500Y-78851581D01*
X66570500Y-68254108D01*
X99649500Y-68254108D01*
X99649500Y-68385892D01*
X99678091Y-68492597D01*
X99683609Y-68513190D01*
X99749496Y-68627309D01*
X99749498Y-68627311D01*
X99749500Y-68627314D01*
X99842686Y-68720500D01*
X99842688Y-68720501D01*
X99842690Y-68720503D01*
X99956810Y-68786390D01*
X99956811Y-68786390D01*
X99956814Y-68786392D01*
X99961886Y-68787751D01*
X100006269Y-68813374D01*
X100197396Y-69004500D01*
X100373386Y-69180490D01*
X100476113Y-69239799D01*
X100500320Y-69246284D01*
X100500325Y-69246287D01*
X100500326Y-69246286D01*
X100590688Y-69270499D01*
X100590690Y-69270500D01*
X100590691Y-69270500D01*
X101909309Y-69270500D01*
X101999669Y-69246287D01*
X101999672Y-69246287D01*
X102012903Y-69242741D01*
X102023887Y-69239799D01*
X102126614Y-69180489D01*
X102952103Y-68355000D01*
X112390000Y-68355000D01*
X112714570Y-68677066D01*
X112742558Y-68731474D01*
X112733221Y-68791943D01*
X112714842Y-68817343D01*
X112639500Y-68892685D01*
X112639496Y-68892690D01*
X112573609Y-69006809D01*
X112563242Y-69045499D01*
X112539500Y-69134108D01*
X112539500Y-69265892D01*
X112573608Y-69393186D01*
X112576234Y-69397735D01*
X112589500Y-69447238D01*
X112589500Y-69999308D01*
X112604290Y-70054506D01*
X112604289Y-70054506D01*
X112620201Y-70113888D01*
X112620202Y-70113890D01*
X112679507Y-70216609D01*
X112679509Y-70216611D01*
X112679511Y-70216614D01*
X113683386Y-71220489D01*
X113723045Y-71243386D01*
X113786114Y-71279799D01*
X113900691Y-71310500D01*
X115327699Y-71310500D01*
X115385890Y-71329407D01*
X115397431Y-71339226D01*
X115630000Y-71570000D01*
X129900000Y-71500000D01*
X129976861Y-71438510D01*
X130034110Y-71416923D01*
X130093115Y-71433109D01*
X130108707Y-71445811D01*
X130306625Y-71643729D01*
X130332245Y-71688103D01*
X130333606Y-71693182D01*
X130333609Y-71693189D01*
X130399496Y-71807309D01*
X130399498Y-71807311D01*
X130399500Y-71807314D01*
X130492686Y-71900500D01*
X130492688Y-71900501D01*
X130492690Y-71900503D01*
X130606810Y-71966390D01*
X130606808Y-71966390D01*
X130606812Y-71966391D01*
X130606814Y-71966392D01*
X130734108Y-72000500D01*
X130734110Y-72000500D01*
X130865890Y-72000500D01*
X130865892Y-72000500D01*
X130993186Y-71966392D01*
X130993188Y-71966390D01*
X130993190Y-71966390D01*
X131107309Y-71900503D01*
X131107309Y-71900502D01*
X131107314Y-71900500D01*
X131200500Y-71807314D01*
X131266392Y-71693186D01*
X131300500Y-71565892D01*
X131300500Y-71434108D01*
X131266392Y-71306814D01*
X131266390Y-71306811D01*
X131266390Y-71306809D01*
X131200503Y-71192690D01*
X131200501Y-71192688D01*
X131200500Y-71192686D01*
X131107314Y-71099500D01*
X131107311Y-71099498D01*
X131107309Y-71099496D01*
X130993189Y-71033609D01*
X130993184Y-71033607D01*
X130988102Y-71032245D01*
X130943728Y-71006624D01*
X130832158Y-70895054D01*
X130804381Y-70840537D01*
X130813952Y-70780105D01*
X130840313Y-70747749D01*
X130900000Y-70700000D01*
X130832253Y-70638463D01*
X130300001Y-70155000D01*
X130300000Y-70155000D01*
X116448816Y-70155000D01*
X116390625Y-70136093D01*
X116381527Y-70128616D01*
X116337271Y-70087607D01*
X115564076Y-69371132D01*
X113851711Y-67784384D01*
X113821879Y-67730964D01*
X113820000Y-67711768D01*
X113820000Y-67080000D01*
X113819999Y-67080000D01*
X112400000Y-67099999D01*
X112390000Y-68355000D01*
X102952103Y-68355000D01*
X105777607Y-65529496D01*
X105832124Y-65501719D01*
X105847611Y-65500500D01*
X106839970Y-65500500D01*
X106930330Y-65476287D01*
X106930333Y-65476287D01*
X106943564Y-65472741D01*
X106954548Y-65469799D01*
X107042801Y-65418845D01*
X107057270Y-65410492D01*
X107057270Y-65410491D01*
X107057275Y-65410489D01*
X108380489Y-64087275D01*
X108439799Y-63984548D01*
X108449190Y-63949500D01*
X108470500Y-63869970D01*
X108470500Y-63687238D01*
X108483765Y-63637735D01*
X108486392Y-63633186D01*
X108520500Y-63505892D01*
X108520500Y-63374108D01*
X108486392Y-63246814D01*
X108486390Y-63246811D01*
X108486390Y-63246809D01*
X108420503Y-63132690D01*
X108420501Y-63132688D01*
X108420500Y-63132686D01*
X108327314Y-63039500D01*
X108327311Y-63039498D01*
X108327309Y-63039496D01*
X108213189Y-62973609D01*
X108213191Y-62973609D01*
X108131494Y-62951719D01*
X108085892Y-62939500D01*
X107954108Y-62939500D01*
X107908506Y-62951719D01*
X107826809Y-62973609D01*
X107712690Y-63039496D01*
X107619496Y-63132690D01*
X107553609Y-63246809D01*
X107544710Y-63280021D01*
X107519500Y-63374108D01*
X107519500Y-63505892D01*
X107529415Y-63542895D01*
X107540244Y-63583309D01*
X107537041Y-63644411D01*
X107514621Y-63678936D01*
X106623054Y-64570504D01*
X106568537Y-64598281D01*
X106553050Y-64599500D01*
X105560691Y-64599500D01*
X105515508Y-64611606D01*
X105470325Y-64623713D01*
X105470324Y-64623712D01*
X105446112Y-64630201D01*
X105446109Y-64630202D01*
X105343390Y-64689507D01*
X101692393Y-68340504D01*
X101637876Y-68368281D01*
X101622389Y-68369500D01*
X100877612Y-68369500D01*
X100819421Y-68350593D01*
X100807608Y-68340504D01*
X100643374Y-68176270D01*
X100617751Y-68131886D01*
X100616392Y-68126814D01*
X100600024Y-68098463D01*
X100550503Y-68012690D01*
X100550501Y-68012688D01*
X100550500Y-68012686D01*
X100457314Y-67919500D01*
X100457311Y-67919498D01*
X100457309Y-67919496D01*
X100343189Y-67853609D01*
X100343191Y-67853609D01*
X100293799Y-67840375D01*
X100215892Y-67819500D01*
X100084108Y-67819500D01*
X100006200Y-67840375D01*
X99956809Y-67853609D01*
X99842690Y-67919496D01*
X99749496Y-68012690D01*
X99683609Y-68126809D01*
X99683608Y-68126814D01*
X99649500Y-68254108D01*
X66570500Y-68254108D01*
X66570500Y-63720000D01*
X69201280Y-63720000D01*
X69710960Y-63720000D01*
X69700040Y-63760755D01*
X69700040Y-63879245D01*
X69710960Y-63920000D01*
X69201281Y-63920000D01*
X69236508Y-64097104D01*
X69236508Y-64097106D01*
X69308118Y-64269989D01*
X69308124Y-64270001D01*
X69412087Y-64425589D01*
X69412090Y-64425593D01*
X69544406Y-64557909D01*
X69544410Y-64557912D01*
X69699998Y-64661875D01*
X69700010Y-64661881D01*
X69872894Y-64733491D01*
X70056430Y-64769999D01*
X70056434Y-64770000D01*
X70649999Y-64770000D01*
X70650000Y-64769999D01*
X70650000Y-64270012D01*
X70850000Y-64270012D01*
X70850000Y-64769999D01*
X70850001Y-64770000D01*
X71443566Y-64770000D01*
X71443569Y-64769999D01*
X71627104Y-64733491D01*
X71627106Y-64733491D01*
X71799989Y-64661881D01*
X71800001Y-64661875D01*
X71955589Y-64557912D01*
X71955593Y-64557909D01*
X72087909Y-64425593D01*
X72087912Y-64425589D01*
X72191875Y-64270001D01*
X72191881Y-64269989D01*
X72263491Y-64097106D01*
X72263491Y-64097104D01*
X72298719Y-63920000D01*
X71789040Y-63920000D01*
X71799960Y-63879245D01*
X71799960Y-63760755D01*
X71789040Y-63720000D01*
X72298719Y-63720000D01*
X74861280Y-63720000D01*
X75370986Y-63720000D01*
X75360066Y-63760755D01*
X75360066Y-63879245D01*
X75370986Y-63920000D01*
X74861281Y-63920000D01*
X74896508Y-64097104D01*
X74896508Y-64097106D01*
X74968118Y-64269989D01*
X74968124Y-64270001D01*
X75072087Y-64425589D01*
X75072090Y-64425593D01*
X75204406Y-64557909D01*
X75204410Y-64557912D01*
X75359998Y-64661875D01*
X75360010Y-64661881D01*
X75532894Y-64733491D01*
X75716430Y-64769999D01*
X75716434Y-64770000D01*
X76609999Y-64770000D01*
X76610000Y-64769999D01*
X76610000Y-64270012D01*
X76810000Y-64270012D01*
X76810000Y-64769999D01*
X76810001Y-64770000D01*
X77703566Y-64770000D01*
X77703569Y-64769999D01*
X77887104Y-64733491D01*
X77887106Y-64733491D01*
X78059989Y-64661881D01*
X78060001Y-64661875D01*
X78176385Y-64584108D01*
X95695447Y-64584108D01*
X95695447Y-64715892D01*
X95708367Y-64764109D01*
X95729556Y-64843190D01*
X95795443Y-64957309D01*
X95795445Y-64957311D01*
X95795447Y-64957314D01*
X95888633Y-65050500D01*
X95888635Y-65050501D01*
X95888637Y-65050503D01*
X96002757Y-65116390D01*
X96002755Y-65116390D01*
X96002759Y-65116391D01*
X96002761Y-65116392D01*
X96130055Y-65150500D01*
X96130057Y-65150500D01*
X96261837Y-65150500D01*
X96261839Y-65150500D01*
X96389133Y-65116392D01*
X96389135Y-65116390D01*
X96389137Y-65116390D01*
X96503256Y-65050503D01*
X96503256Y-65050502D01*
X96503261Y-65050500D01*
X96596447Y-64957314D01*
X96614933Y-64925296D01*
X96662337Y-64843190D01*
X96662337Y-64843188D01*
X96662339Y-64843186D01*
X96696447Y-64715892D01*
X96696447Y-64584108D01*
X96662339Y-64456814D01*
X96662337Y-64456811D01*
X96662337Y-64456809D01*
X96596450Y-64342690D01*
X96596448Y-64342688D01*
X96596447Y-64342686D01*
X96525441Y-64271680D01*
X96497666Y-64217166D01*
X96496447Y-64201679D01*
X96496447Y-64030479D01*
X96515354Y-63972288D01*
X96564854Y-63936324D01*
X96621070Y-63934852D01*
X96626811Y-63936390D01*
X96626814Y-63936392D01*
X96754108Y-63970500D01*
X96754110Y-63970500D01*
X96885890Y-63970500D01*
X96885892Y-63970500D01*
X97013186Y-63936392D01*
X97013188Y-63936390D01*
X97013190Y-63936390D01*
X97127309Y-63870503D01*
X97127309Y-63870502D01*
X97127314Y-63870500D01*
X97184998Y-63812815D01*
X97239513Y-63785040D01*
X97299945Y-63794611D01*
X97325000Y-63812814D01*
X97372686Y-63860500D01*
X97372688Y-63860501D01*
X97372690Y-63860503D01*
X97486810Y-63926390D01*
X97486808Y-63926390D01*
X97486812Y-63926391D01*
X97486814Y-63926392D01*
X97614108Y-63960500D01*
X97614110Y-63960500D01*
X97745890Y-63960500D01*
X97745892Y-63960500D01*
X97873186Y-63926392D01*
X97873188Y-63926390D01*
X97873190Y-63926390D01*
X97987309Y-63860503D01*
X97987309Y-63860502D01*
X97987314Y-63860500D01*
X98080500Y-63767314D01*
X98087901Y-63754496D01*
X98146388Y-63653193D01*
X98146388Y-63653192D01*
X98146392Y-63653186D01*
X98146394Y-63653178D01*
X98147457Y-63650613D01*
X98148758Y-63649088D01*
X98149637Y-63647567D01*
X98149918Y-63647729D01*
X98187187Y-63604082D01*
X98246680Y-63589790D01*
X98303211Y-63613197D01*
X98324660Y-63638982D01*
X98329429Y-63647242D01*
X98329431Y-63647244D01*
X98329433Y-63647247D01*
X98422047Y-63739861D01*
X98449823Y-63794376D01*
X98440252Y-63854808D01*
X98401542Y-63895599D01*
X98297123Y-63955885D01*
X98203929Y-64049079D01*
X98138042Y-64163198D01*
X98138041Y-64163203D01*
X98103933Y-64290497D01*
X98103933Y-64422281D01*
X98109986Y-64444870D01*
X98138042Y-64549579D01*
X98203929Y-64663698D01*
X98203931Y-64663700D01*
X98203933Y-64663703D01*
X98297119Y-64756889D01*
X98297121Y-64756890D01*
X98297123Y-64756892D01*
X98411243Y-64822779D01*
X98411241Y-64822779D01*
X98411245Y-64822780D01*
X98411247Y-64822781D01*
X98538541Y-64856889D01*
X98538543Y-64856889D01*
X98573326Y-64856889D01*
X98631517Y-64875796D01*
X98667481Y-64925296D01*
X98668952Y-64981508D01*
X98649500Y-65054108D01*
X98649500Y-65185892D01*
X98662327Y-65233764D01*
X98683609Y-65313190D01*
X98749496Y-65427309D01*
X98749498Y-65427311D01*
X98749500Y-65427314D01*
X98842686Y-65520500D01*
X98842688Y-65520501D01*
X98842690Y-65520503D01*
X98956810Y-65586390D01*
X98956808Y-65586390D01*
X98956812Y-65586391D01*
X98956814Y-65586392D01*
X99084108Y-65620500D01*
X99084110Y-65620500D01*
X99215890Y-65620500D01*
X99215892Y-65620500D01*
X99343186Y-65586392D01*
X99343188Y-65586390D01*
X99343190Y-65586390D01*
X99457309Y-65520503D01*
X99457309Y-65520502D01*
X99457314Y-65520500D01*
X99550500Y-65427314D01*
X99550503Y-65427309D01*
X99616390Y-65313190D01*
X99616390Y-65313188D01*
X99616392Y-65313186D01*
X99650500Y-65185892D01*
X99650500Y-65054108D01*
X99616392Y-64926814D01*
X99616390Y-64926811D01*
X99616390Y-64926809D01*
X99603763Y-64904938D01*
X99590500Y-64855440D01*
X99590500Y-64764108D01*
X100019500Y-64764108D01*
X100019500Y-64895892D01*
X100042442Y-64981513D01*
X100053609Y-65023190D01*
X100119496Y-65137309D01*
X100119498Y-65137311D01*
X100119500Y-65137314D01*
X100212686Y-65230500D01*
X100212688Y-65230501D01*
X100212690Y-65230503D01*
X100326810Y-65296390D01*
X100326808Y-65296390D01*
X100326812Y-65296391D01*
X100326814Y-65296392D01*
X100454108Y-65330500D01*
X100454110Y-65330500D01*
X100585890Y-65330500D01*
X100585892Y-65330500D01*
X100713186Y-65296392D01*
X100713188Y-65296390D01*
X100713190Y-65296390D01*
X100821662Y-65233764D01*
X100871162Y-65220500D01*
X101833563Y-65220500D01*
X101833563Y-65220499D01*
X101909989Y-65200021D01*
X101978511Y-65160460D01*
X102034460Y-65104511D01*
X102415475Y-64723496D01*
X102469992Y-64695719D01*
X102485479Y-64694500D01*
X103732907Y-64694500D01*
X103732907Y-64694499D01*
X103809333Y-64674021D01*
X103877855Y-64634460D01*
X103933804Y-64578511D01*
X104757819Y-63754496D01*
X104812336Y-63726719D01*
X104827823Y-63725500D01*
X105836803Y-63725500D01*
X105836803Y-63725499D01*
X105913229Y-63705021D01*
X105981751Y-63665460D01*
X106037700Y-63609511D01*
X107493103Y-62154108D01*
X116529500Y-62154108D01*
X116529500Y-62285892D01*
X116556998Y-62388516D01*
X116563609Y-62413190D01*
X116629496Y-62527309D01*
X116629498Y-62527311D01*
X116629500Y-62527314D01*
X116722686Y-62620500D01*
X116722688Y-62620501D01*
X116722690Y-62620503D01*
X116836810Y-62686390D01*
X116836808Y-62686390D01*
X116836812Y-62686391D01*
X116836814Y-62686392D01*
X116964108Y-62720500D01*
X116964110Y-62720500D01*
X117064521Y-62720500D01*
X117122712Y-62739407D01*
X117134525Y-62749496D01*
X117625489Y-63240460D01*
X117625491Y-63240461D01*
X117625492Y-63240462D01*
X117625493Y-63240463D01*
X117694008Y-63280020D01*
X117694006Y-63280020D01*
X117694010Y-63280021D01*
X117694012Y-63280022D01*
X117770438Y-63300500D01*
X122011678Y-63300500D01*
X122069869Y-63319407D01*
X122081681Y-63329495D01*
X122112686Y-63360500D01*
X122112688Y-63360501D01*
X122112689Y-63360502D01*
X122112690Y-63360503D01*
X122226810Y-63426390D01*
X122226808Y-63426390D01*
X122226812Y-63426391D01*
X122226814Y-63426392D01*
X122354108Y-63460500D01*
X122354110Y-63460500D01*
X122485890Y-63460500D01*
X122485892Y-63460500D01*
X122613186Y-63426392D01*
X122613188Y-63426390D01*
X122613190Y-63426390D01*
X122727309Y-63360503D01*
X122727309Y-63360502D01*
X122727314Y-63360500D01*
X122758319Y-63329495D01*
X122812836Y-63301719D01*
X122828322Y-63300500D01*
X128439563Y-63300500D01*
X128439563Y-63300499D01*
X128515989Y-63280021D01*
X128584511Y-63240460D01*
X128640460Y-63184511D01*
X130060460Y-61764511D01*
X130076186Y-61737273D01*
X130100021Y-61695989D01*
X130120500Y-61619562D01*
X130120500Y-60648321D01*
X130139407Y-60590130D01*
X130149490Y-60578323D01*
X130220500Y-60507314D01*
X130286392Y-60393186D01*
X130320500Y-60265892D01*
X130320500Y-60134108D01*
X130286392Y-60006814D01*
X130286390Y-60006811D01*
X130286390Y-60006809D01*
X130220503Y-59892690D01*
X130220501Y-59892688D01*
X130220500Y-59892686D01*
X130127314Y-59799500D01*
X130127311Y-59799498D01*
X130127309Y-59799496D01*
X130013189Y-59733609D01*
X130013191Y-59733609D01*
X129963799Y-59720375D01*
X129885892Y-59699500D01*
X129754108Y-59699500D01*
X129676200Y-59720375D01*
X129626809Y-59733609D01*
X129512690Y-59799496D01*
X129419496Y-59892690D01*
X129353609Y-60006809D01*
X129347856Y-60028281D01*
X129319500Y-60134108D01*
X129319500Y-60265892D01*
X129334852Y-60323186D01*
X129353609Y-60393190D01*
X129419496Y-60507309D01*
X129419498Y-60507311D01*
X129419500Y-60507314D01*
X129490505Y-60578319D01*
X129518281Y-60632834D01*
X129519500Y-60648321D01*
X129519500Y-61414521D01*
X129500593Y-61472712D01*
X129490504Y-61484525D01*
X128304525Y-62670504D01*
X128250008Y-62698281D01*
X128234521Y-62699500D01*
X122904685Y-62699500D01*
X122846494Y-62680593D01*
X122825367Y-62657127D01*
X122824449Y-62657832D01*
X122820505Y-62652692D01*
X122820501Y-62652688D01*
X122820500Y-62652686D01*
X122727314Y-62559500D01*
X122727311Y-62559498D01*
X122727309Y-62559496D01*
X122613189Y-62493609D01*
X122613191Y-62493609D01*
X122563799Y-62480375D01*
X122485892Y-62459500D01*
X122354108Y-62459500D01*
X122276200Y-62480375D01*
X122226809Y-62493609D01*
X122112690Y-62559496D01*
X122019494Y-62652692D01*
X122015551Y-62657832D01*
X122013822Y-62656505D01*
X121975590Y-62690937D01*
X121935315Y-62699500D01*
X117975479Y-62699500D01*
X117917288Y-62680593D01*
X117905475Y-62670504D01*
X117559496Y-62324525D01*
X117531719Y-62270008D01*
X117530500Y-62254521D01*
X117530500Y-62154109D01*
X117530500Y-62154108D01*
X117496392Y-62026814D01*
X117496390Y-62026811D01*
X117496390Y-62026809D01*
X117430503Y-61912690D01*
X117430501Y-61912688D01*
X117430500Y-61912686D01*
X117337314Y-61819500D01*
X117337311Y-61819498D01*
X117337309Y-61819496D01*
X117223189Y-61753609D01*
X117223191Y-61753609D01*
X117162222Y-61737273D01*
X117095892Y-61719500D01*
X116964108Y-61719500D01*
X116897778Y-61737273D01*
X116836809Y-61753609D01*
X116722690Y-61819496D01*
X116629496Y-61912690D01*
X116563609Y-62026809D01*
X116549516Y-62079406D01*
X116529500Y-62154108D01*
X107493103Y-62154108D01*
X109417715Y-60229496D01*
X109472232Y-60201719D01*
X109487719Y-60200500D01*
X122709563Y-60200500D01*
X122709563Y-60200499D01*
X122785989Y-60180021D01*
X122854511Y-60140460D01*
X122910460Y-60084511D01*
X126314770Y-56680199D01*
X126369285Y-56652424D01*
X126429717Y-56661995D01*
X126434140Y-56664769D01*
X126434301Y-56664491D01*
X126554045Y-56733625D01*
X126554043Y-56733625D01*
X126554047Y-56733626D01*
X126554049Y-56733627D01*
X126681343Y-56767735D01*
X126681345Y-56767735D01*
X126813125Y-56767735D01*
X126813127Y-56767735D01*
X126940421Y-56733627D01*
X126940423Y-56733625D01*
X126940425Y-56733625D01*
X127054544Y-56667738D01*
X127054544Y-56667737D01*
X127054549Y-56667735D01*
X127147735Y-56574549D01*
X127177678Y-56522686D01*
X127213625Y-56460425D01*
X127213625Y-56460423D01*
X127213627Y-56460421D01*
X127247735Y-56333127D01*
X127247735Y-56201343D01*
X127213627Y-56074049D01*
X127213625Y-56074046D01*
X127213625Y-56074044D01*
X127147738Y-55959925D01*
X127147736Y-55959923D01*
X127147735Y-55959921D01*
X127054549Y-55866735D01*
X127054546Y-55866733D01*
X127054544Y-55866731D01*
X126940424Y-55800844D01*
X126940426Y-55800844D01*
X126891034Y-55787610D01*
X126813127Y-55766735D01*
X126699500Y-55766735D01*
X126641309Y-55747828D01*
X126605345Y-55698328D01*
X126600500Y-55667735D01*
X126600500Y-55574109D01*
X126599728Y-55571226D01*
X126566392Y-55446814D01*
X126566390Y-55446811D01*
X126566390Y-55446809D01*
X126500503Y-55332690D01*
X126500501Y-55332688D01*
X126500500Y-55332686D01*
X126407314Y-55239500D01*
X126407311Y-55239498D01*
X126407309Y-55239496D01*
X126293189Y-55173609D01*
X126293191Y-55173609D01*
X126243799Y-55160375D01*
X126165892Y-55139500D01*
X126034108Y-55139500D01*
X125956200Y-55160375D01*
X125906809Y-55173609D01*
X125792690Y-55239496D01*
X125699498Y-55332688D01*
X125674087Y-55376701D01*
X125628617Y-55417641D01*
X125567767Y-55424036D01*
X125538851Y-55412936D01*
X125513189Y-55398120D01*
X125513191Y-55398120D01*
X125463799Y-55384886D01*
X125385892Y-55364011D01*
X125254108Y-55364011D01*
X125176200Y-55384886D01*
X125126809Y-55398120D01*
X125012690Y-55464007D01*
X124919496Y-55557201D01*
X124853609Y-55671320D01*
X124844993Y-55703478D01*
X124819500Y-55798619D01*
X124819500Y-55930403D01*
X124841795Y-56013608D01*
X124853609Y-56057701D01*
X124919498Y-56171824D01*
X124922571Y-56175828D01*
X124942995Y-56233504D01*
X124925617Y-56292169D01*
X124914033Y-56306099D01*
X124828276Y-56391856D01*
X124773759Y-56419633D01*
X124713327Y-56410062D01*
X124670062Y-56366797D01*
X124662647Y-56347479D01*
X124646392Y-56286814D01*
X124617187Y-56236229D01*
X124580503Y-56172690D01*
X124580501Y-56172688D01*
X124580500Y-56172686D01*
X124487314Y-56079500D01*
X124487311Y-56079498D01*
X124487309Y-56079496D01*
X124373189Y-56013609D01*
X124373191Y-56013609D01*
X124323799Y-56000375D01*
X124245892Y-55979500D01*
X124114108Y-55979500D01*
X124036200Y-56000375D01*
X123986809Y-56013609D01*
X123872690Y-56079496D01*
X123779496Y-56172690D01*
X123713609Y-56286810D01*
X123713607Y-56286814D01*
X123690915Y-56371501D01*
X123657591Y-56422815D01*
X123600469Y-56444741D01*
X123569667Y-56441504D01*
X123495691Y-56421683D01*
X123471627Y-56415235D01*
X123339843Y-56415235D01*
X123227574Y-56445316D01*
X123166474Y-56442114D01*
X123118924Y-56403609D01*
X123116229Y-56399211D01*
X123060500Y-56302686D01*
X122967314Y-56209500D01*
X122967311Y-56209498D01*
X122967309Y-56209496D01*
X122853189Y-56143609D01*
X122853191Y-56143609D01*
X122803799Y-56130375D01*
X122725892Y-56109500D01*
X122594108Y-56109500D01*
X122516200Y-56130375D01*
X122466809Y-56143609D01*
X122352690Y-56209496D01*
X122259496Y-56302690D01*
X122193609Y-56416809D01*
X122179253Y-56470389D01*
X122159500Y-56544108D01*
X122159500Y-56675892D01*
X122174970Y-56733627D01*
X122193609Y-56803190D01*
X122260961Y-56919846D01*
X122273683Y-56979694D01*
X122248796Y-57035590D01*
X122245229Y-57039349D01*
X121349077Y-57935503D01*
X121294560Y-57963281D01*
X121279073Y-57964500D01*
X108605435Y-57964500D01*
X108529012Y-57984978D01*
X108467556Y-58020460D01*
X108467555Y-58020460D01*
X108460492Y-58024537D01*
X105024525Y-61460504D01*
X104970008Y-61488281D01*
X104954521Y-61489500D01*
X103608321Y-61489500D01*
X103550130Y-61470593D01*
X103538323Y-61460509D01*
X103467314Y-61389500D01*
X103467311Y-61389498D01*
X103467309Y-61389496D01*
X103353189Y-61323609D01*
X103353191Y-61323609D01*
X103287251Y-61305941D01*
X103225892Y-61289500D01*
X103094108Y-61289500D01*
X103032749Y-61305941D01*
X102966809Y-61323609D01*
X102852690Y-61389496D01*
X102759496Y-61482690D01*
X102693609Y-61596809D01*
X102678636Y-61652689D01*
X102659500Y-61724108D01*
X102659500Y-61855892D01*
X102693608Y-61983185D01*
X102693609Y-61983188D01*
X102693610Y-61983190D01*
X102695371Y-61986241D01*
X102695894Y-61988706D01*
X102696091Y-61989180D01*
X102696003Y-61989216D01*
X102708089Y-62046090D01*
X102683200Y-62101984D01*
X102659133Y-62121472D01*
X102555673Y-62181205D01*
X102462481Y-62274397D01*
X102396594Y-62388516D01*
X102389984Y-62413186D01*
X102365884Y-62503132D01*
X102362485Y-62515816D01*
X102362485Y-62540500D01*
X102343578Y-62598691D01*
X102294078Y-62634655D01*
X102263485Y-62639500D01*
X102224108Y-62639500D01*
X102146200Y-62660375D01*
X102096809Y-62673609D01*
X101982690Y-62739496D01*
X101889496Y-62832690D01*
X101823609Y-62946809D01*
X101819642Y-62961616D01*
X101789500Y-63074108D01*
X101789500Y-63074111D01*
X101788961Y-63076123D01*
X101755637Y-63127437D01*
X101698516Y-63149364D01*
X101693334Y-63149500D01*
X101594108Y-63149500D01*
X101544897Y-63162686D01*
X101466809Y-63183609D01*
X101352690Y-63249496D01*
X101259496Y-63342690D01*
X101193609Y-63456809D01*
X101166165Y-63559234D01*
X101132841Y-63610549D01*
X101075719Y-63632475D01*
X101052366Y-63630022D01*
X101052324Y-63630347D01*
X101045892Y-63629500D01*
X100914108Y-63629500D01*
X100846076Y-63647729D01*
X100786809Y-63663609D01*
X100672690Y-63729496D01*
X100579496Y-63822690D01*
X100513609Y-63936809D01*
X100479500Y-64064109D01*
X100479500Y-64195891D01*
X100485578Y-64218576D01*
X100482375Y-64279678D01*
X100443869Y-64327227D01*
X100415574Y-64339825D01*
X100326809Y-64363609D01*
X100212690Y-64429496D01*
X100119496Y-64522690D01*
X100053609Y-64636809D01*
X100039489Y-64689507D01*
X100019500Y-64764108D01*
X99590500Y-64764108D01*
X99590500Y-64415478D01*
X99609407Y-64357287D01*
X99619490Y-64345480D01*
X99997460Y-63967511D01*
X100016316Y-63934852D01*
X100037020Y-63898992D01*
X100037020Y-63898990D01*
X100037022Y-63898988D01*
X100057500Y-63822562D01*
X100057500Y-63743438D01*
X100057500Y-62162190D01*
X100076407Y-62103999D01*
X100086496Y-62092186D01*
X100890496Y-61288186D01*
X100945013Y-61260409D01*
X101005445Y-61269980D01*
X101048710Y-61313245D01*
X101059500Y-61358190D01*
X101059500Y-61415892D01*
X101079223Y-61489500D01*
X101093609Y-61543190D01*
X101159496Y-61657309D01*
X101159498Y-61657311D01*
X101159500Y-61657314D01*
X101252686Y-61750500D01*
X101252688Y-61750501D01*
X101252690Y-61750503D01*
X101366810Y-61816390D01*
X101366808Y-61816390D01*
X101366812Y-61816391D01*
X101366814Y-61816392D01*
X101494108Y-61850500D01*
X101494110Y-61850500D01*
X101625890Y-61850500D01*
X101625892Y-61850500D01*
X101753186Y-61816392D01*
X101753188Y-61816390D01*
X101753190Y-61816390D01*
X101867309Y-61750503D01*
X101867309Y-61750502D01*
X101867314Y-61750500D01*
X101960500Y-61657314D01*
X102026392Y-61543186D01*
X102035072Y-61510786D01*
X102060694Y-61466407D01*
X102305608Y-61221496D01*
X102360125Y-61193719D01*
X102375611Y-61192500D01*
X102684129Y-61192500D01*
X102774489Y-61168287D01*
X102774492Y-61168287D01*
X102787723Y-61164741D01*
X102798707Y-61161799D01*
X102901434Y-61102489D01*
X103814427Y-60189496D01*
X103868944Y-60161719D01*
X103884431Y-60160500D01*
X104102761Y-60160500D01*
X104152258Y-60173761D01*
X104156814Y-60176392D01*
X104284108Y-60210500D01*
X104284110Y-60210500D01*
X104415890Y-60210500D01*
X104415892Y-60210500D01*
X104543186Y-60176392D01*
X104543188Y-60176390D01*
X104543190Y-60176390D01*
X104657309Y-60110503D01*
X104657309Y-60110502D01*
X104657314Y-60110500D01*
X104750500Y-60017314D01*
X104750503Y-60017309D01*
X104816390Y-59903190D01*
X104816390Y-59903188D01*
X104816392Y-59903186D01*
X104850500Y-59775892D01*
X104850500Y-59644108D01*
X104816392Y-59516814D01*
X104816390Y-59516811D01*
X104816390Y-59516809D01*
X104750503Y-59402690D01*
X104750501Y-59402688D01*
X104750500Y-59402686D01*
X104657314Y-59309500D01*
X104657311Y-59309498D01*
X104657309Y-59309496D01*
X104543189Y-59243609D01*
X104543191Y-59243609D01*
X104478225Y-59226202D01*
X104415892Y-59209500D01*
X104284108Y-59209500D01*
X104221775Y-59226202D01*
X104156813Y-59243608D01*
X104152259Y-59246238D01*
X104102761Y-59259500D01*
X104096719Y-59259500D01*
X104038528Y-59240593D01*
X104002564Y-59191093D01*
X104002564Y-59129907D01*
X104026715Y-59090496D01*
X106252715Y-56864496D01*
X106307232Y-56836719D01*
X106322719Y-56835500D01*
X108424673Y-56835500D01*
X108482864Y-56854407D01*
X108518828Y-56903907D01*
X108520298Y-56908870D01*
X108523239Y-56919846D01*
X108553609Y-57033190D01*
X108619496Y-57147309D01*
X108619498Y-57147311D01*
X108619500Y-57147314D01*
X108712686Y-57240500D01*
X108712688Y-57240501D01*
X108712690Y-57240503D01*
X108826810Y-57306390D01*
X108826808Y-57306390D01*
X108826812Y-57306391D01*
X108826814Y-57306392D01*
X108954108Y-57340500D01*
X108954110Y-57340500D01*
X109085890Y-57340500D01*
X109085892Y-57340500D01*
X109213186Y-57306392D01*
X109213188Y-57306390D01*
X109213190Y-57306390D01*
X109327309Y-57240503D01*
X109327309Y-57240502D01*
X109327314Y-57240500D01*
X109399998Y-57167815D01*
X109454513Y-57140040D01*
X109514945Y-57149611D01*
X109540000Y-57167814D01*
X109612686Y-57240500D01*
X109612688Y-57240501D01*
X109612690Y-57240503D01*
X109726810Y-57306390D01*
X109726808Y-57306390D01*
X109726812Y-57306391D01*
X109726814Y-57306392D01*
X109854108Y-57340500D01*
X109854110Y-57340500D01*
X109985890Y-57340500D01*
X109985892Y-57340500D01*
X110113186Y-57306392D01*
X110113188Y-57306390D01*
X110113190Y-57306390D01*
X110227309Y-57240503D01*
X110227309Y-57240502D01*
X110227314Y-57240500D01*
X110304998Y-57162815D01*
X110359513Y-57135040D01*
X110419945Y-57144611D01*
X110445000Y-57162814D01*
X110512686Y-57230500D01*
X110512688Y-57230501D01*
X110512690Y-57230503D01*
X110626810Y-57296390D01*
X110626808Y-57296390D01*
X110626812Y-57296391D01*
X110626814Y-57296392D01*
X110754108Y-57330500D01*
X110754110Y-57330500D01*
X110885890Y-57330500D01*
X110885892Y-57330500D01*
X111013186Y-57296392D01*
X111013188Y-57296390D01*
X111013190Y-57296390D01*
X111127309Y-57230503D01*
X111127309Y-57230502D01*
X111127314Y-57230500D01*
X111220500Y-57137314D01*
X111220501Y-57137311D01*
X111224996Y-57132817D01*
X111279513Y-57105040D01*
X111339945Y-57114611D01*
X111365000Y-57132814D01*
X111432686Y-57200500D01*
X111432688Y-57200501D01*
X111432690Y-57200503D01*
X111546810Y-57266390D01*
X111546808Y-57266390D01*
X111546812Y-57266391D01*
X111546814Y-57266392D01*
X111674108Y-57300500D01*
X111674110Y-57300500D01*
X111805890Y-57300500D01*
X111805892Y-57300500D01*
X111933186Y-57266392D01*
X111933188Y-57266390D01*
X111933190Y-57266390D01*
X112047309Y-57200503D01*
X112047309Y-57200502D01*
X112047314Y-57200500D01*
X112119998Y-57127815D01*
X112174513Y-57100040D01*
X112234945Y-57109611D01*
X112260000Y-57127814D01*
X112312686Y-57180500D01*
X112312688Y-57180501D01*
X112312690Y-57180503D01*
X112426810Y-57246390D01*
X112426808Y-57246390D01*
X112426812Y-57246391D01*
X112426814Y-57246392D01*
X112554108Y-57280500D01*
X112554110Y-57280500D01*
X112685890Y-57280500D01*
X112685892Y-57280500D01*
X112813186Y-57246392D01*
X112813188Y-57246390D01*
X112813190Y-57246390D01*
X112927309Y-57180503D01*
X112927309Y-57180502D01*
X112927314Y-57180500D01*
X112957997Y-57149816D01*
X113012510Y-57122041D01*
X113072942Y-57131612D01*
X113098001Y-57149817D01*
X113130685Y-57182501D01*
X113130687Y-57182502D01*
X113130688Y-57182503D01*
X113130689Y-57182504D01*
X113244809Y-57248391D01*
X113244807Y-57248391D01*
X113244811Y-57248392D01*
X113244813Y-57248393D01*
X113372107Y-57282501D01*
X113372109Y-57282501D01*
X113503889Y-57282501D01*
X113503891Y-57282501D01*
X113631185Y-57248393D01*
X113631187Y-57248391D01*
X113631189Y-57248391D01*
X113745308Y-57182504D01*
X113745308Y-57182503D01*
X113745313Y-57182501D01*
X113838499Y-57089315D01*
X113844166Y-57079500D01*
X113904389Y-56975191D01*
X113904389Y-56975189D01*
X113904391Y-56975187D01*
X113938499Y-56847893D01*
X113938499Y-56716109D01*
X113904391Y-56588815D01*
X113904389Y-56588812D01*
X113904389Y-56588810D01*
X113838502Y-56474691D01*
X113838500Y-56474689D01*
X113838499Y-56474687D01*
X113767493Y-56403681D01*
X113739718Y-56349167D01*
X113738499Y-56333680D01*
X113738499Y-55498436D01*
X113738498Y-55498434D01*
X113718020Y-55422010D01*
X113718018Y-55422006D01*
X113678459Y-55353488D01*
X113622510Y-55297538D01*
X113622510Y-55297539D01*
X112984511Y-54659540D01*
X112939597Y-54633609D01*
X112939594Y-54633607D01*
X112939593Y-54633607D01*
X112915988Y-54619978D01*
X112839564Y-54599500D01*
X112839562Y-54599500D01*
X105289562Y-54599500D01*
X105210438Y-54599500D01*
X105163661Y-54612033D01*
X105134007Y-54619979D01*
X105065493Y-54659536D01*
X101424525Y-58300504D01*
X101370008Y-58328281D01*
X101354521Y-58329500D01*
X100851033Y-58329500D01*
X100771909Y-58329500D01*
X100725132Y-58342033D01*
X100695478Y-58349979D01*
X100626964Y-58389536D01*
X96011436Y-63005064D01*
X96011435Y-63005063D01*
X95955486Y-63061013D01*
X95915927Y-63129531D01*
X95915925Y-63129535D01*
X95895447Y-63205959D01*
X95895447Y-64201679D01*
X95876540Y-64259870D01*
X95866456Y-64271676D01*
X95814947Y-64323186D01*
X95795444Y-64342689D01*
X95795443Y-64342690D01*
X95729556Y-64456809D01*
X95729555Y-64456814D01*
X95695447Y-64584108D01*
X78176385Y-64584108D01*
X78215589Y-64557912D01*
X78215593Y-64557909D01*
X78265888Y-64507615D01*
X78347909Y-64425593D01*
X78347912Y-64425589D01*
X78451875Y-64270001D01*
X78451881Y-64269989D01*
X78523491Y-64097106D01*
X78523491Y-64097104D01*
X78558719Y-63920000D01*
X78049014Y-63920000D01*
X78059934Y-63879245D01*
X78059934Y-63760755D01*
X78049014Y-63720000D01*
X78558719Y-63720000D01*
X78523491Y-63542895D01*
X78523491Y-63542893D01*
X78462441Y-63395504D01*
X78451881Y-63370010D01*
X78451875Y-63369998D01*
X78447939Y-63364108D01*
X82049500Y-63364108D01*
X82049500Y-63495892D01*
X82072923Y-63583309D01*
X82083609Y-63623190D01*
X82149496Y-63737309D01*
X82149498Y-63737311D01*
X82149500Y-63737314D01*
X82242686Y-63830500D01*
X82242688Y-63830501D01*
X82242690Y-63830503D01*
X82356810Y-63896390D01*
X82356808Y-63896390D01*
X82356812Y-63896391D01*
X82356814Y-63896392D01*
X82484108Y-63930500D01*
X82484110Y-63930500D01*
X82615890Y-63930500D01*
X82615892Y-63930500D01*
X82743186Y-63896392D01*
X82743188Y-63896390D01*
X82743190Y-63896390D01*
X82857309Y-63830503D01*
X82857309Y-63830502D01*
X82857314Y-63830500D01*
X82879998Y-63807815D01*
X82934513Y-63780040D01*
X82994945Y-63789611D01*
X83020000Y-63807814D01*
X83042686Y-63830500D01*
X83042688Y-63830501D01*
X83042690Y-63830503D01*
X83156810Y-63896390D01*
X83156808Y-63896390D01*
X83156812Y-63896391D01*
X83156814Y-63896392D01*
X83284108Y-63930500D01*
X83284110Y-63930500D01*
X83415890Y-63930500D01*
X83415892Y-63930500D01*
X83543186Y-63896392D01*
X83543188Y-63896390D01*
X83543190Y-63896390D01*
X83657309Y-63830503D01*
X83657309Y-63830502D01*
X83657314Y-63830500D01*
X83750500Y-63737314D01*
X83754159Y-63730977D01*
X83816390Y-63623190D01*
X83816390Y-63623188D01*
X83816392Y-63623186D01*
X83850500Y-63495892D01*
X83850500Y-63364108D01*
X83816392Y-63236814D01*
X83816391Y-63236812D01*
X83814712Y-63230546D01*
X83816775Y-63229993D01*
X83812728Y-63178559D01*
X83838989Y-63131667D01*
X83909644Y-63061013D01*
X83991161Y-62979496D01*
X84045677Y-62951719D01*
X84061164Y-62950500D01*
X86122407Y-62950500D01*
X86122407Y-62950499D01*
X86198833Y-62930021D01*
X86267355Y-62890460D01*
X86323304Y-62834511D01*
X87068320Y-62089495D01*
X87122837Y-62061718D01*
X87138324Y-62060499D01*
X88099419Y-62060499D01*
X88157610Y-62079406D01*
X88193574Y-62128906D01*
X88195040Y-62133858D01*
X88200219Y-62153185D01*
X88200220Y-62153188D01*
X88266107Y-62267308D01*
X88266109Y-62267310D01*
X88266111Y-62267313D01*
X88359297Y-62360499D01*
X88359299Y-62360500D01*
X88359301Y-62360502D01*
X88473421Y-62426389D01*
X88473419Y-62426389D01*
X88473423Y-62426390D01*
X88473425Y-62426391D01*
X88600719Y-62460499D01*
X88600721Y-62460499D01*
X88732501Y-62460499D01*
X88732503Y-62460499D01*
X88859797Y-62426391D01*
X88859799Y-62426389D01*
X88859801Y-62426389D01*
X88973920Y-62360502D01*
X88973920Y-62360501D01*
X88973925Y-62360499D01*
X89067111Y-62267313D01*
X89067114Y-62267308D01*
X89133001Y-62153189D01*
X89133001Y-62153187D01*
X89133003Y-62153185D01*
X89167111Y-62025891D01*
X89167111Y-61894107D01*
X89133003Y-61766813D01*
X89133001Y-61766810D01*
X89133001Y-61766808D01*
X89067114Y-61652689D01*
X89067112Y-61652687D01*
X89067111Y-61652685D01*
X89044426Y-61630000D01*
X89016651Y-61575486D01*
X89026222Y-61515054D01*
X89044425Y-61489998D01*
X89067111Y-61467313D01*
X89091252Y-61425500D01*
X89133001Y-61353189D01*
X89133001Y-61353187D01*
X89133003Y-61353185D01*
X89167111Y-61225891D01*
X89167111Y-61094107D01*
X89133003Y-60966813D01*
X89133001Y-60966809D01*
X89133001Y-60966808D01*
X89067114Y-60852689D01*
X89067112Y-60852687D01*
X89067111Y-60852685D01*
X88973925Y-60759499D01*
X88973922Y-60759497D01*
X88973920Y-60759495D01*
X88859800Y-60693608D01*
X88859802Y-60693608D01*
X88810410Y-60680374D01*
X88732503Y-60659499D01*
X88600719Y-60659499D01*
X88522811Y-60680374D01*
X88473420Y-60693608D01*
X88359301Y-60759495D01*
X88266107Y-60852689D01*
X88200220Y-60966809D01*
X88200219Y-60966813D01*
X88195045Y-60986122D01*
X88161723Y-61037436D01*
X88104601Y-61059363D01*
X88099419Y-61059499D01*
X86767592Y-61059499D01*
X86691168Y-61079977D01*
X86666696Y-61094107D01*
X86655294Y-61100690D01*
X86622646Y-61119539D01*
X85821681Y-61920504D01*
X85767164Y-61948281D01*
X85751677Y-61949500D01*
X83690435Y-61949500D01*
X83614012Y-61969978D01*
X83591136Y-61983186D01*
X83591135Y-61983185D01*
X83545488Y-62009540D01*
X83030967Y-62524059D01*
X82991265Y-62546983D01*
X82991477Y-62547495D01*
X82987596Y-62549102D01*
X82986598Y-62549679D01*
X82985483Y-62549977D01*
X82985480Y-62549979D01*
X82922249Y-62586486D01*
X82922246Y-62586488D01*
X82916960Y-62589539D01*
X82605996Y-62900504D01*
X82551479Y-62928281D01*
X82535992Y-62929500D01*
X82484108Y-62929500D01*
X82406200Y-62950375D01*
X82356809Y-62963609D01*
X82242690Y-63029496D01*
X82149496Y-63122690D01*
X82083609Y-63236809D01*
X82066544Y-63300499D01*
X82049500Y-63364108D01*
X78447939Y-63364108D01*
X78347912Y-63214410D01*
X78347909Y-63214406D01*
X78215593Y-63082090D01*
X78215589Y-63082087D01*
X78060001Y-62978124D01*
X78059989Y-62978118D01*
X77887105Y-62906508D01*
X77703569Y-62870000D01*
X76810001Y-62870000D01*
X76810000Y-62870001D01*
X76810000Y-63369988D01*
X76610000Y-63369988D01*
X76610000Y-62870001D01*
X76609999Y-62870000D01*
X75716430Y-62870000D01*
X75532895Y-62906508D01*
X75532893Y-62906508D01*
X75360010Y-62978118D01*
X75359998Y-62978124D01*
X75204410Y-63082087D01*
X75204406Y-63082090D01*
X75072090Y-63214406D01*
X75072087Y-63214410D01*
X74968124Y-63369998D01*
X74968118Y-63370010D01*
X74896508Y-63542893D01*
X74896508Y-63542895D01*
X74861280Y-63720000D01*
X72298719Y-63720000D01*
X72263491Y-63542895D01*
X72263491Y-63542893D01*
X72191881Y-63370010D01*
X72191875Y-63369998D01*
X72087912Y-63214410D01*
X72087909Y-63214406D01*
X71955593Y-63082090D01*
X71955589Y-63082087D01*
X71800001Y-62978124D01*
X71799989Y-62978118D01*
X71627105Y-62906508D01*
X71443569Y-62870000D01*
X70850001Y-62870000D01*
X70850000Y-62870001D01*
X70850000Y-63369988D01*
X70650000Y-63369988D01*
X70650000Y-62870001D01*
X70649999Y-62870000D01*
X70056430Y-62870000D01*
X69872895Y-62906508D01*
X69872893Y-62906508D01*
X69700010Y-62978118D01*
X69699998Y-62978124D01*
X69544410Y-63082087D01*
X69544406Y-63082090D01*
X69412090Y-63214406D01*
X69412087Y-63214410D01*
X69308124Y-63369998D01*
X69308118Y-63370010D01*
X69236508Y-63542893D01*
X69236508Y-63542895D01*
X69201280Y-63720000D01*
X66570500Y-63720000D01*
X66570500Y-57104108D01*
X79051284Y-57104108D01*
X79051284Y-57235892D01*
X79070174Y-57306390D01*
X79085393Y-57363190D01*
X79151280Y-57477309D01*
X79151285Y-57477315D01*
X79173967Y-57499998D01*
X79201743Y-57554515D01*
X79192171Y-57614947D01*
X79173967Y-57640002D01*
X79151285Y-57662684D01*
X79151280Y-57662690D01*
X79085393Y-57776809D01*
X79085392Y-57776814D01*
X79051284Y-57904108D01*
X79051284Y-58035892D01*
X79063237Y-58080500D01*
X79085393Y-58163190D01*
X79151280Y-58277309D01*
X79151282Y-58277311D01*
X79151284Y-58277314D01*
X79244470Y-58370500D01*
X79244472Y-58370501D01*
X79244474Y-58370503D01*
X79358594Y-58436390D01*
X79358592Y-58436390D01*
X79358596Y-58436391D01*
X79358598Y-58436392D01*
X79485892Y-58470500D01*
X79485894Y-58470500D01*
X79617674Y-58470500D01*
X79617676Y-58470500D01*
X79697467Y-58449120D01*
X79758566Y-58452323D01*
X79806116Y-58490828D01*
X79821952Y-58549928D01*
X79818715Y-58570369D01*
X79809675Y-58604108D01*
X79809675Y-58735892D01*
X79834674Y-58829189D01*
X79843784Y-58863190D01*
X79909671Y-58977309D01*
X79909674Y-58977313D01*
X79932358Y-58999998D01*
X79960134Y-59054515D01*
X79950562Y-59114947D01*
X79932358Y-59140002D01*
X79909676Y-59162684D01*
X79909671Y-59162690D01*
X79843784Y-59276809D01*
X79843783Y-59276814D01*
X79813406Y-59390186D01*
X79809675Y-59404109D01*
X79809675Y-59530871D01*
X79790768Y-59589062D01*
X79741268Y-59625026D01*
X79723604Y-59629023D01*
X79719992Y-59629498D01*
X79592687Y-59663609D01*
X79478568Y-59729496D01*
X79385374Y-59822690D01*
X79319487Y-59936809D01*
X79310460Y-59970500D01*
X79285378Y-60064108D01*
X79285378Y-60195892D01*
X79305646Y-60271535D01*
X79319487Y-60323190D01*
X79385374Y-60437309D01*
X79385379Y-60437315D01*
X79408061Y-60459998D01*
X79435837Y-60514515D01*
X79426265Y-60574947D01*
X79408061Y-60600002D01*
X79385379Y-60622684D01*
X79385374Y-60622690D01*
X79319487Y-60736809D01*
X79300417Y-60807978D01*
X79285378Y-60864108D01*
X79285378Y-60995892D01*
X79315457Y-61108151D01*
X79319487Y-61123190D01*
X79385374Y-61237309D01*
X79385376Y-61237311D01*
X79385378Y-61237314D01*
X79478564Y-61330500D01*
X79478566Y-61330501D01*
X79478568Y-61330503D01*
X79592688Y-61396390D01*
X79592686Y-61396390D01*
X79592690Y-61396391D01*
X79592692Y-61396392D01*
X79719986Y-61430500D01*
X79719988Y-61430500D01*
X79851768Y-61430500D01*
X79851770Y-61430500D01*
X79979064Y-61396392D01*
X79979066Y-61396390D01*
X79979068Y-61396390D01*
X80093187Y-61330503D01*
X80093187Y-61330502D01*
X80093192Y-61330500D01*
X80186378Y-61237314D01*
X80252270Y-61123186D01*
X80257443Y-61103876D01*
X80290766Y-61052563D01*
X80347888Y-61030636D01*
X80353070Y-61030500D01*
X85679563Y-61030500D01*
X85679563Y-61030499D01*
X85755989Y-61010021D01*
X85824511Y-60970460D01*
X85880460Y-60914511D01*
X86835475Y-59959496D01*
X86889992Y-59931719D01*
X86905479Y-59930500D01*
X91612407Y-59930500D01*
X91612407Y-59930499D01*
X91688833Y-59910021D01*
X91757355Y-59870460D01*
X91813304Y-59814511D01*
X93172457Y-58455358D01*
X93183408Y-58436390D01*
X93212017Y-58386839D01*
X93212017Y-58386837D01*
X93212019Y-58386835D01*
X93232497Y-58310409D01*
X93232497Y-58231285D01*
X93232497Y-58018687D01*
X93251404Y-57960496D01*
X93300904Y-57924532D01*
X93305859Y-57923064D01*
X93325183Y-57917887D01*
X93439311Y-57851995D01*
X93532497Y-57758809D01*
X93546244Y-57734999D01*
X93598387Y-57644685D01*
X93598387Y-57644683D01*
X93598389Y-57644681D01*
X93632497Y-57517387D01*
X93632497Y-57385603D01*
X93598389Y-57258309D01*
X93598387Y-57258306D01*
X93598387Y-57258304D01*
X93532500Y-57144185D01*
X93532498Y-57144183D01*
X93532497Y-57144181D01*
X93439311Y-57050995D01*
X93439308Y-57050993D01*
X93439306Y-57050991D01*
X93325186Y-56985104D01*
X93325188Y-56985104D01*
X93273285Y-56971197D01*
X93197889Y-56950995D01*
X93066105Y-56950995D01*
X92990709Y-56971197D01*
X92938806Y-56985104D01*
X92824687Y-57050991D01*
X92824681Y-57050996D01*
X92801999Y-57073678D01*
X92747482Y-57101454D01*
X92687050Y-57091882D01*
X92661995Y-57073678D01*
X92639312Y-57050996D01*
X92639306Y-57050991D01*
X92525186Y-56985104D01*
X92525188Y-56985104D01*
X92473285Y-56971197D01*
X92397889Y-56950995D01*
X92266105Y-56950995D01*
X92190709Y-56971197D01*
X92138806Y-56985104D01*
X92024687Y-57050991D01*
X91931493Y-57144185D01*
X91865606Y-57258304D01*
X91863439Y-57266392D01*
X91831497Y-57385603D01*
X91831497Y-57517387D01*
X91857638Y-57614947D01*
X91865606Y-57644685D01*
X91931493Y-57758804D01*
X91931495Y-57758806D01*
X91931497Y-57758809D01*
X92024683Y-57851995D01*
X92125652Y-57910290D01*
X92166592Y-57955758D01*
X92172988Y-58016608D01*
X92146155Y-58066029D01*
X91311681Y-58900504D01*
X91257164Y-58928281D01*
X91241677Y-58929500D01*
X86530435Y-58929500D01*
X86454014Y-58949977D01*
X86454009Y-58949979D01*
X86406665Y-58977312D01*
X86406666Y-58977313D01*
X86385491Y-58989538D01*
X85374525Y-60000504D01*
X85320008Y-60028281D01*
X85304521Y-60029500D01*
X80697496Y-60029500D01*
X80639305Y-60010593D01*
X80603341Y-59961093D01*
X80603341Y-59899907D01*
X80627490Y-59860498D01*
X80710675Y-59777314D01*
X80776567Y-59663186D01*
X80781740Y-59643876D01*
X80815063Y-59592563D01*
X80872185Y-59570636D01*
X80877367Y-59570500D01*
X84738734Y-59570500D01*
X84738734Y-59570499D01*
X84815160Y-59550021D01*
X84883682Y-59510460D01*
X84939631Y-59454511D01*
X85780460Y-58613682D01*
X85805969Y-58569500D01*
X85820020Y-58545163D01*
X85820020Y-58545161D01*
X85820022Y-58545159D01*
X85840500Y-58468733D01*
X85840500Y-58389609D01*
X85840500Y-55667192D01*
X85859407Y-55609001D01*
X85908907Y-55573037D01*
X85913862Y-55571569D01*
X85933186Y-55566392D01*
X86047314Y-55500500D01*
X86140500Y-55407314D01*
X86153101Y-55385489D01*
X86206390Y-55293190D01*
X86206390Y-55293188D01*
X86206392Y-55293186D01*
X86240500Y-55165892D01*
X86240500Y-55034108D01*
X86206392Y-54906814D01*
X86206390Y-54906811D01*
X86206390Y-54906809D01*
X86140503Y-54792690D01*
X86140501Y-54792688D01*
X86140500Y-54792686D01*
X86047314Y-54699500D01*
X86047311Y-54699498D01*
X86047309Y-54699496D01*
X85933189Y-54633609D01*
X85933191Y-54633609D01*
X85882318Y-54619978D01*
X85805892Y-54599500D01*
X85674108Y-54599500D01*
X85597682Y-54619978D01*
X85546809Y-54633609D01*
X85432690Y-54699496D01*
X85432684Y-54699501D01*
X85410002Y-54722183D01*
X85355485Y-54749959D01*
X85295053Y-54740387D01*
X85269998Y-54722183D01*
X85247315Y-54699501D01*
X85247309Y-54699496D01*
X85133189Y-54633609D01*
X85133191Y-54633609D01*
X85082318Y-54619978D01*
X85005892Y-54599500D01*
X84874108Y-54599500D01*
X84797682Y-54619978D01*
X84746809Y-54633609D01*
X84632690Y-54699496D01*
X84539496Y-54792690D01*
X84473609Y-54906809D01*
X84473608Y-54906814D01*
X84439500Y-55034108D01*
X84439500Y-55165892D01*
X84448773Y-55200500D01*
X84473609Y-55293190D01*
X84539496Y-55407309D01*
X84539498Y-55407311D01*
X84539500Y-55407314D01*
X84632686Y-55500500D01*
X84746814Y-55566392D01*
X84766120Y-55571564D01*
X84817435Y-55604886D01*
X84839364Y-55662007D01*
X84839500Y-55667192D01*
X84839500Y-58098004D01*
X84820593Y-58156195D01*
X84810504Y-58168008D01*
X84438008Y-58540504D01*
X84383491Y-58568281D01*
X84368004Y-58569500D01*
X80877367Y-58569500D01*
X80819176Y-58550593D01*
X80783212Y-58501093D01*
X80781745Y-58496140D01*
X80776567Y-58476814D01*
X80772922Y-58470500D01*
X80710678Y-58362690D01*
X80710676Y-58362688D01*
X80710675Y-58362686D01*
X80617489Y-58269500D01*
X80610104Y-58265236D01*
X80569164Y-58219766D01*
X80562769Y-58158916D01*
X80593362Y-58105928D01*
X80649257Y-58081042D01*
X80659605Y-58080500D01*
X82172407Y-58080500D01*
X82172407Y-58080499D01*
X82248833Y-58060021D01*
X82317355Y-58020460D01*
X82373304Y-57964511D01*
X83590460Y-56747355D01*
X83598387Y-56733625D01*
X83630020Y-56678836D01*
X83630020Y-56678834D01*
X83630022Y-56678832D01*
X83650500Y-56602406D01*
X83650500Y-56523282D01*
X83650500Y-55647192D01*
X83669407Y-55589001D01*
X83718907Y-55553037D01*
X83723862Y-55551569D01*
X83743186Y-55546392D01*
X83857314Y-55480500D01*
X83950500Y-55387314D01*
X83951554Y-55385489D01*
X84016390Y-55273190D01*
X84016390Y-55273188D01*
X84016392Y-55273186D01*
X84050500Y-55145892D01*
X84050500Y-55014108D01*
X84016392Y-54886814D01*
X84016390Y-54886811D01*
X84016390Y-54886809D01*
X83950503Y-54772690D01*
X83950501Y-54772688D01*
X83950500Y-54772686D01*
X83857314Y-54679500D01*
X83857311Y-54679498D01*
X83857309Y-54679496D01*
X83743189Y-54613609D01*
X83743191Y-54613609D01*
X83690534Y-54599500D01*
X83615892Y-54579500D01*
X83484108Y-54579500D01*
X83409466Y-54599500D01*
X83356809Y-54613609D01*
X83242690Y-54679496D01*
X83242684Y-54679501D01*
X83220002Y-54702183D01*
X83165485Y-54729959D01*
X83105053Y-54720387D01*
X83079998Y-54702183D01*
X83057315Y-54679501D01*
X83057309Y-54679496D01*
X82943189Y-54613609D01*
X82943191Y-54613609D01*
X82890534Y-54599500D01*
X82815892Y-54579500D01*
X82684108Y-54579500D01*
X82609466Y-54599500D01*
X82556809Y-54613609D01*
X82442690Y-54679496D01*
X82349496Y-54772690D01*
X82283609Y-54886809D01*
X82283608Y-54886814D01*
X82249500Y-55014108D01*
X82249500Y-55145892D01*
X82264132Y-55200500D01*
X82283609Y-55273190D01*
X82349496Y-55387309D01*
X82349498Y-55387311D01*
X82349500Y-55387314D01*
X82442686Y-55480500D01*
X82556814Y-55546392D01*
X82576120Y-55551564D01*
X82627435Y-55584886D01*
X82649364Y-55642007D01*
X82649500Y-55647192D01*
X82649500Y-56231677D01*
X82630593Y-56289868D01*
X82620504Y-56301681D01*
X81871681Y-57050504D01*
X81817164Y-57078281D01*
X81801677Y-57079500D01*
X80509917Y-57079500D01*
X80484294Y-57076127D01*
X80474833Y-57073592D01*
X80459562Y-57069500D01*
X80459561Y-57069500D01*
X80118976Y-57069500D01*
X80060785Y-57050593D01*
X80024821Y-57001093D01*
X80023354Y-56996140D01*
X80018176Y-56976814D01*
X80011528Y-56965299D01*
X79952287Y-56862690D01*
X79952285Y-56862688D01*
X79952284Y-56862686D01*
X79859098Y-56769500D01*
X79859095Y-56769498D01*
X79859093Y-56769496D01*
X79744973Y-56703609D01*
X79744975Y-56703609D01*
X79695583Y-56690375D01*
X79617676Y-56669500D01*
X79485892Y-56669500D01*
X79407984Y-56690375D01*
X79358593Y-56703609D01*
X79244474Y-56769496D01*
X79151280Y-56862690D01*
X79085393Y-56976809D01*
X79074405Y-57017819D01*
X79051284Y-57104108D01*
X66570500Y-57104108D01*
X66570500Y-52784108D01*
X102859500Y-52784108D01*
X102859500Y-52915892D01*
X102876254Y-52978418D01*
X102893609Y-53043190D01*
X102959496Y-53157309D01*
X102959498Y-53157311D01*
X102959500Y-53157314D01*
X103052686Y-53250500D01*
X103052688Y-53250501D01*
X103052690Y-53250503D01*
X103166810Y-53316390D01*
X103166808Y-53316390D01*
X103166812Y-53316391D01*
X103166814Y-53316392D01*
X103294108Y-53350500D01*
X103294110Y-53350500D01*
X103425890Y-53350500D01*
X103425892Y-53350500D01*
X103553186Y-53316392D01*
X103557741Y-53313761D01*
X103607239Y-53300500D01*
X106572389Y-53300500D01*
X106630580Y-53319407D01*
X106642393Y-53329496D01*
X107046624Y-53733727D01*
X107072245Y-53778103D01*
X107073606Y-53783182D01*
X107073609Y-53783189D01*
X107139496Y-53897309D01*
X107139498Y-53897311D01*
X107139500Y-53897314D01*
X107232686Y-53990500D01*
X107232688Y-53990501D01*
X107232690Y-53990503D01*
X107346810Y-54056390D01*
X107346808Y-54056390D01*
X107346812Y-54056391D01*
X107346814Y-54056392D01*
X107474108Y-54090500D01*
X107474110Y-54090500D01*
X107605890Y-54090500D01*
X107605892Y-54090500D01*
X107733186Y-54056392D01*
X107733188Y-54056390D01*
X107733190Y-54056390D01*
X107847309Y-53990503D01*
X107847309Y-53990502D01*
X107847314Y-53990500D01*
X107940500Y-53897314D01*
X107946855Y-53886307D01*
X108006390Y-53783190D01*
X108006390Y-53783188D01*
X108006392Y-53783186D01*
X108040500Y-53655892D01*
X108040500Y-53524108D01*
X108006392Y-53396814D01*
X108006390Y-53396811D01*
X108006390Y-53396809D01*
X107940503Y-53282690D01*
X107940501Y-53282688D01*
X107940500Y-53282686D01*
X107847314Y-53189500D01*
X107847311Y-53189498D01*
X107847309Y-53189496D01*
X107733189Y-53123609D01*
X107733182Y-53123606D01*
X107728103Y-53122245D01*
X107683727Y-53096624D01*
X107396277Y-52809174D01*
X107076614Y-52489511D01*
X107076611Y-52489509D01*
X107076610Y-52489508D01*
X107076609Y-52489507D01*
X106973890Y-52430202D01*
X106973886Y-52430200D01*
X106949673Y-52423712D01*
X106949673Y-52423713D01*
X106859309Y-52399500D01*
X106859307Y-52399500D01*
X103607239Y-52399500D01*
X103557741Y-52386238D01*
X103553186Y-52383608D01*
X103530857Y-52377625D01*
X103425892Y-52349500D01*
X103294108Y-52349500D01*
X103216200Y-52370375D01*
X103166809Y-52383609D01*
X103052690Y-52449496D01*
X102959496Y-52542690D01*
X102893609Y-52656809D01*
X102874539Y-52727978D01*
X102859500Y-52784108D01*
X66570500Y-52784108D01*
X66570500Y-49220000D01*
X69201280Y-49220000D01*
X69710960Y-49220000D01*
X69700040Y-49260755D01*
X69700040Y-49379245D01*
X69710960Y-49420000D01*
X69201281Y-49420000D01*
X69236508Y-49597104D01*
X69236508Y-49597106D01*
X69308118Y-49769989D01*
X69308124Y-49770001D01*
X69412087Y-49925589D01*
X69412090Y-49925593D01*
X69544406Y-50057909D01*
X69544410Y-50057912D01*
X69699998Y-50161875D01*
X69700010Y-50161881D01*
X69872894Y-50233491D01*
X70056430Y-50269999D01*
X70056434Y-50270000D01*
X70649999Y-50270000D01*
X70650000Y-50269999D01*
X70650000Y-49770012D01*
X70850000Y-49770012D01*
X70850000Y-50269999D01*
X70850001Y-50270000D01*
X71443566Y-50270000D01*
X71443569Y-50269999D01*
X71627104Y-50233491D01*
X71627106Y-50233491D01*
X71799989Y-50161881D01*
X71800001Y-50161875D01*
X71955589Y-50057912D01*
X71955593Y-50057909D01*
X72087909Y-49925593D01*
X72087912Y-49925589D01*
X72191875Y-49770001D01*
X72191881Y-49769989D01*
X72263491Y-49597106D01*
X72263491Y-49597104D01*
X72298719Y-49420000D01*
X71789040Y-49420000D01*
X71799960Y-49379245D01*
X71799960Y-49260755D01*
X71789040Y-49220000D01*
X72298719Y-49220000D01*
X74861280Y-49220000D01*
X75370986Y-49220000D01*
X75360066Y-49260755D01*
X75360066Y-49379245D01*
X75370986Y-49420000D01*
X74861281Y-49420000D01*
X74896508Y-49597104D01*
X74896508Y-49597106D01*
X74968118Y-49769989D01*
X74968124Y-49770001D01*
X75072087Y-49925589D01*
X75072090Y-49925593D01*
X75204406Y-50057909D01*
X75204410Y-50057912D01*
X75359998Y-50161875D01*
X75360010Y-50161881D01*
X75532894Y-50233491D01*
X75716430Y-50269999D01*
X75716434Y-50270000D01*
X76609999Y-50270000D01*
X76610000Y-50269999D01*
X76610000Y-49770012D01*
X76810000Y-49770012D01*
X76810000Y-50269999D01*
X76810001Y-50270000D01*
X77703566Y-50270000D01*
X77703569Y-50269999D01*
X77887104Y-50233491D01*
X77887106Y-50233491D01*
X78059989Y-50161881D01*
X78060001Y-50161875D01*
X78215589Y-50057912D01*
X78215593Y-50057909D01*
X78347909Y-49925593D01*
X78347912Y-49925589D01*
X78451875Y-49770001D01*
X78451881Y-49769989D01*
X78523491Y-49597106D01*
X78523491Y-49597104D01*
X78558719Y-49420000D01*
X78049014Y-49420000D01*
X78059934Y-49379245D01*
X78059934Y-49260755D01*
X78049014Y-49220000D01*
X78558719Y-49220000D01*
X78523491Y-49042895D01*
X78523491Y-49042893D01*
X78451881Y-48870010D01*
X78451875Y-48869998D01*
X78347912Y-48714410D01*
X78347909Y-48714406D01*
X78215593Y-48582090D01*
X78215589Y-48582087D01*
X78060001Y-48478124D01*
X78059989Y-48478118D01*
X77887105Y-48406508D01*
X77703569Y-48370000D01*
X76810001Y-48370000D01*
X76810000Y-48370001D01*
X76810000Y-48869988D01*
X76610000Y-48869988D01*
X76610000Y-48370001D01*
X76609999Y-48370000D01*
X75716430Y-48370000D01*
X75532895Y-48406508D01*
X75532893Y-48406508D01*
X75360010Y-48478118D01*
X75359998Y-48478124D01*
X75204410Y-48582087D01*
X75204406Y-48582090D01*
X75072090Y-48714406D01*
X75072087Y-48714410D01*
X74968124Y-48869998D01*
X74968118Y-48870010D01*
X74896508Y-49042893D01*
X74896508Y-49042895D01*
X74861280Y-49220000D01*
X72298719Y-49220000D01*
X72263491Y-49042895D01*
X72263491Y-49042893D01*
X72191881Y-48870010D01*
X72191875Y-48869998D01*
X72087912Y-48714410D01*
X72087909Y-48714406D01*
X71955593Y-48582090D01*
X71955589Y-48582087D01*
X71800001Y-48478124D01*
X71799989Y-48478118D01*
X71627105Y-48406508D01*
X71443569Y-48370000D01*
X70850001Y-48370000D01*
X70850000Y-48370001D01*
X70850000Y-48869988D01*
X70650000Y-48869988D01*
X70650000Y-48370001D01*
X70649999Y-48370000D01*
X70056430Y-48370000D01*
X69872895Y-48406508D01*
X69872893Y-48406508D01*
X69700010Y-48478118D01*
X69699998Y-48478124D01*
X69544410Y-48582087D01*
X69544406Y-48582090D01*
X69412090Y-48714406D01*
X69412087Y-48714410D01*
X69308124Y-48869998D01*
X69308118Y-48870010D01*
X69236508Y-49042893D01*
X69236508Y-49042895D01*
X69201280Y-49220000D01*
X66570500Y-49220000D01*
X66570500Y-48183539D01*
X66570752Y-48176477D01*
X66575213Y-48114108D01*
X66585258Y-47973652D01*
X66587265Y-47959693D01*
X66629737Y-47764447D01*
X66633711Y-47750914D01*
X66703536Y-47563705D01*
X66709392Y-47550882D01*
X66805151Y-47375513D01*
X66812775Y-47363650D01*
X66932512Y-47203700D01*
X66941750Y-47193038D01*
X67083038Y-47051750D01*
X67093700Y-47042512D01*
X67253650Y-46922775D01*
X67265513Y-46915151D01*
X67440882Y-46819392D01*
X67453705Y-46813536D01*
X67640914Y-46743711D01*
X67654447Y-46739737D01*
X67849693Y-46697265D01*
X67863652Y-46695258D01*
X68043568Y-46682390D01*
X68066478Y-46680752D01*
X68073540Y-46680500D01*
X68135892Y-46680500D01*
X153104108Y-46680500D01*
X153166460Y-46680500D01*
X153173522Y-46680752D01*
G37*
%TD.AperFunction*%
%TD*%
M02*
