%TF.GenerationSoftware,KiCad,Pcbnew,8.0.4*%
%TF.CreationDate,2024-08-03T17:03:50+02:00*%
%TF.ProjectId,koyomi-hdmi-lvds,6b6f796f-6d69-42d6-9864-6d692d6c7664,rev?*%
%TF.SameCoordinates,Original*%
%TF.FileFunction,Drillmap*%
%TF.FilePolarity,Positive*%
%FSLAX45Y45*%
G04 Gerber Fmt 4.5, Leading zero omitted, Abs format (unit mm)*
G04 Created by KiCad (PCBNEW 8.0.4) date 2024-08-03 17:03:50*
%MOMM*%
%LPD*%
G01*
G04 APERTURE LIST*
%ADD10C,0.010000*%
%ADD11C,0.200000*%
G04 APERTURE END LIST*
D10*
X6807000Y-4618000D02*
X15317000Y-4618000D01*
X15317000Y-8368000D02*
X6807000Y-8368000D01*
X15517000Y-4818000D02*
X15517000Y-8168000D01*
X6807000Y-8368000D02*
G75*
G02*
X6607000Y-8168000I0J200000D01*
G01*
X15517000Y-8168000D02*
G75*
G02*
X15317000Y-8368000I-200000J0D01*
G01*
X6607000Y-8168000D02*
X6607000Y-4818000D01*
X15317000Y-4618000D02*
G75*
G02*
X15517000Y-4818000I0J-200000D01*
G01*
X6607000Y-4818000D02*
G75*
G02*
X6807000Y-4618000I200000J0D01*
G01*
D11*
X6867277Y-8679984D02*
X6867277Y-8479984D01*
X6867277Y-8479984D02*
X6914896Y-8479984D01*
X6914896Y-8479984D02*
X6943467Y-8489508D01*
X6943467Y-8489508D02*
X6962515Y-8508555D01*
X6962515Y-8508555D02*
X6972039Y-8527603D01*
X6972039Y-8527603D02*
X6981562Y-8565698D01*
X6981562Y-8565698D02*
X6981562Y-8594270D01*
X6981562Y-8594270D02*
X6972039Y-8632365D01*
X6972039Y-8632365D02*
X6962515Y-8651412D01*
X6962515Y-8651412D02*
X6943467Y-8670460D01*
X6943467Y-8670460D02*
X6914896Y-8679984D01*
X6914896Y-8679984D02*
X6867277Y-8679984D01*
X7067277Y-8679984D02*
X7067277Y-8546650D01*
X7067277Y-8584746D02*
X7076801Y-8565698D01*
X7076801Y-8565698D02*
X7086324Y-8556174D01*
X7086324Y-8556174D02*
X7105372Y-8546650D01*
X7105372Y-8546650D02*
X7124420Y-8546650D01*
X7191086Y-8679984D02*
X7191086Y-8546650D01*
X7191086Y-8479984D02*
X7181562Y-8489508D01*
X7181562Y-8489508D02*
X7191086Y-8499031D01*
X7191086Y-8499031D02*
X7200610Y-8489508D01*
X7200610Y-8489508D02*
X7191086Y-8479984D01*
X7191086Y-8479984D02*
X7191086Y-8499031D01*
X7314896Y-8679984D02*
X7295848Y-8670460D01*
X7295848Y-8670460D02*
X7286324Y-8651412D01*
X7286324Y-8651412D02*
X7286324Y-8479984D01*
X7419658Y-8679984D02*
X7400610Y-8670460D01*
X7400610Y-8670460D02*
X7391086Y-8651412D01*
X7391086Y-8651412D02*
X7391086Y-8479984D01*
X7648229Y-8679984D02*
X7648229Y-8479984D01*
X7648229Y-8479984D02*
X7714896Y-8622841D01*
X7714896Y-8622841D02*
X7781562Y-8479984D01*
X7781562Y-8479984D02*
X7781562Y-8679984D01*
X7962515Y-8679984D02*
X7962515Y-8575222D01*
X7962515Y-8575222D02*
X7952991Y-8556174D01*
X7952991Y-8556174D02*
X7933943Y-8546650D01*
X7933943Y-8546650D02*
X7895848Y-8546650D01*
X7895848Y-8546650D02*
X7876801Y-8556174D01*
X7962515Y-8670460D02*
X7943467Y-8679984D01*
X7943467Y-8679984D02*
X7895848Y-8679984D01*
X7895848Y-8679984D02*
X7876801Y-8670460D01*
X7876801Y-8670460D02*
X7867277Y-8651412D01*
X7867277Y-8651412D02*
X7867277Y-8632365D01*
X7867277Y-8632365D02*
X7876801Y-8613317D01*
X7876801Y-8613317D02*
X7895848Y-8603793D01*
X7895848Y-8603793D02*
X7943467Y-8603793D01*
X7943467Y-8603793D02*
X7962515Y-8594270D01*
X8057753Y-8546650D02*
X8057753Y-8746650D01*
X8057753Y-8556174D02*
X8076801Y-8546650D01*
X8076801Y-8546650D02*
X8114896Y-8546650D01*
X8114896Y-8546650D02*
X8133943Y-8556174D01*
X8133943Y-8556174D02*
X8143467Y-8565698D01*
X8143467Y-8565698D02*
X8152991Y-8584746D01*
X8152991Y-8584746D02*
X8152991Y-8641889D01*
X8152991Y-8641889D02*
X8143467Y-8660936D01*
X8143467Y-8660936D02*
X8133943Y-8670460D01*
X8133943Y-8670460D02*
X8114896Y-8679984D01*
X8114896Y-8679984D02*
X8076801Y-8679984D01*
X8076801Y-8679984D02*
X8057753Y-8670460D01*
X8238705Y-8660936D02*
X8248229Y-8670460D01*
X8248229Y-8670460D02*
X8238705Y-8679984D01*
X8238705Y-8679984D02*
X8229182Y-8670460D01*
X8229182Y-8670460D02*
X8238705Y-8660936D01*
X8238705Y-8660936D02*
X8238705Y-8679984D01*
X8238705Y-8556174D02*
X8248229Y-8565698D01*
X8248229Y-8565698D02*
X8238705Y-8575222D01*
X8238705Y-8575222D02*
X8229182Y-8565698D01*
X8229182Y-8565698D02*
X8238705Y-8556174D01*
X8238705Y-8556174D02*
X8238705Y-8575222D01*
M02*
