%TF.GenerationSoftware,KiCad,Pcbnew,10.0.5*%
%TF.CreationDate,2026-08-19T20:55:32+02:00*%
%TF.ProjectId,koyomi-hdmi-lvds,6b6f796f-6d69-42d6-9864-6d692d6c7664,rev?*%
%TF.SameCoordinates,Original*%
%TF.FileFunction,Soldermask,Top*%
%TF.FilePolarity,Negative*%
%FSLAX46Y46*%
G04 Gerber Fmt 4.6, Leading zero omitted, Abs format (unit mm)*
G04 Created by KiCad (PCBNEW 10.0.5) date 2026-08-19 20:55:32*
%MOMM*%
%LPD*%
G01*
G04 APERTURE LIST*
G04 Aperture macros list*
%AMRoundRect*
0 Rectangle with rounded corners*
0 $1 Rounding radius*
0 $2 $3 $4 $5 $6 $7 $8 $9 X,Y pos of 4 corners*
0 Add a 4 corners polygon primitive as box body*
4,1,4,$2,$3,$4,$5,$6,$7,$8,$9,$2,$3,0*
0 Add four circle primitives for the rounded corners*
1,1,$1+$1,$2,$3*
1,1,$1+$1,$4,$5*
1,1,$1+$1,$6,$7*
1,1,$1+$1,$8,$9*
0 Add four rect primitives between the rounded corners*
20,1,$1+$1,$2,$3,$4,$5,0*
20,1,$1+$1,$4,$5,$6,$7,0*
20,1,$1+$1,$6,$7,$8,$9,0*
20,1,$1+$1,$8,$9,$2,$3,0*%
G04 Aperture macros list end*
%ADD10C,0.000000*%
%ADD11R,1.700000X1.700000*%
%ADD12C,1.700000*%
%ADD13RoundRect,0.237500X0.300000X0.237500X-0.300000X0.237500X-0.300000X-0.237500X0.300000X-0.237500X0*%
%ADD14O,2.400000X0.250000*%
%ADD15O,3.300000X1.500000*%
%ADD16O,2.700000X1.500000*%
%ADD17RoundRect,0.237500X-0.250000X-0.237500X0.250000X-0.237500X0.250000X0.237500X-0.250000X0.237500X0*%
%ADD18RoundRect,0.162500X0.617500X0.162500X-0.617500X0.162500X-0.617500X-0.162500X0.617500X-0.162500X0*%
%ADD19RoundRect,0.237500X-0.237500X0.300000X-0.237500X-0.300000X0.237500X-0.300000X0.237500X0.300000X0*%
%ADD20RoundRect,0.237500X-0.237500X0.250000X-0.237500X-0.250000X0.237500X-0.250000X0.237500X0.250000X0*%
%ADD21RoundRect,0.237500X0.237500X-0.287500X0.237500X0.287500X-0.237500X0.287500X-0.237500X-0.287500X0*%
%ADD22R,0.250000X0.550000*%
%ADD23RoundRect,0.237500X0.237500X-0.300000X0.237500X0.300000X-0.237500X0.300000X-0.237500X-0.300000X0*%
%ADD24RoundRect,0.375000X-0.375000X0.625000X-0.375000X-0.625000X0.375000X-0.625000X0.375000X0.625000X0*%
%ADD25RoundRect,0.500000X-1.400000X0.500000X-1.400000X-0.500000X1.400000X-0.500000X1.400000X0.500000X0*%
%ADD26RoundRect,0.237500X-0.300000X-0.237500X0.300000X-0.237500X0.300000X0.237500X-0.300000X0.237500X0*%
%ADD27RoundRect,0.237500X0.250000X0.237500X-0.250000X0.237500X-0.250000X-0.237500X0.250000X-0.237500X0*%
%ADD28O,1.700000X1.700000*%
%ADD29R,0.279400X1.353299*%
%ADD30R,1.353299X0.279400*%
%ADD31RoundRect,0.237500X-0.044194X-0.380070X0.380070X0.044194X0.044194X0.380070X-0.380070X-0.044194X0*%
%ADD32RoundRect,0.237500X-0.287500X-0.237500X0.287500X-0.237500X0.287500X0.237500X-0.287500X0.237500X0*%
%ADD33R,0.200000X1.200000*%
%ADD34R,1.400000X2.000000*%
%ADD35RoundRect,0.009000X-0.141000X0.491000X-0.141000X-0.491000X0.141000X-0.491000X0.141000X0.491000X0*%
G04 APERTURE END LIST*
D10*
%TO.C,U1*%
G36*
X100459448Y-61473499D02*
G01*
X95132448Y-61473499D01*
X95132448Y-60978499D01*
X100459448Y-60978499D01*
X100459448Y-61473499D01*
G37*
G36*
X95627448Y-61473499D02*
G01*
X95132448Y-61473499D01*
X95132448Y-56146499D01*
X95627448Y-56146499D01*
X95627448Y-61473499D01*
G37*
G36*
X96414848Y-61473499D02*
G01*
X96027448Y-61473499D01*
X96027448Y-56146499D01*
X96414848Y-56146499D01*
X96414848Y-61473499D01*
G37*
G36*
X97202248Y-61473499D02*
G01*
X96814848Y-61473499D01*
X96814848Y-56146499D01*
X97202248Y-56146499D01*
X97202248Y-61473499D01*
G37*
G36*
X97989648Y-61473499D02*
G01*
X97602248Y-61473499D01*
X97602248Y-56146499D01*
X97989648Y-56146499D01*
X97989648Y-61473499D01*
G37*
G36*
X98777048Y-61473499D02*
G01*
X98389648Y-61473499D01*
X98389648Y-56146499D01*
X98777048Y-56146499D01*
X98777048Y-61473499D01*
G37*
G36*
X99564448Y-61473499D02*
G01*
X99177048Y-61473499D01*
X99177048Y-56146499D01*
X99564448Y-56146499D01*
X99564448Y-61473499D01*
G37*
G36*
X100459448Y-61473499D02*
G01*
X99964448Y-61473499D01*
X99964448Y-56146499D01*
X100459448Y-56146499D01*
X100459448Y-61473499D01*
G37*
G36*
X100459448Y-60578499D02*
G01*
X95132448Y-60578499D01*
X95132448Y-60191099D01*
X100459448Y-60191099D01*
X100459448Y-60578499D01*
G37*
G36*
X100459448Y-59791099D02*
G01*
X95132448Y-59791099D01*
X95132448Y-59403699D01*
X100459448Y-59403699D01*
X100459448Y-59791099D01*
G37*
G36*
X100459448Y-59003699D02*
G01*
X95132448Y-59003699D01*
X95132448Y-58616299D01*
X100459448Y-58616299D01*
X100459448Y-59003699D01*
G37*
G36*
X100459448Y-58216299D02*
G01*
X95132448Y-58216299D01*
X95132448Y-57828899D01*
X100459448Y-57828899D01*
X100459448Y-58216299D01*
G37*
G36*
X100459448Y-57428899D02*
G01*
X95132448Y-57428899D01*
X95132448Y-57041499D01*
X100459448Y-57041499D01*
X100459448Y-57428899D01*
G37*
G36*
X100459448Y-56641499D02*
G01*
X95132448Y-56641499D01*
X95132448Y-56146499D01*
X100459448Y-56146499D01*
X100459448Y-56641499D01*
G37*
%TD*%
D11*
%TO.C,J3*%
X68270000Y-71335000D03*
D12*
X70810000Y-71335000D03*
X68270000Y-73875000D03*
X70810000Y-73875000D03*
X68270000Y-76415000D03*
X70810000Y-76415000D03*
X68270000Y-78955000D03*
X70810000Y-78955000D03*
%TD*%
D13*
%TO.C,C2*%
X88162500Y-63010000D03*
X86437500Y-63010000D03*
%TD*%
D14*
%TO.C,HDMI1*%
X77550000Y-61070000D03*
X77550000Y-60570000D03*
X77550000Y-60070000D03*
X77550000Y-59570000D03*
X77550000Y-59070000D03*
X77550000Y-58570000D03*
X77550000Y-58070000D03*
X77550000Y-57570000D03*
X77550000Y-57070000D03*
X77550000Y-56570000D03*
X77550000Y-56070000D03*
X77550000Y-55570000D03*
X77550000Y-55070000D03*
X77550000Y-54570000D03*
X77550000Y-54070000D03*
X77550000Y-53570000D03*
X77550000Y-53070000D03*
X77550000Y-52570000D03*
X77550000Y-52070000D03*
D15*
X76710000Y-49320000D03*
D16*
X70750000Y-49320000D03*
D15*
X76710000Y-63820000D03*
D16*
X70750000Y-63820000D03*
%TD*%
D17*
%TO.C,R1*%
X86397500Y-72907500D03*
X88222500Y-72907500D03*
%TD*%
D18*
%TO.C,U2*%
X88760000Y-76470000D03*
X88760000Y-75520000D03*
X88760000Y-74570000D03*
X86060000Y-74570000D03*
X86060000Y-76470000D03*
%TD*%
D11*
%TO.C,J2*%
X74670000Y-70410000D03*
D12*
X77210000Y-70410000D03*
X79750000Y-70410000D03*
X82290000Y-70410000D03*
%TD*%
D19*
%TO.C,C18*%
X105170000Y-74392500D03*
X105170000Y-76117500D03*
%TD*%
%TO.C,C23*%
X117590000Y-72637500D03*
X117590000Y-74362500D03*
%TD*%
D20*
%TO.C,R2*%
X84250000Y-74595000D03*
X84250000Y-76420000D03*
%TD*%
D21*
%TO.C,FB3*%
X99000000Y-70105000D03*
X99000000Y-68355000D03*
%TD*%
%TO.C,FB4*%
X88590000Y-69495000D03*
X88590000Y-67745000D03*
%TD*%
D22*
%TO.C,FL2*%
X119919800Y-64050000D03*
X119919800Y-65000000D03*
X120420000Y-64050000D03*
X120420000Y-65000000D03*
X120919800Y-64050000D03*
X120919800Y-65000000D03*
X121420000Y-64050000D03*
X121420000Y-65000000D03*
%TD*%
D19*
%TO.C,C22*%
X91582500Y-68285000D03*
X91582500Y-70010000D03*
%TD*%
%TO.C,C12*%
X101180000Y-68787500D03*
X101180000Y-70512500D03*
%TD*%
D23*
%TO.C,C7*%
X107230000Y-58982500D03*
X107230000Y-57257500D03*
%TD*%
D24*
%TO.C,U3*%
X113250000Y-73072500D03*
X110950000Y-73072500D03*
D25*
X110950000Y-79372500D03*
D24*
X108650000Y-73072500D03*
%TD*%
D19*
%TO.C,C5*%
X94940000Y-68317500D03*
X94940000Y-70042500D03*
%TD*%
D26*
%TO.C,C11*%
X102769500Y-68834000D03*
X104494500Y-68834000D03*
%TD*%
D13*
%TO.C,C17*%
X88050000Y-65880000D03*
X86325000Y-65880000D03*
%TD*%
D27*
%TO.C,R3*%
X82272500Y-50370000D03*
X80447500Y-50370000D03*
%TD*%
D28*
%TO.C,J4*%
X136770000Y-67995000D03*
X136770000Y-70535000D03*
X149610000Y-52875000D03*
D11*
X152150000Y-52875000D03*
D28*
X144530000Y-52875000D03*
X141990000Y-52875000D03*
X139450000Y-52875000D03*
X136770000Y-60375000D03*
X136770000Y-62915000D03*
X136770000Y-65455000D03*
X139450000Y-75775000D03*
X141990000Y-75775000D03*
X144530000Y-75775000D03*
X147070000Y-75775000D03*
X149610000Y-75775000D03*
D11*
X152150000Y-75775000D03*
X136770000Y-57835000D03*
D28*
X147070000Y-52875000D03*
%TD*%
D22*
%TO.C,FL1*%
X123249800Y-64050000D03*
X123249800Y-65000000D03*
X123750000Y-64050000D03*
X123750000Y-65000000D03*
X124249800Y-64050000D03*
X124249800Y-65000000D03*
X124750000Y-64050000D03*
X124750000Y-65000000D03*
%TD*%
D23*
%TO.C,C14*%
X88392000Y-55218500D03*
X88392000Y-53493500D03*
%TD*%
D26*
%TO.C,C19*%
X116607500Y-78210000D03*
X118332500Y-78210000D03*
%TD*%
D19*
%TO.C,C21*%
X90040000Y-68217500D03*
X90040000Y-69942500D03*
%TD*%
%TO.C,C24*%
X120450000Y-72637500D03*
X120450000Y-74362500D03*
%TD*%
%TO.C,C20*%
X93330000Y-68367500D03*
X93330000Y-70092500D03*
%TD*%
D29*
%TO.C,U1*%
X91795947Y-66585947D03*
X92295949Y-66585947D03*
X92795948Y-66585947D03*
X93295947Y-66585947D03*
X93795948Y-66585947D03*
X94295947Y-66585947D03*
X94795949Y-66585947D03*
X95295948Y-66585947D03*
X95795947Y-66585947D03*
X96295948Y-66585947D03*
X96795947Y-66585947D03*
X97295946Y-66585947D03*
X97795948Y-66585947D03*
X98295947Y-66585947D03*
X98795949Y-66585947D03*
X99295948Y-66585947D03*
X99795947Y-66585947D03*
X100295948Y-66585947D03*
X100795947Y-66585947D03*
X101295949Y-66585947D03*
X101795948Y-66585947D03*
X102295947Y-66585947D03*
X102795948Y-66585947D03*
X103295947Y-66585947D03*
X103795949Y-66585947D03*
D30*
X105571896Y-64810000D03*
X105571896Y-64309998D03*
X105571896Y-63809999D03*
X105571896Y-63310000D03*
X105571896Y-62809999D03*
X105571896Y-62310000D03*
X105571896Y-61809998D03*
X105571896Y-61309999D03*
X105571896Y-60810000D03*
X105571896Y-60309999D03*
X105571896Y-59810000D03*
X105571896Y-59309998D03*
X105571896Y-58809999D03*
X105571896Y-58310000D03*
X105571896Y-57809998D03*
X105571896Y-57309999D03*
X105571896Y-56809998D03*
X105571896Y-56309999D03*
X105571896Y-55810000D03*
X105571896Y-55309998D03*
X105571896Y-54809999D03*
X105571896Y-54309998D03*
X105571896Y-53809999D03*
X105571896Y-53310000D03*
X105571896Y-52809998D03*
D29*
X103795949Y-51034051D03*
X103295947Y-51034051D03*
X102795948Y-51034051D03*
X102295949Y-51034051D03*
X101795948Y-51034051D03*
X101295949Y-51034051D03*
X100795947Y-51034051D03*
X100295948Y-51034051D03*
X99795949Y-51034051D03*
X99295948Y-51034051D03*
X98795949Y-51034051D03*
X98295947Y-51034051D03*
X97795948Y-51034051D03*
X97295949Y-51034051D03*
X96795947Y-51034051D03*
X96295948Y-51034051D03*
X95795947Y-51034051D03*
X95295948Y-51034051D03*
X94795949Y-51034051D03*
X94295947Y-51034051D03*
X93795948Y-51034051D03*
X93295947Y-51034051D03*
X92795948Y-51034051D03*
X92295949Y-51034051D03*
X91795947Y-51034051D03*
D30*
X90020000Y-52809998D03*
X90020000Y-53310000D03*
X90020000Y-53809999D03*
X90020000Y-54309998D03*
X90020000Y-54809999D03*
X90020000Y-55309998D03*
X90020000Y-55810000D03*
X90020000Y-56309999D03*
X90020000Y-56809998D03*
X90020000Y-57309999D03*
X90020000Y-57809998D03*
X90020000Y-58310000D03*
X90020000Y-58809999D03*
X90020000Y-59309998D03*
X90020000Y-59810000D03*
X90020000Y-60309999D03*
X90020000Y-60810000D03*
X90020000Y-61309999D03*
X90020000Y-61809998D03*
X90020000Y-62310000D03*
X90020000Y-62809999D03*
X90020000Y-63310000D03*
X90020000Y-63809999D03*
X90020000Y-64309998D03*
X90020000Y-64810000D03*
%TD*%
D19*
%TO.C,C25*%
X123300000Y-72637500D03*
X123300000Y-74362500D03*
%TD*%
D31*
%TO.C,C10*%
X108690120Y-62469880D03*
X109909880Y-61250120D03*
%TD*%
D32*
%TO.C,FB1*%
X86055000Y-64440000D03*
X87805000Y-64440000D03*
%TD*%
D19*
%TO.C,C13*%
X87110000Y-67707500D03*
X87110000Y-69432500D03*
%TD*%
D26*
%TO.C,C9*%
X106977500Y-55780000D03*
X108702500Y-55780000D03*
%TD*%
D13*
%TO.C,C16*%
X91172500Y-49420000D03*
X89447500Y-49420000D03*
%TD*%
D21*
%TO.C,FB2*%
X97540000Y-70015000D03*
X97540000Y-68265000D03*
%TD*%
D13*
%TO.C,C4*%
X87292500Y-61770000D03*
X85567500Y-61770000D03*
%TD*%
D26*
%TO.C,C6*%
X95758000Y-49530000D03*
X97483000Y-49530000D03*
%TD*%
D23*
%TO.C,C3*%
X86870000Y-55222500D03*
X86870000Y-53497500D03*
%TD*%
D19*
%TO.C,C15*%
X96210000Y-68277500D03*
X96210000Y-70002500D03*
%TD*%
D26*
%TO.C,C8*%
X100637500Y-49400000D03*
X102362500Y-49400000D03*
%TD*%
D13*
%TO.C,C1*%
X88542500Y-59000000D03*
X86817500Y-59000000D03*
%TD*%
D33*
%TO.C,J1*%
X112840000Y-68100000D03*
X113240000Y-68100000D03*
X113640000Y-68100000D03*
X114040000Y-68100000D03*
X114440000Y-68100000D03*
X114840000Y-68100000D03*
X115240000Y-68100000D03*
X115640000Y-68100000D03*
X116040000Y-68100000D03*
X116440000Y-68100000D03*
X116840000Y-68100000D03*
X117240000Y-68100000D03*
X117640000Y-68100000D03*
X118040000Y-68100000D03*
X118440000Y-68100000D03*
X118840000Y-68100000D03*
X119240000Y-68100000D03*
X119640000Y-68100000D03*
X120040000Y-68100000D03*
X120440000Y-68100000D03*
X120840000Y-68100000D03*
X121240000Y-68100000D03*
X121640000Y-68100000D03*
X122040000Y-68100000D03*
X122440000Y-68100000D03*
X122840000Y-68100000D03*
X123240000Y-68100000D03*
X123640000Y-68100000D03*
X124040000Y-68100000D03*
X124440000Y-68100000D03*
D34*
X110340000Y-69470000D03*
X126940000Y-69470000D03*
%TD*%
D35*
%TO.C,IC1*%
X128420000Y-53880000D03*
X127920000Y-53880000D03*
X127420000Y-53880000D03*
X126920000Y-53880000D03*
X126420000Y-53880000D03*
X125920000Y-53880000D03*
X125420000Y-53880000D03*
X124920000Y-53880000D03*
X124420000Y-53880000D03*
X123920000Y-53880000D03*
X123420000Y-53880000D03*
X122920000Y-53880000D03*
X122420000Y-53880000D03*
X121920000Y-53880000D03*
X121420000Y-53880000D03*
X120920000Y-53880000D03*
X120420000Y-53880000D03*
X119920000Y-53880000D03*
X119420000Y-53880000D03*
X118920000Y-53880000D03*
X118420000Y-53880000D03*
X117920000Y-53880000D03*
X117420000Y-53880000D03*
X116920000Y-53880000D03*
X116420000Y-53880000D03*
X115920000Y-53880000D03*
X115420000Y-53880000D03*
X114920000Y-53880000D03*
X114920000Y-61140000D03*
X115420000Y-61140000D03*
X115920000Y-61140000D03*
X116420000Y-61140000D03*
X116920000Y-61140000D03*
X117420000Y-61140000D03*
X117920000Y-61140000D03*
X118420000Y-61140000D03*
X118920000Y-61140000D03*
X119420000Y-61140000D03*
X119920000Y-61140000D03*
X120420000Y-61140000D03*
X120920000Y-61140000D03*
X121420000Y-61140000D03*
X121920000Y-61140000D03*
X122420000Y-61140000D03*
X122920000Y-61140000D03*
X123420000Y-61140000D03*
X123920000Y-61140000D03*
X124420000Y-61140000D03*
X124920000Y-61140000D03*
X125420000Y-61140000D03*
X125920000Y-61140000D03*
X126420000Y-61140000D03*
X126920000Y-61140000D03*
X127420000Y-61140000D03*
X127920000Y-61140000D03*
X128420000Y-61140000D03*
%TD*%
M02*
