M48
; DRILL file {KiCad 8.0.3} date 2024-06-19T18:33:15+0200
; FORMAT={-:-/ absolute / metric / decimal}
; #@! TF.CreationDate,2024-06-19T18:33:15+02:00
; #@! TF.GenerationSoftware,Kicad,Pcbnew,8.0.3
; #@! TF.FileFunction,Plated,1,2,PTH
FMAT,2
METRIC
; #@! TA.AperFunction,Plated,PTH,ViaDrill
T1C0.300
; #@! TA.AperFunction,Plated,PTH,ViaDrill
T2C0.400
; #@! TA.AperFunction,Plated,PTH,ComponentDrill
T3C0.900
; #@! TA.AperFunction,Plated,PTH,ComponentDrill
T4C1.000
%
G90
G05
T1
X75.58Y-53.34
X79.33Y-61.73
X80.46Y-61.67
X81.57Y-63.2
X81.95Y-55.76
X82.98Y-64.27
X83.2Y-54.21
X84.24Y-55.71
X84.37Y-61.47
X84.4Y-63.27
X85.35Y-54.237
X86.08Y-69.02
X86.18Y-66.94
X86.461Y-60.87
X87.1Y-63.0
X87.45Y-75.51
X87.61Y-52.76
X87.625Y-58.36
X87.63Y-54.31
X88.8Y-56.27
X90.04Y-52.22
X90.824Y-69.113
X90.89Y-65.93
X91.236Y-58.21
X91.32Y-60.81
X91.5Y-63.41
X91.569Y-54.409
X92.332Y-57.451
X93.132Y-57.451
X93.41Y-65.12
X93.8Y-56.67
X93.9Y-58.15
X94.08Y-70.79
X95.27Y-52.4
X95.66Y-70.69
X96.196Y-64.65
X96.795Y-49.53
X96.82Y-63.47
X99.91Y-65.4
X100.01Y-80.47
X100.11Y-52.45
X100.15Y-68.32
X100.43Y-63.45
X100.52Y-64.83
X100.98Y-64.13
X101.12Y-63.02
X101.49Y-48.66
X101.56Y-61.35
X101.642Y-67.762
X101.66Y-63.65
X101.71Y-62.47
X101.993Y-69.639
X102.28Y-61.85
X102.29Y-63.14
X102.863Y-62.582
X103.16Y-61.79
X103.36Y-52.85
X103.87Y-55.42
X104.35Y-59.71
X105.15Y-77.43
X106.755Y-64.015
X107.54Y-53.59
X108.02Y-63.44
X108.4Y-57.717
X109.34Y-54.11
X109.45Y-57.59
X110.37Y-57.62
X110.92Y-60.58
X111.29Y-57.56
X112.62Y-56.78
X113.26Y-71.41
X113.438Y-56.782
X114.19Y-61.14
X116.03Y-54.895
X117.03Y-62.22
X118.17Y-62.17
X118.23Y-55.28
X120.18Y-55.2
X121.71Y-56.84
X122.17Y-62.128
X122.52Y-54.97
X122.66Y-56.61
X123.406Y-56.916
X124.18Y-56.48
X124.4Y-55.15
X125.13Y-62.32
X125.22Y-60.23
X125.32Y-55.865
X126.1Y-55.64
X126.46Y-54.87
X126.47Y-57.2
X126.747Y-56.267
X126.93Y-62.29
X126.94Y-60.1
X128.02Y-54.86
X129.82Y-60.2
X132.82Y-59.697
T2
X69.14Y-51.21
X69.14Y-52.11
X70.24Y-51.21
X70.24Y-52.11
X71.34Y-51.21
X71.34Y-52.11
X75.79Y-56.1
X75.8Y-57.63
X75.8Y-60.52
X75.81Y-59.1
X79.552Y-57.17
X79.552Y-57.97
X79.786Y-60.13
X79.786Y-60.93
X80.31Y-58.67
X80.31Y-59.47
X82.4Y-79.49
X82.55Y-63.43
X82.75Y-55.08
X83.35Y-63.43
X83.55Y-55.08
X84.94Y-55.1
X85.74Y-55.1
X88.667Y-61.16
X88.667Y-61.96
X97.68Y-63.46
X98.604Y-64.356
X98.73Y-63.34
X99.15Y-65.12
X109.02Y-56.84
X109.92Y-56.84
X110.82Y-56.83
X111.74Y-56.8
X113.04Y-67.42
X118.77Y-76.155
X118.77Y-77.08
X119.87Y-76.155
X119.87Y-77.055
X119.87Y-77.955
X119.87Y-78.855
X120.97Y-76.155
X120.97Y-77.055
X120.97Y-77.955
X120.97Y-78.855
X122.07Y-76.155
X122.07Y-77.055
X123.17Y-76.155
X123.17Y-77.055
X124.27Y-76.155
X124.27Y-77.055
X125.37Y-76.155
X125.37Y-77.055
X126.47Y-74.355
X126.47Y-75.255
X126.47Y-76.155
X126.47Y-77.055
X127.57Y-75.255
X127.57Y-76.155
X127.57Y-77.055
X129.677Y-72.062
X134.97Y-55.18
X134.97Y-56.08
X136.07Y-55.18
X136.07Y-56.08
X137.17Y-55.18
X137.17Y-56.08
X138.27Y-55.18
X138.27Y-56.08
X144.57Y-50.18
X144.57Y-51.08
X145.67Y-50.18
X145.67Y-51.08
X146.77Y-50.18
X146.77Y-51.08
X147.87Y-50.18
X147.87Y-51.08
X148.97Y-50.18
X148.97Y-51.08
X150.07Y-50.18
X150.07Y-51.08
X151.17Y-50.18
X151.17Y-51.08
X152.27Y-50.18
X152.27Y-51.08
X153.37Y-50.18
X153.37Y-51.08
T4
X68.27Y-71.335
X68.27Y-73.875
X68.27Y-76.415
X68.27Y-78.955
X70.81Y-71.335
X70.81Y-73.875
X70.81Y-76.415
X70.81Y-78.955
X74.67Y-70.41
X77.21Y-70.41
X79.75Y-70.41
X82.29Y-70.41
X136.77Y-57.835
X136.77Y-60.375
X136.77Y-62.915
X136.77Y-65.455
X136.77Y-67.995
X136.77Y-70.535
X139.45Y-52.875
X139.45Y-75.775
X141.99Y-52.875
X141.99Y-75.775
X144.53Y-52.875
X144.53Y-75.775
X147.07Y-52.875
X147.07Y-75.775
X149.61Y-52.875
X149.61Y-75.775
X152.15Y-52.875
X152.15Y-75.775
T3
X71.35Y-49.32G85X70.15Y-49.32
G05
X71.35Y-63.82G85X70.15Y-63.82
G05
X77.61Y-49.32G85X75.81Y-49.32
G05
X77.61Y-63.82G85X75.81Y-63.82
G05
M30
