G04 #@! TF.GenerationSoftware,KiCad,Pcbnew,8.0.3*
G04 #@! TF.CreationDate,2024-06-19T18:32:56+02:00*
G04 #@! TF.ProjectId,koyomi-hdmi-lvds,6b6f796f-6d69-42d6-9864-6d692d6c7664,rev?*
G04 #@! TF.SameCoordinates,Original*
G04 #@! TF.FileFunction,Soldermask,Top*
G04 #@! TF.FilePolarity,Negative*
%FSLAX46Y46*%
G04 Gerber Fmt 4.6, Leading zero omitted, Abs format (unit mm)*
G04 Created by KiCad (PCBNEW 8.0.3) date 2024-06-19 18:32:56*
%MOMM*%
%LPD*%
G01*
G04 APERTURE LIST*
G04 Aperture macros list*
%AMRoundRect*
0 Rectangle with rounded corners*
0 $1 Rounding radius*
0 $2 $3 $4 $5 $6 $7 $8 $9 X,Y pos of 4 corners*
0 Add a 4 corners polygon primitive as box body*
4,1,4,$2,$3,$4,$5,$6,$7,$8,$9,$2,$3,0*
0 Add four circle primitives for the rounded corners*
1,1,$1+$1,$2,$3*
1,1,$1+$1,$4,$5*
1,1,$1+$1,$6,$7*
1,1,$1+$1,$8,$9*
0 Add four rect primitives between the rounded corners*
20,1,$1+$1,$2,$3,$4,$5,0*
20,1,$1+$1,$4,$5,$6,$7,0*
20,1,$1+$1,$6,$7,$8,$9,0*
20,1,$1+$1,$8,$9,$2,$3,0*%
G04 Aperture macros list end*
%ADD10C,0.000000*%
%ADD11R,1.700000X1.700000*%
%ADD12O,1.700000X1.700000*%
%ADD13RoundRect,0.237500X0.300000X0.237500X-0.300000X0.237500X-0.300000X-0.237500X0.300000X-0.237500X0*%
%ADD14O,2.400000X0.250000*%
%ADD15O,2.700000X1.500000*%
%ADD16O,3.300000X1.500000*%
%ADD17RoundRect,0.237500X-0.250000X-0.237500X0.250000X-0.237500X0.250000X0.237500X-0.250000X0.237500X0*%
%ADD18RoundRect,0.162500X0.617500X0.162500X-0.617500X0.162500X-0.617500X-0.162500X0.617500X-0.162500X0*%
%ADD19RoundRect,0.237500X-0.237500X0.300000X-0.237500X-0.300000X0.237500X-0.300000X0.237500X0.300000X0*%
%ADD20RoundRect,0.237500X-0.237500X0.250000X-0.237500X-0.250000X0.237500X-0.250000X0.237500X0.250000X0*%
%ADD21RoundRect,0.237500X0.237500X-0.287500X0.237500X0.287500X-0.237500X0.287500X-0.237500X-0.287500X0*%
%ADD22RoundRect,0.237500X0.237500X-0.300000X0.237500X0.300000X-0.237500X0.300000X-0.237500X-0.300000X0*%
%ADD23RoundRect,0.375000X-0.375000X0.625000X-0.375000X-0.625000X0.375000X-0.625000X0.375000X0.625000X0*%
%ADD24RoundRect,0.500000X-1.400000X0.500000X-1.400000X-0.500000X1.400000X-0.500000X1.400000X0.500000X0*%
%ADD25RoundRect,0.237500X-0.300000X-0.237500X0.300000X-0.237500X0.300000X0.237500X-0.300000X0.237500X0*%
%ADD26RoundRect,0.237500X0.250000X0.237500X-0.250000X0.237500X-0.250000X-0.237500X0.250000X-0.237500X0*%
%ADD27R,0.279400X1.353299*%
%ADD28R,1.353299X0.279400*%
%ADD29RoundRect,0.237500X-0.044194X-0.380070X0.380070X0.044194X0.044194X0.380070X-0.380070X-0.044194X0*%
%ADD30RoundRect,0.237500X-0.287500X-0.237500X0.287500X-0.237500X0.287500X0.237500X-0.287500X0.237500X0*%
%ADD31R,0.200000X1.200000*%
%ADD32R,1.400000X2.000000*%
%ADD33RoundRect,0.009000X-0.141000X0.491000X-0.141000X-0.491000X0.141000X-0.491000X0.141000X0.491000X0*%
G04 APERTURE END LIST*
D10*
G36*
X100459448Y-56641499D02*
G01*
X95132448Y-56641499D01*
X95132448Y-56146499D01*
X100459448Y-56146499D01*
X100459448Y-56641499D01*
G37*
G36*
X100459448Y-57428899D02*
G01*
X95132448Y-57428899D01*
X95132448Y-57041499D01*
X100459448Y-57041499D01*
X100459448Y-57428899D01*
G37*
G36*
X100459448Y-58216299D02*
G01*
X95132448Y-58216299D01*
X95132448Y-57828899D01*
X100459448Y-57828899D01*
X100459448Y-58216299D01*
G37*
G36*
X100459448Y-59003699D02*
G01*
X95132448Y-59003699D01*
X95132448Y-58616299D01*
X100459448Y-58616299D01*
X100459448Y-59003699D01*
G37*
G36*
X100459448Y-59791099D02*
G01*
X95132448Y-59791099D01*
X95132448Y-59403699D01*
X100459448Y-59403699D01*
X100459448Y-59791099D01*
G37*
G36*
X100459448Y-60578499D02*
G01*
X95132448Y-60578499D01*
X95132448Y-60191099D01*
X100459448Y-60191099D01*
X100459448Y-60578499D01*
G37*
G36*
X95627448Y-61473499D02*
G01*
X95132448Y-61473499D01*
X95132448Y-56146499D01*
X95627448Y-56146499D01*
X95627448Y-61473499D01*
G37*
G36*
X100459448Y-61473499D02*
G01*
X95132448Y-61473499D01*
X95132448Y-60978499D01*
X100459448Y-60978499D01*
X100459448Y-61473499D01*
G37*
G36*
X96414848Y-61473499D02*
G01*
X96027448Y-61473499D01*
X96027448Y-56146499D01*
X96414848Y-56146499D01*
X96414848Y-61473499D01*
G37*
G36*
X97202248Y-61473499D02*
G01*
X96814848Y-61473499D01*
X96814848Y-56146499D01*
X97202248Y-56146499D01*
X97202248Y-61473499D01*
G37*
G36*
X97989648Y-61473499D02*
G01*
X97602248Y-61473499D01*
X97602248Y-56146499D01*
X97989648Y-56146499D01*
X97989648Y-61473499D01*
G37*
G36*
X98777048Y-61473499D02*
G01*
X98389648Y-61473499D01*
X98389648Y-56146499D01*
X98777048Y-56146499D01*
X98777048Y-61473499D01*
G37*
G36*
X99564448Y-61473499D02*
G01*
X99177048Y-61473499D01*
X99177048Y-56146499D01*
X99564448Y-56146499D01*
X99564448Y-61473499D01*
G37*
G36*
X100459448Y-61473499D02*
G01*
X99964448Y-61473499D01*
X99964448Y-56146499D01*
X100459448Y-56146499D01*
X100459448Y-61473499D01*
G37*
G36*
X142708444Y-65157021D02*
G01*
X142708180Y-65154821D01*
X142707944Y-65150771D01*
X142708444Y-65157021D01*
G37*
G36*
X146433496Y-61732786D02*
G01*
X146433121Y-61732848D01*
X146433121Y-61732411D01*
X146433496Y-61732786D01*
G37*
G36*
X150029451Y-61196518D02*
G01*
X150029421Y-61196300D01*
X150029405Y-61196040D01*
X150029451Y-61196518D01*
G37*
G36*
X150032389Y-61155890D02*
G01*
X150032483Y-61155544D01*
X150033327Y-61152767D01*
X150032389Y-61155890D01*
G37*
G36*
X150039325Y-61554921D02*
G01*
X150039295Y-61555167D01*
X150039325Y-61554796D01*
X150039325Y-61554921D01*
G37*
G36*
X146252252Y-61755661D02*
G01*
X146253377Y-61759411D01*
X146250002Y-61759911D01*
X146252252Y-61754911D01*
X146252252Y-61755661D01*
G37*
G36*
X150038326Y-61568546D02*
G01*
X150038323Y-61567921D01*
X150038326Y-61567296D01*
X150038339Y-61567127D01*
X150038326Y-61568546D01*
G37*
G36*
X141299737Y-59802181D02*
G01*
X141303836Y-59799085D01*
X141308055Y-59796084D01*
X141309957Y-59794811D01*
X141312850Y-59793431D01*
X141299737Y-59802181D01*
G37*
G36*
X141720845Y-65270807D02*
G01*
X141720106Y-65269346D01*
X141719392Y-65267791D01*
X141718772Y-65266335D01*
X141716095Y-65258307D01*
X141720845Y-65270807D01*
G37*
G36*
X143003390Y-63691078D02*
G01*
X143003280Y-63691207D01*
X143003297Y-63691139D01*
X143003343Y-63690929D01*
X143003390Y-63690703D01*
X143003390Y-63691078D01*
G37*
G36*
X145024937Y-62730024D02*
G01*
X145025301Y-62731467D01*
X145025559Y-62732558D01*
X145025230Y-62731338D01*
X145024780Y-62729697D01*
X145024937Y-62730024D01*
G37*
G36*
X150029011Y-61182866D02*
G01*
X150028951Y-61185268D01*
X150028951Y-61183801D01*
X150028956Y-61183632D01*
X150029014Y-61182518D01*
X150029011Y-61182866D01*
G37*
G36*
X141710707Y-65217182D02*
G01*
X141710677Y-65216933D01*
X141710662Y-65216657D01*
X141710658Y-65216355D01*
X141710664Y-65216030D01*
X141710678Y-65215755D01*
X141710707Y-65217182D01*
G37*
G36*
X141724395Y-65139931D02*
G01*
X141724850Y-65137589D01*
X141725361Y-65135256D01*
X141725930Y-65132940D01*
X141726556Y-65130650D01*
X141727159Y-65128663D01*
X141724395Y-65139931D01*
G37*
G36*
X143608847Y-60381120D02*
G01*
X143608844Y-60381699D01*
X143608833Y-60381415D01*
X143608818Y-60381120D01*
X143608782Y-60380448D01*
X143608844Y-60380448D01*
X143608847Y-60381120D01*
G37*
G36*
X141467757Y-62396085D02*
G01*
X141467711Y-62396120D01*
X141467709Y-62396120D01*
X141467706Y-62396118D01*
X141467714Y-62396110D01*
X141467765Y-62396072D01*
X141468037Y-62395893D01*
X141467757Y-62396085D01*
G37*
G36*
X145025777Y-62733369D02*
G01*
X145025888Y-62733901D01*
X145025972Y-62734319D01*
X145026006Y-62734494D01*
X145026027Y-62734619D01*
X145025682Y-62733077D01*
X145025559Y-62732558D01*
X145025777Y-62733369D01*
G37*
G36*
X150028955Y-61186734D02*
G01*
X150028968Y-61187067D01*
X150028975Y-61187196D01*
X150028964Y-61188535D01*
X150028936Y-61187556D01*
X150028942Y-61187280D01*
X150028951Y-61186518D01*
X150028955Y-61186734D01*
G37*
G36*
X141389888Y-59768931D02*
G01*
X141391640Y-59769014D01*
X141393394Y-59769129D01*
X141395146Y-59769274D01*
X141396891Y-59769447D01*
X141398627Y-59769645D01*
X141400351Y-59769868D01*
X141388542Y-59768893D01*
X141389888Y-59768931D01*
G37*
G36*
X141710584Y-65205432D02*
G01*
X141710691Y-65206599D01*
X141710783Y-65207737D01*
X141710840Y-65208816D01*
X141710850Y-65209325D01*
X141710845Y-65209808D01*
X141710562Y-65205251D01*
X141710558Y-65205139D01*
X141710584Y-65205432D01*
G37*
G36*
X147345201Y-61885662D02*
G01*
X147345018Y-61883787D01*
X147344858Y-61881912D01*
X147344794Y-61880975D01*
X147344745Y-61880037D01*
X147344713Y-61879100D01*
X147344702Y-61878162D01*
X147344702Y-61876912D01*
X147345201Y-61885662D01*
G37*
G36*
X150038339Y-61567127D02*
G01*
X150038343Y-61566725D01*
X150038394Y-61564993D01*
X150038477Y-61563323D01*
X150038591Y-61561686D01*
X150038734Y-61560056D01*
X150038905Y-61558403D01*
X150039295Y-61555167D01*
X150038339Y-61567127D01*
G37*
G36*
X141521099Y-62344800D02*
G01*
X141521105Y-62344784D01*
X141521171Y-62344624D01*
X141521236Y-62344473D01*
X141521300Y-62344329D01*
X141521430Y-62344058D01*
X141521562Y-62343798D01*
X141521702Y-62343538D01*
X141521850Y-62343267D01*
X141521099Y-62344800D01*
G37*
G36*
X141710864Y-65211400D02*
G01*
X141710870Y-65211867D01*
X141710853Y-65212788D01*
X141710809Y-65213679D01*
X141710753Y-65214526D01*
X141710699Y-65215314D01*
X141710678Y-65215755D01*
X141710654Y-65214649D01*
X141710845Y-65210932D01*
X141710864Y-65211400D01*
G37*
G36*
X143003250Y-63691334D02*
G01*
X143003203Y-63691516D01*
X143003156Y-63691686D01*
X143003109Y-63691846D01*
X143003015Y-63692141D01*
X143002640Y-63693204D01*
X143002637Y-63692532D01*
X143002640Y-63691953D01*
X143003280Y-63691207D01*
X143003250Y-63691334D01*
G37*
G36*
X147964418Y-63415116D02*
G01*
X147964888Y-63414899D01*
X147965819Y-63414444D01*
X147966009Y-63414396D01*
X147966210Y-63414343D01*
X147966318Y-63414312D01*
X147966434Y-63414277D01*
X147966559Y-63414238D01*
X147966694Y-63414194D01*
X147964418Y-63415116D01*
G37*
G36*
X141468344Y-62395756D02*
G01*
X141468313Y-62395778D01*
X141468222Y-62395835D01*
X141468312Y-62395768D01*
X141468299Y-62395773D01*
X141468280Y-62395781D01*
X141468253Y-62395792D01*
X141468283Y-62395777D01*
X141468337Y-62395753D01*
X141468346Y-62395752D01*
X141468344Y-62395756D01*
G37*
G36*
X150028974Y-61188899D02*
G01*
X150029076Y-61190893D01*
X150029330Y-61194753D01*
X150029405Y-61196040D01*
X150029154Y-61193393D01*
X150029012Y-61191596D01*
X150028967Y-61190844D01*
X150028951Y-61190268D01*
X150028951Y-61190018D01*
X150028964Y-61188535D01*
X150028974Y-61188899D01*
G37*
G36*
X150029032Y-61182866D02*
G01*
X150029006Y-61185112D01*
X150029005Y-61186140D01*
X150029015Y-61187124D01*
X150029038Y-61188079D01*
X150029076Y-61189019D01*
X150029011Y-61187909D01*
X150028975Y-61187196D01*
X150029011Y-61182866D01*
X150029076Y-61180269D01*
X150029032Y-61182866D01*
G37*
G36*
X141468175Y-62395830D02*
G01*
X141468175Y-62395829D01*
X141468176Y-62395827D01*
X141468178Y-62395826D01*
X141468180Y-62395824D01*
X141468185Y-62395821D01*
X141468193Y-62395817D01*
X141468202Y-62395812D01*
X141468212Y-62395808D01*
X141468234Y-62395799D01*
X141468253Y-62395792D01*
X141468175Y-62395830D01*
G37*
G36*
X141521038Y-62344954D02*
G01*
X141520970Y-62345136D01*
X141520899Y-62345331D01*
X141520826Y-62345541D01*
X141520751Y-62345767D01*
X141520255Y-62346690D01*
X141520081Y-62347001D01*
X141519959Y-62347181D01*
X141519929Y-62347213D01*
X141519929Y-62347189D01*
X141521099Y-62344800D01*
X141521038Y-62344954D01*
G37*
G36*
X143554211Y-60286555D02*
G01*
X143556131Y-60288125D01*
X143556174Y-60288164D01*
X143556628Y-60288593D01*
X143557076Y-60289048D01*
X143558096Y-60289985D01*
X143559096Y-60290923D01*
X143561045Y-60292798D01*
X143562948Y-60294673D01*
X143564826Y-60296548D01*
X143554205Y-60286551D01*
X143554211Y-60286555D01*
G37*
G36*
X148981610Y-60909739D02*
G01*
X148981659Y-60910116D01*
X148981710Y-60910446D01*
X148981737Y-60910597D01*
X148981766Y-60910741D01*
X148981796Y-60910879D01*
X148981828Y-60911012D01*
X148981897Y-60911272D01*
X148981975Y-60911532D01*
X148982063Y-60911803D01*
X148981563Y-60910804D01*
X148981562Y-60910179D01*
X148981563Y-60909554D01*
X148981563Y-60909303D01*
X148981610Y-60909739D01*
G37*
G36*
X142139446Y-61947307D02*
G01*
X142139351Y-61947725D01*
X142139168Y-61948537D01*
X142139075Y-61948885D01*
X142139028Y-61949034D01*
X142138980Y-61949162D01*
X142138930Y-61949267D01*
X142138879Y-61949346D01*
X142138853Y-61949374D01*
X142138826Y-61949395D01*
X142138799Y-61949408D01*
X142138771Y-61949412D01*
X142138168Y-61951287D01*
X142137864Y-61952225D01*
X142137546Y-61953162D01*
X142139546Y-61946912D01*
X142139446Y-61947307D01*
G37*
G36*
X146836216Y-63717804D02*
G01*
X146835513Y-63716241D01*
X146834708Y-63714348D01*
X146833944Y-63712444D01*
X146833221Y-63710528D01*
X146832540Y-63708600D01*
X146831902Y-63706661D01*
X146831305Y-63704710D01*
X146830750Y-63702747D01*
X146830238Y-63700772D01*
X146829769Y-63698786D01*
X146829343Y-63696788D01*
X146828959Y-63694778D01*
X146828619Y-63692757D01*
X146828322Y-63690723D01*
X146828069Y-63688679D01*
X146827859Y-63686622D01*
X146836216Y-63717804D01*
G37*
G36*
X142780650Y-64997671D02*
G01*
X142779104Y-64998417D01*
X142776061Y-64999988D01*
X142773084Y-65001660D01*
X142770173Y-65003422D01*
X142767330Y-65005266D01*
X142764555Y-65007184D01*
X142761849Y-65009166D01*
X142759212Y-65011204D01*
X142761469Y-65009396D01*
X142763682Y-65007720D01*
X142765837Y-65006175D01*
X142767921Y-65004758D01*
X142769920Y-65003467D01*
X142771818Y-65002300D01*
X142775259Y-65000328D01*
X142778132Y-64998825D01*
X142780324Y-64997774D01*
X142782212Y-64996953D01*
X142780650Y-64997671D01*
G37*
G36*
X146319130Y-61643030D02*
G01*
X146315868Y-61644439D01*
X146312662Y-61645916D01*
X146309518Y-61647488D01*
X146307970Y-61648318D01*
X146306439Y-61649183D01*
X146304926Y-61650085D01*
X146303430Y-61651029D01*
X146301954Y-61652017D01*
X146300497Y-61653053D01*
X146299060Y-61654142D01*
X146297643Y-61655285D01*
X146300793Y-61648284D01*
X146301012Y-61648210D01*
X146301228Y-61647724D01*
X146302695Y-61647300D01*
X146304356Y-61646794D01*
X146307659Y-61645769D01*
X146309315Y-61645276D01*
X146310985Y-61644814D01*
X146312675Y-61644396D01*
X146314393Y-61644035D01*
X146322443Y-61641660D01*
X146319130Y-61643030D01*
G37*
G36*
X141509400Y-61897628D02*
G01*
X141518445Y-61906986D01*
X141527715Y-61916221D01*
X141537227Y-61925318D01*
X141547001Y-61934263D01*
X141557054Y-61943041D01*
X141567406Y-61951637D01*
X141578074Y-61960037D01*
X141581386Y-61962451D01*
X141584752Y-61964747D01*
X141588159Y-61966957D01*
X141591596Y-61969116D01*
X141598511Y-61973415D01*
X141601964Y-61975622D01*
X141605400Y-61977913D01*
X141594411Y-61982239D01*
X141583324Y-61986741D01*
X141571825Y-61991361D01*
X141565823Y-61993696D01*
X141559599Y-61996039D01*
X141559584Y-61996054D01*
X141559568Y-61996070D01*
X141559536Y-61996101D01*
X141556766Y-61997129D01*
X141554033Y-61998199D01*
X141551337Y-61999308D01*
X141548675Y-62000459D01*
X141543455Y-62002880D01*
X141538364Y-62005460D01*
X141533397Y-62008199D01*
X141528546Y-62011095D01*
X141523803Y-62014146D01*
X141519161Y-62017351D01*
X141500561Y-61888162D01*
X141509400Y-61897628D01*
G37*
G36*
X149712083Y-61269869D02*
G01*
X149712132Y-61269870D01*
X149712183Y-61269876D01*
X149712239Y-61269886D01*
X149712298Y-61269902D01*
X149712362Y-61269924D01*
X149712430Y-61269954D01*
X149712504Y-61269993D01*
X149712583Y-61270041D01*
X149712668Y-61270099D01*
X149712759Y-61270168D01*
X149712857Y-61270249D01*
X149712962Y-61270343D01*
X149713074Y-61270452D01*
X149713194Y-61270575D01*
X149713322Y-61270713D01*
X149713458Y-61270869D01*
X149713388Y-61270829D01*
X149713319Y-61270792D01*
X149713251Y-61270758D01*
X149713184Y-61270727D01*
X149713117Y-61270698D01*
X149713052Y-61270671D01*
X149712925Y-61270624D01*
X149712803Y-61270584D01*
X149712687Y-61270551D01*
X149712577Y-61270524D01*
X149712474Y-61270501D01*
X149712140Y-61270438D01*
X149712079Y-61270424D01*
X149712028Y-61270408D01*
X149712006Y-61270399D01*
X149711988Y-61270390D01*
X149711971Y-61270380D01*
X149711958Y-61270369D01*
X149711947Y-61270356D01*
X149711936Y-61270343D01*
X149711927Y-61270329D01*
X149711918Y-61270314D01*
X149711909Y-61270298D01*
X149711902Y-61270281D01*
X149711896Y-61270264D01*
X149711890Y-61270246D01*
X149711885Y-61270228D01*
X149711882Y-61270210D01*
X149711879Y-61270191D01*
X149711877Y-61270172D01*
X149711876Y-61270153D01*
X149711877Y-61270133D01*
X149711878Y-61270114D01*
X149711880Y-61270095D01*
X149711884Y-61270076D01*
X149711888Y-61270057D01*
X149711894Y-61270039D01*
X149711901Y-61270021D01*
X149711909Y-61270004D01*
X149711918Y-61269987D01*
X149711929Y-61269971D01*
X149711941Y-61269955D01*
X149711954Y-61269941D01*
X149711968Y-61269927D01*
X149711984Y-61269914D01*
X149712001Y-61269903D01*
X149712019Y-61269892D01*
X149712039Y-61269883D01*
X149712061Y-61269875D01*
X149712083Y-61269868D01*
X149712083Y-61269869D01*
G37*
G36*
X144854962Y-64093679D02*
G01*
X144863545Y-64157820D01*
X144871525Y-64230073D01*
X144878276Y-64309766D01*
X144883175Y-64396226D01*
X144885598Y-64488782D01*
X144884919Y-64586763D01*
X144882132Y-64654630D01*
X144879886Y-64688252D01*
X144877072Y-64721543D01*
X144873690Y-64754409D01*
X144869740Y-64786756D01*
X144865222Y-64818492D01*
X144860135Y-64849523D01*
X144854481Y-64879756D01*
X144848259Y-64909098D01*
X144841469Y-64937456D01*
X144834112Y-64964736D01*
X144826187Y-64990846D01*
X144817694Y-65015691D01*
X144808633Y-65039179D01*
X144799005Y-65061217D01*
X144793795Y-65072144D01*
X144788569Y-65082620D01*
X144783321Y-65092651D01*
X144778046Y-65102245D01*
X144772738Y-65111410D01*
X144767391Y-65120153D01*
X144762002Y-65128482D01*
X144756563Y-65136406D01*
X144751070Y-65143930D01*
X144745517Y-65151064D01*
X144739899Y-65157815D01*
X144734210Y-65164191D01*
X144728446Y-65170199D01*
X144722600Y-65175847D01*
X144716667Y-65181142D01*
X144710642Y-65186093D01*
X144704498Y-65190718D01*
X144698193Y-65195078D01*
X144691701Y-65199175D01*
X144684998Y-65203010D01*
X144678060Y-65206585D01*
X144670861Y-65209901D01*
X144663377Y-65212961D01*
X144655583Y-65215766D01*
X144647455Y-65218317D01*
X144638968Y-65220617D01*
X144630098Y-65222666D01*
X144620819Y-65224467D01*
X144611106Y-65226021D01*
X144600937Y-65227330D01*
X144590285Y-65228395D01*
X144579125Y-65229219D01*
X144551724Y-65230267D01*
X144525664Y-65230484D01*
X144500898Y-65229904D01*
X144477378Y-65228562D01*
X144455058Y-65226494D01*
X144433890Y-65223734D01*
X144413828Y-65220318D01*
X144394825Y-65216281D01*
X144376833Y-65211658D01*
X144359805Y-65206484D01*
X144343695Y-65200794D01*
X144328456Y-65194624D01*
X144314040Y-65188009D01*
X144300401Y-65180983D01*
X144287491Y-65173583D01*
X144275264Y-65165842D01*
X144263656Y-65157770D01*
X144252587Y-65149327D01*
X144242037Y-65140522D01*
X144231984Y-65131362D01*
X144222406Y-65121855D01*
X144213282Y-65112009D01*
X144204591Y-65101831D01*
X144196312Y-65091329D01*
X144188423Y-65080512D01*
X144180902Y-65069387D01*
X144173729Y-65057961D01*
X144166882Y-65046243D01*
X144160339Y-65034241D01*
X144154080Y-65021961D01*
X144148082Y-65009413D01*
X144142325Y-64996603D01*
X144137060Y-64984055D01*
X144132156Y-64971436D01*
X144127601Y-64958778D01*
X144123382Y-64946112D01*
X144115902Y-64920874D01*
X144109613Y-64895971D01*
X144104413Y-64871647D01*
X144100201Y-64848148D01*
X144096873Y-64825720D01*
X144094330Y-64804609D01*
X144092467Y-64785061D01*
X144091184Y-64767322D01*
X144089948Y-64738253D01*
X144089938Y-64712638D01*
X144089962Y-64712013D01*
X144089981Y-64711388D01*
X144089994Y-64710763D01*
X144090000Y-64710138D01*
X144090019Y-64708282D01*
X144090024Y-64706544D01*
X144090016Y-64705040D01*
X144090000Y-64703888D01*
X144091250Y-64317609D01*
X144113115Y-64282032D01*
X144133976Y-64246719D01*
X144153894Y-64211669D01*
X144172932Y-64176883D01*
X144191150Y-64142359D01*
X144208610Y-64108097D01*
X144225373Y-64074097D01*
X144241500Y-64040357D01*
X144838433Y-63992857D01*
X144838456Y-63992639D01*
X144838480Y-63992420D01*
X144854962Y-64093679D01*
G37*
G36*
X150258485Y-59400615D02*
G01*
X150233950Y-59574729D01*
X150175266Y-59973182D01*
X150144584Y-60191731D01*
X150117925Y-60404155D01*
X150094307Y-60611207D01*
X150072751Y-60813640D01*
X150070647Y-60817018D01*
X150068639Y-60820446D01*
X150066730Y-60823924D01*
X150064924Y-60827449D01*
X150063224Y-60831019D01*
X150061633Y-60834633D01*
X150060153Y-60838288D01*
X150058789Y-60841984D01*
X150057543Y-60845717D01*
X150056419Y-60849487D01*
X150055419Y-60853291D01*
X150054548Y-60857128D01*
X150053807Y-60860996D01*
X150053200Y-60864892D01*
X150052731Y-60868816D01*
X150052402Y-60872765D01*
X150030701Y-61161517D01*
X150032389Y-61155890D01*
X150031731Y-61158340D01*
X150031070Y-61161150D01*
X150030498Y-61163971D01*
X150030014Y-61166798D01*
X150029617Y-61169626D01*
X150029305Y-61172451D01*
X150029076Y-61175269D01*
X150029076Y-61179019D01*
X150029065Y-61179033D01*
X150029055Y-61179075D01*
X150029039Y-61179233D01*
X150029014Y-61179800D01*
X150028988Y-61180601D01*
X150028951Y-61181519D01*
X150028951Y-61183801D01*
X150028922Y-61184724D01*
X150028916Y-61186847D01*
X150028936Y-61187556D01*
X150028927Y-61187925D01*
X150028923Y-61188313D01*
X150028925Y-61188803D01*
X150028933Y-61189441D01*
X150028951Y-61190268D01*
X150028957Y-61190793D01*
X150028976Y-61191421D01*
X150029010Y-61192136D01*
X150029060Y-61192925D01*
X150029128Y-61193772D01*
X150029215Y-61194663D01*
X150029322Y-61195583D01*
X150029421Y-61196300D01*
X150029441Y-61196641D01*
X150029514Y-61198518D01*
X150029764Y-61201019D01*
X150029741Y-61200947D01*
X150029720Y-61200873D01*
X150029681Y-61200718D01*
X150029646Y-61200557D01*
X150029615Y-61200393D01*
X150029561Y-61200069D01*
X150029514Y-61199769D01*
X150029941Y-61207777D01*
X150030701Y-61215716D01*
X150031793Y-61223577D01*
X150033219Y-61231350D01*
X150034982Y-61239025D01*
X150037082Y-61246592D01*
X150039521Y-61254041D01*
X150042301Y-61261362D01*
X150045423Y-61268546D01*
X150048889Y-61275582D01*
X150052700Y-61282460D01*
X150056858Y-61289171D01*
X150061364Y-61295705D01*
X150066220Y-61302052D01*
X150071427Y-61308201D01*
X150076988Y-61314144D01*
X150083166Y-61320107D01*
X150089547Y-61325672D01*
X150096113Y-61330844D01*
X150102845Y-61335631D01*
X150109724Y-61340037D01*
X150116732Y-61344069D01*
X150123849Y-61347733D01*
X150131058Y-61351035D01*
X150138339Y-61353981D01*
X150145674Y-61356577D01*
X150153045Y-61358830D01*
X150160433Y-61360744D01*
X150167818Y-61362327D01*
X150175183Y-61363584D01*
X150182509Y-61364521D01*
X150189777Y-61365145D01*
X150191089Y-61365169D01*
X150192402Y-61365155D01*
X150193714Y-61365114D01*
X150195027Y-61365057D01*
X150197652Y-61364941D01*
X150198964Y-61364903D01*
X150200277Y-61364895D01*
X150198912Y-61367037D01*
X150196667Y-61370504D01*
X150194634Y-61373666D01*
X150194037Y-61374624D01*
X150193903Y-61374858D01*
X150193885Y-61374902D01*
X150193901Y-61374894D01*
X150189450Y-61379536D01*
X150185162Y-61383904D01*
X150181040Y-61388004D01*
X150177086Y-61391844D01*
X150173301Y-61395430D01*
X150169688Y-61398770D01*
X150166249Y-61401870D01*
X150162986Y-61404738D01*
X150156995Y-61409804D01*
X150151731Y-61414023D01*
X150147211Y-61417452D01*
X150143451Y-61420144D01*
X150142673Y-61420577D01*
X150141976Y-61420962D01*
X150141357Y-61421302D01*
X150140813Y-61421598D01*
X150140340Y-61421855D01*
X150139934Y-61422072D01*
X150139592Y-61422254D01*
X150139311Y-61422402D01*
X150138917Y-61422606D01*
X150138827Y-61422651D01*
X150138827Y-61422707D01*
X150138835Y-61422709D01*
X150138836Y-61422714D01*
X150138831Y-61422722D01*
X150138820Y-61422733D01*
X150138782Y-61422764D01*
X150138727Y-61422803D01*
X150138578Y-61422898D01*
X150138405Y-61423004D01*
X150138106Y-61423182D01*
X150138042Y-61423222D01*
X150138040Y-61423224D01*
X150138045Y-61423222D01*
X150138076Y-61423207D01*
X150138241Y-61423154D01*
X150138367Y-61423112D01*
X150138418Y-61423095D01*
X150138452Y-61423082D01*
X150128884Y-61427825D01*
X150119666Y-61433127D01*
X150110819Y-61438964D01*
X150102366Y-61445311D01*
X150094328Y-61452145D01*
X150086727Y-61459442D01*
X150079583Y-61467178D01*
X150072920Y-61475329D01*
X150066758Y-61483870D01*
X150061120Y-61492779D01*
X150056026Y-61502031D01*
X150051499Y-61511602D01*
X150047560Y-61521467D01*
X150044231Y-61531604D01*
X150041533Y-61541989D01*
X150039488Y-61552596D01*
X150039425Y-61553721D01*
X150039425Y-61553784D01*
X150039300Y-61554533D01*
X150036898Y-61568782D01*
X150034154Y-61582706D01*
X150031090Y-61596305D01*
X150027728Y-61609576D01*
X150024088Y-61622517D01*
X150020192Y-61635127D01*
X150016061Y-61647402D01*
X150011717Y-61659341D01*
X150007182Y-61670942D01*
X150002476Y-61682203D01*
X149997621Y-61693122D01*
X149992639Y-61703696D01*
X149987550Y-61713924D01*
X149982377Y-61723804D01*
X149971862Y-61742511D01*
X149970168Y-61745355D01*
X149968627Y-61747988D01*
X149967229Y-61750423D01*
X149965965Y-61752671D01*
X149963794Y-61756657D01*
X149962036Y-61760042D01*
X149960611Y-61762924D01*
X149959437Y-61765398D01*
X149957526Y-61769511D01*
X149957333Y-61769985D01*
X149957131Y-61770466D01*
X149956713Y-61771433D01*
X149955901Y-61773261D01*
X149955673Y-61773730D01*
X149955459Y-61774198D01*
X149955065Y-61775136D01*
X149954705Y-61776073D01*
X149954369Y-61777011D01*
X149953721Y-61778886D01*
X149953385Y-61779823D01*
X149953025Y-61780761D01*
X149926916Y-61709671D01*
X149899744Y-61640889D01*
X149871581Y-61574468D01*
X149842499Y-61510463D01*
X149812570Y-61448928D01*
X149798931Y-61422715D01*
X150138692Y-61422715D01*
X150138693Y-61422715D01*
X150138723Y-61422702D01*
X150138827Y-61422651D01*
X150138827Y-61422644D01*
X150138703Y-61422709D01*
X150138693Y-61422714D01*
X150138692Y-61422715D01*
X149798931Y-61422715D01*
X149781865Y-61389916D01*
X149750456Y-61333483D01*
X149718414Y-61279681D01*
X149678010Y-61186306D01*
X149636411Y-61094905D01*
X149593652Y-61005457D01*
X149549763Y-60917940D01*
X149504778Y-60832333D01*
X149458729Y-60748614D01*
X149411648Y-60666762D01*
X149363569Y-60586756D01*
X149314523Y-60508574D01*
X149264543Y-60432194D01*
X149213662Y-60357596D01*
X149161912Y-60284757D01*
X149109326Y-60213657D01*
X149055936Y-60144273D01*
X149001775Y-60076584D01*
X148946875Y-60010570D01*
X149079886Y-59947262D01*
X149202584Y-59887136D01*
X149315758Y-59829959D01*
X149420194Y-59775497D01*
X149516679Y-59723516D01*
X149605999Y-59673783D01*
X149688942Y-59626064D01*
X149766294Y-59580127D01*
X149907373Y-59492659D01*
X150035532Y-59409513D01*
X150278266Y-59248712D01*
X150278554Y-59248088D01*
X150258485Y-59400615D01*
G37*
G36*
X145702028Y-58886972D02*
G01*
X145702028Y-58886971D01*
X145702030Y-58886970D01*
X145702036Y-58886967D01*
X145702045Y-58886964D01*
X145702058Y-58886961D01*
X145702090Y-58886954D01*
X145702129Y-58886946D01*
X145702171Y-58886937D01*
X145702212Y-58886929D01*
X145702249Y-58886919D01*
X145702264Y-58886915D01*
X145702278Y-58886910D01*
X145702537Y-58890139D01*
X145921749Y-58898221D01*
X146140971Y-58916199D01*
X146359684Y-58944700D01*
X146577370Y-58984349D01*
X146793509Y-59035772D01*
X147007583Y-59099596D01*
X147219073Y-59176446D01*
X147427461Y-59266947D01*
X147632228Y-59371727D01*
X147832855Y-59491411D01*
X148028823Y-59626626D01*
X148219614Y-59777996D01*
X148312906Y-59859935D01*
X148404709Y-59946148D01*
X148494959Y-60036712D01*
X148583590Y-60131707D01*
X148670538Y-60231211D01*
X148755737Y-60335301D01*
X148839124Y-60444056D01*
X148920633Y-60557554D01*
X148932575Y-60576145D01*
X148944481Y-60595201D01*
X148968215Y-60634525D01*
X148991896Y-60675155D01*
X149015583Y-60716718D01*
X149011478Y-60720027D01*
X149007431Y-60723482D01*
X149003456Y-60727074D01*
X148999568Y-60730796D01*
X148995780Y-60734642D01*
X148992107Y-60738603D01*
X148988561Y-60742672D01*
X148986841Y-60744745D01*
X148985157Y-60746843D01*
X148985146Y-60746866D01*
X148985137Y-60746887D01*
X148985128Y-60746907D01*
X148985120Y-60746926D01*
X148985095Y-60746991D01*
X148985089Y-60747005D01*
X148985083Y-60747019D01*
X148985076Y-60747032D01*
X148985069Y-60747045D01*
X148985062Y-60747057D01*
X148985053Y-60747069D01*
X148985048Y-60747075D01*
X148985043Y-60747081D01*
X148985038Y-60747087D01*
X148985032Y-60747093D01*
X148979936Y-60754260D01*
X148975262Y-60761600D01*
X148971008Y-60769097D01*
X148967171Y-60776736D01*
X148963749Y-60784503D01*
X148960738Y-60792382D01*
X148958136Y-60800358D01*
X148955940Y-60808415D01*
X148954148Y-60816540D01*
X148952756Y-60824716D01*
X148951762Y-60832928D01*
X148951163Y-60841162D01*
X148950957Y-60849403D01*
X148951141Y-60857634D01*
X148951711Y-60865842D01*
X148952666Y-60874010D01*
X148954003Y-60882125D01*
X148955718Y-60890170D01*
X148957809Y-60898131D01*
X148960274Y-60905992D01*
X148963109Y-60913739D01*
X148966312Y-60921356D01*
X148969880Y-60928829D01*
X148973810Y-60936141D01*
X148978100Y-60943278D01*
X148982747Y-60950226D01*
X148987748Y-60956968D01*
X148993101Y-60963489D01*
X148998802Y-60969776D01*
X149004849Y-60975811D01*
X149011240Y-60981581D01*
X149017970Y-60987071D01*
X149018017Y-60987072D01*
X149018064Y-60987078D01*
X149018111Y-60987087D01*
X149018158Y-60987099D01*
X149018205Y-60987114D01*
X149018252Y-60987132D01*
X149018299Y-60987154D01*
X149018345Y-60987178D01*
X149018439Y-60987235D01*
X149018533Y-60987301D01*
X149018627Y-60987377D01*
X149018721Y-60987461D01*
X149018814Y-60987553D01*
X149018908Y-60987650D01*
X149019002Y-60987754D01*
X149019096Y-60987862D01*
X149019283Y-60988087D01*
X149019471Y-60988321D01*
X149071637Y-61032271D01*
X149130039Y-61088193D01*
X149165335Y-61124928D01*
X149203938Y-61167621D01*
X149245280Y-61216354D01*
X149288796Y-61271210D01*
X149333917Y-61332270D01*
X149380077Y-61399616D01*
X149426708Y-61473330D01*
X149473243Y-61553495D01*
X149519115Y-61640192D01*
X149563757Y-61733503D01*
X149577207Y-61763612D01*
X149583603Y-61778274D01*
X149589795Y-61792878D01*
X149589806Y-61792901D01*
X149589815Y-61792925D01*
X149589824Y-61792948D01*
X149589832Y-61792972D01*
X149589839Y-61792995D01*
X149589845Y-61793019D01*
X149589857Y-61793066D01*
X149589869Y-61793112D01*
X149589876Y-61793136D01*
X149589883Y-61793159D01*
X149589890Y-61793183D01*
X149589899Y-61793206D01*
X149589909Y-61793230D01*
X149589919Y-61793253D01*
X149602435Y-61823374D01*
X149614738Y-61854007D01*
X149626805Y-61885166D01*
X149638614Y-61916867D01*
X149650141Y-61949123D01*
X149661365Y-61981949D01*
X149672261Y-62015359D01*
X149682808Y-62049368D01*
X149688460Y-62068608D01*
X149694020Y-62088446D01*
X149705222Y-62129869D01*
X149710745Y-62150633D01*
X149716158Y-62171478D01*
X149721399Y-62192394D01*
X149726409Y-62213369D01*
X149726194Y-62212223D01*
X149726565Y-62213947D01*
X149727358Y-62217570D01*
X149728408Y-62222119D01*
X149728425Y-62222207D01*
X149728439Y-62222287D01*
X149728462Y-62222431D01*
X149728475Y-62222502D01*
X149728490Y-62222576D01*
X149728509Y-62222656D01*
X149728521Y-62222699D01*
X149728534Y-62222744D01*
X149728588Y-62222972D01*
X149728617Y-62223113D01*
X149728629Y-62223199D01*
X149728635Y-62223260D01*
X149728644Y-62223326D01*
X149728666Y-62223429D01*
X149728709Y-62223600D01*
X149728784Y-62223869D01*
X149733722Y-62245416D01*
X149738285Y-62265745D01*
X149744658Y-62296310D01*
X149750736Y-62326792D01*
X149756497Y-62357345D01*
X149761921Y-62388121D01*
X149761959Y-62388934D01*
X149761984Y-62389559D01*
X149762009Y-62390090D01*
X149762026Y-62390350D01*
X149762046Y-62390622D01*
X149772750Y-62462856D01*
X149781485Y-62539594D01*
X149788235Y-62620323D01*
X149792986Y-62704530D01*
X149795724Y-62791701D01*
X149796434Y-62881324D01*
X149791709Y-63065873D01*
X149778695Y-63254071D01*
X149769042Y-63348256D01*
X149757273Y-63441815D01*
X149743372Y-63534234D01*
X149727325Y-63625000D01*
X149709118Y-63713600D01*
X149688734Y-63799521D01*
X149661014Y-63924993D01*
X149639834Y-64055250D01*
X149624398Y-64189631D01*
X149613905Y-64327475D01*
X149607560Y-64468119D01*
X149604564Y-64610903D01*
X149605426Y-64900241D01*
X149612229Y-65475478D01*
X149605403Y-65750791D01*
X149596639Y-65883055D01*
X149583246Y-66010843D01*
X149574626Y-66072752D01*
X149564729Y-66132980D01*
X149553505Y-66191482D01*
X149540906Y-66248215D01*
X149526885Y-66303135D01*
X149511391Y-66356198D01*
X149494378Y-66407361D01*
X149475796Y-66456579D01*
X149455596Y-66503810D01*
X149433731Y-66549009D01*
X149410152Y-66592132D01*
X149384811Y-66633137D01*
X149357658Y-66671978D01*
X149328646Y-66708613D01*
X149297726Y-66742997D01*
X149264850Y-66775087D01*
X149235536Y-66800217D01*
X149204038Y-66823996D01*
X149170288Y-66846364D01*
X149134214Y-66867264D01*
X149095748Y-66886637D01*
X149054818Y-66904423D01*
X149011356Y-66920564D01*
X148965291Y-66935001D01*
X148916554Y-66947676D01*
X148865073Y-66958529D01*
X148810780Y-66967503D01*
X148753603Y-66974538D01*
X148693475Y-66979575D01*
X148630323Y-66982556D01*
X148564079Y-66983422D01*
X148494672Y-66982115D01*
X148511710Y-66936716D01*
X148532282Y-66885263D01*
X148556658Y-66827577D01*
X148585108Y-66763479D01*
X148617902Y-66692790D01*
X148655310Y-66615331D01*
X148697602Y-66530922D01*
X148745047Y-66439384D01*
X148821395Y-66383095D01*
X148891839Y-66326758D01*
X148956489Y-66270396D01*
X149015457Y-66214033D01*
X149068854Y-66157691D01*
X149116791Y-66101393D01*
X149159380Y-66045162D01*
X149196731Y-65989021D01*
X149228956Y-65932994D01*
X149256166Y-65877102D01*
X149278472Y-65821368D01*
X149295986Y-65765817D01*
X149308818Y-65710470D01*
X149317080Y-65655351D01*
X149320883Y-65600483D01*
X149320339Y-65545888D01*
X149315982Y-65491444D01*
X149308568Y-65438392D01*
X149298434Y-65386688D01*
X149285916Y-65336293D01*
X149271351Y-65287164D01*
X149255075Y-65239260D01*
X149237426Y-65192538D01*
X149218741Y-65146958D01*
X149179607Y-65059056D01*
X149140369Y-64975218D01*
X149103719Y-64895113D01*
X149087208Y-64856356D01*
X149072354Y-64818407D01*
X149072330Y-64818399D01*
X149072306Y-64818373D01*
X149072255Y-64818277D01*
X149072202Y-64818126D01*
X149072147Y-64817927D01*
X149072033Y-64817419D01*
X149071916Y-64816814D01*
X149071686Y-64815560D01*
X149071578Y-64815034D01*
X149071527Y-64814823D01*
X149071478Y-64814657D01*
X149096442Y-64821464D01*
X149121609Y-64827699D01*
X149146986Y-64833314D01*
X149172581Y-64838267D01*
X149198401Y-64842510D01*
X149224454Y-64845999D01*
X149250745Y-64848688D01*
X149277282Y-64850532D01*
X149284598Y-64850838D01*
X149291835Y-64850845D01*
X149298986Y-64850560D01*
X149306049Y-64849990D01*
X149313017Y-64849139D01*
X149319885Y-64848015D01*
X149326650Y-64846624D01*
X149333307Y-64844972D01*
X149339849Y-64843065D01*
X149346273Y-64840910D01*
X149352574Y-64838512D01*
X149358747Y-64835879D01*
X149364787Y-64833016D01*
X149370689Y-64829929D01*
X149376449Y-64826625D01*
X149382062Y-64823110D01*
X149387522Y-64819391D01*
X149392825Y-64815473D01*
X149397966Y-64811363D01*
X149402941Y-64807067D01*
X149407744Y-64802591D01*
X149412371Y-64797941D01*
X149416817Y-64793125D01*
X149421076Y-64788147D01*
X149425145Y-64783015D01*
X149429019Y-64777734D01*
X149432691Y-64772311D01*
X149436159Y-64766752D01*
X149439417Y-64761064D01*
X149442459Y-64755251D01*
X149445282Y-64749322D01*
X149447880Y-64743282D01*
X149452362Y-64730972D01*
X149455901Y-64718370D01*
X149458488Y-64705540D01*
X149460111Y-64692546D01*
X149460762Y-64679451D01*
X149460430Y-64666319D01*
X149459105Y-64653213D01*
X149456777Y-64640198D01*
X149453437Y-64627337D01*
X149451384Y-64620984D01*
X149449074Y-64614694D01*
X149446505Y-64608473D01*
X149443677Y-64602331D01*
X149440589Y-64596276D01*
X149437238Y-64590314D01*
X149433625Y-64584455D01*
X149429747Y-64578705D01*
X149425603Y-64573074D01*
X149421192Y-64567569D01*
X149416513Y-64562198D01*
X149411565Y-64556969D01*
X149406346Y-64551889D01*
X149400855Y-64546968D01*
X149401354Y-64547344D01*
X149377825Y-64525448D01*
X149352424Y-64499116D01*
X149325346Y-64468551D01*
X149296785Y-64433955D01*
X149235991Y-64353475D01*
X149171596Y-64259293D01*
X149105153Y-64153026D01*
X149038215Y-64036289D01*
X149005045Y-63974500D01*
X148972335Y-63910699D01*
X148940278Y-63845090D01*
X148909068Y-63777873D01*
X148849031Y-63638678D01*
X148792608Y-63494409D01*
X148740598Y-63346411D01*
X148693797Y-63196027D01*
X148653005Y-63044601D01*
X148635111Y-62968918D01*
X148619018Y-62893478D01*
X148604826Y-62818449D01*
X148592635Y-62744000D01*
X148582544Y-62670298D01*
X148574654Y-62597512D01*
X148574654Y-62597262D01*
X148573622Y-62588544D01*
X148572163Y-62579974D01*
X148570289Y-62571562D01*
X148568011Y-62563318D01*
X148565341Y-62555253D01*
X148562290Y-62547375D01*
X148558871Y-62539695D01*
X148555095Y-62532222D01*
X148550975Y-62524967D01*
X148546521Y-62517940D01*
X148541745Y-62511150D01*
X148536660Y-62504607D01*
X148531277Y-62498321D01*
X148525608Y-62492302D01*
X148519664Y-62486560D01*
X148513458Y-62481105D01*
X148507000Y-62475946D01*
X148500304Y-62471094D01*
X148493380Y-62466558D01*
X148486241Y-62462349D01*
X148478898Y-62458476D01*
X148471363Y-62454948D01*
X148463647Y-62451777D01*
X148455763Y-62448972D01*
X148447723Y-62446542D01*
X148439537Y-62444498D01*
X148431218Y-62442850D01*
X148422778Y-62441607D01*
X148414228Y-62440779D01*
X148405579Y-62440376D01*
X148396845Y-62440409D01*
X148388037Y-62440886D01*
X148387949Y-62440891D01*
X148387871Y-62440897D01*
X148387802Y-62440904D01*
X148387740Y-62440911D01*
X148387633Y-62440924D01*
X148387584Y-62440930D01*
X148387537Y-62440936D01*
X148378683Y-62441963D01*
X148369983Y-62443428D01*
X148361448Y-62445317D01*
X148353088Y-62447619D01*
X148344912Y-62450320D01*
X148336931Y-62453410D01*
X148329155Y-62456876D01*
X148321595Y-62460705D01*
X148314259Y-62464886D01*
X148307159Y-62469405D01*
X148300304Y-62474252D01*
X148293705Y-62479413D01*
X148287371Y-62484877D01*
X148281314Y-62490630D01*
X148275542Y-62496662D01*
X148270066Y-62502960D01*
X148264896Y-62509511D01*
X148260042Y-62516303D01*
X148255515Y-62523325D01*
X148251324Y-62530563D01*
X148247480Y-62538006D01*
X148243992Y-62545641D01*
X148240871Y-62553457D01*
X148238127Y-62561440D01*
X148235770Y-62569579D01*
X148233810Y-62577862D01*
X148232258Y-62586276D01*
X148231122Y-62594809D01*
X148230414Y-62603449D01*
X148230144Y-62612183D01*
X148230321Y-62621000D01*
X148230956Y-62629887D01*
X148230956Y-62629950D01*
X148239872Y-62712567D01*
X148251130Y-62795519D01*
X148264625Y-62878679D01*
X148280248Y-62961917D01*
X148297892Y-63045107D01*
X148317451Y-63128119D01*
X148338818Y-63210826D01*
X148361884Y-63293100D01*
X148412689Y-63455835D01*
X148469008Y-63615301D01*
X148529984Y-63770472D01*
X148594760Y-63920325D01*
X148618578Y-63971927D01*
X148642697Y-64022089D01*
X148667090Y-64070839D01*
X148691734Y-64118205D01*
X148716601Y-64164215D01*
X148741668Y-64208897D01*
X148766908Y-64252280D01*
X148792296Y-64294391D01*
X148771761Y-64279793D01*
X148751426Y-64264781D01*
X148731304Y-64249365D01*
X148711411Y-64233553D01*
X148691763Y-64217357D01*
X148672374Y-64200783D01*
X148653259Y-64183842D01*
X148634433Y-64166544D01*
X148615912Y-64148896D01*
X148597711Y-64130909D01*
X148579844Y-64112592D01*
X148562327Y-64093954D01*
X148545175Y-64075004D01*
X148528403Y-64055751D01*
X148512026Y-64036205D01*
X148496058Y-64016375D01*
X148445663Y-63949950D01*
X148397107Y-63883043D01*
X148350600Y-63815970D01*
X148306352Y-63749043D01*
X148264574Y-63682575D01*
X148225474Y-63616882D01*
X148189264Y-63552276D01*
X148156154Y-63489070D01*
X148150532Y-63478709D01*
X148144241Y-63468961D01*
X148137323Y-63459842D01*
X148129821Y-63451365D01*
X148121779Y-63443543D01*
X148113238Y-63436390D01*
X148104241Y-63429921D01*
X148094832Y-63424148D01*
X148085054Y-63419085D01*
X148074948Y-63414747D01*
X148064558Y-63411147D01*
X148053927Y-63408298D01*
X148043097Y-63406215D01*
X148032112Y-63404910D01*
X148021013Y-63404399D01*
X148009845Y-63404694D01*
X148006122Y-63404981D01*
X148002396Y-63405371D01*
X147998669Y-63405862D01*
X147994944Y-63406452D01*
X147991222Y-63407139D01*
X147987507Y-63407920D01*
X147983800Y-63408793D01*
X147980105Y-63409757D01*
X147976424Y-63410808D01*
X147972759Y-63411945D01*
X147969114Y-63413166D01*
X147965489Y-63414468D01*
X147961889Y-63415849D01*
X147958315Y-63417307D01*
X147954770Y-63418839D01*
X147951257Y-63420444D01*
X147964418Y-63415116D01*
X147963958Y-63415328D01*
X147962107Y-63416124D01*
X147960266Y-63416861D01*
X147958435Y-63417569D01*
X147956614Y-63418277D01*
X147954804Y-63419014D01*
X147953006Y-63419810D01*
X147952111Y-63420239D01*
X147951219Y-63420694D01*
X147951156Y-63420694D01*
X147951132Y-63420717D01*
X147951109Y-63420738D01*
X147951085Y-63420757D01*
X147951062Y-63420775D01*
X147951038Y-63420792D01*
X147951015Y-63420808D01*
X147950992Y-63420823D01*
X147950968Y-63420838D01*
X147950781Y-63420944D01*
X147943899Y-63424645D01*
X147937283Y-63428647D01*
X147930937Y-63432940D01*
X147924865Y-63437509D01*
X147919072Y-63442341D01*
X147913563Y-63447424D01*
X147908340Y-63452745D01*
X147903409Y-63458291D01*
X147898773Y-63464049D01*
X147894437Y-63470006D01*
X147890405Y-63476149D01*
X147886682Y-63482465D01*
X147883271Y-63488941D01*
X147880176Y-63495565D01*
X147877403Y-63502323D01*
X147874955Y-63509203D01*
X147872837Y-63516191D01*
X147871052Y-63523275D01*
X147869605Y-63530442D01*
X147868500Y-63537678D01*
X147867741Y-63544971D01*
X147867333Y-63552309D01*
X147867280Y-63559677D01*
X147867586Y-63567064D01*
X147868256Y-63574455D01*
X147869292Y-63581839D01*
X147870701Y-63589203D01*
X147872485Y-63596533D01*
X147874650Y-63603816D01*
X147877199Y-63611040D01*
X147880137Y-63618192D01*
X147883468Y-63625259D01*
X147883479Y-63625282D01*
X147883488Y-63625306D01*
X147883497Y-63625330D01*
X147883504Y-63625355D01*
X147883518Y-63625406D01*
X147883530Y-63625462D01*
X147883555Y-63625593D01*
X147883572Y-63625671D01*
X147883593Y-63625759D01*
X147914244Y-63684648D01*
X147947013Y-63744030D01*
X147981779Y-63803784D01*
X148018421Y-63863792D01*
X148056817Y-63923933D01*
X148096845Y-63984088D01*
X148138385Y-64044138D01*
X148181315Y-64103963D01*
X148180122Y-64110058D01*
X148178991Y-64116348D01*
X148177936Y-64122840D01*
X148176972Y-64129541D01*
X148176113Y-64136460D01*
X148175374Y-64143602D01*
X148174770Y-64150976D01*
X148174315Y-64158589D01*
X148173835Y-64179949D01*
X148174367Y-64202835D01*
X148176028Y-64227250D01*
X148178936Y-64253196D01*
X148183209Y-64280675D01*
X148188964Y-64309688D01*
X148196319Y-64340239D01*
X148200633Y-64356091D01*
X148205392Y-64372328D01*
X148211620Y-64391708D01*
X148218666Y-64411532D01*
X148226520Y-64431796D01*
X148235173Y-64452498D01*
X148244617Y-64473637D01*
X148254843Y-64495209D01*
X148277604Y-64539644D01*
X148303386Y-64585787D01*
X148332118Y-64633618D01*
X148363728Y-64683118D01*
X148398147Y-64734269D01*
X148331856Y-64705195D01*
X148264357Y-64673758D01*
X148196317Y-64640501D01*
X148128404Y-64605965D01*
X148061285Y-64570692D01*
X147995627Y-64535223D01*
X147871365Y-64465867D01*
X147864565Y-64462186D01*
X147857657Y-64458830D01*
X147850649Y-64455801D01*
X147843553Y-64453097D01*
X147836381Y-64450721D01*
X147829142Y-64448671D01*
X147821847Y-64446949D01*
X147814507Y-64445554D01*
X147807134Y-64444488D01*
X147799737Y-64443750D01*
X147792328Y-64443341D01*
X147784918Y-64443261D01*
X147777516Y-64443511D01*
X147770135Y-64444091D01*
X147762785Y-64445001D01*
X147755476Y-64446242D01*
X147754721Y-64438854D01*
X147753616Y-64431512D01*
X147752160Y-64424231D01*
X147750356Y-64417023D01*
X147748203Y-64409903D01*
X147745702Y-64402885D01*
X147742854Y-64395983D01*
X147739660Y-64389210D01*
X147736121Y-64382581D01*
X147732237Y-64376109D01*
X147728009Y-64369809D01*
X147723438Y-64363694D01*
X147718524Y-64357778D01*
X147713270Y-64352076D01*
X147707674Y-64346600D01*
X147701738Y-64341366D01*
X147701727Y-64341365D01*
X147701715Y-64341364D01*
X147701703Y-64341361D01*
X147701691Y-64341358D01*
X147701680Y-64341354D01*
X147701668Y-64341349D01*
X147701656Y-64341343D01*
X147701644Y-64341337D01*
X147701621Y-64341323D01*
X147701597Y-64341306D01*
X147701574Y-64341288D01*
X147701550Y-64341268D01*
X147701456Y-64341186D01*
X147701433Y-64341166D01*
X147701409Y-64341148D01*
X147701386Y-64341130D01*
X147701363Y-64341115D01*
X147668679Y-64312763D01*
X147634794Y-64281175D01*
X147599825Y-64246468D01*
X147563887Y-64208759D01*
X147527099Y-64168165D01*
X147489576Y-64124803D01*
X147412792Y-64030243D01*
X147334469Y-63926014D01*
X147255538Y-63813052D01*
X147176932Y-63692292D01*
X147099584Y-63564671D01*
X147094144Y-63556009D01*
X147088218Y-63547840D01*
X147081835Y-63540172D01*
X147075028Y-63533011D01*
X147067826Y-63526364D01*
X147060260Y-63520238D01*
X147052361Y-63514640D01*
X147044160Y-63509577D01*
X147035688Y-63505056D01*
X147026974Y-63501084D01*
X147018051Y-63497668D01*
X147008949Y-63494815D01*
X146999698Y-63492532D01*
X146990329Y-63490826D01*
X146980873Y-63489703D01*
X146971361Y-63489171D01*
X146971338Y-63489168D01*
X146971317Y-63489165D01*
X146971297Y-63489162D01*
X146971278Y-63489159D01*
X146971260Y-63489156D01*
X146971243Y-63489153D01*
X146971212Y-63489146D01*
X146971159Y-63489132D01*
X146971134Y-63489126D01*
X146971111Y-63489121D01*
X146967860Y-63489102D01*
X146964761Y-63489138D01*
X146961810Y-63489224D01*
X146959004Y-63489355D01*
X146956338Y-63489527D01*
X146953810Y-63489736D01*
X146951414Y-63489977D01*
X146949148Y-63490246D01*
X146948898Y-63490246D01*
X146945186Y-63490745D01*
X146941478Y-63491350D01*
X146937775Y-63492059D01*
X146934081Y-63492869D01*
X146930397Y-63493778D01*
X146926726Y-63494783D01*
X146923071Y-63495883D01*
X146919434Y-63497074D01*
X146915817Y-63498354D01*
X146912223Y-63499722D01*
X146908654Y-63501174D01*
X146905113Y-63502708D01*
X146901601Y-63504323D01*
X146898123Y-63506014D01*
X146894679Y-63507781D01*
X146891273Y-63509620D01*
X146891210Y-63509683D01*
X146884554Y-63513789D01*
X146878182Y-63518183D01*
X146872097Y-63522850D01*
X146866302Y-63527778D01*
X146860803Y-63532953D01*
X146855600Y-63538363D01*
X146850699Y-63543993D01*
X146846103Y-63549831D01*
X146841815Y-63555863D01*
X146837839Y-63562077D01*
X146834177Y-63568458D01*
X146830835Y-63574995D01*
X146827814Y-63581673D01*
X146825119Y-63588479D01*
X146822753Y-63595401D01*
X146820719Y-63602424D01*
X146819021Y-63609536D01*
X146817663Y-63616724D01*
X146816648Y-63623974D01*
X146815979Y-63631273D01*
X146815660Y-63638607D01*
X146815694Y-63645965D01*
X146816085Y-63653331D01*
X146816836Y-63660694D01*
X146817951Y-63668040D01*
X146819434Y-63675355D01*
X146821287Y-63682627D01*
X146823514Y-63689842D01*
X146826119Y-63696988D01*
X146829105Y-63704050D01*
X146832476Y-63711015D01*
X146836234Y-63717871D01*
X146836216Y-63717804D01*
X146836359Y-63718122D01*
X146877097Y-63786700D01*
X146918214Y-63853665D01*
X146959663Y-63918934D01*
X147001395Y-63982424D01*
X147043359Y-64044052D01*
X147085509Y-64103735D01*
X147127793Y-64161391D01*
X147170164Y-64216937D01*
X147212572Y-64270288D01*
X147254968Y-64321364D01*
X147297303Y-64370080D01*
X147339528Y-64416354D01*
X147381595Y-64460102D01*
X147423453Y-64501243D01*
X147465055Y-64539692D01*
X147506350Y-64575368D01*
X147506850Y-64575868D01*
X147512492Y-64580195D01*
X147518277Y-64584225D01*
X147524195Y-64587956D01*
X147530236Y-64591392D01*
X147536388Y-64594531D01*
X147542642Y-64597375D01*
X147548987Y-64599925D01*
X147555412Y-64602181D01*
X147561908Y-64604144D01*
X147568463Y-64605815D01*
X147575068Y-64607194D01*
X147581712Y-64608283D01*
X147588383Y-64609081D01*
X147595073Y-64609590D01*
X147601770Y-64609811D01*
X147608464Y-64609743D01*
X147608162Y-64611317D01*
X147607827Y-64612864D01*
X147607120Y-64615962D01*
X147606777Y-64617553D01*
X147606460Y-64619200D01*
X147606184Y-64620923D01*
X147606066Y-64621820D01*
X147605964Y-64622743D01*
X147605964Y-64622806D01*
X147605224Y-64632104D01*
X147604788Y-64641540D01*
X147604657Y-64651118D01*
X147604834Y-64660839D01*
X147605319Y-64670707D01*
X147606116Y-64680725D01*
X147607225Y-64690896D01*
X147608650Y-64701222D01*
X147610391Y-64711707D01*
X147612451Y-64722353D01*
X147614832Y-64733164D01*
X147617535Y-64744141D01*
X147620563Y-64755289D01*
X147623918Y-64766610D01*
X147627601Y-64778106D01*
X147631614Y-64789782D01*
X147634596Y-64797862D01*
X147637810Y-64805971D01*
X147641245Y-64814108D01*
X147644892Y-64822277D01*
X147652785Y-64838717D01*
X147661412Y-64855305D01*
X147670699Y-64872055D01*
X147680571Y-64888983D01*
X147690951Y-64906104D01*
X147701766Y-64923433D01*
X147588125Y-64873165D01*
X147467508Y-64812619D01*
X147340988Y-64740863D01*
X147209637Y-64656968D01*
X147074528Y-64560003D01*
X146936732Y-64449037D01*
X146797321Y-64323141D01*
X146657369Y-64181382D01*
X146517947Y-64022832D01*
X146380127Y-63846560D01*
X146244981Y-63651634D01*
X146113582Y-63437125D01*
X145987002Y-63202103D01*
X145866313Y-62945636D01*
X145752588Y-62666794D01*
X145646898Y-62364646D01*
X145646876Y-62364506D01*
X145646859Y-62364365D01*
X145646844Y-62364225D01*
X145646830Y-62364084D01*
X145646804Y-62363803D01*
X145646789Y-62363662D01*
X145646772Y-62363522D01*
X145644226Y-62356039D01*
X145641360Y-62348738D01*
X145638184Y-62341623D01*
X145634708Y-62334702D01*
X145630942Y-62327980D01*
X145626896Y-62321463D01*
X145622580Y-62315159D01*
X145618003Y-62309072D01*
X145613176Y-62303210D01*
X145608109Y-62297579D01*
X145597292Y-62287034D01*
X145585631Y-62277488D01*
X145573207Y-62268990D01*
X145560098Y-62261590D01*
X145546384Y-62255340D01*
X145532144Y-62250288D01*
X145524851Y-62248228D01*
X145517457Y-62246486D01*
X145509970Y-62245069D01*
X145502402Y-62243983D01*
X145494762Y-62243234D01*
X145487059Y-62242829D01*
X145479305Y-62242774D01*
X145471508Y-62243075D01*
X145463678Y-62243739D01*
X145455826Y-62244771D01*
X145447898Y-62246178D01*
X145440113Y-62247931D01*
X145432479Y-62250023D01*
X145425002Y-62252444D01*
X145417691Y-62255186D01*
X145410552Y-62258239D01*
X145403592Y-62261595D01*
X145396820Y-62265245D01*
X145390242Y-62269179D01*
X145383865Y-62273389D01*
X145377696Y-62277865D01*
X145371744Y-62282599D01*
X145366015Y-62287582D01*
X145360516Y-62292804D01*
X145355254Y-62298258D01*
X145350238Y-62303933D01*
X145345474Y-62309820D01*
X145340969Y-62315912D01*
X145336730Y-62322199D01*
X145332766Y-62328671D01*
X145329083Y-62335320D01*
X145325688Y-62342138D01*
X145322588Y-62349114D01*
X145319792Y-62356240D01*
X145317305Y-62363507D01*
X145315136Y-62370907D01*
X145313292Y-62378429D01*
X145311780Y-62386065D01*
X145310606Y-62393807D01*
X145309779Y-62401645D01*
X145309306Y-62409569D01*
X145309193Y-62417573D01*
X145309196Y-62418041D01*
X145309204Y-62418510D01*
X145309232Y-62419447D01*
X145309273Y-62420385D01*
X145309319Y-62421322D01*
X145315080Y-62490496D01*
X145324793Y-62572780D01*
X145341294Y-62683144D01*
X145366257Y-62818799D01*
X145401356Y-62976958D01*
X145423230Y-63063605D01*
X145448266Y-63154832D01*
X145476673Y-63250290D01*
X145508661Y-63349631D01*
X145467355Y-63312617D01*
X145427533Y-63275321D01*
X145389185Y-63237742D01*
X145352305Y-63199877D01*
X145316883Y-63161723D01*
X145282911Y-63123279D01*
X145250383Y-63084540D01*
X145219289Y-63045506D01*
X145189621Y-63006173D01*
X145161372Y-62966539D01*
X145134534Y-62926602D01*
X145109098Y-62886359D01*
X145085057Y-62845807D01*
X145062402Y-62804944D01*
X145041126Y-62763767D01*
X145024937Y-62730024D01*
X145024885Y-62729816D01*
X145024434Y-62728151D01*
X145023947Y-62726497D01*
X145023426Y-62724881D01*
X145022869Y-62723330D01*
X145022578Y-62722586D01*
X145022277Y-62721869D01*
X145022214Y-62722057D01*
X145022152Y-62722245D01*
X145022262Y-62722432D01*
X145022307Y-62722530D01*
X145022381Y-62722701D01*
X145022492Y-62722972D01*
X145022652Y-62723369D01*
X145022699Y-62723384D01*
X145022748Y-62723430D01*
X145022799Y-62723509D01*
X145022855Y-62723623D01*
X145022986Y-62723963D01*
X145023152Y-62724463D01*
X145023636Y-62726006D01*
X145023978Y-62727078D01*
X145024402Y-62728369D01*
X145024775Y-62729678D01*
X145024780Y-62729697D01*
X145021220Y-62722275D01*
X145021278Y-62722268D01*
X145021311Y-62722250D01*
X145021339Y-62722216D01*
X145021359Y-62722161D01*
X145021367Y-62722077D01*
X145021358Y-62721961D01*
X145021329Y-62721806D01*
X145021275Y-62721608D01*
X145021192Y-62721360D01*
X145021075Y-62721057D01*
X145020921Y-62720693D01*
X145020725Y-62720264D01*
X145020483Y-62719763D01*
X145020191Y-62719185D01*
X145019844Y-62718525D01*
X145019820Y-62718305D01*
X145019792Y-62718110D01*
X145019760Y-62717937D01*
X145019724Y-62717783D01*
X145019684Y-62717643D01*
X145019638Y-62717514D01*
X145019588Y-62717393D01*
X145019532Y-62717275D01*
X145019471Y-62717157D01*
X145019403Y-62717036D01*
X145019247Y-62716767D01*
X145019062Y-62716440D01*
X145018958Y-62716245D01*
X145018845Y-62716025D01*
X145018703Y-62715556D01*
X145018556Y-62715088D01*
X145018397Y-62714619D01*
X145018220Y-62714150D01*
X145018123Y-62713916D01*
X145018020Y-62713681D01*
X145017909Y-62713447D01*
X145017790Y-62713212D01*
X145017663Y-62712978D01*
X145017526Y-62712744D01*
X145017378Y-62712509D01*
X145017220Y-62712275D01*
X145017194Y-62712247D01*
X145017162Y-62712212D01*
X145017087Y-62712121D01*
X145017000Y-62712009D01*
X145016908Y-62711884D01*
X145016815Y-62711754D01*
X145016728Y-62711624D01*
X145016653Y-62711504D01*
X145016622Y-62711449D01*
X145016595Y-62711400D01*
X144995118Y-62662466D01*
X144974902Y-62613024D01*
X144955906Y-62563087D01*
X144938092Y-62512669D01*
X144921418Y-62461782D01*
X144905845Y-62410441D01*
X144891333Y-62358658D01*
X144877842Y-62306447D01*
X144877799Y-62306358D01*
X144877762Y-62306279D01*
X144877729Y-62306205D01*
X144877699Y-62306134D01*
X144877672Y-62306063D01*
X144877646Y-62305989D01*
X144877620Y-62305910D01*
X144877592Y-62305821D01*
X144875479Y-62298331D01*
X144873019Y-62291030D01*
X144870224Y-62283925D01*
X144867105Y-62277023D01*
X144863672Y-62270331D01*
X144859937Y-62263856D01*
X144855911Y-62257606D01*
X144851605Y-62251588D01*
X144847031Y-62245809D01*
X144842199Y-62240277D01*
X144837120Y-62234997D01*
X144831806Y-62229978D01*
X144826268Y-62225226D01*
X144820517Y-62220749D01*
X144814564Y-62216554D01*
X144808420Y-62212649D01*
X144802096Y-62209039D01*
X144795603Y-62205733D01*
X144788954Y-62202738D01*
X144782157Y-62200060D01*
X144775226Y-62197707D01*
X144768170Y-62195687D01*
X144761002Y-62194005D01*
X144753731Y-62192670D01*
X144746370Y-62191689D01*
X144738929Y-62191068D01*
X144731420Y-62190815D01*
X144723853Y-62190937D01*
X144716241Y-62191442D01*
X144708593Y-62192336D01*
X144700921Y-62193626D01*
X144693236Y-62195321D01*
X144693173Y-62195321D01*
X144685561Y-62197416D01*
X144678153Y-62199876D01*
X144670955Y-62202687D01*
X144663972Y-62205838D01*
X144657212Y-62209316D01*
X144650681Y-62213107D01*
X144644385Y-62217200D01*
X144638330Y-62221581D01*
X144632523Y-62226238D01*
X144626971Y-62231159D01*
X144621679Y-62236331D01*
X144616654Y-62241741D01*
X144611903Y-62247376D01*
X144607432Y-62253225D01*
X144603247Y-62259274D01*
X144599354Y-62265510D01*
X144595760Y-62271922D01*
X144592472Y-62278496D01*
X144589496Y-62285220D01*
X144586837Y-62292081D01*
X144584503Y-62299067D01*
X144582500Y-62306164D01*
X144580835Y-62313361D01*
X144579513Y-62320645D01*
X144578540Y-62328003D01*
X144577925Y-62335422D01*
X144577672Y-62342891D01*
X144577788Y-62350395D01*
X144578280Y-62357923D01*
X144579154Y-62365462D01*
X144580416Y-62373000D01*
X144582073Y-62380523D01*
X144582097Y-62380527D01*
X144582120Y-62380540D01*
X144582143Y-62380561D01*
X144582167Y-62380589D01*
X144582214Y-62380668D01*
X144582261Y-62380773D01*
X144582307Y-62380901D01*
X144582354Y-62381050D01*
X144582448Y-62381398D01*
X144582823Y-62383023D01*
X144583407Y-62384898D01*
X144584026Y-62386773D01*
X144584669Y-62388648D01*
X144585323Y-62390523D01*
X144584448Y-62388023D01*
X144602943Y-62446442D01*
X144619090Y-62499671D01*
X144633061Y-62548114D01*
X144645029Y-62592175D01*
X144655163Y-62632257D01*
X144663635Y-62668765D01*
X144670617Y-62702102D01*
X144676279Y-62732672D01*
X144680794Y-62760880D01*
X144684333Y-62787129D01*
X144687066Y-62811822D01*
X144689165Y-62835365D01*
X144692146Y-62880613D01*
X144694648Y-62926102D01*
X144694648Y-62926352D01*
X144694651Y-62927378D01*
X144694659Y-62928261D01*
X144694672Y-62929014D01*
X144694689Y-62929649D01*
X144694710Y-62930179D01*
X144694734Y-62930615D01*
X144694760Y-62930971D01*
X144694789Y-62931259D01*
X144694819Y-62931491D01*
X144694849Y-62931679D01*
X144694881Y-62931838D01*
X144694912Y-62931977D01*
X144694942Y-62932111D01*
X144694971Y-62932252D01*
X144694998Y-62932411D01*
X144695023Y-62932602D01*
X144695032Y-62933540D01*
X144695057Y-62934477D01*
X144695097Y-62935415D01*
X144695148Y-62936352D01*
X144697511Y-62969703D01*
X144700865Y-63005357D01*
X144705598Y-63043872D01*
X144712100Y-63085808D01*
X144720759Y-63131722D01*
X144731963Y-63182175D01*
X144746101Y-63237725D01*
X144763562Y-63298930D01*
X144772830Y-63334034D01*
X144782965Y-63370228D01*
X144793846Y-63407335D01*
X144805350Y-63445181D01*
X144771471Y-63423131D01*
X144753853Y-63410786D01*
X144735793Y-63397508D01*
X144717302Y-63383258D01*
X144698388Y-63367996D01*
X144679059Y-63351685D01*
X144659325Y-63334283D01*
X144639195Y-63315753D01*
X144618676Y-63296055D01*
X144597780Y-63275150D01*
X144576513Y-63252998D01*
X144554886Y-63229560D01*
X144532906Y-63204798D01*
X144510583Y-63178671D01*
X144487926Y-63151141D01*
X144479192Y-63140938D01*
X144469894Y-63131610D01*
X144460084Y-63123154D01*
X144449809Y-63115569D01*
X144439121Y-63108853D01*
X144428069Y-63103006D01*
X144416703Y-63098024D01*
X144405072Y-63093907D01*
X144393226Y-63090652D01*
X144381216Y-63088259D01*
X144369090Y-63086725D01*
X144356899Y-63086049D01*
X144344693Y-63086230D01*
X144332520Y-63087264D01*
X144320432Y-63089152D01*
X144308477Y-63091891D01*
X144296737Y-63095464D01*
X144285301Y-63099835D01*
X144274214Y-63104984D01*
X144263518Y-63110888D01*
X144253259Y-63117527D01*
X144243481Y-63124879D01*
X144234228Y-63132923D01*
X144225544Y-63141637D01*
X144217474Y-63150999D01*
X144210061Y-63160989D01*
X144203350Y-63171585D01*
X144197385Y-63182765D01*
X144192210Y-63194509D01*
X144187870Y-63206795D01*
X144186027Y-63213134D01*
X144184409Y-63219600D01*
X144183021Y-63226192D01*
X144181870Y-63232905D01*
X144144295Y-63398235D01*
X144120536Y-63481946D01*
X144089754Y-63578261D01*
X144051310Y-63685006D01*
X144004566Y-63800007D01*
X143948882Y-63921089D01*
X143883622Y-64046079D01*
X143808145Y-64172804D01*
X143721814Y-64299088D01*
X143623990Y-64422758D01*
X143570568Y-64482933D01*
X143514034Y-64541639D01*
X143454307Y-64598606D01*
X143391308Y-64653560D01*
X143324957Y-64706229D01*
X143255174Y-64756344D01*
X143252475Y-64747503D01*
X143249257Y-64738856D01*
X143245532Y-64730427D01*
X143241311Y-64722240D01*
X143236605Y-64714319D01*
X143231426Y-64706687D01*
X143225785Y-64699370D01*
X143219695Y-64692390D01*
X143213166Y-64685772D01*
X143206209Y-64679540D01*
X143198838Y-64673718D01*
X143191062Y-64668329D01*
X143182893Y-64663398D01*
X143174344Y-64658949D01*
X143165425Y-64655006D01*
X143156147Y-64651592D01*
X143155147Y-64651217D01*
X143147667Y-64649038D01*
X143140166Y-64647255D01*
X143132656Y-64645863D01*
X143125148Y-64644855D01*
X143117656Y-64644225D01*
X143110190Y-64643968D01*
X143102762Y-64644077D01*
X143095384Y-64644547D01*
X143088068Y-64645372D01*
X143080826Y-64646545D01*
X143073669Y-64648061D01*
X143066610Y-64649914D01*
X143059659Y-64652098D01*
X143052829Y-64654607D01*
X143046132Y-64657435D01*
X143039580Y-64660577D01*
X143033184Y-64664025D01*
X143026955Y-64667775D01*
X143020907Y-64671821D01*
X143015050Y-64676155D01*
X143009396Y-64680774D01*
X143003958Y-64685670D01*
X142998747Y-64690837D01*
X142993774Y-64696271D01*
X142989053Y-64701964D01*
X142984593Y-64707911D01*
X142980408Y-64714106D01*
X142976509Y-64720543D01*
X142972907Y-64727216D01*
X142969615Y-64734120D01*
X142966645Y-64741247D01*
X142964008Y-64748593D01*
X142964927Y-64745762D01*
X142965138Y-64745023D01*
X142965195Y-64744693D01*
X142965168Y-64744671D01*
X142965106Y-64744740D01*
X142964878Y-64745132D01*
X142964039Y-64746827D01*
X142961055Y-64752970D01*
X142959038Y-64756911D01*
X142956758Y-64761093D01*
X142954228Y-64765417D01*
X142951452Y-64770021D01*
X142948453Y-64774868D01*
X142945252Y-64779921D01*
X142941870Y-64785145D01*
X142938329Y-64790502D01*
X142934651Y-64795955D01*
X142930858Y-64801469D01*
X142922483Y-64813292D01*
X142913584Y-64825524D01*
X142904254Y-64838050D01*
X142894584Y-64850751D01*
X142884670Y-64863511D01*
X142874602Y-64876212D01*
X142864476Y-64888737D01*
X142854383Y-64900970D01*
X142839037Y-64919159D01*
X142824020Y-64936628D01*
X142809595Y-64953140D01*
X142796025Y-64968455D01*
X142772503Y-64994539D01*
X142755557Y-65012971D01*
X142760556Y-65007970D01*
X142759889Y-65008645D01*
X142759287Y-65009266D01*
X142758745Y-65009840D01*
X142758256Y-65010372D01*
X142757811Y-65010868D01*
X142757406Y-65011332D01*
X142756681Y-65012189D01*
X142755388Y-65013771D01*
X142754708Y-65014584D01*
X142754335Y-65015015D01*
X142753931Y-65015470D01*
X142753494Y-65015673D01*
X142753435Y-65015703D01*
X142753377Y-65015734D01*
X142753320Y-65015768D01*
X142753263Y-65015804D01*
X142753208Y-65015841D01*
X142753155Y-65015881D01*
X142753104Y-65015924D01*
X142753056Y-65015970D01*
X142752730Y-65016218D01*
X142752406Y-65016492D01*
X142752084Y-65016788D01*
X142751765Y-65017103D01*
X142751449Y-65017432D01*
X142751134Y-65017772D01*
X142750510Y-65018470D01*
X142749891Y-65019168D01*
X142749277Y-65019837D01*
X142748971Y-65020152D01*
X142748666Y-65020448D01*
X142748361Y-65020722D01*
X142748056Y-65020970D01*
X142741787Y-65027858D01*
X142736047Y-65034988D01*
X142730830Y-65042343D01*
X142726132Y-65049902D01*
X142721945Y-65057646D01*
X142718264Y-65065556D01*
X142715083Y-65073612D01*
X142712395Y-65081796D01*
X142710195Y-65090087D01*
X142708477Y-65098467D01*
X142707234Y-65106916D01*
X142706461Y-65115415D01*
X142706151Y-65123944D01*
X142706299Y-65132485D01*
X142706899Y-65141017D01*
X142707944Y-65149522D01*
X142707913Y-65149476D01*
X142707867Y-65149348D01*
X142707744Y-65148881D01*
X142707589Y-65148203D01*
X142707420Y-65147396D01*
X142707255Y-65146543D01*
X142707109Y-65145724D01*
X142707019Y-65145148D01*
X142708180Y-65154821D01*
X142708371Y-65158107D01*
X142708737Y-65162338D01*
X142709303Y-65166990D01*
X142710145Y-65172099D01*
X142710692Y-65174836D01*
X142711336Y-65177701D01*
X142712087Y-65180697D01*
X142712953Y-65183830D01*
X142713944Y-65187103D01*
X142715069Y-65190521D01*
X142718103Y-65198779D01*
X142721517Y-65206790D01*
X142725298Y-65214547D01*
X142729430Y-65222044D01*
X142733900Y-65229274D01*
X142738695Y-65236231D01*
X142743801Y-65242907D01*
X142749204Y-65249297D01*
X142754890Y-65255393D01*
X142760846Y-65261189D01*
X142767057Y-65266678D01*
X142773510Y-65271854D01*
X142780192Y-65276709D01*
X142787088Y-65281238D01*
X142794184Y-65285433D01*
X142801467Y-65289288D01*
X142808924Y-65292796D01*
X142816540Y-65295951D01*
X142824301Y-65298745D01*
X142832194Y-65301173D01*
X142840205Y-65303227D01*
X142848320Y-65304901D01*
X142856526Y-65306189D01*
X142864808Y-65307083D01*
X142873154Y-65307577D01*
X142881548Y-65307664D01*
X142889978Y-65307338D01*
X142898430Y-65306591D01*
X142906889Y-65305418D01*
X142915342Y-65303812D01*
X142923776Y-65301766D01*
X142932176Y-65299272D01*
X142932225Y-65299250D01*
X142932275Y-65299228D01*
X142932328Y-65299208D01*
X142932383Y-65299189D01*
X142932440Y-65299171D01*
X142932497Y-65299155D01*
X142932614Y-65299124D01*
X142933051Y-65299021D01*
X142959792Y-65289770D01*
X142986067Y-65280131D01*
X143011911Y-65270141D01*
X143037364Y-65259834D01*
X143062463Y-65249246D01*
X143087246Y-65238412D01*
X143136013Y-65216147D01*
X143154003Y-65336030D01*
X143173541Y-65452104D01*
X143194514Y-65564370D01*
X143216805Y-65672829D01*
X143240301Y-65777483D01*
X143264886Y-65878333D01*
X143290446Y-65975380D01*
X143316866Y-66068627D01*
X143344032Y-66158074D01*
X143371828Y-66243724D01*
X143400140Y-66325577D01*
X143428853Y-66403635D01*
X143487024Y-66548372D01*
X143545423Y-66677948D01*
X143563402Y-66715100D01*
X143580951Y-66750322D01*
X143598077Y-66783701D01*
X143614786Y-66815323D01*
X143631084Y-66845277D01*
X143646979Y-66873650D01*
X143662478Y-66900528D01*
X143677586Y-66925998D01*
X143616888Y-66915434D01*
X143551766Y-66901332D01*
X143482475Y-66883110D01*
X143446346Y-66872272D01*
X143409270Y-66860185D01*
X143371279Y-66846777D01*
X143332405Y-66831974D01*
X143292680Y-66815705D01*
X143252135Y-66797895D01*
X143210803Y-66778472D01*
X143168714Y-66757364D01*
X143125902Y-66734497D01*
X143082397Y-66709799D01*
X143041732Y-66683503D01*
X143000433Y-66651994D01*
X142958751Y-66615693D01*
X142916936Y-66575023D01*
X142875238Y-66530407D01*
X142833906Y-66482265D01*
X142793189Y-66431021D01*
X142753339Y-66377098D01*
X142714603Y-66320916D01*
X142677234Y-66262898D01*
X142641479Y-66203467D01*
X142607589Y-66143045D01*
X142575813Y-66082054D01*
X142546402Y-66020917D01*
X142519605Y-65960055D01*
X142495671Y-65899890D01*
X142488647Y-65879306D01*
X142481899Y-65855827D01*
X142469293Y-65801243D01*
X142457970Y-65738244D01*
X142448050Y-65668935D01*
X142439649Y-65595423D01*
X142432886Y-65519813D01*
X142427879Y-65444211D01*
X142424746Y-65370723D01*
X142423582Y-65325902D01*
X142422860Y-65284026D01*
X142422518Y-65245112D01*
X142422496Y-65209173D01*
X142423164Y-65146285D01*
X142423206Y-65144521D01*
X142706944Y-65144521D01*
X142707000Y-65145023D01*
X142707019Y-65145148D01*
X142706944Y-65144521D01*
X142423206Y-65144521D01*
X142424371Y-65095483D01*
X142465001Y-65061372D01*
X142504563Y-65026342D01*
X142543062Y-64990475D01*
X142580503Y-64953854D01*
X142616890Y-64916561D01*
X142652229Y-64878678D01*
X142686523Y-64840288D01*
X142719778Y-64801474D01*
X142751998Y-64762317D01*
X142783187Y-64722901D01*
X142813352Y-64683307D01*
X142842495Y-64643619D01*
X142897739Y-64564287D01*
X142948955Y-64485564D01*
X142987776Y-64422359D01*
X143024156Y-64360246D01*
X143058089Y-64299627D01*
X143089573Y-64240899D01*
X143118603Y-64184462D01*
X143145176Y-64130716D01*
X143169288Y-64080059D01*
X143190935Y-64032892D01*
X143226818Y-63950621D01*
X143252795Y-63887097D01*
X143274908Y-63829071D01*
X143277576Y-63820620D01*
X143279788Y-63812130D01*
X143281550Y-63803615D01*
X143282870Y-63795090D01*
X143283753Y-63786568D01*
X143284207Y-63778064D01*
X143284238Y-63769592D01*
X143283854Y-63761165D01*
X143283061Y-63752799D01*
X143281866Y-63744506D01*
X143280276Y-63736302D01*
X143278297Y-63728200D01*
X143275937Y-63720214D01*
X143273203Y-63712359D01*
X143270100Y-63704649D01*
X143266636Y-63697097D01*
X143262819Y-63689718D01*
X143258653Y-63682527D01*
X143254147Y-63675536D01*
X143249308Y-63668761D01*
X143244141Y-63662215D01*
X143238655Y-63655912D01*
X143232855Y-63649867D01*
X143226748Y-63644094D01*
X143220342Y-63638606D01*
X143213643Y-63633419D01*
X143206658Y-63628545D01*
X143199394Y-63624000D01*
X143191857Y-63619797D01*
X143184055Y-63615950D01*
X143175994Y-63612474D01*
X143167682Y-63609382D01*
X143162364Y-63607595D01*
X143157011Y-63605984D01*
X143151624Y-63604548D01*
X143146205Y-63603289D01*
X143140756Y-63602205D01*
X143135279Y-63601296D01*
X143129776Y-63600564D01*
X143124249Y-63600007D01*
X143118699Y-63599627D01*
X143113128Y-63599421D01*
X143107539Y-63599392D01*
X143101934Y-63599539D01*
X143096313Y-63599861D01*
X143090679Y-63600359D01*
X143085034Y-63601033D01*
X143079380Y-63601882D01*
X143079187Y-63602023D01*
X143078984Y-63602164D01*
X143078772Y-63602304D01*
X143078552Y-63602445D01*
X143078097Y-63602726D01*
X143077630Y-63603007D01*
X143066441Y-63605639D01*
X143055527Y-63608972D01*
X143044916Y-63612986D01*
X143034637Y-63617658D01*
X143024719Y-63622966D01*
X143015189Y-63628889D01*
X143006077Y-63635405D01*
X142997410Y-63642492D01*
X142989217Y-63650128D01*
X142981527Y-63658292D01*
X142974368Y-63666961D01*
X142967768Y-63676115D01*
X142961756Y-63685730D01*
X142956361Y-63695786D01*
X142951610Y-63706261D01*
X142947533Y-63717132D01*
X142947485Y-63717268D01*
X142947437Y-63717398D01*
X142947385Y-63717528D01*
X142947329Y-63717663D01*
X142947199Y-63717976D01*
X142947033Y-63718382D01*
X142946775Y-63718963D01*
X142946472Y-63719749D01*
X142945735Y-63721820D01*
X142944835Y-63724359D01*
X142944327Y-63725731D01*
X142943782Y-63727132D01*
X142938158Y-63741866D01*
X142930283Y-63762132D01*
X142920039Y-63787551D01*
X142907481Y-63817738D01*
X142892615Y-63852322D01*
X142875445Y-63890933D01*
X142855974Y-63933206D01*
X142834211Y-63978766D01*
X142810166Y-64027241D01*
X142783851Y-64078257D01*
X142755274Y-64131442D01*
X142724445Y-64186424D01*
X142691376Y-64242830D01*
X142656075Y-64300287D01*
X142631582Y-64338436D01*
X142606085Y-64376609D01*
X142579605Y-64414710D01*
X142552162Y-64452648D01*
X142523778Y-64490328D01*
X142494473Y-64527657D01*
X142464269Y-64564542D01*
X142433185Y-64600889D01*
X142401244Y-64636605D01*
X142368466Y-64671597D01*
X142334872Y-64705771D01*
X142300483Y-64739034D01*
X142265319Y-64771292D01*
X142229402Y-64802452D01*
X142192753Y-64832420D01*
X142155392Y-64861104D01*
X142154955Y-64854514D01*
X142154231Y-64847984D01*
X142153227Y-64841522D01*
X142151947Y-64835135D01*
X142150398Y-64828830D01*
X142148585Y-64822617D01*
X142146515Y-64816501D01*
X142144193Y-64810491D01*
X142141624Y-64804594D01*
X142138815Y-64798817D01*
X142135771Y-64793169D01*
X142132499Y-64787657D01*
X142129003Y-64782289D01*
X142125290Y-64777072D01*
X142121365Y-64772013D01*
X142117235Y-64767120D01*
X142112904Y-64762402D01*
X142108380Y-64757865D01*
X142103667Y-64753517D01*
X142098771Y-64749365D01*
X142093698Y-64745418D01*
X142088455Y-64741682D01*
X142083046Y-64738166D01*
X142077477Y-64734876D01*
X142071755Y-64731822D01*
X142065885Y-64729009D01*
X142059872Y-64726446D01*
X142053723Y-64724140D01*
X142047444Y-64722099D01*
X142041040Y-64720330D01*
X142034516Y-64718842D01*
X142027879Y-64717641D01*
X142020047Y-64716537D01*
X142012261Y-64715836D01*
X142004533Y-64715528D01*
X141996872Y-64715606D01*
X141989289Y-64716062D01*
X141981795Y-64716889D01*
X141974400Y-64718078D01*
X141967114Y-64719622D01*
X141959949Y-64721512D01*
X141952914Y-64723742D01*
X141946020Y-64726303D01*
X141939278Y-64729188D01*
X141932697Y-64732388D01*
X141926289Y-64735896D01*
X141920064Y-64739704D01*
X141914032Y-64743804D01*
X141908204Y-64748189D01*
X141902590Y-64752850D01*
X141897202Y-64757780D01*
X141892048Y-64762971D01*
X141887140Y-64768415D01*
X141882489Y-64774104D01*
X141878104Y-64780030D01*
X141873996Y-64786187D01*
X141870176Y-64792565D01*
X141866654Y-64799157D01*
X141863441Y-64805955D01*
X141860547Y-64812952D01*
X141857983Y-64820139D01*
X141855758Y-64827509D01*
X141853884Y-64835054D01*
X141852371Y-64842767D01*
X141852509Y-64842267D01*
X141851123Y-64849007D01*
X141849183Y-64856802D01*
X141843799Y-64875127D01*
X141836679Y-64896389D01*
X141828148Y-64919736D01*
X141818527Y-64944316D01*
X141808139Y-64969277D01*
X141797309Y-64993766D01*
X141786358Y-65016930D01*
X141780829Y-65028080D01*
X141775398Y-65038813D01*
X141764972Y-65058861D01*
X141755367Y-65076741D01*
X141746869Y-65092119D01*
X141739762Y-65104661D01*
X141734332Y-65114033D01*
X141729645Y-65121931D01*
X141728784Y-65124027D01*
X141727983Y-65126185D01*
X141727240Y-65128396D01*
X141727159Y-65128663D01*
X141727645Y-65126682D01*
X141724691Y-65132336D01*
X141722067Y-65137954D01*
X141719757Y-65143529D01*
X141717744Y-65149056D01*
X141716013Y-65154531D01*
X141714546Y-65159948D01*
X141713327Y-65165302D01*
X141712340Y-65170588D01*
X141711569Y-65175800D01*
X141710998Y-65180934D01*
X141710610Y-65185985D01*
X141710388Y-65190947D01*
X141710318Y-65195816D01*
X141710381Y-65200585D01*
X141710558Y-65205139D01*
X141710480Y-65204265D01*
X141710420Y-65203447D01*
X141710654Y-65214649D01*
X141710482Y-65218020D01*
X141710375Y-65221766D01*
X141710376Y-65225728D01*
X141710530Y-65229966D01*
X141710880Y-65234539D01*
X141711142Y-65236970D01*
X141711470Y-65239507D01*
X141711869Y-65242159D01*
X141712345Y-65244931D01*
X141712643Y-65246515D01*
X141712976Y-65248156D01*
X141713340Y-65249830D01*
X141713735Y-65251510D01*
X141714160Y-65253173D01*
X141714612Y-65254793D01*
X141715091Y-65256346D01*
X141715595Y-65257807D01*
X141716767Y-65261104D01*
X141717388Y-65262799D01*
X141718032Y-65264494D01*
X141718700Y-65266166D01*
X141718772Y-65266335D01*
X141718916Y-65266766D01*
X141722135Y-65274985D01*
X141725738Y-65282953D01*
X141729711Y-65290666D01*
X141734038Y-65298115D01*
X141738707Y-65305292D01*
X141743703Y-65312192D01*
X141749012Y-65318805D01*
X141754619Y-65325125D01*
X141760511Y-65331145D01*
X141766673Y-65336857D01*
X141773091Y-65342254D01*
X141779750Y-65347328D01*
X141786638Y-65352072D01*
X141793739Y-65356479D01*
X141801040Y-65360542D01*
X141808526Y-65364252D01*
X141816183Y-65367603D01*
X141823996Y-65370588D01*
X141831952Y-65373199D01*
X141840037Y-65375428D01*
X141848236Y-65377269D01*
X141856536Y-65378713D01*
X141864921Y-65379755D01*
X141873378Y-65380385D01*
X141881893Y-65380598D01*
X141890451Y-65380385D01*
X141899038Y-65379740D01*
X141907641Y-65378654D01*
X141916244Y-65377121D01*
X141924834Y-65375133D01*
X141933397Y-65372683D01*
X141933534Y-65372620D01*
X141952698Y-65366296D01*
X141971565Y-65359620D01*
X141990145Y-65352616D01*
X142008452Y-65345308D01*
X142026499Y-65337718D01*
X142044297Y-65329870D01*
X142061859Y-65321788D01*
X142079198Y-65313494D01*
X142079294Y-65330352D01*
X142079226Y-65346073D01*
X142079248Y-65362380D01*
X142079371Y-65371291D01*
X142079611Y-65380995D01*
X142082441Y-65459884D01*
X142086637Y-65541257D01*
X142092765Y-65624041D01*
X142101387Y-65707158D01*
X142106811Y-65748506D01*
X142113069Y-65789535D01*
X142120234Y-65830109D01*
X142128375Y-65870095D01*
X142137562Y-65909357D01*
X142147867Y-65947763D01*
X142159360Y-65985176D01*
X142172111Y-66021464D01*
X142191697Y-66071851D01*
X142212671Y-66122401D01*
X142235011Y-66173000D01*
X142258693Y-66223532D01*
X142283696Y-66273882D01*
X142309997Y-66323934D01*
X142337573Y-66373573D01*
X142366401Y-66422684D01*
X142396459Y-66471152D01*
X142427724Y-66518861D01*
X142460174Y-66565695D01*
X142493786Y-66611540D01*
X142528537Y-66656281D01*
X142564405Y-66699801D01*
X142601366Y-66741986D01*
X142639399Y-66782720D01*
X142627774Y-66783594D01*
X142594882Y-66783877D01*
X142560726Y-66782599D01*
X142525327Y-66779490D01*
X142488705Y-66774279D01*
X142450882Y-66766693D01*
X142411878Y-66756463D01*
X142371714Y-66743317D01*
X142330411Y-66726984D01*
X142287989Y-66707192D01*
X142244470Y-66683672D01*
X142199874Y-66656151D01*
X142154221Y-66624359D01*
X142107534Y-66588025D01*
X142059831Y-66546876D01*
X142011135Y-66500644D01*
X141961466Y-66449055D01*
X141927441Y-66381204D01*
X141897097Y-66314236D01*
X141859878Y-66224907D01*
X141817296Y-66112970D01*
X141770859Y-65978176D01*
X141722078Y-65820276D01*
X141672462Y-65639022D01*
X141620613Y-65419523D01*
X141577917Y-65201540D01*
X141710353Y-65201540D01*
X141710354Y-65202048D01*
X141710397Y-65203128D01*
X141710420Y-65203447D01*
X141710370Y-65201057D01*
X141710353Y-65201540D01*
X141577917Y-65201540D01*
X141572799Y-65175407D01*
X141531202Y-64907017D01*
X141498008Y-64614695D01*
X141475401Y-64298782D01*
X141465566Y-63959621D01*
X141466121Y-63781430D01*
X141470688Y-63597555D01*
X141479540Y-63408039D01*
X141492950Y-63212925D01*
X141493463Y-63203989D01*
X141493510Y-63195130D01*
X141493103Y-63186360D01*
X141492253Y-63177692D01*
X141490971Y-63169138D01*
X141489266Y-63160711D01*
X141487151Y-63152422D01*
X141484636Y-63144285D01*
X141481731Y-63136311D01*
X141478447Y-63128512D01*
X141474796Y-63120902D01*
X141470787Y-63113492D01*
X141466433Y-63106295D01*
X141461742Y-63099323D01*
X141456728Y-63092588D01*
X141451399Y-63086103D01*
X141445767Y-63079880D01*
X141439842Y-63073931D01*
X141433636Y-63068270D01*
X141427159Y-63062907D01*
X141420422Y-63057855D01*
X141413436Y-63053127D01*
X141406211Y-63048735D01*
X141398759Y-63044691D01*
X141391089Y-63041008D01*
X141383214Y-63037698D01*
X141375143Y-63034773D01*
X141366887Y-63032246D01*
X141358458Y-63030129D01*
X141349866Y-63028434D01*
X141341121Y-63027173D01*
X141332235Y-63026360D01*
X141323498Y-63025987D01*
X141314836Y-63026059D01*
X141306259Y-63026566D01*
X141297782Y-63027497D01*
X141289414Y-63028844D01*
X141281168Y-63030594D01*
X141273056Y-63032739D01*
X141265090Y-63035269D01*
X141257282Y-63038172D01*
X141249643Y-63041439D01*
X141242185Y-63045060D01*
X141234920Y-63049025D01*
X141227861Y-63053324D01*
X141221018Y-63057945D01*
X141214404Y-63062880D01*
X141208031Y-63068118D01*
X141201910Y-63073650D01*
X141196053Y-63079464D01*
X141190473Y-63085550D01*
X141185181Y-63091900D01*
X141180188Y-63098502D01*
X141175508Y-63105346D01*
X141171151Y-63112422D01*
X141167129Y-63119721D01*
X141163455Y-63127231D01*
X141160140Y-63134943D01*
X141157196Y-63142847D01*
X141154636Y-63150933D01*
X141152469Y-63159190D01*
X141150710Y-63167608D01*
X141149369Y-63176177D01*
X141148459Y-63184888D01*
X141134524Y-63387620D01*
X141125324Y-63584729D01*
X141120582Y-63776161D01*
X141120018Y-63961868D01*
X141123353Y-64141796D01*
X141130311Y-64315896D01*
X141140611Y-64484115D01*
X141153976Y-64646404D01*
X141170126Y-64802710D01*
X141188784Y-64952984D01*
X141232508Y-65235225D01*
X141282920Y-65492720D01*
X141337790Y-65725060D01*
X141370919Y-65848784D01*
X141404006Y-65962663D01*
X141436691Y-66066894D01*
X141468610Y-66161671D01*
X141499401Y-66247191D01*
X141528701Y-66323648D01*
X141556149Y-66391237D01*
X141581382Y-66450156D01*
X141568615Y-66453858D01*
X141555535Y-66457440D01*
X141542250Y-66460864D01*
X141528863Y-66464092D01*
X141515482Y-66467086D01*
X141502210Y-66469807D01*
X141489154Y-66472218D01*
X141476419Y-66474280D01*
X141476282Y-66474280D01*
X141466266Y-66475513D01*
X141456581Y-66476408D01*
X141447292Y-66476982D01*
X141438469Y-66477248D01*
X141430177Y-66477222D01*
X141422485Y-66476916D01*
X141415460Y-66476348D01*
X141412218Y-66475969D01*
X141409169Y-66475530D01*
X141338642Y-66329383D01*
X141212371Y-66023717D01*
X141138731Y-65816779D01*
X141063634Y-65576818D01*
X140991241Y-65306122D01*
X140925710Y-65006974D01*
X140871201Y-64681663D01*
X140831875Y-64332472D01*
X140811890Y-63961689D01*
X140815407Y-63571599D01*
X140846585Y-63164488D01*
X140909585Y-62742642D01*
X141008564Y-62308347D01*
X141072847Y-62087245D01*
X141147685Y-61863888D01*
X141206598Y-62272517D01*
X141206598Y-62272580D01*
X141208014Y-62281101D01*
X141209844Y-62289501D01*
X141212079Y-62297767D01*
X141214712Y-62305884D01*
X141217733Y-62313840D01*
X141221135Y-62321622D01*
X141224909Y-62329217D01*
X141229048Y-62336611D01*
X141233543Y-62343791D01*
X141238386Y-62350744D01*
X141243570Y-62357456D01*
X141249085Y-62363916D01*
X141254923Y-62370109D01*
X141261077Y-62376022D01*
X141267538Y-62381642D01*
X141274298Y-62386956D01*
X141274436Y-62387018D01*
X141281202Y-62391808D01*
X141288169Y-62396239D01*
X141295322Y-62400309D01*
X141302645Y-62404018D01*
X141310125Y-62407364D01*
X141317745Y-62410344D01*
X141325491Y-62412959D01*
X141333347Y-62415205D01*
X141341300Y-62417083D01*
X141349334Y-62418590D01*
X141357434Y-62419725D01*
X141365585Y-62420487D01*
X141373772Y-62420873D01*
X141381980Y-62420883D01*
X141390194Y-62420515D01*
X141398400Y-62419768D01*
X141400571Y-62419580D01*
X141402650Y-62419393D01*
X141409557Y-62418219D01*
X141416521Y-62416749D01*
X141423530Y-62414968D01*
X141427048Y-62413956D01*
X141430575Y-62412862D01*
X141434107Y-62411682D01*
X141437645Y-62410416D01*
X141441187Y-62409061D01*
X141444732Y-62407616D01*
X141448278Y-62406078D01*
X141451824Y-62404446D01*
X141455369Y-62402718D01*
X141458912Y-62400893D01*
X141459216Y-62400670D01*
X141459516Y-62400468D01*
X141459814Y-62400284D01*
X141460110Y-62400115D01*
X141460403Y-62399961D01*
X141460694Y-62399816D01*
X141461272Y-62399549D01*
X141461843Y-62399294D01*
X141462410Y-62399029D01*
X141462693Y-62398888D01*
X141462975Y-62398736D01*
X141463256Y-62398572D01*
X141463537Y-62398393D01*
X141463689Y-62398388D01*
X141463839Y-62398376D01*
X141463988Y-62398355D01*
X141464136Y-62398326D01*
X141464240Y-62398301D01*
X141464273Y-62398301D01*
X141464281Y-62398308D01*
X141464411Y-62398253D01*
X141464428Y-62398248D01*
X141464572Y-62398198D01*
X141464715Y-62398143D01*
X141464999Y-62398014D01*
X141465280Y-62397865D01*
X141465558Y-62397699D01*
X141465834Y-62397518D01*
X141466109Y-62397325D01*
X141466383Y-62397123D01*
X141466601Y-62396956D01*
X141467205Y-62396567D01*
X141467436Y-62396405D01*
X141466988Y-62396661D01*
X141466930Y-62396705D01*
X141466601Y-62396956D01*
X141466055Y-62397309D01*
X141465060Y-62397901D01*
X141464412Y-62398252D01*
X141464411Y-62398253D01*
X141464286Y-62398289D01*
X141464273Y-62398301D01*
X141464240Y-62398301D01*
X141464282Y-62398290D01*
X141464286Y-62398289D01*
X141464309Y-62398269D01*
X141464945Y-62397859D01*
X141466514Y-62396931D01*
X141466988Y-62396661D01*
X141467480Y-62396287D01*
X141467711Y-62396120D01*
X141467742Y-62396107D01*
X141467803Y-62396076D01*
X141467980Y-62395979D01*
X141468172Y-62395866D01*
X141468222Y-62395835D01*
X141467776Y-62396169D01*
X141467436Y-62396405D01*
X141469213Y-62395392D01*
X141475212Y-62391643D01*
X141479962Y-62387893D01*
X141483808Y-62385062D01*
X141487751Y-62382002D01*
X141491763Y-62378708D01*
X141495816Y-62375173D01*
X141497849Y-62373314D01*
X141499882Y-62371393D01*
X141501911Y-62369409D01*
X141503932Y-62367361D01*
X141505943Y-62365248D01*
X141507940Y-62363070D01*
X141509918Y-62360827D01*
X141511875Y-62358517D01*
X141513118Y-62357026D01*
X141514317Y-62355540D01*
X141515475Y-62354043D01*
X141516594Y-62352517D01*
X141517679Y-62350943D01*
X141518731Y-62349306D01*
X141519246Y-62348457D01*
X141519754Y-62347586D01*
X141520081Y-62347001D01*
X141520126Y-62346935D01*
X141520954Y-62345570D01*
X141525225Y-62338267D01*
X141525439Y-62337294D01*
X141525649Y-62336298D01*
X141525856Y-62335349D01*
X141525960Y-62334914D01*
X141526063Y-62334517D01*
X141526457Y-62333800D01*
X141526843Y-62333057D01*
X141527596Y-62331509D01*
X141528328Y-62329903D01*
X141529047Y-62328267D01*
X141530475Y-62325025D01*
X141531199Y-62323477D01*
X141531938Y-62322017D01*
X141543418Y-62332138D01*
X141555997Y-62342476D01*
X141569664Y-62352875D01*
X141584408Y-62363181D01*
X141600220Y-62373238D01*
X141617089Y-62382890D01*
X141635005Y-62391983D01*
X141653956Y-62400361D01*
X141673933Y-62407869D01*
X141694925Y-62414352D01*
X141716922Y-62419654D01*
X141739913Y-62423619D01*
X141763888Y-62426094D01*
X141788837Y-62426922D01*
X141814748Y-62425949D01*
X141841612Y-62423018D01*
X141841674Y-62423018D01*
X141850402Y-62421534D01*
X141858956Y-62419624D01*
X141867327Y-62417303D01*
X141875505Y-62414583D01*
X141883482Y-62411476D01*
X141891247Y-62407994D01*
X141898791Y-62404151D01*
X141906105Y-62399958D01*
X141913180Y-62395430D01*
X141920005Y-62390577D01*
X141926573Y-62385413D01*
X141932872Y-62379950D01*
X141938894Y-62374201D01*
X141944629Y-62368179D01*
X141950068Y-62361896D01*
X141955202Y-62355364D01*
X141960021Y-62348597D01*
X141964516Y-62341606D01*
X141968676Y-62334405D01*
X141972494Y-62327006D01*
X141975959Y-62319421D01*
X141979062Y-62311664D01*
X141981794Y-62303746D01*
X141984145Y-62295681D01*
X141986105Y-62287480D01*
X141987667Y-62279157D01*
X141988819Y-62270725D01*
X141989552Y-62262194D01*
X141989858Y-62253580D01*
X141989726Y-62244893D01*
X141989148Y-62236146D01*
X141988113Y-62227353D01*
X141987451Y-62223110D01*
X141986682Y-62218910D01*
X141985811Y-62214756D01*
X141984838Y-62210646D01*
X141983766Y-62206582D01*
X141982597Y-62202564D01*
X141981333Y-62198592D01*
X141979976Y-62194666D01*
X141978528Y-62190787D01*
X141976991Y-62186955D01*
X141975368Y-62183171D01*
X141973660Y-62179435D01*
X141971870Y-62175748D01*
X141970000Y-62172109D01*
X141968051Y-62168519D01*
X141966026Y-62164979D01*
X141974751Y-62158963D01*
X141983382Y-62152808D01*
X141991898Y-62146493D01*
X142000279Y-62139994D01*
X142008504Y-62133290D01*
X142016553Y-62126359D01*
X142024404Y-62119179D01*
X142028250Y-62115489D01*
X142032039Y-62111728D01*
X142038789Y-62104759D01*
X142045292Y-62097789D01*
X142051548Y-62090832D01*
X142057561Y-62083903D01*
X142068864Y-62070186D01*
X142079219Y-62056756D01*
X142088643Y-62043729D01*
X142097154Y-62031222D01*
X142104771Y-62019352D01*
X142111510Y-62008236D01*
X142117390Y-61997990D01*
X142122428Y-61988731D01*
X142126642Y-61980577D01*
X142130050Y-61973643D01*
X142134519Y-61963905D01*
X142135977Y-61960451D01*
X142136295Y-61959513D01*
X142136599Y-61958576D01*
X142137202Y-61956701D01*
X142140702Y-61945599D01*
X142143392Y-61934481D01*
X142145293Y-61923373D01*
X142146427Y-61912304D01*
X142146815Y-61901299D01*
X142146479Y-61890387D01*
X142145441Y-61879593D01*
X142143721Y-61868946D01*
X142141342Y-61858472D01*
X142138324Y-61848198D01*
X142134690Y-61838151D01*
X142130462Y-61828358D01*
X142125659Y-61818847D01*
X142120305Y-61809645D01*
X142114420Y-61800778D01*
X142108026Y-61792273D01*
X142101145Y-61784158D01*
X142093798Y-61776460D01*
X142086006Y-61769206D01*
X142077792Y-61762422D01*
X142069176Y-61756136D01*
X142060181Y-61750375D01*
X142050827Y-61745166D01*
X142041136Y-61740536D01*
X142031131Y-61736512D01*
X142020831Y-61733121D01*
X142010260Y-61730391D01*
X141999437Y-61728347D01*
X141988386Y-61727018D01*
X141977127Y-61726430D01*
X141965682Y-61726611D01*
X141954072Y-61727587D01*
X141954009Y-61727587D01*
X141938622Y-61729143D01*
X141924297Y-61730114D01*
X141910951Y-61730511D01*
X141898500Y-61730343D01*
X141886860Y-61729621D01*
X141875947Y-61728354D01*
X141865678Y-61726553D01*
X141855968Y-61724228D01*
X141846735Y-61721388D01*
X141837893Y-61718045D01*
X141829360Y-61714207D01*
X141821051Y-61709885D01*
X141812883Y-61705090D01*
X141804772Y-61699831D01*
X141796634Y-61694118D01*
X141788385Y-61687961D01*
X141782451Y-61683214D01*
X141776539Y-61678121D01*
X141770657Y-61672695D01*
X141764811Y-61666947D01*
X141759007Y-61660889D01*
X141753252Y-61654534D01*
X141747552Y-61647892D01*
X141741914Y-61640977D01*
X141736345Y-61633799D01*
X141730851Y-61626370D01*
X141725438Y-61618704D01*
X141720113Y-61610811D01*
X141714882Y-61602703D01*
X141709753Y-61594392D01*
X141704730Y-61585891D01*
X141699822Y-61577211D01*
X141710646Y-61578164D01*
X141721477Y-61579024D01*
X141726901Y-61579360D01*
X141732333Y-61579602D01*
X141737777Y-61579727D01*
X141743235Y-61579711D01*
X141760868Y-61579183D01*
X141778065Y-61578193D01*
X141794785Y-61576788D01*
X141810992Y-61575016D01*
X141826646Y-61572924D01*
X141841709Y-61570561D01*
X141856143Y-61567974D01*
X141869909Y-61565211D01*
X141882968Y-61562318D01*
X141895282Y-61559344D01*
X141917521Y-61553343D01*
X141936318Y-61547588D01*
X141951364Y-61542460D01*
X141998330Y-61620093D01*
X142024449Y-61663401D01*
X142052516Y-61708590D01*
X142082674Y-61754825D01*
X142115069Y-61801272D01*
X142132150Y-61824315D01*
X142149843Y-61847097D01*
X142168167Y-61869514D01*
X142187140Y-61891464D01*
X142200599Y-61906190D01*
X142214634Y-61920718D01*
X142229252Y-61934979D01*
X142244463Y-61948905D01*
X142260272Y-61962429D01*
X142276689Y-61975482D01*
X142293719Y-61987997D01*
X142311371Y-61999905D01*
X142329653Y-62011138D01*
X142348572Y-62021628D01*
X142368135Y-62031308D01*
X142388351Y-62040108D01*
X142409226Y-62047963D01*
X142430768Y-62054802D01*
X142452985Y-62060559D01*
X142475884Y-62065165D01*
X142497406Y-62068304D01*
X142519137Y-62070320D01*
X142541069Y-62071221D01*
X142563194Y-62071016D01*
X142585503Y-62069712D01*
X142607990Y-62067318D01*
X142630645Y-62063841D01*
X142653460Y-62059290D01*
X142676428Y-62053672D01*
X142699540Y-62046996D01*
X142722788Y-62039269D01*
X142746165Y-62030501D01*
X142769661Y-62020698D01*
X142793269Y-62009869D01*
X142816981Y-61998022D01*
X142840788Y-61985165D01*
X142847484Y-61993420D01*
X142853965Y-62001307D01*
X142860227Y-62008822D01*
X142866265Y-62015961D01*
X142872073Y-62022719D01*
X142877648Y-62029092D01*
X142882983Y-62035075D01*
X142888076Y-62040665D01*
X142893004Y-62045932D01*
X142897823Y-62050944D01*
X142902504Y-62055689D01*
X142907018Y-62060157D01*
X142911336Y-62064334D01*
X142915430Y-62068209D01*
X142919270Y-62071771D01*
X142922829Y-62075008D01*
X142928984Y-62080459D01*
X142933666Y-62084469D01*
X142937688Y-62087790D01*
X142939188Y-62088789D01*
X142946329Y-62093948D01*
X142953650Y-62098690D01*
X142961137Y-62103018D01*
X142968775Y-62106933D01*
X142976546Y-62110438D01*
X142984437Y-62113535D01*
X142992432Y-62116225D01*
X143000515Y-62118511D01*
X143008670Y-62120393D01*
X143016883Y-62121875D01*
X143025138Y-62122959D01*
X143033419Y-62123645D01*
X143041711Y-62123937D01*
X143049998Y-62123836D01*
X143058266Y-62123343D01*
X143066498Y-62122462D01*
X143074679Y-62121194D01*
X143082794Y-62119540D01*
X143090827Y-62117503D01*
X143098762Y-62115085D01*
X143106585Y-62112288D01*
X143114280Y-62109113D01*
X143121831Y-62105563D01*
X143129223Y-62101640D01*
X143136441Y-62097344D01*
X143143469Y-62092680D01*
X143150291Y-62087647D01*
X143156892Y-62082249D01*
X143163257Y-62076488D01*
X143169370Y-62070364D01*
X143175215Y-62063881D01*
X143180778Y-62057039D01*
X143180802Y-62056994D01*
X143180825Y-62056951D01*
X143180849Y-62056911D01*
X143180872Y-62056873D01*
X143180895Y-62056837D01*
X143180919Y-62056804D01*
X143180942Y-62056772D01*
X143180966Y-62056742D01*
X143180989Y-62056714D01*
X143181013Y-62056686D01*
X143181036Y-62056660D01*
X143181059Y-62056635D01*
X143181106Y-62056586D01*
X143181153Y-62056539D01*
X143185966Y-62049936D01*
X143190416Y-62043180D01*
X143194506Y-62036281D01*
X143198237Y-62029252D01*
X143201611Y-62022105D01*
X143204630Y-62014853D01*
X143207296Y-62007507D01*
X143209610Y-62000079D01*
X143211575Y-61992582D01*
X143213192Y-61985028D01*
X143214463Y-61977429D01*
X143215391Y-61969797D01*
X143215976Y-61962143D01*
X143216221Y-61954482D01*
X143216127Y-61946823D01*
X143215697Y-61939180D01*
X143214932Y-61931565D01*
X143213835Y-61923990D01*
X143212406Y-61916466D01*
X143210648Y-61909007D01*
X143208563Y-61901623D01*
X143206153Y-61894328D01*
X143203419Y-61887134D01*
X143200363Y-61880051D01*
X143196987Y-61873094D01*
X143193293Y-61866273D01*
X143189283Y-61859601D01*
X143184958Y-61853090D01*
X143180321Y-61846752D01*
X143175373Y-61840600D01*
X143170117Y-61834645D01*
X143164553Y-61828899D01*
X143164277Y-61828558D01*
X143164011Y-61828236D01*
X143163754Y-61827933D01*
X143163507Y-61827649D01*
X143163269Y-61827382D01*
X143163040Y-61827131D01*
X143162608Y-61826677D01*
X143162207Y-61826279D01*
X143161837Y-61825933D01*
X143161495Y-61825631D01*
X143161178Y-61825368D01*
X143160885Y-61825137D01*
X143160612Y-61824932D01*
X143160123Y-61824575D01*
X143159902Y-61824410D01*
X143159693Y-61824247D01*
X143159494Y-61824079D01*
X143159303Y-61823899D01*
X143158725Y-61823237D01*
X143158206Y-61822654D01*
X143157742Y-61822142D01*
X143157326Y-61821694D01*
X143156955Y-61821304D01*
X143156622Y-61820966D01*
X143156323Y-61820672D01*
X143156053Y-61820415D01*
X143155806Y-61820189D01*
X143155577Y-61819987D01*
X143155155Y-61819628D01*
X143154743Y-61819283D01*
X143154529Y-61819100D01*
X143154303Y-61818899D01*
X143154127Y-61818649D01*
X143153880Y-61818362D01*
X143153166Y-61817649D01*
X143150834Y-61815462D01*
X143149198Y-61813870D01*
X143149127Y-61813797D01*
X143150164Y-61813797D01*
X143150174Y-61813808D01*
X143150183Y-61813817D01*
X143150191Y-61813826D01*
X143150220Y-61813858D01*
X143150226Y-61813865D01*
X143150233Y-61813871D01*
X143150239Y-61813878D01*
X143150246Y-61813884D01*
X143150253Y-61813891D01*
X143150261Y-61813897D01*
X143150269Y-61813904D01*
X143150278Y-61813911D01*
X143150164Y-61813797D01*
X143149127Y-61813797D01*
X143149116Y-61813786D01*
X143147237Y-61811868D01*
X143146131Y-61810695D01*
X143144941Y-61809397D01*
X143143666Y-61807968D01*
X143142303Y-61806399D01*
X143130293Y-61792857D01*
X146190914Y-61792857D01*
X146191138Y-61799548D01*
X146191137Y-61799736D01*
X146191138Y-61799923D01*
X146197668Y-61887580D01*
X146207080Y-61975797D01*
X146219253Y-62064468D01*
X146234065Y-62153489D01*
X146251395Y-62242757D01*
X146271124Y-62332166D01*
X146293130Y-62421613D01*
X146317292Y-62510993D01*
X146317292Y-62511055D01*
X146319596Y-62518515D01*
X146322247Y-62525773D01*
X146325234Y-62532822D01*
X146328544Y-62539655D01*
X146332166Y-62546266D01*
X146336088Y-62552648D01*
X146340298Y-62558795D01*
X146344784Y-62564700D01*
X146349535Y-62570357D01*
X146354538Y-62575758D01*
X146359783Y-62580897D01*
X146365256Y-62585767D01*
X146370947Y-62590363D01*
X146376843Y-62594676D01*
X146382933Y-62598701D01*
X146389204Y-62602431D01*
X146395645Y-62605859D01*
X146402245Y-62608979D01*
X146408990Y-62611783D01*
X146415871Y-62614266D01*
X146422874Y-62616421D01*
X146429987Y-62618241D01*
X146437200Y-62619719D01*
X146444500Y-62620849D01*
X146451875Y-62621624D01*
X146459314Y-62622037D01*
X146466805Y-62622083D01*
X146474336Y-62621753D01*
X146481894Y-62621043D01*
X146489469Y-62619944D01*
X146497049Y-62618451D01*
X146504621Y-62616556D01*
X146512144Y-62614258D01*
X146519463Y-62611609D01*
X146526570Y-62608619D01*
X146533459Y-62605301D01*
X146540124Y-62601668D01*
X146546557Y-62597731D01*
X146552752Y-62593502D01*
X146558701Y-62588993D01*
X146564399Y-62584217D01*
X146569839Y-62579184D01*
X146575013Y-62573908D01*
X146579915Y-62568401D01*
X146584539Y-62562673D01*
X146588876Y-62556738D01*
X146592922Y-62550608D01*
X146596669Y-62544294D01*
X146600109Y-62537809D01*
X146603237Y-62531164D01*
X146606046Y-62524371D01*
X146608529Y-62517444D01*
X146610679Y-62510393D01*
X146612490Y-62503230D01*
X146613954Y-62495968D01*
X146615065Y-62488619D01*
X146615817Y-62481195D01*
X146616202Y-62473708D01*
X146616213Y-62466169D01*
X146615845Y-62458591D01*
X146615089Y-62450987D01*
X146613940Y-62443367D01*
X146612391Y-62435744D01*
X146610435Y-62428130D01*
X146610435Y-62428067D01*
X146588062Y-62345255D01*
X146567784Y-62262745D01*
X146549692Y-62180684D01*
X146533878Y-62099217D01*
X146520430Y-62018492D01*
X146509440Y-61938656D01*
X146502427Y-61873187D01*
X147344307Y-61873187D01*
X147344633Y-61880836D01*
X147345349Y-61888537D01*
X147345360Y-61888566D01*
X147345370Y-61888606D01*
X147345386Y-61888715D01*
X147345399Y-61888856D01*
X147345411Y-61889021D01*
X147345437Y-61889398D01*
X147345453Y-61889595D01*
X147345474Y-61889787D01*
X147374516Y-62089875D01*
X147407943Y-62281753D01*
X147445533Y-62465549D01*
X147487061Y-62641389D01*
X147532304Y-62809401D01*
X147581039Y-62969714D01*
X147633043Y-63122454D01*
X147688092Y-63267749D01*
X147688092Y-63267761D01*
X147688093Y-63267772D01*
X147688094Y-63267783D01*
X147688095Y-63267793D01*
X147688096Y-63267803D01*
X147688098Y-63267813D01*
X147688100Y-63267823D01*
X147688102Y-63267832D01*
X147688107Y-63267850D01*
X147688112Y-63267867D01*
X147688118Y-63267882D01*
X147688124Y-63267897D01*
X147688135Y-63267925D01*
X147688141Y-63267938D01*
X147688145Y-63267951D01*
X147688149Y-63267963D01*
X147688152Y-63267975D01*
X147688154Y-63267981D01*
X147688154Y-63267987D01*
X147688155Y-63267993D01*
X147688155Y-63267999D01*
X147691244Y-63275139D01*
X147694657Y-63282045D01*
X147698383Y-63288714D01*
X147702409Y-63295138D01*
X147706722Y-63301313D01*
X147711309Y-63307232D01*
X147716158Y-63312890D01*
X147721257Y-63318281D01*
X147726594Y-63323400D01*
X147732154Y-63328240D01*
X147737927Y-63332797D01*
X147743899Y-63337064D01*
X147750058Y-63341036D01*
X147756392Y-63344708D01*
X147762887Y-63348073D01*
X147769532Y-63351125D01*
X147776314Y-63353860D01*
X147783220Y-63356271D01*
X147790238Y-63358353D01*
X147797355Y-63360100D01*
X147804559Y-63361506D01*
X147811838Y-63362566D01*
X147819178Y-63363275D01*
X147826567Y-63363625D01*
X147833993Y-63363613D01*
X147841442Y-63363231D01*
X147848904Y-63362475D01*
X147856365Y-63361338D01*
X147863812Y-63359816D01*
X147871233Y-63357902D01*
X147878616Y-63355590D01*
X147885947Y-63352875D01*
X147885971Y-63352853D01*
X147885994Y-63352831D01*
X147886018Y-63352811D01*
X147886041Y-63352793D01*
X147886065Y-63352775D01*
X147886088Y-63352758D01*
X147886112Y-63352742D01*
X147886135Y-63352727D01*
X147886159Y-63352713D01*
X147886182Y-63352699D01*
X147886229Y-63352673D01*
X147886276Y-63352649D01*
X147886323Y-63352626D01*
X147893494Y-63349531D01*
X147900427Y-63346111D01*
X147907116Y-63342380D01*
X147913555Y-63338350D01*
X147919739Y-63334033D01*
X147925663Y-63329441D01*
X147931322Y-63324588D01*
X147936710Y-63319486D01*
X147941822Y-63314147D01*
X147946652Y-63308584D01*
X147951196Y-63302810D01*
X147955448Y-63296837D01*
X147959402Y-63290677D01*
X147963053Y-63284343D01*
X147966397Y-63277848D01*
X147969427Y-63271204D01*
X147972139Y-63264424D01*
X147974526Y-63257520D01*
X147976584Y-63250505D01*
X147978308Y-63243392D01*
X147979691Y-63236192D01*
X147980729Y-63228919D01*
X147981417Y-63221584D01*
X147981749Y-63214201D01*
X147981719Y-63206783D01*
X147981323Y-63199340D01*
X147980555Y-63191887D01*
X147979409Y-63184436D01*
X147977881Y-63176999D01*
X147975966Y-63169588D01*
X147973657Y-63162217D01*
X147970949Y-63154898D01*
X147919630Y-63019431D01*
X147870931Y-62876366D01*
X147825097Y-62725558D01*
X147782374Y-62566865D01*
X147743009Y-62400143D01*
X147707247Y-62225250D01*
X147675334Y-62042041D01*
X147647517Y-61850374D01*
X147647517Y-61850125D01*
X147646464Y-61843352D01*
X147645127Y-61836695D01*
X147643515Y-61830160D01*
X147641633Y-61823752D01*
X147639489Y-61817476D01*
X147637089Y-61811339D01*
X147634441Y-61805344D01*
X147631551Y-61799499D01*
X147628425Y-61793808D01*
X147625072Y-61788278D01*
X147621497Y-61782913D01*
X147617708Y-61777719D01*
X147613711Y-61772702D01*
X147609513Y-61767867D01*
X147605121Y-61763220D01*
X147600542Y-61758766D01*
X147595783Y-61754510D01*
X147590851Y-61750459D01*
X147585751Y-61746618D01*
X147580492Y-61742992D01*
X147575080Y-61739587D01*
X147569522Y-61736408D01*
X147563824Y-61733462D01*
X147557994Y-61730752D01*
X147552039Y-61728286D01*
X147545965Y-61726068D01*
X147539778Y-61724103D01*
X147533487Y-61722399D01*
X147527098Y-61720959D01*
X147520617Y-61719790D01*
X147514051Y-61718897D01*
X147507408Y-61718286D01*
X147507533Y-61718411D01*
X147507158Y-61718286D01*
X147507095Y-61718286D01*
X147507102Y-61718623D01*
X147499278Y-61718498D01*
X147495385Y-61718500D01*
X147491506Y-61718561D01*
X147487644Y-61718692D01*
X147483798Y-61718904D01*
X147479971Y-61719211D01*
X147476164Y-61719623D01*
X147476026Y-61719623D01*
X147468390Y-61720858D01*
X147460903Y-61722459D01*
X147453573Y-61724414D01*
X147446407Y-61726715D01*
X147439414Y-61729349D01*
X147432602Y-61732307D01*
X147425979Y-61735578D01*
X147419552Y-61739151D01*
X147413331Y-61743018D01*
X147407323Y-61747165D01*
X147401536Y-61751585D01*
X147395979Y-61756265D01*
X147390658Y-61761195D01*
X147385583Y-61766365D01*
X147380761Y-61771765D01*
X147376201Y-61777384D01*
X147371910Y-61783212D01*
X147367896Y-61789237D01*
X147364168Y-61795450D01*
X147360734Y-61801841D01*
X147357601Y-61808398D01*
X147354778Y-61815111D01*
X147352272Y-61821970D01*
X147350093Y-61828965D01*
X147348247Y-61836084D01*
X147346743Y-61843318D01*
X147345589Y-61850655D01*
X147344793Y-61858087D01*
X147344363Y-61865601D01*
X147344307Y-61873187D01*
X146502427Y-61873187D01*
X146500999Y-61859855D01*
X146495196Y-61782236D01*
X146495196Y-61781861D01*
X146494524Y-61774083D01*
X146493470Y-61766429D01*
X146492044Y-61758906D01*
X146490257Y-61751523D01*
X146488118Y-61744290D01*
X146485638Y-61737216D01*
X146482827Y-61730311D01*
X146479695Y-61723582D01*
X146476252Y-61717040D01*
X146472508Y-61710694D01*
X146468473Y-61704552D01*
X146464158Y-61698623D01*
X146459573Y-61692918D01*
X146454727Y-61687445D01*
X146449631Y-61682213D01*
X146444295Y-61677232D01*
X146438729Y-61672510D01*
X146432944Y-61668056D01*
X146426948Y-61663881D01*
X146420754Y-61659992D01*
X146414370Y-61656399D01*
X146407806Y-61653112D01*
X146401074Y-61650139D01*
X146394183Y-61647489D01*
X146387143Y-61645172D01*
X146379964Y-61643197D01*
X146372656Y-61641572D01*
X146365230Y-61640308D01*
X146357696Y-61639413D01*
X146350064Y-61638896D01*
X146342343Y-61638767D01*
X146334545Y-61639035D01*
X146337987Y-61641960D01*
X146337422Y-61641711D01*
X146336852Y-61641479D01*
X146336276Y-61641262D01*
X146335697Y-61641060D01*
X146335113Y-61640872D01*
X146334527Y-61640697D01*
X146333347Y-61640382D01*
X146332161Y-61640109D01*
X146330974Y-61639869D01*
X146329790Y-61639655D01*
X146328613Y-61639460D01*
X146333988Y-61638211D01*
X146333567Y-61638240D01*
X146333149Y-61638279D01*
X146332319Y-61638384D01*
X146331496Y-61638516D01*
X146330675Y-61638663D01*
X146329030Y-61638966D01*
X146328201Y-61639100D01*
X146327362Y-61639210D01*
X146324987Y-61639585D01*
X146323608Y-61640074D01*
X146322272Y-61640593D01*
X146319675Y-61641648D01*
X146318384Y-61642149D01*
X146317078Y-61642609D01*
X146316414Y-61642818D01*
X146315742Y-61643010D01*
X146315059Y-61643183D01*
X146314363Y-61643335D01*
X146301512Y-61647085D01*
X146301228Y-61647724D01*
X146301018Y-61647784D01*
X146300793Y-61648284D01*
X146288856Y-61652349D01*
X146277174Y-61657394D01*
X146266017Y-61663301D01*
X146255433Y-61670030D01*
X146245472Y-61677538D01*
X146236183Y-61685784D01*
X146227616Y-61694724D01*
X146219821Y-61704318D01*
X146212845Y-61714524D01*
X146206739Y-61725298D01*
X146204028Y-61730886D01*
X146201553Y-61736600D01*
X146199320Y-61742435D01*
X146197335Y-61748387D01*
X146195605Y-61754449D01*
X146194135Y-61760617D01*
X146192933Y-61766886D01*
X146192003Y-61773249D01*
X146191352Y-61779702D01*
X146190987Y-61786240D01*
X146190914Y-61792857D01*
X143130293Y-61792857D01*
X143129536Y-61792003D01*
X143121509Y-61782544D01*
X143112387Y-61771477D01*
X143102173Y-61758730D01*
X143090866Y-61744226D01*
X143078467Y-61727890D01*
X143064977Y-61709649D01*
X143034677Y-61667029D01*
X142999891Y-61615744D01*
X142960559Y-61555177D01*
X142916620Y-61484709D01*
X142868016Y-61403722D01*
X142814687Y-61311599D01*
X142756572Y-61207720D01*
X142693613Y-61091468D01*
X142656404Y-61024360D01*
X142616979Y-60958206D01*
X142575560Y-60893085D01*
X142532370Y-60829073D01*
X142487632Y-60766247D01*
X142441569Y-60704684D01*
X142346359Y-60585657D01*
X142248522Y-60472609D01*
X142149840Y-60366155D01*
X142052096Y-60266913D01*
X141957073Y-60175499D01*
X141866553Y-60092529D01*
X141782319Y-60018622D01*
X141706152Y-59954392D01*
X141639836Y-59900456D01*
X141508727Y-59799993D01*
X141508654Y-59799924D01*
X141508582Y-59799858D01*
X141508511Y-59799795D01*
X141508440Y-59799733D01*
X141508297Y-59799617D01*
X141508155Y-59799509D01*
X141508011Y-59799406D01*
X141507865Y-59799308D01*
X141507717Y-59799212D01*
X141507564Y-59799118D01*
X141502323Y-59795446D01*
X141496967Y-59791979D01*
X141491503Y-59788718D01*
X141485937Y-59785667D01*
X141480275Y-59782827D01*
X141474523Y-59780202D01*
X141468687Y-59777793D01*
X141462773Y-59775603D01*
X141456787Y-59773634D01*
X141450736Y-59771888D01*
X141444625Y-59770368D01*
X141438460Y-59769077D01*
X141432248Y-59768017D01*
X141425995Y-59767189D01*
X141419706Y-59766597D01*
X141413388Y-59766243D01*
X141413364Y-59766234D01*
X141413339Y-59766225D01*
X141413314Y-59766216D01*
X141413288Y-59766207D01*
X141413262Y-59766199D01*
X141413237Y-59766192D01*
X141413212Y-59766186D01*
X141413188Y-59766181D01*
X141413182Y-59766180D01*
X141413177Y-59766179D01*
X141413171Y-59766179D01*
X141413166Y-59766180D01*
X141413161Y-59766181D01*
X141413155Y-59766182D01*
X141413150Y-59766183D01*
X141413146Y-59766185D01*
X141413141Y-59766187D01*
X141413136Y-59766190D01*
X141413132Y-59766192D01*
X141413127Y-59766195D01*
X141413123Y-59766198D01*
X141413118Y-59766201D01*
X141413110Y-59766207D01*
X141413094Y-59766220D01*
X141413087Y-59766226D01*
X141413079Y-59766232D01*
X141413076Y-59766234D01*
X141413072Y-59766236D01*
X141413068Y-59766238D01*
X141413065Y-59766240D01*
X141413061Y-59766241D01*
X141413058Y-59766242D01*
X141413054Y-59766243D01*
X141413051Y-59766243D01*
X141410340Y-59766271D01*
X141407642Y-59766351D01*
X141404956Y-59766474D01*
X141402279Y-59766634D01*
X141396938Y-59767034D01*
X141391600Y-59767493D01*
X141390382Y-59767776D01*
X141389163Y-59768071D01*
X141388554Y-59768227D01*
X141387944Y-59768390D01*
X141387335Y-59768561D01*
X141386725Y-59768743D01*
X141388542Y-59768893D01*
X141388140Y-59768882D01*
X141386400Y-59768868D01*
X141385722Y-59768884D01*
X141385047Y-59768930D01*
X141384374Y-59769003D01*
X141383703Y-59769101D01*
X141383035Y-59769221D01*
X141382368Y-59769363D01*
X141381704Y-59769522D01*
X141381041Y-59769696D01*
X141379719Y-59770083D01*
X141378402Y-59770503D01*
X141375775Y-59771368D01*
X141378650Y-59767618D01*
X141378626Y-59767613D01*
X141378601Y-59767607D01*
X141378576Y-59767599D01*
X141378550Y-59767591D01*
X141378525Y-59767583D01*
X141378499Y-59767574D01*
X141378474Y-59767565D01*
X141378458Y-59767559D01*
X141372808Y-59768564D01*
X141367229Y-59769756D01*
X141361743Y-59771126D01*
X141356350Y-59772667D01*
X141351053Y-59774373D01*
X141345854Y-59776237D01*
X141340756Y-59778253D01*
X141335759Y-59780415D01*
X141330868Y-59782716D01*
X141326083Y-59785150D01*
X141321407Y-59787710D01*
X141316842Y-59790390D01*
X141312391Y-59793183D01*
X141309957Y-59794811D01*
X141307984Y-59795753D01*
X141303998Y-59797761D01*
X141299114Y-59800478D01*
X141296368Y-59802134D01*
X141293436Y-59804008D01*
X141290332Y-59806112D01*
X141287068Y-59808460D01*
X141283657Y-59811065D01*
X141280113Y-59813940D01*
X141276447Y-59817099D01*
X141272674Y-59820556D01*
X141266955Y-59826195D01*
X141261579Y-59831946D01*
X141256534Y-59837789D01*
X141251808Y-59843707D01*
X141247389Y-59849681D01*
X141243264Y-59855693D01*
X141239422Y-59861725D01*
X141235851Y-59867760D01*
X141232538Y-59873778D01*
X141229471Y-59879762D01*
X141226640Y-59885694D01*
X141224030Y-59891555D01*
X141221631Y-59897327D01*
X141219430Y-59902993D01*
X141215574Y-59913932D01*
X141214265Y-59918057D01*
X141213048Y-59922186D01*
X141211911Y-59926320D01*
X141210839Y-59930463D01*
X141208841Y-59938787D01*
X141206949Y-59947182D01*
X141206542Y-59944194D01*
X141206093Y-59941088D01*
X141205634Y-59938217D01*
X141205411Y-59936979D01*
X141205199Y-59935932D01*
X141193481Y-59871984D01*
X141182489Y-59815711D01*
X141172410Y-59767555D01*
X141378000Y-59767555D01*
X141378275Y-59767555D01*
X141378297Y-59767554D01*
X141378314Y-59767553D01*
X141378328Y-59767553D01*
X141378340Y-59767554D01*
X141378349Y-59767555D01*
X141378357Y-59767557D01*
X141378371Y-59767560D01*
X141378377Y-59767562D01*
X141378385Y-59767563D01*
X141378393Y-59767564D01*
X141378404Y-59767564D01*
X141378417Y-59767564D01*
X141378432Y-59767562D01*
X141378452Y-59767559D01*
X141378458Y-59767558D01*
X141378458Y-59767559D01*
X141378475Y-59767555D01*
X141378458Y-59767558D01*
X141378450Y-59767555D01*
X141395924Y-59764743D01*
X141401838Y-59763806D01*
X141378000Y-59767555D01*
X141172410Y-59767555D01*
X141172243Y-59766757D01*
X141162761Y-59724768D01*
X141162747Y-59724962D01*
X141162734Y-59725078D01*
X141162723Y-59725128D01*
X141162717Y-59725130D01*
X141162711Y-59725118D01*
X141162701Y-59725057D01*
X141162691Y-59724955D01*
X141162673Y-59724659D01*
X141162645Y-59723942D01*
X141162633Y-59723659D01*
X141162623Y-59723518D01*
X141162362Y-59721987D01*
X141162446Y-59722499D01*
X141162561Y-59723268D01*
X141162561Y-59723518D01*
X141162498Y-59723268D01*
X141162015Y-59720075D01*
X141161690Y-59717877D01*
X141161495Y-59716500D01*
X141161398Y-59715768D01*
X141161398Y-59715705D01*
X141158273Y-59691205D01*
X141158273Y-59691143D01*
X141157660Y-59685970D01*
X141157095Y-59680517D01*
X141155898Y-59668391D01*
X141155423Y-59663392D01*
X141154633Y-59648579D01*
X141154502Y-59639324D01*
X141154629Y-59627040D01*
X141155127Y-59611322D01*
X141156111Y-59591767D01*
X141156111Y-59591642D01*
X141157194Y-59574017D01*
X141157751Y-59566329D01*
X141158361Y-59559392D01*
X141158653Y-59556659D01*
X141158966Y-59554059D01*
X141159631Y-59549078D01*
X141160317Y-59544098D01*
X141160986Y-59538766D01*
X141237189Y-59581767D01*
X141274541Y-59603103D01*
X141310138Y-59624017D01*
X141310201Y-59624017D01*
X141371856Y-59661325D01*
X141431832Y-59698281D01*
X141548238Y-59770980D01*
X141686034Y-59856938D01*
X141754605Y-59899182D01*
X141823482Y-59941057D01*
X141862932Y-59964633D01*
X141902804Y-59988105D01*
X141943161Y-60011458D01*
X141984069Y-60034683D01*
X141991912Y-60039542D01*
X141999200Y-60043911D01*
X142003583Y-60046453D01*
X142008419Y-60049183D01*
X142008630Y-60049191D01*
X142008840Y-60049216D01*
X142009050Y-60049255D01*
X142009261Y-60049308D01*
X142009471Y-60049372D01*
X142009681Y-60049447D01*
X142009891Y-60049530D01*
X142010102Y-60049620D01*
X142011794Y-60050433D01*
X142012914Y-60050995D01*
X142014043Y-60051558D01*
X142016362Y-60052936D01*
X142018631Y-60054241D01*
X142020784Y-60055447D01*
X142022755Y-60056527D01*
X142027481Y-60059058D01*
X142078383Y-60086588D01*
X142130309Y-60113637D01*
X142183370Y-60140428D01*
X142237677Y-60167184D01*
X142266217Y-60181325D01*
X142282055Y-60189174D01*
X142298978Y-60197434D01*
X142299040Y-60197434D01*
X142364214Y-60227496D01*
X142432038Y-60257639D01*
X142502804Y-60287805D01*
X142576804Y-60317935D01*
X142662650Y-60351293D01*
X142752786Y-60384685D01*
X142847498Y-60418130D01*
X142947068Y-60451649D01*
X143051515Y-60485192D01*
X143161397Y-60518891D01*
X143277028Y-60552819D01*
X143398725Y-60587050D01*
X143398788Y-60587050D01*
X143407463Y-60589311D01*
X143416153Y-60591100D01*
X143424844Y-60592425D01*
X143433523Y-60593294D01*
X143442174Y-60593716D01*
X143450783Y-60593698D01*
X143459337Y-60593249D01*
X143467821Y-60592377D01*
X143476220Y-60591089D01*
X143484521Y-60589395D01*
X143492710Y-60587302D01*
X143500771Y-60584819D01*
X143508691Y-60581953D01*
X143516456Y-60578713D01*
X143524052Y-60575107D01*
X143531463Y-60571142D01*
X143538677Y-60566828D01*
X143545678Y-60562172D01*
X143552453Y-60557183D01*
X143558987Y-60551868D01*
X143565266Y-60546236D01*
X143571276Y-60540295D01*
X143577002Y-60534053D01*
X143582431Y-60527518D01*
X143587548Y-60520698D01*
X143592339Y-60513602D01*
X143596789Y-60506237D01*
X143600885Y-60498613D01*
X143604612Y-60490736D01*
X143607956Y-60482615D01*
X143610903Y-60474258D01*
X143613439Y-60465674D01*
X143613462Y-60465624D01*
X143613486Y-60465569D01*
X143613533Y-60465443D01*
X143613580Y-60465300D01*
X143613626Y-60465143D01*
X143613673Y-60464973D01*
X143613720Y-60464795D01*
X143613814Y-60464424D01*
X143614700Y-60460735D01*
X143615484Y-60457119D01*
X143616172Y-60453573D01*
X143616769Y-60450094D01*
X143617278Y-60446678D01*
X143617705Y-60443324D01*
X143618054Y-60440026D01*
X143618329Y-60436783D01*
X143618678Y-60430448D01*
X143618788Y-60424293D01*
X143618696Y-60418293D01*
X143618439Y-60412424D01*
X143618478Y-60411213D01*
X143618465Y-60409523D01*
X143618376Y-60407143D01*
X143618170Y-60404094D01*
X143617806Y-60400400D01*
X143617242Y-60396086D01*
X143616439Y-60391174D01*
X143615899Y-60388232D01*
X143615310Y-60385359D01*
X143614674Y-60382551D01*
X143613993Y-60379808D01*
X143613271Y-60377128D01*
X143612511Y-60374507D01*
X143610887Y-60369439D01*
X143609146Y-60364587D01*
X143607311Y-60359936D01*
X143605405Y-60355470D01*
X143603451Y-60351173D01*
X143602725Y-60349174D01*
X143601953Y-60347206D01*
X143601138Y-60345264D01*
X143600280Y-60343344D01*
X143599380Y-60341442D01*
X143598442Y-60339553D01*
X143597465Y-60337673D01*
X143596451Y-60335798D01*
X143594366Y-60332244D01*
X143592205Y-60328755D01*
X143589970Y-60325329D01*
X143587661Y-60321968D01*
X143585278Y-60318670D01*
X143582821Y-60315436D01*
X143580289Y-60312265D01*
X143577684Y-60309157D01*
X143575005Y-60306112D01*
X143572253Y-60303131D01*
X143569427Y-60300211D01*
X143566528Y-60297354D01*
X143563556Y-60294560D01*
X143560510Y-60291827D01*
X143557392Y-60289157D01*
X143556131Y-60288125D01*
X143555716Y-60287757D01*
X143555252Y-60287368D01*
X143554784Y-60286994D01*
X143554312Y-60286631D01*
X143554211Y-60286555D01*
X143554205Y-60286551D01*
X143553358Y-60285923D01*
X143552391Y-60285215D01*
X143551416Y-60284477D01*
X143550926Y-60284089D01*
X143550435Y-60283681D01*
X143549944Y-60283252D01*
X143549452Y-60282798D01*
X143546269Y-60280512D01*
X143543029Y-60278298D01*
X143539734Y-60276154D01*
X143536381Y-60274081D01*
X143532971Y-60272079D01*
X143529504Y-60270148D01*
X143525979Y-60268288D01*
X143522397Y-60266501D01*
X143518757Y-60264785D01*
X143515058Y-60263141D01*
X143511302Y-60261569D01*
X143507487Y-60260069D01*
X143503613Y-60258642D01*
X143499681Y-60257288D01*
X143495689Y-60256006D01*
X143491638Y-60254797D01*
X143491539Y-60254776D01*
X143491429Y-60254757D01*
X143491311Y-60254741D01*
X143491185Y-60254726D01*
X143490638Y-60254673D01*
X143392767Y-60227154D01*
X143300000Y-60200000D01*
X143211326Y-60173056D01*
X143125735Y-60146171D01*
X143094157Y-60136218D01*
X143078720Y-60131318D01*
X143064172Y-60126546D01*
X143062472Y-60126062D01*
X143060844Y-60125556D01*
X143059285Y-60125041D01*
X143057797Y-60124531D01*
X143055031Y-60123576D01*
X143053754Y-60123157D01*
X143052547Y-60122796D01*
X142974712Y-60096557D01*
X142900007Y-60070389D01*
X142828481Y-60044361D01*
X142760184Y-60018545D01*
X142757747Y-60017554D01*
X142755263Y-60016475D01*
X142750151Y-60014170D01*
X142747521Y-60013003D01*
X142744840Y-60011865D01*
X142742107Y-60010786D01*
X142739321Y-60009795D01*
X142739259Y-60009795D01*
X142669860Y-59982162D01*
X142603431Y-59954576D01*
X142539804Y-59927036D01*
X142478806Y-59899544D01*
X142478744Y-59899544D01*
X142474075Y-59897245D01*
X142469300Y-59894981D01*
X142464894Y-59892952D01*
X142461330Y-59891356D01*
X142459082Y-59890393D01*
X142458601Y-59890211D01*
X142458546Y-59890206D01*
X142458626Y-59890262D01*
X142460434Y-59891163D01*
X142464981Y-59893294D01*
X142464919Y-59893294D01*
X142457507Y-59889813D01*
X142450252Y-59886305D01*
X142436059Y-59879200D01*
X142407817Y-59864544D01*
X142498493Y-59798364D01*
X142600858Y-59730037D01*
X142714442Y-59660271D01*
X142838774Y-59589771D01*
X142973384Y-59519245D01*
X143117803Y-59449399D01*
X143271560Y-59380941D01*
X143434185Y-59314576D01*
X143657725Y-59232304D01*
X143892712Y-59155852D01*
X144137829Y-59086472D01*
X144391760Y-59025415D01*
X144653189Y-58973936D01*
X144786303Y-58952178D01*
X144920797Y-58933284D01*
X145056507Y-58917410D01*
X145193269Y-58904712D01*
X145330917Y-58895347D01*
X145469287Y-58889472D01*
X145527497Y-58887693D01*
X145585655Y-58886676D01*
X145643815Y-58886431D01*
X145702028Y-58886972D01*
G37*
D11*
X68270000Y-71335000D03*
D12*
X70810000Y-71335000D03*
X68270000Y-73875000D03*
X70810000Y-73875000D03*
X68270000Y-76415000D03*
X70810000Y-76415000D03*
X68270000Y-78955000D03*
X70810000Y-78955000D03*
D13*
X88162500Y-63010000D03*
X86437500Y-63010000D03*
D14*
X77550000Y-61070000D03*
X77550000Y-60570000D03*
X77550000Y-60070000D03*
X77550000Y-59570000D03*
X77550000Y-59070000D03*
X77550000Y-58570000D03*
X77550000Y-58070000D03*
X77550000Y-57570000D03*
X77550000Y-57070000D03*
X77550000Y-56570000D03*
X77550000Y-56070000D03*
X77550000Y-55570000D03*
X77550000Y-55070000D03*
X77550000Y-54570000D03*
X77550000Y-54070000D03*
X77550000Y-53570000D03*
X77550000Y-53070000D03*
X77550000Y-52570000D03*
X77550000Y-52070000D03*
D15*
X70750000Y-63820000D03*
X70750000Y-49320000D03*
D16*
X76710000Y-63820000D03*
X76710000Y-49320000D03*
D17*
X86397500Y-72907500D03*
X88222500Y-72907500D03*
D18*
X88760000Y-76470000D03*
X88760000Y-75520000D03*
X88760000Y-74570000D03*
X86060000Y-74570000D03*
X86060000Y-76470000D03*
D11*
X74670000Y-70410000D03*
D12*
X77210000Y-70410000D03*
X79750000Y-70410000D03*
X82290000Y-70410000D03*
D19*
X105170000Y-74392500D03*
X105170000Y-76117500D03*
X119020000Y-72660000D03*
X119020000Y-74385000D03*
D20*
X84250000Y-74595000D03*
X84250000Y-76420000D03*
D21*
X99000000Y-70105000D03*
X99000000Y-68355000D03*
X88590000Y-69495000D03*
X88590000Y-67745000D03*
D19*
X91582500Y-68285000D03*
X91582500Y-70010000D03*
X101180000Y-68787500D03*
X101180000Y-70512500D03*
D22*
X107230000Y-58982500D03*
X107230000Y-57257500D03*
D23*
X113250000Y-73072500D03*
X110950000Y-73072500D03*
D24*
X110950000Y-79372500D03*
D23*
X108650000Y-73072500D03*
D19*
X94940000Y-68317500D03*
X94940000Y-70042500D03*
D25*
X102769500Y-68834000D03*
X104494500Y-68834000D03*
D13*
X88050000Y-65880000D03*
X86325000Y-65880000D03*
D26*
X82272500Y-50370000D03*
X80447500Y-50370000D03*
D12*
X136770000Y-67995000D03*
X136770000Y-70535000D03*
X149610000Y-52875000D03*
D11*
X152150000Y-52875000D03*
D12*
X144530000Y-52875000D03*
X141990000Y-52875000D03*
X139450000Y-52875000D03*
X136770000Y-60375000D03*
X136770000Y-62915000D03*
X136770000Y-65455000D03*
X139450000Y-75775000D03*
X141990000Y-75775000D03*
X144530000Y-75775000D03*
X147070000Y-75775000D03*
X149610000Y-75775000D03*
D11*
X152150000Y-75775000D03*
X136770000Y-57835000D03*
D12*
X147070000Y-52875000D03*
D22*
X88392000Y-55218500D03*
X88392000Y-53493500D03*
D25*
X116607500Y-78210000D03*
X118332500Y-78210000D03*
D19*
X90040000Y-68217500D03*
X90040000Y-69942500D03*
X121880000Y-72660000D03*
X121880000Y-74385000D03*
X93330000Y-68367500D03*
X93330000Y-70092500D03*
D27*
X91795947Y-66585947D03*
X92295949Y-66585947D03*
X92795948Y-66585947D03*
X93295947Y-66585947D03*
X93795948Y-66585947D03*
X94295947Y-66585947D03*
X94795949Y-66585947D03*
X95295948Y-66585947D03*
X95795947Y-66585947D03*
X96295948Y-66585947D03*
X96795947Y-66585947D03*
X97295946Y-66585947D03*
X97795948Y-66585947D03*
X98295947Y-66585947D03*
X98795949Y-66585947D03*
X99295948Y-66585947D03*
X99795947Y-66585947D03*
X100295948Y-66585947D03*
X100795947Y-66585947D03*
X101295949Y-66585947D03*
X101795948Y-66585947D03*
X102295947Y-66585947D03*
X102795948Y-66585947D03*
X103295947Y-66585947D03*
X103795949Y-66585947D03*
D28*
X105571896Y-64810000D03*
X105571896Y-64309998D03*
X105571896Y-63809999D03*
X105571896Y-63310000D03*
X105571896Y-62809999D03*
X105571896Y-62310000D03*
X105571896Y-61809998D03*
X105571896Y-61309999D03*
X105571896Y-60810000D03*
X105571896Y-60309999D03*
X105571896Y-59810000D03*
X105571896Y-59309998D03*
X105571896Y-58809999D03*
X105571896Y-58310000D03*
X105571896Y-57809998D03*
X105571896Y-57309999D03*
X105571896Y-56809998D03*
X105571896Y-56309999D03*
X105571896Y-55810000D03*
X105571896Y-55309998D03*
X105571896Y-54809999D03*
X105571896Y-54309998D03*
X105571896Y-53809999D03*
X105571896Y-53310000D03*
X105571896Y-52809998D03*
D27*
X103795949Y-51034051D03*
X103295947Y-51034051D03*
X102795948Y-51034051D03*
X102295949Y-51034051D03*
X101795948Y-51034051D03*
X101295949Y-51034051D03*
X100795947Y-51034051D03*
X100295948Y-51034051D03*
X99795949Y-51034051D03*
X99295948Y-51034051D03*
X98795949Y-51034051D03*
X98295947Y-51034051D03*
X97795948Y-51034051D03*
X97295949Y-51034051D03*
X96795947Y-51034051D03*
X96295948Y-51034051D03*
X95795947Y-51034051D03*
X95295948Y-51034051D03*
X94795949Y-51034051D03*
X94295947Y-51034051D03*
X93795948Y-51034051D03*
X93295947Y-51034051D03*
X92795948Y-51034051D03*
X92295949Y-51034051D03*
X91795947Y-51034051D03*
D28*
X90020000Y-52809998D03*
X90020000Y-53310000D03*
X90020000Y-53809999D03*
X90020000Y-54309998D03*
X90020000Y-54809999D03*
X90020000Y-55309998D03*
X90020000Y-55810000D03*
X90020000Y-56309999D03*
X90020000Y-56809998D03*
X90020000Y-57309999D03*
X90020000Y-57809998D03*
X90020000Y-58310000D03*
X90020000Y-58809999D03*
X90020000Y-59309998D03*
X90020000Y-59810000D03*
X90020000Y-60309999D03*
X90020000Y-60810000D03*
X90020000Y-61309999D03*
X90020000Y-61809998D03*
X90020000Y-62310000D03*
X90020000Y-62809999D03*
X90020000Y-63310000D03*
X90020000Y-63809999D03*
X90020000Y-64309998D03*
X90020000Y-64810000D03*
D19*
X124730000Y-72660000D03*
X124730000Y-74385000D03*
D29*
X108690120Y-62469880D03*
X109909880Y-61250120D03*
D30*
X86055000Y-64440000D03*
X87805000Y-64440000D03*
D19*
X87110000Y-67707500D03*
X87110000Y-69432500D03*
D25*
X106977500Y-55780000D03*
X108702500Y-55780000D03*
D13*
X91172500Y-49420000D03*
X89447500Y-49420000D03*
D21*
X97540000Y-70015000D03*
X97540000Y-68265000D03*
D13*
X87292500Y-61770000D03*
X85567500Y-61770000D03*
D25*
X95758000Y-49530000D03*
X97483000Y-49530000D03*
D22*
X86870000Y-55222500D03*
X86870000Y-53497500D03*
D19*
X96210000Y-68277500D03*
X96210000Y-70002500D03*
D25*
X100637500Y-49400000D03*
X102362500Y-49400000D03*
D13*
X88542500Y-59000000D03*
X86817500Y-59000000D03*
D31*
X112840000Y-66225000D03*
X113240000Y-66225000D03*
X113640000Y-66225000D03*
X114040000Y-66225000D03*
X114440000Y-66225000D03*
X114840000Y-66225000D03*
X115240000Y-66225000D03*
X115640000Y-66225000D03*
X116040000Y-66225000D03*
X116440000Y-66225000D03*
X116840000Y-66225000D03*
X117240000Y-66225000D03*
X117640000Y-66225000D03*
X118040000Y-66225000D03*
X118440000Y-66225000D03*
X118840000Y-66225000D03*
X119240000Y-66225000D03*
X119640000Y-66225000D03*
X120040000Y-66225000D03*
X120440000Y-66225000D03*
X120840000Y-66225000D03*
X121240000Y-66225000D03*
X121640000Y-66225000D03*
X122040000Y-66225000D03*
X122440000Y-66225000D03*
X122840000Y-66225000D03*
X123240000Y-66225000D03*
X123640000Y-66225000D03*
X124040000Y-66225000D03*
X124440000Y-66225000D03*
D32*
X110340000Y-67595000D03*
X126940000Y-67595000D03*
D33*
X128420000Y-53880000D03*
X127920000Y-53880000D03*
X127420000Y-53880000D03*
X126920000Y-53880000D03*
X126420000Y-53880000D03*
X125920000Y-53880000D03*
X125420000Y-53880000D03*
X124920000Y-53880000D03*
X124420000Y-53880000D03*
X123920000Y-53880000D03*
X123420000Y-53880000D03*
X122920000Y-53880000D03*
X122420000Y-53880000D03*
X121920000Y-53880000D03*
X121420000Y-53880000D03*
X120920000Y-53880000D03*
X120420000Y-53880000D03*
X119920000Y-53880000D03*
X119420000Y-53880000D03*
X118920000Y-53880000D03*
X118420000Y-53880000D03*
X117920000Y-53880000D03*
X117420000Y-53880000D03*
X116920000Y-53880000D03*
X116420000Y-53880000D03*
X115920000Y-53880000D03*
X115420000Y-53880000D03*
X114920000Y-53880000D03*
X114920000Y-61140000D03*
X115420000Y-61140000D03*
X115920000Y-61140000D03*
X116420000Y-61140000D03*
X116920000Y-61140000D03*
X117420000Y-61140000D03*
X117920000Y-61140000D03*
X118420000Y-61140000D03*
X118920000Y-61140000D03*
X119420000Y-61140000D03*
X119920000Y-61140000D03*
X120420000Y-61140000D03*
X120920000Y-61140000D03*
X121420000Y-61140000D03*
X121920000Y-61140000D03*
X122420000Y-61140000D03*
X122920000Y-61140000D03*
X123420000Y-61140000D03*
X123920000Y-61140000D03*
X124420000Y-61140000D03*
X124920000Y-61140000D03*
X125420000Y-61140000D03*
X125920000Y-61140000D03*
X126420000Y-61140000D03*
X126920000Y-61140000D03*
X127420000Y-61140000D03*
X127920000Y-61140000D03*
X128420000Y-61140000D03*
M02*
