%TF.GenerationSoftware,KiCad,Pcbnew,10.0.5*%
%TF.CreationDate,2026-08-19T20:18:02+02:00*%
%TF.ProjectId,koyomi-hdmi-lvds,6b6f796f-6d69-42d6-9864-6d692d6c7664,rev?*%
%TF.SameCoordinates,Original*%
%TF.FileFunction,Legend,Bot*%
%TF.FilePolarity,Positive*%
%FSLAX46Y46*%
G04 Gerber Fmt 4.6, Leading zero omitted, Abs format (unit mm)*
G04 Created by KiCad (PCBNEW 10.0.5) date 2026-08-19 20:18:02*
%MOMM*%
%LPD*%
G01*
G04 APERTURE LIST*
%ADD10C,0.200000*%
G04 APERTURE END LIST*
D10*
X130830326Y-48097331D02*
X130830326Y-47097331D01*
X130830326Y-47097331D02*
X130449374Y-47097331D01*
X130449374Y-47097331D02*
X130354136Y-47144950D01*
X130354136Y-47144950D02*
X130306517Y-47192569D01*
X130306517Y-47192569D02*
X130258898Y-47287807D01*
X130258898Y-47287807D02*
X130258898Y-47430664D01*
X130258898Y-47430664D02*
X130306517Y-47525902D01*
X130306517Y-47525902D02*
X130354136Y-47573521D01*
X130354136Y-47573521D02*
X130449374Y-47621140D01*
X130449374Y-47621140D02*
X130830326Y-47621140D01*
X129830326Y-48097331D02*
X129830326Y-47430664D01*
X129830326Y-47621140D02*
X129782707Y-47525902D01*
X129782707Y-47525902D02*
X129735088Y-47478283D01*
X129735088Y-47478283D02*
X129639850Y-47430664D01*
X129639850Y-47430664D02*
X129544612Y-47430664D01*
X129068421Y-48097331D02*
X129163659Y-48049712D01*
X129163659Y-48049712D02*
X129211278Y-48002092D01*
X129211278Y-48002092D02*
X129258897Y-47906854D01*
X129258897Y-47906854D02*
X129258897Y-47621140D01*
X129258897Y-47621140D02*
X129211278Y-47525902D01*
X129211278Y-47525902D02*
X129163659Y-47478283D01*
X129163659Y-47478283D02*
X129068421Y-47430664D01*
X129068421Y-47430664D02*
X128925564Y-47430664D01*
X128925564Y-47430664D02*
X128830326Y-47478283D01*
X128830326Y-47478283D02*
X128782707Y-47525902D01*
X128782707Y-47525902D02*
X128735088Y-47621140D01*
X128735088Y-47621140D02*
X128735088Y-47906854D01*
X128735088Y-47906854D02*
X128782707Y-48002092D01*
X128782707Y-48002092D02*
X128830326Y-48049712D01*
X128830326Y-48049712D02*
X128925564Y-48097331D01*
X128925564Y-48097331D02*
X129068421Y-48097331D01*
X128306516Y-47430664D02*
X128306516Y-48287807D01*
X128306516Y-48287807D02*
X128354135Y-48383045D01*
X128354135Y-48383045D02*
X128449373Y-48430664D01*
X128449373Y-48430664D02*
X128496992Y-48430664D01*
X128306516Y-47097331D02*
X128354135Y-47144950D01*
X128354135Y-47144950D02*
X128306516Y-47192569D01*
X128306516Y-47192569D02*
X128258897Y-47144950D01*
X128258897Y-47144950D02*
X128306516Y-47097331D01*
X128306516Y-47097331D02*
X128306516Y-47192569D01*
X127449374Y-48049712D02*
X127544612Y-48097331D01*
X127544612Y-48097331D02*
X127735088Y-48097331D01*
X127735088Y-48097331D02*
X127830326Y-48049712D01*
X127830326Y-48049712D02*
X127877945Y-47954473D01*
X127877945Y-47954473D02*
X127877945Y-47573521D01*
X127877945Y-47573521D02*
X127830326Y-47478283D01*
X127830326Y-47478283D02*
X127735088Y-47430664D01*
X127735088Y-47430664D02*
X127544612Y-47430664D01*
X127544612Y-47430664D02*
X127449374Y-47478283D01*
X127449374Y-47478283D02*
X127401755Y-47573521D01*
X127401755Y-47573521D02*
X127401755Y-47668759D01*
X127401755Y-47668759D02*
X127877945Y-47763997D01*
X126544612Y-48049712D02*
X126639850Y-48097331D01*
X126639850Y-48097331D02*
X126830326Y-48097331D01*
X126830326Y-48097331D02*
X126925564Y-48049712D01*
X126925564Y-48049712D02*
X126973183Y-48002092D01*
X126973183Y-48002092D02*
X127020802Y-47906854D01*
X127020802Y-47906854D02*
X127020802Y-47621140D01*
X127020802Y-47621140D02*
X126973183Y-47525902D01*
X126973183Y-47525902D02*
X126925564Y-47478283D01*
X126925564Y-47478283D02*
X126830326Y-47430664D01*
X126830326Y-47430664D02*
X126639850Y-47430664D01*
X126639850Y-47430664D02*
X126544612Y-47478283D01*
X126258897Y-47430664D02*
X125877945Y-47430664D01*
X126116040Y-47097331D02*
X126116040Y-47954473D01*
X126116040Y-47954473D02*
X126068421Y-48049712D01*
X126068421Y-48049712D02*
X125973183Y-48097331D01*
X125973183Y-48097331D02*
X125877945Y-48097331D01*
X124782706Y-48097331D02*
X124782706Y-47097331D01*
X124211278Y-48097331D02*
X124639849Y-47525902D01*
X124211278Y-47097331D02*
X124782706Y-47668759D01*
X123639849Y-48097331D02*
X123735087Y-48049712D01*
X123735087Y-48049712D02*
X123782706Y-48002092D01*
X123782706Y-48002092D02*
X123830325Y-47906854D01*
X123830325Y-47906854D02*
X123830325Y-47621140D01*
X123830325Y-47621140D02*
X123782706Y-47525902D01*
X123782706Y-47525902D02*
X123735087Y-47478283D01*
X123735087Y-47478283D02*
X123639849Y-47430664D01*
X123639849Y-47430664D02*
X123496992Y-47430664D01*
X123496992Y-47430664D02*
X123401754Y-47478283D01*
X123401754Y-47478283D02*
X123354135Y-47525902D01*
X123354135Y-47525902D02*
X123306516Y-47621140D01*
X123306516Y-47621140D02*
X123306516Y-47906854D01*
X123306516Y-47906854D02*
X123354135Y-48002092D01*
X123354135Y-48002092D02*
X123401754Y-48049712D01*
X123401754Y-48049712D02*
X123496992Y-48097331D01*
X123496992Y-48097331D02*
X123639849Y-48097331D01*
X122973182Y-47430664D02*
X122735087Y-48097331D01*
X122496992Y-47430664D02*
X122735087Y-48097331D01*
X122735087Y-48097331D02*
X122830325Y-48335426D01*
X122830325Y-48335426D02*
X122877944Y-48383045D01*
X122877944Y-48383045D02*
X122973182Y-48430664D01*
X121973182Y-48097331D02*
X122068420Y-48049712D01*
X122068420Y-48049712D02*
X122116039Y-48002092D01*
X122116039Y-48002092D02*
X122163658Y-47906854D01*
X122163658Y-47906854D02*
X122163658Y-47621140D01*
X122163658Y-47621140D02*
X122116039Y-47525902D01*
X122116039Y-47525902D02*
X122068420Y-47478283D01*
X122068420Y-47478283D02*
X121973182Y-47430664D01*
X121973182Y-47430664D02*
X121830325Y-47430664D01*
X121830325Y-47430664D02*
X121735087Y-47478283D01*
X121735087Y-47478283D02*
X121687468Y-47525902D01*
X121687468Y-47525902D02*
X121639849Y-47621140D01*
X121639849Y-47621140D02*
X121639849Y-47906854D01*
X121639849Y-47906854D02*
X121687468Y-48002092D01*
X121687468Y-48002092D02*
X121735087Y-48049712D01*
X121735087Y-48049712D02*
X121830325Y-48097331D01*
X121830325Y-48097331D02*
X121973182Y-48097331D01*
X121211277Y-48097331D02*
X121211277Y-47430664D01*
X121211277Y-47525902D02*
X121163658Y-47478283D01*
X121163658Y-47478283D02*
X121068420Y-47430664D01*
X121068420Y-47430664D02*
X120925563Y-47430664D01*
X120925563Y-47430664D02*
X120830325Y-47478283D01*
X120830325Y-47478283D02*
X120782706Y-47573521D01*
X120782706Y-47573521D02*
X120782706Y-48097331D01*
X120782706Y-47573521D02*
X120735087Y-47478283D01*
X120735087Y-47478283D02*
X120639849Y-47430664D01*
X120639849Y-47430664D02*
X120496992Y-47430664D01*
X120496992Y-47430664D02*
X120401753Y-47478283D01*
X120401753Y-47478283D02*
X120354134Y-47573521D01*
X120354134Y-47573521D02*
X120354134Y-48097331D01*
X119877944Y-48097331D02*
X119877944Y-47430664D01*
X119877944Y-47097331D02*
X119925563Y-47144950D01*
X119925563Y-47144950D02*
X119877944Y-47192569D01*
X119877944Y-47192569D02*
X119830325Y-47144950D01*
X119830325Y-47144950D02*
X119877944Y-47097331D01*
X119877944Y-47097331D02*
X119877944Y-47192569D01*
X130354136Y-49707275D02*
X130830326Y-49707275D01*
X130830326Y-49707275D02*
X130830326Y-48707275D01*
X130163659Y-48707275D02*
X129830326Y-49707275D01*
X129830326Y-49707275D02*
X129496993Y-48707275D01*
X129163659Y-49707275D02*
X129163659Y-48707275D01*
X129163659Y-48707275D02*
X128925564Y-48707275D01*
X128925564Y-48707275D02*
X128782707Y-48754894D01*
X128782707Y-48754894D02*
X128687469Y-48850132D01*
X128687469Y-48850132D02*
X128639850Y-48945370D01*
X128639850Y-48945370D02*
X128592231Y-49135846D01*
X128592231Y-49135846D02*
X128592231Y-49278703D01*
X128592231Y-49278703D02*
X128639850Y-49469179D01*
X128639850Y-49469179D02*
X128687469Y-49564417D01*
X128687469Y-49564417D02*
X128782707Y-49659656D01*
X128782707Y-49659656D02*
X128925564Y-49707275D01*
X128925564Y-49707275D02*
X129163659Y-49707275D01*
X128211278Y-49659656D02*
X128068421Y-49707275D01*
X128068421Y-49707275D02*
X127830326Y-49707275D01*
X127830326Y-49707275D02*
X127735088Y-49659656D01*
X127735088Y-49659656D02*
X127687469Y-49612036D01*
X127687469Y-49612036D02*
X127639850Y-49516798D01*
X127639850Y-49516798D02*
X127639850Y-49421560D01*
X127639850Y-49421560D02*
X127687469Y-49326322D01*
X127687469Y-49326322D02*
X127735088Y-49278703D01*
X127735088Y-49278703D02*
X127830326Y-49231084D01*
X127830326Y-49231084D02*
X128020802Y-49183465D01*
X128020802Y-49183465D02*
X128116040Y-49135846D01*
X128116040Y-49135846D02*
X128163659Y-49088227D01*
X128163659Y-49088227D02*
X128211278Y-48992989D01*
X128211278Y-48992989D02*
X128211278Y-48897751D01*
X128211278Y-48897751D02*
X128163659Y-48802513D01*
X128163659Y-48802513D02*
X128116040Y-48754894D01*
X128116040Y-48754894D02*
X128020802Y-48707275D01*
X128020802Y-48707275D02*
X127782707Y-48707275D01*
X127782707Y-48707275D02*
X127639850Y-48754894D01*
X127211278Y-49326322D02*
X126449374Y-49326322D01*
X125973183Y-49707275D02*
X125973183Y-48707275D01*
X125973183Y-49183465D02*
X125401755Y-49183465D01*
X125401755Y-49707275D02*
X125401755Y-48707275D01*
X124925564Y-49707275D02*
X124925564Y-48707275D01*
X124925564Y-48707275D02*
X124687469Y-48707275D01*
X124687469Y-48707275D02*
X124544612Y-48754894D01*
X124544612Y-48754894D02*
X124449374Y-48850132D01*
X124449374Y-48850132D02*
X124401755Y-48945370D01*
X124401755Y-48945370D02*
X124354136Y-49135846D01*
X124354136Y-49135846D02*
X124354136Y-49278703D01*
X124354136Y-49278703D02*
X124401755Y-49469179D01*
X124401755Y-49469179D02*
X124449374Y-49564417D01*
X124449374Y-49564417D02*
X124544612Y-49659656D01*
X124544612Y-49659656D02*
X124687469Y-49707275D01*
X124687469Y-49707275D02*
X124925564Y-49707275D01*
X123925564Y-49707275D02*
X123925564Y-48707275D01*
X123925564Y-48707275D02*
X123592231Y-49421560D01*
X123592231Y-49421560D02*
X123258898Y-48707275D01*
X123258898Y-48707275D02*
X123258898Y-49707275D01*
X122782707Y-49707275D02*
X122782707Y-48707275D01*
X121116041Y-49707275D02*
X121116041Y-49183465D01*
X121116041Y-49183465D02*
X121163660Y-49088227D01*
X121163660Y-49088227D02*
X121258898Y-49040608D01*
X121258898Y-49040608D02*
X121449374Y-49040608D01*
X121449374Y-49040608D02*
X121544612Y-49088227D01*
X121116041Y-49659656D02*
X121211279Y-49707275D01*
X121211279Y-49707275D02*
X121449374Y-49707275D01*
X121449374Y-49707275D02*
X121544612Y-49659656D01*
X121544612Y-49659656D02*
X121592231Y-49564417D01*
X121592231Y-49564417D02*
X121592231Y-49469179D01*
X121592231Y-49469179D02*
X121544612Y-49373941D01*
X121544612Y-49373941D02*
X121449374Y-49326322D01*
X121449374Y-49326322D02*
X121211279Y-49326322D01*
X121211279Y-49326322D02*
X121116041Y-49278703D01*
X120211279Y-49707275D02*
X120211279Y-48707275D01*
X120211279Y-49659656D02*
X120306517Y-49707275D01*
X120306517Y-49707275D02*
X120496993Y-49707275D01*
X120496993Y-49707275D02*
X120592231Y-49659656D01*
X120592231Y-49659656D02*
X120639850Y-49612036D01*
X120639850Y-49612036D02*
X120687469Y-49516798D01*
X120687469Y-49516798D02*
X120687469Y-49231084D01*
X120687469Y-49231084D02*
X120639850Y-49135846D01*
X120639850Y-49135846D02*
X120592231Y-49088227D01*
X120592231Y-49088227D02*
X120496993Y-49040608D01*
X120496993Y-49040608D02*
X120306517Y-49040608D01*
X120306517Y-49040608D02*
X120211279Y-49088227D01*
X119306517Y-49707275D02*
X119306517Y-49183465D01*
X119306517Y-49183465D02*
X119354136Y-49088227D01*
X119354136Y-49088227D02*
X119449374Y-49040608D01*
X119449374Y-49040608D02*
X119639850Y-49040608D01*
X119639850Y-49040608D02*
X119735088Y-49088227D01*
X119306517Y-49659656D02*
X119401755Y-49707275D01*
X119401755Y-49707275D02*
X119639850Y-49707275D01*
X119639850Y-49707275D02*
X119735088Y-49659656D01*
X119735088Y-49659656D02*
X119782707Y-49564417D01*
X119782707Y-49564417D02*
X119782707Y-49469179D01*
X119782707Y-49469179D02*
X119735088Y-49373941D01*
X119735088Y-49373941D02*
X119639850Y-49326322D01*
X119639850Y-49326322D02*
X119401755Y-49326322D01*
X119401755Y-49326322D02*
X119306517Y-49278703D01*
X118830326Y-49040608D02*
X118830326Y-50040608D01*
X118830326Y-49088227D02*
X118735088Y-49040608D01*
X118735088Y-49040608D02*
X118544612Y-49040608D01*
X118544612Y-49040608D02*
X118449374Y-49088227D01*
X118449374Y-49088227D02*
X118401755Y-49135846D01*
X118401755Y-49135846D02*
X118354136Y-49231084D01*
X118354136Y-49231084D02*
X118354136Y-49516798D01*
X118354136Y-49516798D02*
X118401755Y-49612036D01*
X118401755Y-49612036D02*
X118449374Y-49659656D01*
X118449374Y-49659656D02*
X118544612Y-49707275D01*
X118544612Y-49707275D02*
X118735088Y-49707275D01*
X118735088Y-49707275D02*
X118830326Y-49659656D01*
X118068421Y-49040608D02*
X117687469Y-49040608D01*
X117925564Y-48707275D02*
X117925564Y-49564417D01*
X117925564Y-49564417D02*
X117877945Y-49659656D01*
X117877945Y-49659656D02*
X117782707Y-49707275D01*
X117782707Y-49707275D02*
X117687469Y-49707275D01*
X116973183Y-49659656D02*
X117068421Y-49707275D01*
X117068421Y-49707275D02*
X117258897Y-49707275D01*
X117258897Y-49707275D02*
X117354135Y-49659656D01*
X117354135Y-49659656D02*
X117401754Y-49564417D01*
X117401754Y-49564417D02*
X117401754Y-49183465D01*
X117401754Y-49183465D02*
X117354135Y-49088227D01*
X117354135Y-49088227D02*
X117258897Y-49040608D01*
X117258897Y-49040608D02*
X117068421Y-49040608D01*
X117068421Y-49040608D02*
X116973183Y-49088227D01*
X116973183Y-49088227D02*
X116925564Y-49183465D01*
X116925564Y-49183465D02*
X116925564Y-49278703D01*
X116925564Y-49278703D02*
X117401754Y-49373941D01*
X116496992Y-49707275D02*
X116496992Y-49040608D01*
X116496992Y-49231084D02*
X116449373Y-49135846D01*
X116449373Y-49135846D02*
X116401754Y-49088227D01*
X116401754Y-49088227D02*
X116306516Y-49040608D01*
X116306516Y-49040608D02*
X116211278Y-49040608D01*
X115211277Y-49040608D02*
X114973182Y-49707275D01*
X114973182Y-49707275D02*
X114735087Y-49040608D01*
X113830325Y-49707275D02*
X114401753Y-49707275D01*
X114116039Y-49707275D02*
X114116039Y-48707275D01*
X114116039Y-48707275D02*
X114211277Y-48850132D01*
X114211277Y-48850132D02*
X114306515Y-48945370D01*
X114306515Y-48945370D02*
X114401753Y-48992989D01*
X113401753Y-49612036D02*
X113354134Y-49659656D01*
X113354134Y-49659656D02*
X113401753Y-49707275D01*
X113401753Y-49707275D02*
X113449372Y-49659656D01*
X113449372Y-49659656D02*
X113401753Y-49612036D01*
X113401753Y-49612036D02*
X113401753Y-49707275D01*
X112401754Y-49707275D02*
X112973182Y-49707275D01*
X112687468Y-49707275D02*
X112687468Y-48707275D01*
X112687468Y-48707275D02*
X112782706Y-48850132D01*
X112782706Y-48850132D02*
X112877944Y-48945370D01*
X112877944Y-48945370D02*
X112973182Y-48992989D01*
X130830326Y-51317219D02*
X130830326Y-50317219D01*
X130830326Y-50698171D02*
X130735088Y-50650552D01*
X130735088Y-50650552D02*
X130544612Y-50650552D01*
X130544612Y-50650552D02*
X130449374Y-50698171D01*
X130449374Y-50698171D02*
X130401755Y-50745790D01*
X130401755Y-50745790D02*
X130354136Y-50841028D01*
X130354136Y-50841028D02*
X130354136Y-51126742D01*
X130354136Y-51126742D02*
X130401755Y-51221980D01*
X130401755Y-51221980D02*
X130449374Y-51269600D01*
X130449374Y-51269600D02*
X130544612Y-51317219D01*
X130544612Y-51317219D02*
X130735088Y-51317219D01*
X130735088Y-51317219D02*
X130830326Y-51269600D01*
X130020802Y-50650552D02*
X129782707Y-51317219D01*
X129544612Y-50650552D02*
X129782707Y-51317219D01*
X129782707Y-51317219D02*
X129877945Y-51555314D01*
X129877945Y-51555314D02*
X129925564Y-51602933D01*
X129925564Y-51602933D02*
X130020802Y-51650552D01*
X128401754Y-50793409D02*
X128068421Y-50793409D01*
X127925564Y-51317219D02*
X128401754Y-51317219D01*
X128401754Y-51317219D02*
X128401754Y-50317219D01*
X128401754Y-50317219D02*
X127925564Y-50317219D01*
X127592230Y-51317219D02*
X127068421Y-50650552D01*
X127592230Y-50650552D02*
X127068421Y-51317219D01*
X126306516Y-51269600D02*
X126401754Y-51317219D01*
X126401754Y-51317219D02*
X126592230Y-51317219D01*
X126592230Y-51317219D02*
X126687468Y-51269600D01*
X126687468Y-51269600D02*
X126735087Y-51174361D01*
X126735087Y-51174361D02*
X126735087Y-50793409D01*
X126735087Y-50793409D02*
X126687468Y-50698171D01*
X126687468Y-50698171D02*
X126592230Y-50650552D01*
X126592230Y-50650552D02*
X126401754Y-50650552D01*
X126401754Y-50650552D02*
X126306516Y-50698171D01*
X126306516Y-50698171D02*
X126258897Y-50793409D01*
X126258897Y-50793409D02*
X126258897Y-50888647D01*
X126258897Y-50888647D02*
X126735087Y-50983885D01*
X125830325Y-50650552D02*
X125830325Y-51317219D01*
X125830325Y-50745790D02*
X125782706Y-50698171D01*
X125782706Y-50698171D02*
X125687468Y-50650552D01*
X125687468Y-50650552D02*
X125544611Y-50650552D01*
X125544611Y-50650552D02*
X125449373Y-50698171D01*
X125449373Y-50698171D02*
X125401754Y-50793409D01*
X125401754Y-50793409D02*
X125401754Y-51317219D01*
X125068420Y-50650552D02*
X124687468Y-50650552D01*
X124925563Y-50317219D02*
X124925563Y-51174361D01*
X124925563Y-51174361D02*
X124877944Y-51269600D01*
X124877944Y-51269600D02*
X124782706Y-51317219D01*
X124782706Y-51317219D02*
X124687468Y-51317219D01*
X124354134Y-51317219D02*
X124354134Y-50650552D01*
X124354134Y-50317219D02*
X124401753Y-50364838D01*
X124401753Y-50364838D02*
X124354134Y-50412457D01*
X124354134Y-50412457D02*
X124306515Y-50364838D01*
X124306515Y-50364838D02*
X124354134Y-50317219D01*
X124354134Y-50317219D02*
X124354134Y-50412457D01*
X123735087Y-51317219D02*
X123830325Y-51269600D01*
X123830325Y-51269600D02*
X123877944Y-51221980D01*
X123877944Y-51221980D02*
X123925563Y-51126742D01*
X123925563Y-51126742D02*
X123925563Y-50841028D01*
X123925563Y-50841028D02*
X123877944Y-50745790D01*
X123877944Y-50745790D02*
X123830325Y-50698171D01*
X123830325Y-50698171D02*
X123735087Y-50650552D01*
X123735087Y-50650552D02*
X123592230Y-50650552D01*
X123592230Y-50650552D02*
X123496992Y-50698171D01*
X123496992Y-50698171D02*
X123449373Y-50745790D01*
X123449373Y-50745790D02*
X123401754Y-50841028D01*
X123401754Y-50841028D02*
X123401754Y-51126742D01*
X123401754Y-51126742D02*
X123449373Y-51221980D01*
X123449373Y-51221980D02*
X123496992Y-51269600D01*
X123496992Y-51269600D02*
X123592230Y-51317219D01*
X123592230Y-51317219D02*
X123735087Y-51317219D01*
M02*
