G04 #@! TF.GenerationSoftware,KiCad,Pcbnew,8.0.3*
G04 #@! TF.CreationDate,2024-06-19T18:32:55+02:00*
G04 #@! TF.ProjectId,koyomi-hdmi-lvds,6b6f796f-6d69-42d6-9864-6d692d6c7664,rev?*
G04 #@! TF.SameCoordinates,Original*
G04 #@! TF.FileFunction,Paste,Top*
G04 #@! TF.FilePolarity,Positive*
%FSLAX46Y46*%
G04 Gerber Fmt 4.6, Leading zero omitted, Abs format (unit mm)*
G04 Created by KiCad (PCBNEW 8.0.3) date 2024-06-19 18:32:55*
%MOMM*%
%LPD*%
G01*
G04 APERTURE LIST*
G04 Aperture macros list*
%AMRoundRect*
0 Rectangle with rounded corners*
0 $1 Rounding radius*
0 $2 $3 $4 $5 $6 $7 $8 $9 X,Y pos of 4 corners*
0 Add a 4 corners polygon primitive as box body*
4,1,4,$2,$3,$4,$5,$6,$7,$8,$9,$2,$3,0*
0 Add four circle primitives for the rounded corners*
1,1,$1+$1,$2,$3*
1,1,$1+$1,$4,$5*
1,1,$1+$1,$6,$7*
1,1,$1+$1,$8,$9*
0 Add four rect primitives between the rounded corners*
20,1,$1+$1,$2,$3,$4,$5,0*
20,1,$1+$1,$4,$5,$6,$7,0*
20,1,$1+$1,$6,$7,$8,$9,0*
20,1,$1+$1,$8,$9,$2,$3,0*%
G04 Aperture macros list end*
%ADD10C,0.000000*%
%ADD11RoundRect,0.237500X0.300000X0.237500X-0.300000X0.237500X-0.300000X-0.237500X0.300000X-0.237500X0*%
%ADD12O,2.400000X0.250000*%
%ADD13RoundRect,0.237500X-0.250000X-0.237500X0.250000X-0.237500X0.250000X0.237500X-0.250000X0.237500X0*%
%ADD14RoundRect,0.162500X0.617500X0.162500X-0.617500X0.162500X-0.617500X-0.162500X0.617500X-0.162500X0*%
%ADD15RoundRect,0.237500X-0.237500X0.300000X-0.237500X-0.300000X0.237500X-0.300000X0.237500X0.300000X0*%
%ADD16RoundRect,0.237500X-0.237500X0.250000X-0.237500X-0.250000X0.237500X-0.250000X0.237500X0.250000X0*%
%ADD17RoundRect,0.237500X0.237500X-0.287500X0.237500X0.287500X-0.237500X0.287500X-0.237500X-0.287500X0*%
%ADD18RoundRect,0.237500X0.237500X-0.300000X0.237500X0.300000X-0.237500X0.300000X-0.237500X-0.300000X0*%
%ADD19RoundRect,0.375000X-0.375000X0.625000X-0.375000X-0.625000X0.375000X-0.625000X0.375000X0.625000X0*%
%ADD20RoundRect,0.500000X-1.400000X0.500000X-1.400000X-0.500000X1.400000X-0.500000X1.400000X0.500000X0*%
%ADD21RoundRect,0.237500X-0.300000X-0.237500X0.300000X-0.237500X0.300000X0.237500X-0.300000X0.237500X0*%
%ADD22RoundRect,0.237500X0.250000X0.237500X-0.250000X0.237500X-0.250000X-0.237500X0.250000X-0.237500X0*%
%ADD23R,0.279400X1.353299*%
%ADD24R,1.353299X0.279400*%
%ADD25RoundRect,0.237500X-0.044194X-0.380070X0.380070X0.044194X0.044194X0.380070X-0.380070X-0.044194X0*%
%ADD26RoundRect,0.237500X-0.287500X-0.237500X0.287500X-0.237500X0.287500X0.237500X-0.287500X0.237500X0*%
%ADD27R,0.200000X1.200000*%
%ADD28R,1.400000X2.000000*%
%ADD29RoundRect,0.009000X-0.141000X0.491000X-0.141000X-0.491000X0.141000X-0.491000X0.141000X0.491000X0*%
G04 APERTURE END LIST*
D10*
G36*
X95727448Y-56600078D02*
G01*
X95586027Y-56741499D01*
X95270878Y-56741499D01*
X95270878Y-56284929D01*
X95727448Y-56284929D01*
X95727448Y-56600078D01*
G37*
G36*
X95727448Y-61019920D02*
G01*
X95727448Y-61335069D01*
X95270878Y-61335069D01*
X95270878Y-60878499D01*
X95586027Y-60878499D01*
X95727448Y-61019920D01*
G37*
G36*
X100321018Y-56741499D02*
G01*
X100005869Y-56741499D01*
X99864448Y-56600078D01*
X99864448Y-56284929D01*
X100321018Y-56284929D01*
X100321018Y-56741499D01*
G37*
G36*
X100321018Y-61335069D02*
G01*
X99864448Y-61335069D01*
X99864448Y-61019920D01*
X100005869Y-60878499D01*
X100321018Y-60878499D01*
X100321018Y-61335069D01*
G37*
G36*
X95727448Y-57082920D02*
G01*
X95727448Y-57387478D01*
X95586027Y-57528899D01*
X95270878Y-57528899D01*
X95270878Y-56941499D01*
X95586027Y-56941499D01*
X95727448Y-57082920D01*
G37*
G36*
X95727448Y-57870320D02*
G01*
X95727448Y-58174878D01*
X95586027Y-58316299D01*
X95270878Y-58316299D01*
X95270878Y-57728899D01*
X95586027Y-57728899D01*
X95727448Y-57870320D01*
G37*
G36*
X95727448Y-58657720D02*
G01*
X95727448Y-58962278D01*
X95586027Y-59103699D01*
X95270878Y-59103699D01*
X95270878Y-58516299D01*
X95586027Y-58516299D01*
X95727448Y-58657720D01*
G37*
G36*
X95727448Y-59445120D02*
G01*
X95727448Y-59749678D01*
X95586027Y-59891099D01*
X95270878Y-59891099D01*
X95270878Y-59303699D01*
X95586027Y-59303699D01*
X95727448Y-59445120D01*
G37*
G36*
X95727448Y-60232520D02*
G01*
X95727448Y-60537078D01*
X95586027Y-60678499D01*
X95270878Y-60678499D01*
X95270878Y-60091099D01*
X95586027Y-60091099D01*
X95727448Y-60232520D01*
G37*
G36*
X96514848Y-56600078D02*
G01*
X96373427Y-56741499D01*
X96068869Y-56741499D01*
X95927448Y-56600078D01*
X95927448Y-56284929D01*
X96514848Y-56284929D01*
X96514848Y-56600078D01*
G37*
G36*
X96514848Y-61019920D02*
G01*
X96514848Y-61335069D01*
X95927448Y-61335069D01*
X95927448Y-61019920D01*
X96068869Y-60878499D01*
X96373427Y-60878499D01*
X96514848Y-61019920D01*
G37*
G36*
X97302248Y-56600078D02*
G01*
X97160827Y-56741499D01*
X96856269Y-56741499D01*
X96714848Y-56600078D01*
X96714848Y-56284929D01*
X97302248Y-56284929D01*
X97302248Y-56600078D01*
G37*
G36*
X97302248Y-61019920D02*
G01*
X97302248Y-61335069D01*
X96714848Y-61335069D01*
X96714848Y-61019920D01*
X96856269Y-60878499D01*
X97160827Y-60878499D01*
X97302248Y-61019920D01*
G37*
G36*
X98089648Y-56600078D02*
G01*
X97948227Y-56741499D01*
X97643669Y-56741499D01*
X97502248Y-56600078D01*
X97502248Y-56284929D01*
X98089648Y-56284929D01*
X98089648Y-56600078D01*
G37*
G36*
X98089648Y-61019920D02*
G01*
X98089648Y-61335069D01*
X97502248Y-61335069D01*
X97502248Y-61019920D01*
X97643669Y-60878499D01*
X97948227Y-60878499D01*
X98089648Y-61019920D01*
G37*
G36*
X98877048Y-56600078D02*
G01*
X98735627Y-56741499D01*
X98431069Y-56741499D01*
X98289648Y-56600078D01*
X98289648Y-56284929D01*
X98877048Y-56284929D01*
X98877048Y-56600078D01*
G37*
G36*
X98877048Y-61019920D02*
G01*
X98877048Y-61335069D01*
X98289648Y-61335069D01*
X98289648Y-61019920D01*
X98431069Y-60878499D01*
X98735627Y-60878499D01*
X98877048Y-61019920D01*
G37*
G36*
X99664448Y-56600078D02*
G01*
X99523027Y-56741499D01*
X99218469Y-56741499D01*
X99077048Y-56600078D01*
X99077048Y-56284929D01*
X99664448Y-56284929D01*
X99664448Y-56600078D01*
G37*
G36*
X99664448Y-61019920D02*
G01*
X99664448Y-61335069D01*
X99077048Y-61335069D01*
X99077048Y-61019920D01*
X99218469Y-60878499D01*
X99523027Y-60878499D01*
X99664448Y-61019920D01*
G37*
G36*
X100321018Y-57528899D02*
G01*
X100005869Y-57528899D01*
X99864448Y-57387478D01*
X99864448Y-57082920D01*
X100005869Y-56941499D01*
X100321018Y-56941499D01*
X100321018Y-57528899D01*
G37*
G36*
X100321018Y-58316299D02*
G01*
X100005869Y-58316299D01*
X99864448Y-58174878D01*
X99864448Y-57870320D01*
X100005869Y-57728899D01*
X100321018Y-57728899D01*
X100321018Y-58316299D01*
G37*
G36*
X100321018Y-59103699D02*
G01*
X100005869Y-59103699D01*
X99864448Y-58962278D01*
X99864448Y-58657720D01*
X100005869Y-58516299D01*
X100321018Y-58516299D01*
X100321018Y-59103699D01*
G37*
G36*
X100321018Y-59891099D02*
G01*
X100005869Y-59891099D01*
X99864448Y-59749678D01*
X99864448Y-59445120D01*
X100005869Y-59303699D01*
X100321018Y-59303699D01*
X100321018Y-59891099D01*
G37*
G36*
X100321018Y-60678499D02*
G01*
X100005869Y-60678499D01*
X99864448Y-60537078D01*
X99864448Y-60232520D01*
X100005869Y-60091099D01*
X100321018Y-60091099D01*
X100321018Y-60678499D01*
G37*
G36*
X96514848Y-57082920D02*
G01*
X96514848Y-57387478D01*
X96373427Y-57528899D01*
X96068869Y-57528899D01*
X95927448Y-57387478D01*
X95927448Y-57082920D01*
X96068869Y-56941499D01*
X96373427Y-56941499D01*
X96514848Y-57082920D01*
G37*
G36*
X96514848Y-57870320D02*
G01*
X96514848Y-58174878D01*
X96373427Y-58316299D01*
X96068869Y-58316299D01*
X95927448Y-58174878D01*
X95927448Y-57870320D01*
X96068869Y-57728899D01*
X96373427Y-57728899D01*
X96514848Y-57870320D01*
G37*
G36*
X96514848Y-58657720D02*
G01*
X96514848Y-58962278D01*
X96373427Y-59103699D01*
X96068869Y-59103699D01*
X95927448Y-58962278D01*
X95927448Y-58657720D01*
X96068869Y-58516299D01*
X96373427Y-58516299D01*
X96514848Y-58657720D01*
G37*
G36*
X96514848Y-59445120D02*
G01*
X96514848Y-59749678D01*
X96373427Y-59891099D01*
X96068869Y-59891099D01*
X95927448Y-59749678D01*
X95927448Y-59445120D01*
X96068869Y-59303699D01*
X96373427Y-59303699D01*
X96514848Y-59445120D01*
G37*
G36*
X96514848Y-60232520D02*
G01*
X96514848Y-60537078D01*
X96373427Y-60678499D01*
X96068869Y-60678499D01*
X95927448Y-60537078D01*
X95927448Y-60232520D01*
X96068869Y-60091099D01*
X96373427Y-60091099D01*
X96514848Y-60232520D01*
G37*
G36*
X97302248Y-57082920D02*
G01*
X97302248Y-57387478D01*
X97160827Y-57528899D01*
X96856269Y-57528899D01*
X96714848Y-57387478D01*
X96714848Y-57082920D01*
X96856269Y-56941499D01*
X97160827Y-56941499D01*
X97302248Y-57082920D01*
G37*
G36*
X97302248Y-57870320D02*
G01*
X97302248Y-58174878D01*
X97160827Y-58316299D01*
X96856269Y-58316299D01*
X96714848Y-58174878D01*
X96714848Y-57870320D01*
X96856269Y-57728899D01*
X97160827Y-57728899D01*
X97302248Y-57870320D01*
G37*
G36*
X97302248Y-58657720D02*
G01*
X97302248Y-58962278D01*
X97160827Y-59103699D01*
X96856269Y-59103699D01*
X96714848Y-58962278D01*
X96714848Y-58657720D01*
X96856269Y-58516299D01*
X97160827Y-58516299D01*
X97302248Y-58657720D01*
G37*
G36*
X97302248Y-59445120D02*
G01*
X97302248Y-59749678D01*
X97160827Y-59891099D01*
X96856269Y-59891099D01*
X96714848Y-59749678D01*
X96714848Y-59445120D01*
X96856269Y-59303699D01*
X97160827Y-59303699D01*
X97302248Y-59445120D01*
G37*
G36*
X97302248Y-60232520D02*
G01*
X97302248Y-60537078D01*
X97160827Y-60678499D01*
X96856269Y-60678499D01*
X96714848Y-60537078D01*
X96714848Y-60232520D01*
X96856269Y-60091099D01*
X97160827Y-60091099D01*
X97302248Y-60232520D01*
G37*
G36*
X98089648Y-57082920D02*
G01*
X98089648Y-57387478D01*
X97948227Y-57528899D01*
X97643669Y-57528899D01*
X97502248Y-57387478D01*
X97502248Y-57082920D01*
X97643669Y-56941499D01*
X97948227Y-56941499D01*
X98089648Y-57082920D01*
G37*
G36*
X98089648Y-57870320D02*
G01*
X98089648Y-58174878D01*
X97948227Y-58316299D01*
X97643669Y-58316299D01*
X97502248Y-58174878D01*
X97502248Y-57870320D01*
X97643669Y-57728899D01*
X97948227Y-57728899D01*
X98089648Y-57870320D01*
G37*
G36*
X98089648Y-58657720D02*
G01*
X98089648Y-58962278D01*
X97948227Y-59103699D01*
X97643669Y-59103699D01*
X97502248Y-58962278D01*
X97502248Y-58657720D01*
X97643669Y-58516299D01*
X97948227Y-58516299D01*
X98089648Y-58657720D01*
G37*
G36*
X98089648Y-59445120D02*
G01*
X98089648Y-59749678D01*
X97948227Y-59891099D01*
X97643669Y-59891099D01*
X97502248Y-59749678D01*
X97502248Y-59445120D01*
X97643669Y-59303699D01*
X97948227Y-59303699D01*
X98089648Y-59445120D01*
G37*
G36*
X98089648Y-60232520D02*
G01*
X98089648Y-60537078D01*
X97948227Y-60678499D01*
X97643669Y-60678499D01*
X97502248Y-60537078D01*
X97502248Y-60232520D01*
X97643669Y-60091099D01*
X97948227Y-60091099D01*
X98089648Y-60232520D01*
G37*
G36*
X98877048Y-57082920D02*
G01*
X98877048Y-57387478D01*
X98735627Y-57528899D01*
X98431069Y-57528899D01*
X98289648Y-57387478D01*
X98289648Y-57082920D01*
X98431069Y-56941499D01*
X98735627Y-56941499D01*
X98877048Y-57082920D01*
G37*
G36*
X98877048Y-57870320D02*
G01*
X98877048Y-58174878D01*
X98735627Y-58316299D01*
X98431069Y-58316299D01*
X98289648Y-58174878D01*
X98289648Y-57870320D01*
X98431069Y-57728899D01*
X98735627Y-57728899D01*
X98877048Y-57870320D01*
G37*
G36*
X98877048Y-58657720D02*
G01*
X98877048Y-58962278D01*
X98735627Y-59103699D01*
X98431069Y-59103699D01*
X98289648Y-58962278D01*
X98289648Y-58657720D01*
X98431069Y-58516299D01*
X98735627Y-58516299D01*
X98877048Y-58657720D01*
G37*
G36*
X98877048Y-59445120D02*
G01*
X98877048Y-59749678D01*
X98735627Y-59891099D01*
X98431069Y-59891099D01*
X98289648Y-59749678D01*
X98289648Y-59445120D01*
X98431069Y-59303699D01*
X98735627Y-59303699D01*
X98877048Y-59445120D01*
G37*
G36*
X98877048Y-60232520D02*
G01*
X98877048Y-60537078D01*
X98735627Y-60678499D01*
X98431069Y-60678499D01*
X98289648Y-60537078D01*
X98289648Y-60232520D01*
X98431069Y-60091099D01*
X98735627Y-60091099D01*
X98877048Y-60232520D01*
G37*
G36*
X99664448Y-57082920D02*
G01*
X99664448Y-57387478D01*
X99523027Y-57528899D01*
X99218469Y-57528899D01*
X99077048Y-57387478D01*
X99077048Y-57082920D01*
X99218469Y-56941499D01*
X99523027Y-56941499D01*
X99664448Y-57082920D01*
G37*
G36*
X99664448Y-57870320D02*
G01*
X99664448Y-58174878D01*
X99523027Y-58316299D01*
X99218469Y-58316299D01*
X99077048Y-58174878D01*
X99077048Y-57870320D01*
X99218469Y-57728899D01*
X99523027Y-57728899D01*
X99664448Y-57870320D01*
G37*
G36*
X99664448Y-58657720D02*
G01*
X99664448Y-58962278D01*
X99523027Y-59103699D01*
X99218469Y-59103699D01*
X99077048Y-58962278D01*
X99077048Y-58657720D01*
X99218469Y-58516299D01*
X99523027Y-58516299D01*
X99664448Y-58657720D01*
G37*
G36*
X99664448Y-59445120D02*
G01*
X99664448Y-59749678D01*
X99523027Y-59891099D01*
X99218469Y-59891099D01*
X99077048Y-59749678D01*
X99077048Y-59445120D01*
X99218469Y-59303699D01*
X99523027Y-59303699D01*
X99664448Y-59445120D01*
G37*
G36*
X99664448Y-60232520D02*
G01*
X99664448Y-60537078D01*
X99523027Y-60678499D01*
X99218469Y-60678499D01*
X99077048Y-60537078D01*
X99077048Y-60232520D01*
X99218469Y-60091099D01*
X99523027Y-60091099D01*
X99664448Y-60232520D01*
G37*
D11*
X88162500Y-63010000D03*
X86437500Y-63010000D03*
D12*
X77550000Y-61070000D03*
X77550000Y-60570000D03*
X77550000Y-60070000D03*
X77550000Y-59570000D03*
X77550000Y-59070000D03*
X77550000Y-58570000D03*
X77550000Y-58070000D03*
X77550000Y-57570000D03*
X77550000Y-57070000D03*
X77550000Y-56570000D03*
X77550000Y-56070000D03*
X77550000Y-55570000D03*
X77550000Y-55070000D03*
X77550000Y-54570000D03*
X77550000Y-54070000D03*
X77550000Y-53570000D03*
X77550000Y-53070000D03*
X77550000Y-52570000D03*
X77550000Y-52070000D03*
D13*
X86397500Y-72907500D03*
X88222500Y-72907500D03*
D14*
X88760000Y-76470000D03*
X88760000Y-75520000D03*
X88760000Y-74570000D03*
X86060000Y-74570000D03*
X86060000Y-76470000D03*
D15*
X105170000Y-74392500D03*
X105170000Y-76117500D03*
X119020000Y-72660000D03*
X119020000Y-74385000D03*
D16*
X84250000Y-74595000D03*
X84250000Y-76420000D03*
D17*
X99000000Y-70105000D03*
X99000000Y-68355000D03*
X88590000Y-69495000D03*
X88590000Y-67745000D03*
D15*
X91582500Y-68285000D03*
X91582500Y-70010000D03*
X101180000Y-68787500D03*
X101180000Y-70512500D03*
D18*
X107230000Y-58982500D03*
X107230000Y-57257500D03*
D19*
X113250000Y-73072500D03*
X110950000Y-73072500D03*
D20*
X110950000Y-79372500D03*
D19*
X108650000Y-73072500D03*
D15*
X94940000Y-68317500D03*
X94940000Y-70042500D03*
D21*
X102769500Y-68834000D03*
X104494500Y-68834000D03*
D11*
X88050000Y-65880000D03*
X86325000Y-65880000D03*
D22*
X82272500Y-50370000D03*
X80447500Y-50370000D03*
D18*
X88392000Y-55218500D03*
X88392000Y-53493500D03*
D21*
X116607500Y-78210000D03*
X118332500Y-78210000D03*
D15*
X90040000Y-68217500D03*
X90040000Y-69942500D03*
X121880000Y-72660000D03*
X121880000Y-74385000D03*
X93330000Y-68367500D03*
X93330000Y-70092500D03*
D23*
X91795947Y-66585947D03*
X92295949Y-66585947D03*
X92795948Y-66585947D03*
X93295947Y-66585947D03*
X93795948Y-66585947D03*
X94295947Y-66585947D03*
X94795949Y-66585947D03*
X95295948Y-66585947D03*
X95795947Y-66585947D03*
X96295948Y-66585947D03*
X96795947Y-66585947D03*
X97295946Y-66585947D03*
X97795948Y-66585947D03*
X98295947Y-66585947D03*
X98795949Y-66585947D03*
X99295948Y-66585947D03*
X99795947Y-66585947D03*
X100295948Y-66585947D03*
X100795947Y-66585947D03*
X101295949Y-66585947D03*
X101795948Y-66585947D03*
X102295947Y-66585947D03*
X102795948Y-66585947D03*
X103295947Y-66585947D03*
X103795949Y-66585947D03*
D24*
X105571896Y-64810000D03*
X105571896Y-64309998D03*
X105571896Y-63809999D03*
X105571896Y-63310000D03*
X105571896Y-62809999D03*
X105571896Y-62310000D03*
X105571896Y-61809998D03*
X105571896Y-61309999D03*
X105571896Y-60810000D03*
X105571896Y-60309999D03*
X105571896Y-59810000D03*
X105571896Y-59309998D03*
X105571896Y-58809999D03*
X105571896Y-58310000D03*
X105571896Y-57809998D03*
X105571896Y-57309999D03*
X105571896Y-56809998D03*
X105571896Y-56309999D03*
X105571896Y-55810000D03*
X105571896Y-55309998D03*
X105571896Y-54809999D03*
X105571896Y-54309998D03*
X105571896Y-53809999D03*
X105571896Y-53310000D03*
X105571896Y-52809998D03*
D23*
X103795949Y-51034051D03*
X103295947Y-51034051D03*
X102795948Y-51034051D03*
X102295949Y-51034051D03*
X101795948Y-51034051D03*
X101295949Y-51034051D03*
X100795947Y-51034051D03*
X100295948Y-51034051D03*
X99795949Y-51034051D03*
X99295948Y-51034051D03*
X98795949Y-51034051D03*
X98295947Y-51034051D03*
X97795948Y-51034051D03*
X97295949Y-51034051D03*
X96795947Y-51034051D03*
X96295948Y-51034051D03*
X95795947Y-51034051D03*
X95295948Y-51034051D03*
X94795949Y-51034051D03*
X94295947Y-51034051D03*
X93795948Y-51034051D03*
X93295947Y-51034051D03*
X92795948Y-51034051D03*
X92295949Y-51034051D03*
X91795947Y-51034051D03*
D24*
X90020000Y-52809998D03*
X90020000Y-53310000D03*
X90020000Y-53809999D03*
X90020000Y-54309998D03*
X90020000Y-54809999D03*
X90020000Y-55309998D03*
X90020000Y-55810000D03*
X90020000Y-56309999D03*
X90020000Y-56809998D03*
X90020000Y-57309999D03*
X90020000Y-57809998D03*
X90020000Y-58310000D03*
X90020000Y-58809999D03*
X90020000Y-59309998D03*
X90020000Y-59810000D03*
X90020000Y-60309999D03*
X90020000Y-60810000D03*
X90020000Y-61309999D03*
X90020000Y-61809998D03*
X90020000Y-62310000D03*
X90020000Y-62809999D03*
X90020000Y-63310000D03*
X90020000Y-63809999D03*
X90020000Y-64309998D03*
X90020000Y-64810000D03*
D15*
X124730000Y-72660000D03*
X124730000Y-74385000D03*
D25*
X108690120Y-62469880D03*
X109909880Y-61250120D03*
D26*
X86055000Y-64440000D03*
X87805000Y-64440000D03*
D15*
X87110000Y-67707500D03*
X87110000Y-69432500D03*
D21*
X106977500Y-55780000D03*
X108702500Y-55780000D03*
D11*
X91172500Y-49420000D03*
X89447500Y-49420000D03*
D17*
X97540000Y-70015000D03*
X97540000Y-68265000D03*
D11*
X87292500Y-61770000D03*
X85567500Y-61770000D03*
D21*
X95758000Y-49530000D03*
X97483000Y-49530000D03*
D18*
X86870000Y-55222500D03*
X86870000Y-53497500D03*
D15*
X96210000Y-68277500D03*
X96210000Y-70002500D03*
D21*
X100637500Y-49400000D03*
X102362500Y-49400000D03*
D11*
X88542500Y-59000000D03*
X86817500Y-59000000D03*
D27*
X112840000Y-66225000D03*
X113240000Y-66225000D03*
X113640000Y-66225000D03*
X114040000Y-66225000D03*
X114440000Y-66225000D03*
X114840000Y-66225000D03*
X115240000Y-66225000D03*
X115640000Y-66225000D03*
X116040000Y-66225000D03*
X116440000Y-66225000D03*
X116840000Y-66225000D03*
X117240000Y-66225000D03*
X117640000Y-66225000D03*
X118040000Y-66225000D03*
X118440000Y-66225000D03*
X118840000Y-66225000D03*
X119240000Y-66225000D03*
X119640000Y-66225000D03*
X120040000Y-66225000D03*
X120440000Y-66225000D03*
X120840000Y-66225000D03*
X121240000Y-66225000D03*
X121640000Y-66225000D03*
X122040000Y-66225000D03*
X122440000Y-66225000D03*
X122840000Y-66225000D03*
X123240000Y-66225000D03*
X123640000Y-66225000D03*
X124040000Y-66225000D03*
X124440000Y-66225000D03*
D28*
X110340000Y-67595000D03*
X126940000Y-67595000D03*
D29*
X128420000Y-53880000D03*
X127920000Y-53880000D03*
X127420000Y-53880000D03*
X126920000Y-53880000D03*
X126420000Y-53880000D03*
X125920000Y-53880000D03*
X125420000Y-53880000D03*
X124920000Y-53880000D03*
X124420000Y-53880000D03*
X123920000Y-53880000D03*
X123420000Y-53880000D03*
X122920000Y-53880000D03*
X122420000Y-53880000D03*
X121920000Y-53880000D03*
X121420000Y-53880000D03*
X120920000Y-53880000D03*
X120420000Y-53880000D03*
X119920000Y-53880000D03*
X119420000Y-53880000D03*
X118920000Y-53880000D03*
X118420000Y-53880000D03*
X117920000Y-53880000D03*
X117420000Y-53880000D03*
X116920000Y-53880000D03*
X116420000Y-53880000D03*
X115920000Y-53880000D03*
X115420000Y-53880000D03*
X114920000Y-53880000D03*
X114920000Y-61140000D03*
X115420000Y-61140000D03*
X115920000Y-61140000D03*
X116420000Y-61140000D03*
X116920000Y-61140000D03*
X117420000Y-61140000D03*
X117920000Y-61140000D03*
X118420000Y-61140000D03*
X118920000Y-61140000D03*
X119420000Y-61140000D03*
X119920000Y-61140000D03*
X120420000Y-61140000D03*
X120920000Y-61140000D03*
X121420000Y-61140000D03*
X121920000Y-61140000D03*
X122420000Y-61140000D03*
X122920000Y-61140000D03*
X123420000Y-61140000D03*
X123920000Y-61140000D03*
X124420000Y-61140000D03*
X124920000Y-61140000D03*
X125420000Y-61140000D03*
X125920000Y-61140000D03*
X126420000Y-61140000D03*
X126920000Y-61140000D03*
X127420000Y-61140000D03*
X127920000Y-61140000D03*
X128420000Y-61140000D03*
M02*
