G04 #@! TF.GenerationSoftware,KiCad,Pcbnew,8.0.3*
G04 #@! TF.CreationDate,2024-06-19T18:32:55+02:00*
G04 #@! TF.ProjectId,koyomi-hdmi-lvds,6b6f796f-6d69-42d6-9864-6d692d6c7664,rev?*
G04 #@! TF.SameCoordinates,Original*
G04 #@! TF.FileFunction,Copper,L2,Bot*
G04 #@! TF.FilePolarity,Positive*
%FSLAX46Y46*%
G04 Gerber Fmt 4.6, Leading zero omitted, Abs format (unit mm)*
G04 Created by KiCad (PCBNEW 8.0.3) date 2024-06-19 18:32:55*
%MOMM*%
%LPD*%
G01*
G04 APERTURE LIST*
G04 #@! TA.AperFunction,ComponentPad*
%ADD10R,1.700000X1.700000*%
G04 #@! TD*
G04 #@! TA.AperFunction,ComponentPad*
%ADD11O,1.700000X1.700000*%
G04 #@! TD*
G04 #@! TA.AperFunction,ComponentPad*
%ADD12O,2.700000X1.500000*%
G04 #@! TD*
G04 #@! TA.AperFunction,ComponentPad*
%ADD13O,3.300000X1.500000*%
G04 #@! TD*
G04 #@! TA.AperFunction,ViaPad*
%ADD14C,0.600000*%
G04 #@! TD*
G04 #@! TA.AperFunction,Conductor*
%ADD15C,0.500000*%
G04 #@! TD*
G04 #@! TA.AperFunction,Conductor*
%ADD16C,0.200000*%
G04 #@! TD*
G04 APERTURE END LIST*
D10*
X68270000Y-71335000D03*
D11*
X70810000Y-71335000D03*
X68270000Y-73875000D03*
X70810000Y-73875000D03*
X68270000Y-76415000D03*
X70810000Y-76415000D03*
X68270000Y-78955000D03*
X70810000Y-78955000D03*
D12*
X70750000Y-63820000D03*
X70750000Y-49320000D03*
D13*
X76710000Y-63820000D03*
X76710000Y-49320000D03*
D10*
X74670000Y-70410000D03*
D11*
X77210000Y-70410000D03*
X79750000Y-70410000D03*
X82290000Y-70410000D03*
X136770000Y-67995000D03*
X136770000Y-70535000D03*
X149610000Y-52875000D03*
D10*
X152150000Y-52875000D03*
D11*
X144530000Y-52875000D03*
X141990000Y-52875000D03*
X139450000Y-52875000D03*
X136770000Y-60375000D03*
X136770000Y-62915000D03*
X136770000Y-65455000D03*
X139450000Y-75775000D03*
X141990000Y-75775000D03*
X144530000Y-75775000D03*
X147070000Y-75775000D03*
X149610000Y-75775000D03*
D10*
X152150000Y-75775000D03*
X136770000Y-57835000D03*
D11*
X147070000Y-52875000D03*
D14*
X91500000Y-63410000D03*
X101490000Y-48660000D03*
X80460000Y-61670000D03*
X75800000Y-60520000D03*
X101710000Y-62470000D03*
X70240000Y-52110000D03*
X126930000Y-62290000D03*
X136070000Y-55180000D03*
X153370000Y-50180000D03*
X147870000Y-51080000D03*
X126470000Y-76155000D03*
X87100000Y-63000000D03*
X90823921Y-69113447D03*
X90890000Y-65930000D03*
X93800000Y-56670000D03*
X118770000Y-76155000D03*
X103870000Y-55420000D03*
X108399566Y-57717494D03*
X148970000Y-50180000D03*
X127570000Y-76155000D03*
X69140000Y-51210000D03*
X101120000Y-63020000D03*
X125370000Y-77055000D03*
X127570000Y-75255000D03*
X144570000Y-50180000D03*
X91235735Y-58209999D03*
X84400000Y-63270000D03*
X106755000Y-64015000D03*
X126470000Y-74355000D03*
X122070000Y-76155000D03*
X85350000Y-54237156D03*
X105150000Y-77430000D03*
X86180000Y-66940000D03*
X90040000Y-52220000D03*
X114190000Y-61140000D03*
X125130000Y-62320000D03*
X120970000Y-78855000D03*
X75800000Y-57630000D03*
X109450000Y-57590000D03*
X69140000Y-52110000D03*
X121710000Y-56840000D03*
X79330000Y-61730000D03*
X127570000Y-77055000D03*
X145670000Y-50180000D03*
X95660000Y-70690000D03*
X123170000Y-77055000D03*
X137170000Y-55180000D03*
X86080000Y-69020000D03*
X96795500Y-49530000D03*
X120970000Y-77055000D03*
X87610000Y-52760000D03*
X118770000Y-77080000D03*
X102280000Y-61850000D03*
X138270000Y-56080000D03*
X151170000Y-50180000D03*
X145670000Y-51080000D03*
X75810000Y-59100000D03*
X119870000Y-77955000D03*
X118230000Y-55280000D03*
X126940000Y-60100000D03*
X91568631Y-54409052D03*
X128020000Y-54860000D03*
X81950000Y-55760000D03*
X134970000Y-56080000D03*
X119870000Y-76155000D03*
X71340000Y-52110000D03*
X70240000Y-51210000D03*
X88800000Y-56270000D03*
X153370000Y-51080000D03*
X125220000Y-60230000D03*
X75790000Y-56100000D03*
X101642108Y-67762398D03*
X123170000Y-76155000D03*
X150070000Y-51080000D03*
X120970000Y-76155000D03*
X125370000Y-76155000D03*
X110920000Y-60580000D03*
X144570000Y-51080000D03*
X122070000Y-77055000D03*
X124400000Y-55150000D03*
X110370000Y-57620000D03*
X146770000Y-51080000D03*
X91320000Y-60810000D03*
X81570000Y-63200000D03*
X126470000Y-77055000D03*
X119870000Y-77055000D03*
X95270000Y-52400000D03*
X86460612Y-60870196D03*
X109340000Y-54110000D03*
X119870000Y-78855000D03*
X94080000Y-70790000D03*
X137170000Y-56080000D03*
X87625425Y-58359999D03*
X152270000Y-51080000D03*
X113260000Y-71410000D03*
X75580000Y-53340000D03*
X126470000Y-75255000D03*
X120180000Y-55200000D03*
X71340000Y-51210000D03*
X82980000Y-64270000D03*
X83200000Y-54210000D03*
X87630000Y-54310000D03*
X93410000Y-65120000D03*
X148970000Y-51080000D03*
X84370000Y-61470000D03*
X101993178Y-69638857D03*
X136070000Y-56080000D03*
X138270000Y-55180000D03*
X124270000Y-76155000D03*
X99910000Y-65400000D03*
X111290000Y-57560000D03*
X146770000Y-50180000D03*
X151170000Y-51080000D03*
X120970000Y-77955000D03*
X84240000Y-55710000D03*
X116030000Y-54895000D03*
X124270000Y-77055000D03*
X134970000Y-55180000D03*
X93900000Y-58150000D03*
X126460000Y-54870000D03*
X152270000Y-50180000D03*
X126470000Y-57200000D03*
X87450000Y-75510000D03*
X118170000Y-62170000D03*
X122520000Y-54970000D03*
X100110000Y-52450000D03*
X150070000Y-50180000D03*
X100430000Y-63450000D03*
X147870000Y-50180000D03*
X101560000Y-61350000D03*
X104350000Y-59710000D03*
X100150000Y-68320000D03*
X108020000Y-63440000D03*
X103360000Y-52850000D03*
X107540000Y-53590000D03*
X117030000Y-62220000D03*
X100010000Y-80470000D03*
X129820000Y-60200000D03*
X82400000Y-79490000D03*
X122169762Y-62128275D03*
X132820000Y-59697500D03*
X83550000Y-55080000D03*
X79551784Y-57970000D03*
X80310175Y-59470000D03*
X85740000Y-55100000D03*
X82550000Y-63430000D03*
X88666611Y-61159999D03*
X84940000Y-55100000D03*
X80310175Y-58670000D03*
X83350000Y-63430000D03*
X88666611Y-61959999D03*
X82750000Y-55080000D03*
X79551784Y-57170000D03*
X79785878Y-60930000D03*
X93131997Y-57451495D03*
X79785878Y-60130000D03*
X92331997Y-57451495D03*
X112620000Y-56780000D03*
X96820000Y-63470000D03*
X109020000Y-56840000D03*
X99150000Y-65120000D03*
X109920000Y-56840000D03*
X98604433Y-64356389D03*
X101660000Y-63650000D03*
X125320000Y-55864511D03*
X100520000Y-64830000D03*
X126747235Y-56267235D03*
X113437999Y-56782001D03*
X96195947Y-64650000D03*
X126100000Y-55640000D03*
X100980000Y-64130000D03*
X124180000Y-56480000D03*
X102290000Y-63140000D03*
X123405735Y-56915735D03*
X102862985Y-62581707D03*
X111740000Y-56800000D03*
X97680000Y-63460000D03*
X98729933Y-63339933D03*
X110820000Y-56830000D03*
X103160000Y-61790000D03*
X122660000Y-56610000D03*
X129677500Y-72062500D03*
X113040000Y-67420000D03*
D15*
X102624820Y-60742000D02*
X103656820Y-59710000D01*
X102148000Y-60742000D02*
X102624820Y-60742000D01*
X103656820Y-59710000D02*
X104350000Y-59710000D01*
X101560000Y-61350000D02*
X101560000Y-61330000D01*
X101560000Y-61330000D02*
X102148000Y-60742000D01*
X107540000Y-53590000D02*
X106800000Y-52850000D01*
X108020000Y-63810661D02*
X106780661Y-65050000D01*
X108020000Y-63440000D02*
X108020000Y-63810661D01*
X101850000Y-68820000D02*
X100650000Y-68820000D01*
X105620000Y-65050000D02*
X101850000Y-68820000D01*
X106780661Y-65050000D02*
X105620000Y-65050000D01*
X100650000Y-68820000D02*
X100150000Y-68320000D01*
X106800000Y-52850000D02*
X103360000Y-52850000D01*
X100010000Y-80470000D02*
X100368000Y-80828000D01*
X125010288Y-80828000D02*
X132943000Y-72895288D01*
X100368000Y-80828000D02*
X125010288Y-80828000D01*
X79970000Y-79490000D02*
X72430000Y-71950000D01*
D16*
X121611487Y-61570000D02*
X117680000Y-61570000D01*
X123248037Y-61050000D02*
X128970000Y-61050000D01*
D15*
X68295000Y-69930000D02*
X68295000Y-71310000D01*
D16*
X117680000Y-61570000D02*
X117030000Y-62220000D01*
D15*
X68770000Y-69455000D02*
X68295000Y-69930000D01*
X132820000Y-71397000D02*
X132820000Y-59697500D01*
X132943000Y-72895288D02*
X132943000Y-71520000D01*
D16*
X128970000Y-61050000D02*
X129820000Y-60200000D01*
X122169762Y-62128275D02*
X121611487Y-61570000D01*
D15*
X71395000Y-69455000D02*
X68770000Y-69455000D01*
D16*
X122169762Y-62128275D02*
X123248037Y-61050000D01*
D15*
X72430000Y-71950000D02*
X72430000Y-70490000D01*
X72430000Y-70490000D02*
X71395000Y-69455000D01*
X132943000Y-71520000D02*
X132820000Y-71397000D01*
X82400000Y-79490000D02*
X79970000Y-79490000D01*
D16*
X79751784Y-57770000D02*
X80266928Y-57770000D01*
X80276928Y-57780000D02*
X82132844Y-57780000D01*
X83350000Y-56562844D02*
X83350000Y-55280000D01*
X79551784Y-57970000D02*
X79751784Y-57770000D01*
X82132844Y-57780000D02*
X83350000Y-56562844D01*
X83350000Y-55280000D02*
X83550000Y-55080000D01*
X80266928Y-57770000D02*
X80276928Y-57780000D01*
X84699171Y-59270000D02*
X80510175Y-59270000D01*
X80510175Y-59270000D02*
X80310175Y-59470000D01*
X85540000Y-58429171D02*
X85540000Y-55300000D01*
X85740000Y-55100000D02*
X85540000Y-55300000D01*
X84699171Y-59270000D02*
X85540000Y-58429171D01*
X82750000Y-63181471D02*
X82750000Y-63230000D01*
X88466611Y-61359999D02*
X86807157Y-61359999D01*
X86807157Y-61359999D02*
X85917156Y-62250000D01*
X83101471Y-62830000D02*
X82750000Y-63181471D01*
X82750000Y-63230000D02*
X82550000Y-63430000D01*
X85917156Y-62250000D02*
X83730000Y-62250000D01*
X83730000Y-62250000D02*
X83150000Y-62830000D01*
X83150000Y-62830000D02*
X83101471Y-62830000D01*
X88666611Y-61159999D02*
X88466611Y-61359999D01*
X84533483Y-58870000D02*
X80510175Y-58870000D01*
X85140000Y-58263483D02*
X85140000Y-55300000D01*
X80510175Y-58870000D02*
X80310175Y-58670000D01*
X84940000Y-55100000D02*
X85140000Y-55300000D01*
X84533483Y-58870000D02*
X85140000Y-58263483D01*
X88666611Y-61959999D02*
X88466611Y-61759999D01*
X83350000Y-63195686D02*
X83350000Y-63430000D01*
X86972845Y-61759999D02*
X86082844Y-62650000D01*
X83895686Y-62650000D02*
X83350000Y-63195686D01*
X86082844Y-62650000D02*
X83895686Y-62650000D01*
X88466611Y-61759999D02*
X86972845Y-61759999D01*
X80430000Y-57380000D02*
X81967156Y-57380000D01*
X81967156Y-57380000D02*
X82950000Y-56397156D01*
X79751784Y-57370000D02*
X80420000Y-57370000D01*
X82950000Y-56397156D02*
X82950000Y-55280000D01*
X79551784Y-57170000D02*
X79751784Y-57370000D01*
X80420000Y-57370000D02*
X80430000Y-57380000D01*
X82950000Y-55280000D02*
X82750000Y-55080000D01*
X79985878Y-60730000D02*
X85640000Y-60730000D01*
X92931997Y-58270847D02*
X92931997Y-57651495D01*
X92931997Y-57651495D02*
X93131997Y-57451495D01*
X79785878Y-60930000D02*
X79985878Y-60730000D01*
X91572844Y-59630000D02*
X92931997Y-58270847D01*
X86740000Y-59630000D02*
X91572844Y-59630000D01*
X85640000Y-60730000D02*
X86740000Y-59630000D01*
X86570000Y-59230000D02*
X91407156Y-59230000D01*
X92531997Y-57651495D02*
X92331997Y-57451495D01*
X85470000Y-60330000D02*
X86570000Y-59230000D01*
X79985878Y-60330000D02*
X85470000Y-60330000D01*
X91407156Y-59230000D02*
X92531997Y-58105159D01*
X92531997Y-58105159D02*
X92531997Y-57651495D01*
X79785878Y-60130000D02*
X79985878Y-60330000D01*
X112620000Y-55570000D02*
X112277000Y-55227000D01*
X105385448Y-55227000D02*
X101655448Y-58957000D01*
X101655448Y-58957000D02*
X100946919Y-58957000D01*
X96820000Y-63083919D02*
X96820000Y-63470000D01*
X100946919Y-58957000D02*
X96820000Y-63083919D01*
X112620000Y-56780000D02*
X112620000Y-55570000D01*
X112277000Y-55227000D02*
X105385448Y-55227000D01*
X109020000Y-56840000D02*
X108715000Y-56535000D01*
X102427240Y-60265000D02*
X101488711Y-60265000D01*
X106157240Y-56535000D02*
X102427240Y-60265000D01*
X99757000Y-61996711D02*
X99757000Y-63783000D01*
X101488711Y-60265000D02*
X99757000Y-61996711D01*
X99290000Y-64980000D02*
X99150000Y-65120000D01*
X99757000Y-63783000D02*
X99290000Y-64250000D01*
X99290000Y-64250000D02*
X99290000Y-64980000D01*
X108715000Y-56535000D02*
X106157240Y-56535000D01*
X102291792Y-59938000D02*
X101353263Y-59938000D01*
X101353263Y-59938000D02*
X99430000Y-61861263D01*
X109920000Y-56620000D02*
X109508000Y-56208000D01*
X99430000Y-61861263D02*
X99430000Y-63530822D01*
X106021792Y-56208000D02*
X102291792Y-59938000D01*
X109920000Y-56840000D02*
X109920000Y-56620000D01*
X109508000Y-56208000D02*
X106021792Y-56208000D01*
X99430000Y-63530822D02*
X98604433Y-64356389D01*
X104391448Y-62771000D02*
X105526344Y-62771000D01*
X109051344Y-59246000D02*
X122399104Y-59246000D01*
X101750000Y-63740000D02*
X103422448Y-63740000D01*
X122399104Y-59246000D02*
X125320000Y-56325104D01*
X103422448Y-63740000D02*
X104391448Y-62771000D01*
X101660000Y-63650000D02*
X101750000Y-63740000D01*
X125320000Y-56325104D02*
X125320000Y-55864511D01*
X105526344Y-62771000D02*
X109051344Y-59246000D01*
X105797240Y-63425000D02*
X109322240Y-59900000D01*
X100610000Y-64920000D02*
X101794000Y-64920000D01*
X122670000Y-59900000D02*
X126302765Y-56267235D01*
X103693344Y-64394000D02*
X104662344Y-63425000D01*
X104662344Y-63425000D02*
X105797240Y-63425000D01*
X109322240Y-59900000D02*
X122670000Y-59900000D01*
X101794000Y-64920000D02*
X102320000Y-64394000D01*
X100520000Y-64830000D02*
X100610000Y-64920000D01*
X102320000Y-64394000D02*
X103693344Y-64394000D01*
X126302765Y-56267235D02*
X126747235Y-56267235D01*
X96195947Y-63245524D02*
X96195947Y-64650000D01*
X113437999Y-56782001D02*
X113437999Y-55537999D01*
X101520000Y-58630000D02*
X100811471Y-58630000D01*
X113437999Y-55537999D02*
X112800000Y-54900000D01*
X100811471Y-58630000D02*
X96195947Y-63245524D01*
X112800000Y-54900000D02*
X105250000Y-54900000D01*
X105250000Y-54900000D02*
X101520000Y-58630000D01*
X100980000Y-64130000D02*
X101100000Y-64250000D01*
X105661792Y-63098000D02*
X109186792Y-59573000D01*
X109186792Y-59573000D02*
X122534552Y-59573000D01*
X122534552Y-59573000D02*
X125920000Y-56187552D01*
X101908529Y-64250000D02*
X102091529Y-64067000D01*
X103557896Y-64067000D02*
X104526896Y-63098000D01*
X101100000Y-64250000D02*
X101908529Y-64250000D01*
X125920000Y-56187552D02*
X125920000Y-55820000D01*
X104526896Y-63098000D02*
X105661792Y-63098000D01*
X102091529Y-64067000D02*
X103557896Y-64067000D01*
X125920000Y-55820000D02*
X126100000Y-55640000D01*
X122251000Y-58919000D02*
X108915896Y-58919000D01*
X104256000Y-62444000D02*
X103518293Y-63181707D01*
X105390896Y-62444000D02*
X104256000Y-62444000D01*
X103518293Y-63181707D02*
X102331707Y-63181707D01*
X124180000Y-56990000D02*
X122251000Y-58919000D01*
X102331707Y-63181707D02*
X102290000Y-63140000D01*
X108915896Y-58919000D02*
X105390896Y-62444000D01*
X124180000Y-56480000D02*
X124180000Y-56990000D01*
X108780448Y-58592000D02*
X105255448Y-62117000D01*
X121795000Y-58525000D02*
X121796470Y-58525000D01*
X103833000Y-62117000D02*
X103368293Y-62581707D01*
X121796470Y-58525000D02*
X123405735Y-56915735D01*
X105255448Y-62117000D02*
X103833000Y-62117000D01*
X121728000Y-58592000D02*
X108780448Y-58592000D01*
X121728000Y-58592000D02*
X121795000Y-58525000D01*
X103368293Y-62581707D02*
X102862985Y-62581707D01*
X102020896Y-59284000D02*
X105750896Y-55554000D01*
X97680000Y-63460000D02*
X97680000Y-62686367D01*
X111740000Y-56270000D02*
X111740000Y-56800000D01*
X105750896Y-55554000D02*
X111024000Y-55554000D01*
X111024000Y-55554000D02*
X111740000Y-56270000D01*
X97680000Y-62686367D02*
X101082367Y-59284000D01*
X101082367Y-59284000D02*
X102020896Y-59284000D01*
X98729933Y-62098882D02*
X101217815Y-59611000D01*
X110820000Y-56430000D02*
X110820000Y-56830000D01*
X110271000Y-55881000D02*
X110820000Y-56430000D01*
X98729933Y-63339933D02*
X98729933Y-62098882D01*
X105886344Y-55881000D02*
X110271000Y-55881000D01*
X101217815Y-59611000D02*
X102156344Y-59611000D01*
X102156344Y-59611000D02*
X105886344Y-55881000D01*
X108645000Y-58265000D02*
X105120000Y-61790000D01*
X122660000Y-56610000D02*
X122660000Y-57049552D01*
X105120000Y-61790000D02*
X103160000Y-61790000D01*
X122660000Y-57049552D02*
X121444552Y-58265000D01*
X121444552Y-58265000D02*
X108645000Y-58265000D01*
D15*
X113040000Y-67920000D02*
X113040000Y-67420000D01*
X128475000Y-70860000D02*
X115980000Y-70860000D01*
X129677500Y-72062500D02*
X128475000Y-70860000D01*
X115980000Y-70860000D02*
X113040000Y-67920000D01*
D16*
X71992896Y-74826000D02*
X71761000Y-74826000D01*
X102051420Y-81953000D02*
X79119896Y-81953000D01*
X102072420Y-81932000D02*
X102051420Y-81953000D01*
X125467580Y-81932000D02*
X102072420Y-81932000D01*
X134047000Y-73352580D02*
X125467580Y-81932000D01*
X134047000Y-63678000D02*
X134047000Y-73352580D01*
X136610000Y-62755000D02*
X134970000Y-62755000D01*
X79119896Y-81953000D02*
X71992896Y-74826000D01*
X134970000Y-62755000D02*
X134047000Y-63678000D01*
X71761000Y-74826000D02*
X70810000Y-73875000D01*
X134970000Y-65455000D02*
X134374000Y-66051000D01*
X134374000Y-66051000D02*
X134374000Y-73501000D01*
X136770000Y-65455000D02*
X134970000Y-65455000D01*
X78984448Y-82280000D02*
X71857448Y-75153000D01*
X69548000Y-75153000D02*
X68270000Y-73875000D01*
X134374000Y-73501000D02*
X125595000Y-82280000D01*
X125595000Y-82280000D02*
X78984448Y-82280000D01*
X71857448Y-75153000D02*
X69548000Y-75153000D01*
X125743000Y-82607000D02*
X134820000Y-73530000D01*
X136395000Y-73530000D02*
X139450000Y-70475000D01*
X139450000Y-70475000D02*
X139450000Y-52875000D01*
X73266000Y-77024000D02*
X72657000Y-76415000D01*
X73266000Y-77024000D02*
X78849000Y-82607000D01*
X134820000Y-73530000D02*
X136395000Y-73530000D01*
X78849000Y-82607000D02*
X125743000Y-82607000D01*
X72657000Y-76415000D02*
X70810000Y-76415000D01*
X139777000Y-70623000D02*
X136543000Y-73857000D01*
X136543000Y-73857000D02*
X134955448Y-73857000D01*
X125878448Y-82934000D02*
X78713552Y-82934000D01*
X73459552Y-77680000D02*
X69545000Y-77680000D01*
X78713552Y-82934000D02*
X73459552Y-77680000D01*
X69545000Y-77680000D02*
X68280000Y-76415000D01*
X139777000Y-55088000D02*
X139777000Y-70623000D01*
X141990000Y-52875000D02*
X139777000Y-55088000D01*
X134955448Y-73857000D02*
X125878448Y-82934000D01*
D15*
X133570000Y-73155000D02*
X133570000Y-53030000D01*
X101853840Y-81476000D02*
X101874840Y-81455000D01*
X125270000Y-81455000D02*
X133570000Y-73155000D01*
X101874840Y-81455000D02*
X125270000Y-81455000D01*
X80951000Y-81476000D02*
X101853840Y-81476000D01*
X135770000Y-50830000D02*
X142485000Y-50830000D01*
X70810000Y-71335000D02*
X80951000Y-81476000D01*
X142485000Y-50830000D02*
X144530000Y-52875000D01*
X133570000Y-53030000D02*
X135770000Y-50830000D01*
G04 #@! TA.AperFunction,Conductor*
G36*
X153173522Y-46680752D02*
G01*
X153198505Y-46682538D01*
X153376345Y-46695258D01*
X153390308Y-46697265D01*
X153585549Y-46739737D01*
X153599088Y-46743713D01*
X153786292Y-46813537D01*
X153799118Y-46819394D01*
X153974476Y-46915146D01*
X153986356Y-46922781D01*
X154146294Y-47042509D01*
X154156966Y-47051756D01*
X154298243Y-47193033D01*
X154307493Y-47203709D01*
X154427218Y-47363643D01*
X154434854Y-47375525D01*
X154530602Y-47550875D01*
X154536466Y-47563715D01*
X154606284Y-47750904D01*
X154610264Y-47764457D01*
X154652732Y-47959681D01*
X154654742Y-47973662D01*
X154669248Y-48176476D01*
X154669500Y-48183539D01*
X154669500Y-81676460D01*
X154669248Y-81683523D01*
X154654742Y-81886337D01*
X154652732Y-81900318D01*
X154610264Y-82095542D01*
X154606284Y-82109095D01*
X154536466Y-82296284D01*
X154530598Y-82309133D01*
X154434854Y-82484474D01*
X154427218Y-82496356D01*
X154307493Y-82656290D01*
X154298243Y-82666966D01*
X154156966Y-82808243D01*
X154146290Y-82817493D01*
X153986356Y-82937218D01*
X153974474Y-82944854D01*
X153799133Y-83040598D01*
X153786284Y-83046466D01*
X153599095Y-83116284D01*
X153585542Y-83120264D01*
X153390318Y-83162732D01*
X153376337Y-83164742D01*
X153173523Y-83179248D01*
X153166460Y-83179500D01*
X126296927Y-83179500D01*
X126238736Y-83160593D01*
X126202772Y-83111093D01*
X126202772Y-83049907D01*
X126226923Y-83010496D01*
X133462423Y-75774996D01*
X138394417Y-75774996D01*
X138394417Y-75775003D01*
X138414698Y-75980929D01*
X138414699Y-75980934D01*
X138474768Y-76178954D01*
X138572316Y-76361452D01*
X138703585Y-76521404D01*
X138703590Y-76521410D01*
X138703595Y-76521414D01*
X138863547Y-76652683D01*
X138863548Y-76652683D01*
X138863550Y-76652685D01*
X139046046Y-76750232D01*
X139183997Y-76792078D01*
X139244065Y-76810300D01*
X139244070Y-76810301D01*
X139449997Y-76830583D01*
X139450000Y-76830583D01*
X139450003Y-76830583D01*
X139655929Y-76810301D01*
X139655934Y-76810300D01*
X139853954Y-76750232D01*
X140036450Y-76652685D01*
X140196410Y-76521410D01*
X140327685Y-76361450D01*
X140425232Y-76178954D01*
X140485300Y-75980934D01*
X140485301Y-75980929D01*
X140505583Y-75775003D01*
X140505583Y-75774996D01*
X140934417Y-75774996D01*
X140934417Y-75775003D01*
X140954698Y-75980929D01*
X140954699Y-75980934D01*
X141014768Y-76178954D01*
X141112316Y-76361452D01*
X141243585Y-76521404D01*
X141243590Y-76521410D01*
X141243595Y-76521414D01*
X141403547Y-76652683D01*
X141403548Y-76652683D01*
X141403550Y-76652685D01*
X141586046Y-76750232D01*
X141723997Y-76792078D01*
X141784065Y-76810300D01*
X141784070Y-76810301D01*
X141989997Y-76830583D01*
X141990000Y-76830583D01*
X141990003Y-76830583D01*
X142195929Y-76810301D01*
X142195934Y-76810300D01*
X142393954Y-76750232D01*
X142576450Y-76652685D01*
X142736410Y-76521410D01*
X142867685Y-76361450D01*
X142965232Y-76178954D01*
X143025300Y-75980934D01*
X143025301Y-75980929D01*
X143045583Y-75775003D01*
X143045583Y-75774996D01*
X143474417Y-75774996D01*
X143474417Y-75775003D01*
X143494698Y-75980929D01*
X143494699Y-75980934D01*
X143554768Y-76178954D01*
X143652316Y-76361452D01*
X143783585Y-76521404D01*
X143783590Y-76521410D01*
X143783595Y-76521414D01*
X143943547Y-76652683D01*
X143943548Y-76652683D01*
X143943550Y-76652685D01*
X144126046Y-76750232D01*
X144263997Y-76792078D01*
X144324065Y-76810300D01*
X144324070Y-76810301D01*
X144529997Y-76830583D01*
X144530000Y-76830583D01*
X144530003Y-76830583D01*
X144735929Y-76810301D01*
X144735934Y-76810300D01*
X144933954Y-76750232D01*
X145116450Y-76652685D01*
X145276410Y-76521410D01*
X145407685Y-76361450D01*
X145505232Y-76178954D01*
X145565300Y-75980934D01*
X145565301Y-75980929D01*
X145585583Y-75775003D01*
X145585583Y-75774996D01*
X146014417Y-75774996D01*
X146014417Y-75775003D01*
X146034698Y-75980929D01*
X146034699Y-75980934D01*
X146094768Y-76178954D01*
X146192316Y-76361452D01*
X146323585Y-76521404D01*
X146323590Y-76521410D01*
X146323595Y-76521414D01*
X146483547Y-76652683D01*
X146483548Y-76652683D01*
X146483550Y-76652685D01*
X146666046Y-76750232D01*
X146803997Y-76792078D01*
X146864065Y-76810300D01*
X146864070Y-76810301D01*
X147069997Y-76830583D01*
X147070000Y-76830583D01*
X147070003Y-76830583D01*
X147275929Y-76810301D01*
X147275934Y-76810300D01*
X147473954Y-76750232D01*
X147656450Y-76652685D01*
X147816410Y-76521410D01*
X147947685Y-76361450D01*
X148045232Y-76178954D01*
X148105300Y-75980934D01*
X148105301Y-75980929D01*
X148125583Y-75775003D01*
X148125583Y-75774996D01*
X148554417Y-75774996D01*
X148554417Y-75775003D01*
X148574698Y-75980929D01*
X148574699Y-75980934D01*
X148634768Y-76178954D01*
X148732316Y-76361452D01*
X148863585Y-76521404D01*
X148863590Y-76521410D01*
X148863595Y-76521414D01*
X149023547Y-76652683D01*
X149023548Y-76652683D01*
X149023550Y-76652685D01*
X149206046Y-76750232D01*
X149343997Y-76792078D01*
X149404065Y-76810300D01*
X149404070Y-76810301D01*
X149609997Y-76830583D01*
X149610000Y-76830583D01*
X149610003Y-76830583D01*
X149815929Y-76810301D01*
X149815934Y-76810300D01*
X150013954Y-76750232D01*
X150196450Y-76652685D01*
X150356410Y-76521410D01*
X150487685Y-76361450D01*
X150585232Y-76178954D01*
X150645300Y-75980934D01*
X150645301Y-75980929D01*
X150665583Y-75775003D01*
X150665583Y-75774996D01*
X150645301Y-75569070D01*
X150645300Y-75569065D01*
X150627078Y-75508997D01*
X150585232Y-75371046D01*
X150487685Y-75188550D01*
X150356410Y-75028590D01*
X150356404Y-75028585D01*
X150206123Y-74905253D01*
X151099500Y-74905253D01*
X151099500Y-76644746D01*
X151099501Y-76644758D01*
X151111132Y-76703227D01*
X151111134Y-76703233D01*
X151155445Y-76769548D01*
X151155448Y-76769552D01*
X151221769Y-76813867D01*
X151266231Y-76822711D01*
X151280241Y-76825498D01*
X151280246Y-76825498D01*
X151280252Y-76825500D01*
X151280253Y-76825500D01*
X153019747Y-76825500D01*
X153019748Y-76825500D01*
X153078231Y-76813867D01*
X153144552Y-76769552D01*
X153188867Y-76703231D01*
X153200500Y-76644748D01*
X153200500Y-74905252D01*
X153198921Y-74897316D01*
X153197711Y-74891231D01*
X153188867Y-74846769D01*
X153144552Y-74780448D01*
X153144548Y-74780445D01*
X153078233Y-74736134D01*
X153078231Y-74736133D01*
X153078228Y-74736132D01*
X153078227Y-74736132D01*
X153019758Y-74724501D01*
X153019748Y-74724500D01*
X151280252Y-74724500D01*
X151280251Y-74724500D01*
X151280241Y-74724501D01*
X151221772Y-74736132D01*
X151221766Y-74736134D01*
X151155451Y-74780445D01*
X151155445Y-74780451D01*
X151111134Y-74846766D01*
X151111132Y-74846772D01*
X151099501Y-74905241D01*
X151099500Y-74905253D01*
X150206123Y-74905253D01*
X150196452Y-74897316D01*
X150013954Y-74799768D01*
X149815934Y-74739699D01*
X149815929Y-74739698D01*
X149610003Y-74719417D01*
X149609997Y-74719417D01*
X149404070Y-74739698D01*
X149404065Y-74739699D01*
X149206045Y-74799768D01*
X149023547Y-74897316D01*
X148863595Y-75028585D01*
X148863585Y-75028595D01*
X148732316Y-75188547D01*
X148634768Y-75371045D01*
X148574699Y-75569065D01*
X148574698Y-75569070D01*
X148554417Y-75774996D01*
X148125583Y-75774996D01*
X148105301Y-75569070D01*
X148105300Y-75569065D01*
X148087078Y-75508997D01*
X148045232Y-75371046D01*
X147947685Y-75188550D01*
X147816410Y-75028590D01*
X147816404Y-75028585D01*
X147656452Y-74897316D01*
X147473954Y-74799768D01*
X147275934Y-74739699D01*
X147275929Y-74739698D01*
X147070003Y-74719417D01*
X147069997Y-74719417D01*
X146864070Y-74739698D01*
X146864065Y-74739699D01*
X146666045Y-74799768D01*
X146483547Y-74897316D01*
X146323595Y-75028585D01*
X146323585Y-75028595D01*
X146192316Y-75188547D01*
X146094768Y-75371045D01*
X146034699Y-75569065D01*
X146034698Y-75569070D01*
X146014417Y-75774996D01*
X145585583Y-75774996D01*
X145565301Y-75569070D01*
X145565300Y-75569065D01*
X145547078Y-75508997D01*
X145505232Y-75371046D01*
X145407685Y-75188550D01*
X145276410Y-75028590D01*
X145276404Y-75028585D01*
X145116452Y-74897316D01*
X144933954Y-74799768D01*
X144735934Y-74739699D01*
X144735929Y-74739698D01*
X144530003Y-74719417D01*
X144529997Y-74719417D01*
X144324070Y-74739698D01*
X144324065Y-74739699D01*
X144126045Y-74799768D01*
X143943547Y-74897316D01*
X143783595Y-75028585D01*
X143783585Y-75028595D01*
X143652316Y-75188547D01*
X143554768Y-75371045D01*
X143494699Y-75569065D01*
X143494698Y-75569070D01*
X143474417Y-75774996D01*
X143045583Y-75774996D01*
X143025301Y-75569070D01*
X143025300Y-75569065D01*
X143007078Y-75508997D01*
X142965232Y-75371046D01*
X142867685Y-75188550D01*
X142736410Y-75028590D01*
X142736404Y-75028585D01*
X142576452Y-74897316D01*
X142393954Y-74799768D01*
X142195934Y-74739699D01*
X142195929Y-74739698D01*
X141990003Y-74719417D01*
X141989997Y-74719417D01*
X141784070Y-74739698D01*
X141784065Y-74739699D01*
X141586045Y-74799768D01*
X141403547Y-74897316D01*
X141243595Y-75028585D01*
X141243585Y-75028595D01*
X141112316Y-75188547D01*
X141014768Y-75371045D01*
X140954699Y-75569065D01*
X140954698Y-75569070D01*
X140934417Y-75774996D01*
X140505583Y-75774996D01*
X140485301Y-75569070D01*
X140485300Y-75569065D01*
X140467078Y-75508997D01*
X140425232Y-75371046D01*
X140327685Y-75188550D01*
X140196410Y-75028590D01*
X140196404Y-75028585D01*
X140036452Y-74897316D01*
X139853954Y-74799768D01*
X139655934Y-74739699D01*
X139655929Y-74739698D01*
X139450003Y-74719417D01*
X139449997Y-74719417D01*
X139244070Y-74739698D01*
X139244065Y-74739699D01*
X139046045Y-74799768D01*
X138863547Y-74897316D01*
X138703595Y-75028585D01*
X138703585Y-75028595D01*
X138572316Y-75188547D01*
X138474768Y-75371045D01*
X138414699Y-75569065D01*
X138414698Y-75569070D01*
X138394417Y-75774996D01*
X133462423Y-75774996D01*
X135050923Y-74186496D01*
X135105440Y-74158719D01*
X135120927Y-74157500D01*
X136582563Y-74157500D01*
X136582563Y-74157499D01*
X136658989Y-74137021D01*
X136727511Y-74097460D01*
X136783460Y-74041511D01*
X140017460Y-70807511D01*
X140017463Y-70807506D01*
X140057020Y-70738992D01*
X140057020Y-70738990D01*
X140057022Y-70738988D01*
X140077500Y-70662562D01*
X140077500Y-70583438D01*
X140077500Y-55253478D01*
X140096407Y-55195287D01*
X140106490Y-55183480D01*
X141438784Y-53851185D01*
X141493299Y-53823410D01*
X141553731Y-53832981D01*
X141555454Y-53833881D01*
X141585172Y-53849765D01*
X141586046Y-53850232D01*
X141689500Y-53881614D01*
X141784065Y-53910300D01*
X141784070Y-53910301D01*
X141989997Y-53930583D01*
X141990000Y-53930583D01*
X141990003Y-53930583D01*
X142195929Y-53910301D01*
X142195934Y-53910300D01*
X142240286Y-53896846D01*
X142393954Y-53850232D01*
X142576450Y-53752685D01*
X142736410Y-53621410D01*
X142867685Y-53461450D01*
X142965232Y-53278954D01*
X143025300Y-53080934D01*
X143025301Y-53080929D01*
X143045583Y-52875003D01*
X143045583Y-52874996D01*
X143025301Y-52669070D01*
X143025300Y-52669065D01*
X142997777Y-52578335D01*
X142965232Y-52471046D01*
X142867685Y-52288550D01*
X142736410Y-52128590D01*
X142586123Y-52005253D01*
X142576452Y-51997316D01*
X142393954Y-51899768D01*
X142195934Y-51839699D01*
X142195929Y-51839698D01*
X141990003Y-51819417D01*
X141989997Y-51819417D01*
X141784070Y-51839698D01*
X141784065Y-51839699D01*
X141586045Y-51899768D01*
X141403547Y-51997316D01*
X141243595Y-52128585D01*
X141243585Y-52128595D01*
X141112316Y-52288547D01*
X141014768Y-52471045D01*
X140954699Y-52669065D01*
X140954698Y-52669070D01*
X140934417Y-52874996D01*
X140934417Y-52875003D01*
X140954698Y-53080929D01*
X140954699Y-53080934D01*
X141008294Y-53257611D01*
X141014768Y-53278954D01*
X141031118Y-53309543D01*
X141041874Y-53369775D01*
X141015173Y-53424826D01*
X141013812Y-53426215D01*
X139919504Y-54520524D01*
X139864987Y-54548301D01*
X139804555Y-54538730D01*
X139761290Y-54495465D01*
X139750500Y-54450520D01*
X139750500Y-53955037D01*
X139769407Y-53896846D01*
X139818907Y-53860882D01*
X139820739Y-53860307D01*
X139853954Y-53850232D01*
X140036450Y-53752685D01*
X140196410Y-53621410D01*
X140327685Y-53461450D01*
X140425232Y-53278954D01*
X140485300Y-53080934D01*
X140485301Y-53080929D01*
X140505583Y-52875003D01*
X140505583Y-52874996D01*
X140485301Y-52669070D01*
X140485300Y-52669065D01*
X140457777Y-52578335D01*
X140425232Y-52471046D01*
X140327685Y-52288550D01*
X140196410Y-52128590D01*
X140046123Y-52005253D01*
X140036452Y-51997316D01*
X139853954Y-51899768D01*
X139655934Y-51839699D01*
X139655929Y-51839698D01*
X139450003Y-51819417D01*
X139449997Y-51819417D01*
X139244070Y-51839698D01*
X139244065Y-51839699D01*
X139046045Y-51899768D01*
X138863547Y-51997316D01*
X138703595Y-52128585D01*
X138703585Y-52128595D01*
X138572316Y-52288547D01*
X138474768Y-52471045D01*
X138414699Y-52669065D01*
X138414698Y-52669070D01*
X138394417Y-52874996D01*
X138394417Y-52875003D01*
X138414698Y-53080929D01*
X138414699Y-53080934D01*
X138474768Y-53278954D01*
X138572316Y-53461452D01*
X138703302Y-53621059D01*
X138703590Y-53621410D01*
X138703595Y-53621414D01*
X138863547Y-53752683D01*
X138863548Y-53752683D01*
X138863550Y-53752685D01*
X139046046Y-53850232D01*
X139079237Y-53860300D01*
X139129434Y-53895284D01*
X139149481Y-53953092D01*
X139149500Y-53955037D01*
X139149500Y-70309521D01*
X139130593Y-70367712D01*
X139120504Y-70379525D01*
X136299525Y-73200504D01*
X136245008Y-73228281D01*
X136229521Y-73229500D01*
X134773949Y-73229500D01*
X134773949Y-73226404D01*
X134726240Y-73217550D01*
X134684134Y-73173158D01*
X134674500Y-73130559D01*
X134674500Y-70534996D01*
X135714417Y-70534996D01*
X135714417Y-70535003D01*
X135734698Y-70740929D01*
X135734699Y-70740934D01*
X135794768Y-70938954D01*
X135892316Y-71121452D01*
X135921009Y-71156414D01*
X136023590Y-71281410D01*
X136023595Y-71281414D01*
X136183547Y-71412683D01*
X136183548Y-71412683D01*
X136183550Y-71412685D01*
X136366046Y-71510232D01*
X136479380Y-71544611D01*
X136564065Y-71570300D01*
X136564070Y-71570301D01*
X136769997Y-71590583D01*
X136770000Y-71590583D01*
X136770003Y-71590583D01*
X136975929Y-71570301D01*
X136975934Y-71570300D01*
X137026322Y-71555015D01*
X137173954Y-71510232D01*
X137356450Y-71412685D01*
X137516410Y-71281410D01*
X137647685Y-71121450D01*
X137745232Y-70938954D01*
X137805300Y-70740934D01*
X137805301Y-70740929D01*
X137825583Y-70535003D01*
X137825583Y-70534996D01*
X137805301Y-70329070D01*
X137805300Y-70329065D01*
X137779402Y-70243691D01*
X137745232Y-70131046D01*
X137647685Y-69948550D01*
X137644012Y-69944075D01*
X137516414Y-69788595D01*
X137516410Y-69788590D01*
X137476838Y-69756114D01*
X137356452Y-69657316D01*
X137173954Y-69559768D01*
X136975934Y-69499699D01*
X136975929Y-69499698D01*
X136770003Y-69479417D01*
X136769997Y-69479417D01*
X136564070Y-69499698D01*
X136564065Y-69499699D01*
X136366045Y-69559768D01*
X136183547Y-69657316D01*
X136023595Y-69788585D01*
X136023585Y-69788595D01*
X135892316Y-69948547D01*
X135794768Y-70131045D01*
X135734699Y-70329065D01*
X135734698Y-70329070D01*
X135714417Y-70534996D01*
X134674500Y-70534996D01*
X134674500Y-67994996D01*
X135714417Y-67994996D01*
X135714417Y-67995003D01*
X135734698Y-68200929D01*
X135734699Y-68200934D01*
X135794768Y-68398954D01*
X135892316Y-68581452D01*
X135991365Y-68702144D01*
X136023590Y-68741410D01*
X136023595Y-68741414D01*
X136183547Y-68872683D01*
X136183548Y-68872683D01*
X136183550Y-68872685D01*
X136366046Y-68970232D01*
X136479014Y-69004500D01*
X136564065Y-69030300D01*
X136564070Y-69030301D01*
X136769997Y-69050583D01*
X136770000Y-69050583D01*
X136770003Y-69050583D01*
X136975929Y-69030301D01*
X136975934Y-69030300D01*
X136981169Y-69028712D01*
X137173954Y-68970232D01*
X137356450Y-68872685D01*
X137516410Y-68741410D01*
X137647685Y-68581450D01*
X137745232Y-68398954D01*
X137805300Y-68200934D01*
X137805301Y-68200929D01*
X137825583Y-67995003D01*
X137825583Y-67994996D01*
X137805301Y-67789070D01*
X137805300Y-67789065D01*
X137781852Y-67711768D01*
X137745232Y-67591046D01*
X137647685Y-67408550D01*
X137516410Y-67248590D01*
X137516404Y-67248585D01*
X137356452Y-67117316D01*
X137173954Y-67019768D01*
X136975934Y-66959699D01*
X136975929Y-66959698D01*
X136770003Y-66939417D01*
X136769997Y-66939417D01*
X136564070Y-66959698D01*
X136564065Y-66959699D01*
X136366045Y-67019768D01*
X136183547Y-67117316D01*
X136023595Y-67248585D01*
X136023585Y-67248595D01*
X135892316Y-67408547D01*
X135794768Y-67591045D01*
X135734699Y-67789065D01*
X135734698Y-67789070D01*
X135714417Y-67994996D01*
X134674500Y-67994996D01*
X134674500Y-66216479D01*
X134693407Y-66158288D01*
X134703496Y-66146475D01*
X135065475Y-65784496D01*
X135119992Y-65756719D01*
X135135479Y-65755500D01*
X135689963Y-65755500D01*
X135748154Y-65774407D01*
X135784118Y-65823907D01*
X135784700Y-65825763D01*
X135794767Y-65858952D01*
X135794768Y-65858954D01*
X135892316Y-66041452D01*
X136023585Y-66201404D01*
X136023590Y-66201410D01*
X136023595Y-66201414D01*
X136183547Y-66332683D01*
X136183548Y-66332683D01*
X136183550Y-66332685D01*
X136366046Y-66430232D01*
X136503997Y-66472078D01*
X136564065Y-66490300D01*
X136564070Y-66490301D01*
X136769997Y-66510583D01*
X136770000Y-66510583D01*
X136770003Y-66510583D01*
X136975929Y-66490301D01*
X136975934Y-66490300D01*
X137173954Y-66430232D01*
X137356450Y-66332685D01*
X137516410Y-66201410D01*
X137647685Y-66041450D01*
X137745232Y-65858954D01*
X137805300Y-65660934D01*
X137805301Y-65660929D01*
X137825583Y-65455003D01*
X137825583Y-65454996D01*
X137805301Y-65249070D01*
X137805300Y-65249065D01*
X137776608Y-65154481D01*
X137745232Y-65051046D01*
X137647685Y-64868550D01*
X137639195Y-64858205D01*
X137516414Y-64708595D01*
X137516410Y-64708590D01*
X137490764Y-64687543D01*
X137356452Y-64577316D01*
X137173954Y-64479768D01*
X136975934Y-64419699D01*
X136975929Y-64419698D01*
X136770003Y-64399417D01*
X136769997Y-64399417D01*
X136564070Y-64419698D01*
X136564065Y-64419699D01*
X136366045Y-64479768D01*
X136183547Y-64577316D01*
X136023595Y-64708585D01*
X136023585Y-64708595D01*
X135892316Y-64868547D01*
X135794768Y-65051045D01*
X135794767Y-65051047D01*
X135784700Y-65084237D01*
X135749716Y-65134434D01*
X135691908Y-65154481D01*
X135689963Y-65154500D01*
X134930435Y-65154500D01*
X134854012Y-65174978D01*
X134810637Y-65200021D01*
X134810636Y-65200020D01*
X134785488Y-65214540D01*
X134516503Y-65483525D01*
X134461987Y-65511302D01*
X134401555Y-65501731D01*
X134358290Y-65458466D01*
X134347500Y-65413521D01*
X134347500Y-63843479D01*
X134366407Y-63785288D01*
X134376496Y-63773475D01*
X135065475Y-63084496D01*
X135119992Y-63056719D01*
X135135479Y-63055500D01*
X135641427Y-63055500D01*
X135699618Y-63074407D01*
X135735582Y-63123907D01*
X135736164Y-63125762D01*
X135794768Y-63318954D01*
X135892316Y-63501452D01*
X136011118Y-63646213D01*
X136023590Y-63661410D01*
X136023595Y-63661414D01*
X136183547Y-63792683D01*
X136183548Y-63792683D01*
X136183550Y-63792685D01*
X136366046Y-63890232D01*
X136496980Y-63929950D01*
X136564065Y-63950300D01*
X136564070Y-63950301D01*
X136769997Y-63970583D01*
X136770000Y-63970583D01*
X136770003Y-63970583D01*
X136975929Y-63950301D01*
X136975934Y-63950300D01*
X137173954Y-63890232D01*
X137356450Y-63792685D01*
X137516410Y-63661410D01*
X137647685Y-63501450D01*
X137745232Y-63318954D01*
X137805300Y-63120934D01*
X137805301Y-63120929D01*
X137825583Y-62915003D01*
X137825583Y-62914996D01*
X137805301Y-62709070D01*
X137805300Y-62709065D01*
X137772866Y-62602144D01*
X137745232Y-62511046D01*
X137647685Y-62328550D01*
X137631094Y-62308334D01*
X137516414Y-62168595D01*
X137516410Y-62168590D01*
X137493106Y-62149465D01*
X137356452Y-62037316D01*
X137173954Y-61939768D01*
X136975934Y-61879699D01*
X136975929Y-61879698D01*
X136770003Y-61859417D01*
X136769997Y-61859417D01*
X136564070Y-61879698D01*
X136564065Y-61879699D01*
X136366045Y-61939768D01*
X136183547Y-62037316D01*
X136023595Y-62168585D01*
X136023585Y-62168595D01*
X135892316Y-62328547D01*
X135885049Y-62342143D01*
X135853245Y-62401646D01*
X135852965Y-62402169D01*
X135808859Y-62444575D01*
X135765655Y-62454500D01*
X134930435Y-62454500D01*
X134854011Y-62474978D01*
X134807136Y-62502042D01*
X134792629Y-62510418D01*
X134785493Y-62514537D01*
X134785489Y-62514540D01*
X134189504Y-63110525D01*
X134134987Y-63138302D01*
X134074555Y-63128731D01*
X134031290Y-63085466D01*
X134020500Y-63040521D01*
X134020500Y-60374996D01*
X135714417Y-60374996D01*
X135714417Y-60375003D01*
X135734698Y-60580929D01*
X135734699Y-60580934D01*
X135794768Y-60778954D01*
X135892316Y-60961452D01*
X136023585Y-61121404D01*
X136023590Y-61121410D01*
X136023595Y-61121414D01*
X136183547Y-61252683D01*
X136183548Y-61252683D01*
X136183550Y-61252685D01*
X136366046Y-61350232D01*
X136462518Y-61379496D01*
X136564065Y-61410300D01*
X136564070Y-61410301D01*
X136769997Y-61430583D01*
X136770000Y-61430583D01*
X136770003Y-61430583D01*
X136975929Y-61410301D01*
X136975934Y-61410300D01*
X136983984Y-61407858D01*
X137173954Y-61350232D01*
X137356450Y-61252685D01*
X137516410Y-61121410D01*
X137647685Y-60961450D01*
X137745232Y-60778954D01*
X137805300Y-60580934D01*
X137805301Y-60580929D01*
X137825583Y-60375003D01*
X137825583Y-60374996D01*
X137805301Y-60169070D01*
X137805300Y-60169065D01*
X137771470Y-60057543D01*
X137745232Y-59971046D01*
X137647685Y-59788550D01*
X137614289Y-59747857D01*
X137516414Y-59628595D01*
X137516410Y-59628590D01*
X137515363Y-59627731D01*
X137356452Y-59497316D01*
X137173954Y-59399768D01*
X136975934Y-59339699D01*
X136975929Y-59339698D01*
X136770003Y-59319417D01*
X136769997Y-59319417D01*
X136564070Y-59339698D01*
X136564065Y-59339699D01*
X136366045Y-59399768D01*
X136183547Y-59497316D01*
X136023595Y-59628585D01*
X136023585Y-59628595D01*
X135892316Y-59788547D01*
X135794768Y-59971045D01*
X135734699Y-60169065D01*
X135734698Y-60169070D01*
X135714417Y-60374996D01*
X134020500Y-60374996D01*
X134020500Y-56965299D01*
X135720000Y-56965299D01*
X135720000Y-57734999D01*
X135720001Y-57735000D01*
X136279157Y-57735000D01*
X136270000Y-57769174D01*
X136270000Y-57900826D01*
X136279157Y-57935000D01*
X135720001Y-57935000D01*
X135720000Y-57935001D01*
X135720000Y-58704700D01*
X135731603Y-58763036D01*
X135775806Y-58829189D01*
X135775810Y-58829193D01*
X135841963Y-58873396D01*
X135900299Y-58884999D01*
X135900303Y-58885000D01*
X136669999Y-58885000D01*
X136670000Y-58884999D01*
X136670000Y-58325842D01*
X136704174Y-58335000D01*
X136835826Y-58335000D01*
X136870000Y-58325842D01*
X136870000Y-58884999D01*
X136870001Y-58885000D01*
X137639697Y-58885000D01*
X137639700Y-58884999D01*
X137698036Y-58873396D01*
X137764189Y-58829193D01*
X137764193Y-58829189D01*
X137808396Y-58763036D01*
X137819999Y-58704700D01*
X137820000Y-58704697D01*
X137820000Y-57935001D01*
X137819999Y-57935000D01*
X137260843Y-57935000D01*
X137270000Y-57900826D01*
X137270000Y-57769174D01*
X137260843Y-57735000D01*
X137819999Y-57735000D01*
X137820000Y-57734999D01*
X137820000Y-56965302D01*
X137819999Y-56965299D01*
X137808396Y-56906963D01*
X137764193Y-56840810D01*
X137764189Y-56840806D01*
X137698036Y-56796603D01*
X137639700Y-56785000D01*
X136870001Y-56785000D01*
X136870000Y-56785001D01*
X136870000Y-57344157D01*
X136835826Y-57335000D01*
X136704174Y-57335000D01*
X136670000Y-57344157D01*
X136670000Y-56785001D01*
X136669999Y-56785000D01*
X135900299Y-56785000D01*
X135841963Y-56796603D01*
X135775810Y-56840806D01*
X135775806Y-56840810D01*
X135731603Y-56906963D01*
X135720000Y-56965299D01*
X134020500Y-56965299D01*
X134020500Y-53257611D01*
X134039407Y-53199420D01*
X134049496Y-53187607D01*
X135927608Y-51309496D01*
X135982125Y-51281719D01*
X135997612Y-51280500D01*
X142257389Y-51280500D01*
X142315580Y-51299407D01*
X142327393Y-51309496D01*
X143497489Y-52479593D01*
X143525266Y-52534110D01*
X143522222Y-52578335D01*
X143494699Y-52669065D01*
X143494698Y-52669070D01*
X143474417Y-52874996D01*
X143474417Y-52875003D01*
X143494698Y-53080929D01*
X143494699Y-53080934D01*
X143554768Y-53278954D01*
X143652316Y-53461452D01*
X143783302Y-53621059D01*
X143783590Y-53621410D01*
X143783595Y-53621414D01*
X143943547Y-53752683D01*
X143943548Y-53752683D01*
X143943550Y-53752685D01*
X144126046Y-53850232D01*
X144229500Y-53881614D01*
X144324065Y-53910300D01*
X144324070Y-53910301D01*
X144529997Y-53930583D01*
X144530000Y-53930583D01*
X144530003Y-53930583D01*
X144735929Y-53910301D01*
X144735934Y-53910300D01*
X144780286Y-53896846D01*
X144933954Y-53850232D01*
X145116450Y-53752685D01*
X145276410Y-53621410D01*
X145407685Y-53461450D01*
X145505232Y-53278954D01*
X145565300Y-53080934D01*
X145565301Y-53080929D01*
X145585583Y-52875003D01*
X145585583Y-52874996D01*
X145575734Y-52774999D01*
X146024767Y-52774999D01*
X146024768Y-52775000D01*
X146579157Y-52775000D01*
X146570000Y-52809174D01*
X146570000Y-52940826D01*
X146579157Y-52975000D01*
X146024767Y-52975000D01*
X146035190Y-53080831D01*
X146035191Y-53080836D01*
X146095232Y-53278762D01*
X146095234Y-53278767D01*
X146192724Y-53461160D01*
X146192731Y-53461170D01*
X146323940Y-53621050D01*
X146323949Y-53621059D01*
X146483829Y-53752268D01*
X146483839Y-53752275D01*
X146666232Y-53849765D01*
X146666237Y-53849767D01*
X146864166Y-53909808D01*
X146969998Y-53920231D01*
X146970000Y-53920230D01*
X146970000Y-53365842D01*
X147004174Y-53375000D01*
X147135826Y-53375000D01*
X147170000Y-53365842D01*
X147170000Y-53920230D01*
X147170001Y-53920231D01*
X147275833Y-53909808D01*
X147473762Y-53849767D01*
X147473767Y-53849765D01*
X147656160Y-53752275D01*
X147656170Y-53752268D01*
X147816050Y-53621059D01*
X147816059Y-53621050D01*
X147947268Y-53461170D01*
X147947275Y-53461160D01*
X148044765Y-53278767D01*
X148044767Y-53278762D01*
X148104808Y-53080836D01*
X148104809Y-53080831D01*
X148115232Y-52975000D01*
X147560843Y-52975000D01*
X147570000Y-52940826D01*
X147570000Y-52874996D01*
X148554417Y-52874996D01*
X148554417Y-52875003D01*
X148574698Y-53080929D01*
X148574699Y-53080934D01*
X148634768Y-53278954D01*
X148732316Y-53461452D01*
X148863302Y-53621059D01*
X148863590Y-53621410D01*
X148863595Y-53621414D01*
X149023547Y-53752683D01*
X149023548Y-53752683D01*
X149023550Y-53752685D01*
X149206046Y-53850232D01*
X149309500Y-53881614D01*
X149404065Y-53910300D01*
X149404070Y-53910301D01*
X149609997Y-53930583D01*
X149610000Y-53930583D01*
X149610003Y-53930583D01*
X149815929Y-53910301D01*
X149815934Y-53910300D01*
X149860286Y-53896846D01*
X150013954Y-53850232D01*
X150196450Y-53752685D01*
X150356410Y-53621410D01*
X150487685Y-53461450D01*
X150585232Y-53278954D01*
X150645300Y-53080934D01*
X150645301Y-53080929D01*
X150665583Y-52875003D01*
X150665583Y-52874996D01*
X150645301Y-52669070D01*
X150645300Y-52669065D01*
X150617777Y-52578335D01*
X150585232Y-52471046D01*
X150487685Y-52288550D01*
X150356410Y-52128590D01*
X150206123Y-52005253D01*
X151099500Y-52005253D01*
X151099500Y-53744746D01*
X151099501Y-53744758D01*
X151111132Y-53803227D01*
X151111134Y-53803233D01*
X151151318Y-53863371D01*
X151155448Y-53869552D01*
X151221769Y-53913867D01*
X151266231Y-53922711D01*
X151280241Y-53925498D01*
X151280246Y-53925498D01*
X151280252Y-53925500D01*
X151280253Y-53925500D01*
X153019747Y-53925500D01*
X153019748Y-53925500D01*
X153078231Y-53913867D01*
X153144552Y-53869552D01*
X153188867Y-53803231D01*
X153200500Y-53744748D01*
X153200500Y-52005252D01*
X153198921Y-51997316D01*
X153197711Y-51991231D01*
X153188867Y-51946769D01*
X153144552Y-51880448D01*
X153144548Y-51880445D01*
X153078233Y-51836134D01*
X153078231Y-51836133D01*
X153078228Y-51836132D01*
X153078227Y-51836132D01*
X153019758Y-51824501D01*
X153019748Y-51824500D01*
X151280252Y-51824500D01*
X151280251Y-51824500D01*
X151280241Y-51824501D01*
X151221772Y-51836132D01*
X151221766Y-51836134D01*
X151155451Y-51880445D01*
X151155445Y-51880451D01*
X151111134Y-51946766D01*
X151111132Y-51946772D01*
X151099501Y-52005241D01*
X151099500Y-52005253D01*
X150206123Y-52005253D01*
X150196452Y-51997316D01*
X150013954Y-51899768D01*
X149815934Y-51839699D01*
X149815929Y-51839698D01*
X149610003Y-51819417D01*
X149609997Y-51819417D01*
X149404070Y-51839698D01*
X149404065Y-51839699D01*
X149206045Y-51899768D01*
X149023547Y-51997316D01*
X148863595Y-52128585D01*
X148863585Y-52128595D01*
X148732316Y-52288547D01*
X148634768Y-52471045D01*
X148574699Y-52669065D01*
X148574698Y-52669070D01*
X148554417Y-52874996D01*
X147570000Y-52874996D01*
X147570000Y-52809174D01*
X147560843Y-52775000D01*
X148115232Y-52775000D01*
X148115232Y-52774999D01*
X148104809Y-52669168D01*
X148104808Y-52669163D01*
X148044767Y-52471237D01*
X148044765Y-52471232D01*
X147947275Y-52288839D01*
X147947268Y-52288829D01*
X147816059Y-52128949D01*
X147816050Y-52128940D01*
X147656170Y-51997731D01*
X147656160Y-51997724D01*
X147473767Y-51900234D01*
X147473762Y-51900232D01*
X147275836Y-51840191D01*
X147275831Y-51840190D01*
X147170000Y-51829767D01*
X147170000Y-52384157D01*
X147135826Y-52375000D01*
X147004174Y-52375000D01*
X146970000Y-52384157D01*
X146970000Y-51829767D01*
X146969999Y-51829767D01*
X146864168Y-51840190D01*
X146864163Y-51840191D01*
X146666237Y-51900232D01*
X146666232Y-51900234D01*
X146483839Y-51997724D01*
X146483829Y-51997731D01*
X146323949Y-52128940D01*
X146323940Y-52128949D01*
X146192731Y-52288829D01*
X146192724Y-52288839D01*
X146095234Y-52471232D01*
X146095232Y-52471237D01*
X146035191Y-52669163D01*
X146035190Y-52669168D01*
X146024767Y-52774999D01*
X145575734Y-52774999D01*
X145565301Y-52669070D01*
X145565300Y-52669065D01*
X145537777Y-52578335D01*
X145505232Y-52471046D01*
X145407685Y-52288550D01*
X145276410Y-52128590D01*
X145126123Y-52005253D01*
X145116452Y-51997316D01*
X144933954Y-51899768D01*
X144735934Y-51839699D01*
X144735929Y-51839698D01*
X144530003Y-51819417D01*
X144529997Y-51819417D01*
X144324070Y-51839698D01*
X144324065Y-51839699D01*
X144233335Y-51867222D01*
X144172161Y-51866021D01*
X144134593Y-51842489D01*
X144095051Y-51802947D01*
X142761614Y-50469511D01*
X142761611Y-50469509D01*
X142761610Y-50469508D01*
X142761609Y-50469507D01*
X142658890Y-50410202D01*
X142658886Y-50410200D01*
X142634673Y-50403712D01*
X142634673Y-50403713D01*
X142544309Y-50379500D01*
X135710691Y-50379500D01*
X135665508Y-50391606D01*
X135620325Y-50403713D01*
X135620324Y-50403712D01*
X135596115Y-50410200D01*
X135596113Y-50410200D01*
X135596113Y-50410201D01*
X135493391Y-50469507D01*
X135493386Y-50469510D01*
X133209508Y-52753389D01*
X133209507Y-52753390D01*
X133150200Y-52856112D01*
X133150200Y-52856113D01*
X133150201Y-52856114D01*
X133127503Y-52940826D01*
X133119500Y-52970692D01*
X133119500Y-59131562D01*
X133100593Y-59189753D01*
X133051093Y-59225717D01*
X132992609Y-59226552D01*
X132891964Y-59197000D01*
X132891961Y-59197000D01*
X132748039Y-59197000D01*
X132748035Y-59197000D01*
X132609949Y-59237546D01*
X132609942Y-59237549D01*
X132488873Y-59315355D01*
X132394622Y-59424128D01*
X132334834Y-59555043D01*
X132314353Y-59697497D01*
X132314353Y-59697502D01*
X132334833Y-59839954D01*
X132348286Y-59869411D01*
X132360553Y-59896271D01*
X132369500Y-59937397D01*
X132369500Y-71456309D01*
X132370623Y-71460500D01*
X132392174Y-71540932D01*
X132400201Y-71570888D01*
X132400202Y-71570890D01*
X132459507Y-71673609D01*
X132459509Y-71673611D01*
X132459511Y-71673614D01*
X132463505Y-71677608D01*
X132491281Y-71732123D01*
X132492500Y-71747610D01*
X132492500Y-72667677D01*
X132473593Y-72725868D01*
X132463504Y-72737681D01*
X124852681Y-80348504D01*
X124798164Y-80376281D01*
X124782677Y-80377500D01*
X100595611Y-80377500D01*
X100537420Y-80358593D01*
X100525607Y-80348504D01*
X100499822Y-80322719D01*
X100479776Y-80293846D01*
X100435377Y-80196627D01*
X100341128Y-80087857D01*
X100341127Y-80087856D01*
X100341126Y-80087855D01*
X100220057Y-80010049D01*
X100220054Y-80010047D01*
X100220053Y-80010047D01*
X100220050Y-80010046D01*
X100081964Y-79969500D01*
X100081961Y-79969500D01*
X99938039Y-79969500D01*
X99938035Y-79969500D01*
X99799949Y-80010046D01*
X99799942Y-80010049D01*
X99678873Y-80087855D01*
X99584622Y-80196628D01*
X99524834Y-80327543D01*
X99504353Y-80469997D01*
X99504353Y-80470002D01*
X99524834Y-80612456D01*
X99584622Y-80743371D01*
X99584623Y-80743373D01*
X99678872Y-80852143D01*
X99683509Y-80857494D01*
X99682415Y-80858441D01*
X99709935Y-80904079D01*
X99704697Y-80965040D01*
X99664629Y-81011280D01*
X99613507Y-81025500D01*
X81178612Y-81025500D01*
X81120421Y-81006593D01*
X81108608Y-80996504D01*
X80221608Y-80109504D01*
X80193831Y-80054987D01*
X80203402Y-79994555D01*
X80246667Y-79951290D01*
X80291612Y-79940500D01*
X82147712Y-79940500D01*
X82183083Y-79948195D01*
X82183153Y-79947958D01*
X82186468Y-79948931D01*
X82188838Y-79949447D01*
X82189943Y-79949951D01*
X82189944Y-79949951D01*
X82189947Y-79949953D01*
X82303939Y-79983423D01*
X82328035Y-79990499D01*
X82328036Y-79990499D01*
X82328039Y-79990500D01*
X82328041Y-79990500D01*
X82471959Y-79990500D01*
X82471961Y-79990500D01*
X82610053Y-79949953D01*
X82731128Y-79872143D01*
X82825377Y-79763373D01*
X82885165Y-79632457D01*
X82898290Y-79541170D01*
X82905647Y-79490002D01*
X82905647Y-79489997D01*
X82885165Y-79347543D01*
X82825377Y-79216627D01*
X82731128Y-79107857D01*
X82731127Y-79107856D01*
X82731126Y-79107855D01*
X82610057Y-79030049D01*
X82610054Y-79030047D01*
X82610053Y-79030047D01*
X82610050Y-79030046D01*
X82471964Y-78989500D01*
X82471961Y-78989500D01*
X82328039Y-78989500D01*
X82328035Y-78989500D01*
X82189943Y-79030048D01*
X82188838Y-79030553D01*
X82186468Y-79031068D01*
X82183153Y-79032042D01*
X82183083Y-79031804D01*
X82147712Y-79039500D01*
X80197611Y-79039500D01*
X80139420Y-79020593D01*
X80127607Y-79010504D01*
X72909496Y-71792393D01*
X72881719Y-71737876D01*
X72880500Y-71722389D01*
X72880500Y-70430691D01*
X72855149Y-70336082D01*
X72849799Y-70316113D01*
X72846270Y-70310000D01*
X72790492Y-70213390D01*
X72790490Y-70213388D01*
X72790489Y-70213386D01*
X72117356Y-69540253D01*
X73619500Y-69540253D01*
X73619500Y-71279746D01*
X73619501Y-71279758D01*
X73631132Y-71338227D01*
X73631134Y-71338233D01*
X73675445Y-71404548D01*
X73675448Y-71404552D01*
X73741769Y-71448867D01*
X73786231Y-71457711D01*
X73800241Y-71460498D01*
X73800246Y-71460498D01*
X73800252Y-71460500D01*
X73800253Y-71460500D01*
X75539747Y-71460500D01*
X75539748Y-71460500D01*
X75598231Y-71448867D01*
X75664552Y-71404552D01*
X75708867Y-71338231D01*
X75720500Y-71279748D01*
X75720500Y-70409996D01*
X76154417Y-70409996D01*
X76154417Y-70410003D01*
X76174698Y-70615929D01*
X76174699Y-70615934D01*
X76234768Y-70813954D01*
X76332316Y-70996452D01*
X76463302Y-71156059D01*
X76463590Y-71156410D01*
X76463595Y-71156414D01*
X76623547Y-71287683D01*
X76623548Y-71287683D01*
X76623550Y-71287685D01*
X76806046Y-71385232D01*
X76943997Y-71427078D01*
X77004065Y-71445300D01*
X77004070Y-71445301D01*
X77209997Y-71465583D01*
X77210000Y-71465583D01*
X77210003Y-71465583D01*
X77415929Y-71445301D01*
X77415934Y-71445300D01*
X77417556Y-71444808D01*
X77613954Y-71385232D01*
X77796450Y-71287685D01*
X77956410Y-71156410D01*
X78087685Y-70996450D01*
X78185232Y-70813954D01*
X78245300Y-70615934D01*
X78245301Y-70615929D01*
X78265583Y-70410003D01*
X78265583Y-70409996D01*
X78694417Y-70409996D01*
X78694417Y-70410003D01*
X78714698Y-70615929D01*
X78714699Y-70615934D01*
X78774768Y-70813954D01*
X78872316Y-70996452D01*
X79003302Y-71156059D01*
X79003590Y-71156410D01*
X79003595Y-71156414D01*
X79163547Y-71287683D01*
X79163548Y-71287683D01*
X79163550Y-71287685D01*
X79346046Y-71385232D01*
X79483997Y-71427078D01*
X79544065Y-71445300D01*
X79544070Y-71445301D01*
X79749997Y-71465583D01*
X79750000Y-71465583D01*
X79750003Y-71465583D01*
X79955929Y-71445301D01*
X79955934Y-71445300D01*
X79957556Y-71444808D01*
X80153954Y-71385232D01*
X80336450Y-71287685D01*
X80496410Y-71156410D01*
X80627685Y-70996450D01*
X80725232Y-70813954D01*
X80785300Y-70615934D01*
X80785301Y-70615929D01*
X80805583Y-70410003D01*
X80805583Y-70409996D01*
X80795734Y-70309999D01*
X81244767Y-70309999D01*
X81244768Y-70310000D01*
X81799157Y-70310000D01*
X81790000Y-70344174D01*
X81790000Y-70475826D01*
X81799157Y-70510000D01*
X81244767Y-70510000D01*
X81255190Y-70615831D01*
X81255191Y-70615836D01*
X81315232Y-70813762D01*
X81315234Y-70813767D01*
X81412724Y-70996160D01*
X81412731Y-70996170D01*
X81543940Y-71156050D01*
X81543949Y-71156059D01*
X81703829Y-71287268D01*
X81703839Y-71287275D01*
X81886232Y-71384765D01*
X81886237Y-71384767D01*
X82084166Y-71444808D01*
X82189998Y-71455231D01*
X82190000Y-71455230D01*
X82190000Y-70900842D01*
X82224174Y-70910000D01*
X82355826Y-70910000D01*
X82390000Y-70900842D01*
X82390000Y-71455230D01*
X82390001Y-71455231D01*
X82495833Y-71444808D01*
X82693762Y-71384767D01*
X82693767Y-71384765D01*
X82876160Y-71287275D01*
X82876170Y-71287268D01*
X83036050Y-71156059D01*
X83036059Y-71156050D01*
X83167268Y-70996170D01*
X83167275Y-70996160D01*
X83264765Y-70813767D01*
X83264767Y-70813762D01*
X83324808Y-70615836D01*
X83324809Y-70615831D01*
X83335232Y-70510000D01*
X82780843Y-70510000D01*
X82790000Y-70475826D01*
X82790000Y-70344174D01*
X82780843Y-70310000D01*
X83335232Y-70310000D01*
X83335232Y-70309999D01*
X83324809Y-70204168D01*
X83324808Y-70204163D01*
X83264767Y-70006237D01*
X83264765Y-70006232D01*
X83167275Y-69823839D01*
X83167268Y-69823829D01*
X83036059Y-69663949D01*
X83036050Y-69663940D01*
X82876170Y-69532731D01*
X82876160Y-69532724D01*
X82693767Y-69435234D01*
X82693762Y-69435232D01*
X82495836Y-69375191D01*
X82495831Y-69375190D01*
X82390000Y-69364767D01*
X82390000Y-69919157D01*
X82355826Y-69910000D01*
X82224174Y-69910000D01*
X82190000Y-69919157D01*
X82190000Y-69364767D01*
X82189999Y-69364767D01*
X82084168Y-69375190D01*
X82084163Y-69375191D01*
X81886237Y-69435232D01*
X81886232Y-69435234D01*
X81703839Y-69532724D01*
X81703829Y-69532731D01*
X81543949Y-69663940D01*
X81543940Y-69663949D01*
X81412731Y-69823829D01*
X81412724Y-69823839D01*
X81315234Y-70006232D01*
X81315232Y-70006237D01*
X81255191Y-70204163D01*
X81255190Y-70204168D01*
X81244767Y-70309999D01*
X80795734Y-70309999D01*
X80785301Y-70204070D01*
X80785300Y-70204065D01*
X80726401Y-70009901D01*
X80725232Y-70006046D01*
X80627685Y-69823550D01*
X80598998Y-69788595D01*
X80496414Y-69663595D01*
X80496410Y-69663590D01*
X80346123Y-69540253D01*
X80336452Y-69532316D01*
X80153954Y-69434768D01*
X79955934Y-69374699D01*
X79955929Y-69374698D01*
X79750003Y-69354417D01*
X79749997Y-69354417D01*
X79544070Y-69374698D01*
X79544065Y-69374699D01*
X79346045Y-69434768D01*
X79163547Y-69532316D01*
X79003595Y-69663585D01*
X79003585Y-69663595D01*
X78872316Y-69823547D01*
X78774768Y-70006045D01*
X78714699Y-70204065D01*
X78714698Y-70204070D01*
X78694417Y-70409996D01*
X78265583Y-70409996D01*
X78245301Y-70204070D01*
X78245300Y-70204065D01*
X78186401Y-70009901D01*
X78185232Y-70006046D01*
X78087685Y-69823550D01*
X78058998Y-69788595D01*
X77956414Y-69663595D01*
X77956410Y-69663590D01*
X77806123Y-69540253D01*
X77796452Y-69532316D01*
X77613954Y-69434768D01*
X77415934Y-69374699D01*
X77415929Y-69374698D01*
X77210003Y-69354417D01*
X77209997Y-69354417D01*
X77004070Y-69374698D01*
X77004065Y-69374699D01*
X76806045Y-69434768D01*
X76623547Y-69532316D01*
X76463595Y-69663585D01*
X76463585Y-69663595D01*
X76332316Y-69823547D01*
X76234768Y-70006045D01*
X76174699Y-70204065D01*
X76174698Y-70204070D01*
X76154417Y-70409996D01*
X75720500Y-70409996D01*
X75720500Y-69540252D01*
X75718921Y-69532316D01*
X75717711Y-69526231D01*
X75708867Y-69481769D01*
X75664552Y-69415448D01*
X75664548Y-69415445D01*
X75598233Y-69371134D01*
X75598231Y-69371133D01*
X75598228Y-69371132D01*
X75598227Y-69371132D01*
X75539758Y-69359501D01*
X75539748Y-69359500D01*
X73800252Y-69359500D01*
X73800251Y-69359500D01*
X73800241Y-69359501D01*
X73741772Y-69371132D01*
X73741766Y-69371134D01*
X73675451Y-69415445D01*
X73675445Y-69415451D01*
X73631134Y-69481766D01*
X73631132Y-69481772D01*
X73619501Y-69540241D01*
X73619500Y-69540253D01*
X72117356Y-69540253D01*
X71671614Y-69094511D01*
X71671611Y-69094509D01*
X71671609Y-69094507D01*
X71568890Y-69035202D01*
X71568886Y-69035200D01*
X71544673Y-69028712D01*
X71544673Y-69028713D01*
X71454309Y-69004500D01*
X68710691Y-69004500D01*
X68640567Y-69023289D01*
X68596109Y-69035202D01*
X68569472Y-69050582D01*
X68493388Y-69094509D01*
X67934507Y-69653390D01*
X67875200Y-69756112D01*
X67875200Y-69756113D01*
X67875201Y-69756114D01*
X67857132Y-69823550D01*
X67844500Y-69870692D01*
X67844500Y-70185500D01*
X67825593Y-70243691D01*
X67776093Y-70279655D01*
X67745500Y-70284500D01*
X67400252Y-70284500D01*
X67400251Y-70284500D01*
X67400241Y-70284501D01*
X67341772Y-70296132D01*
X67341766Y-70296134D01*
X67275451Y-70340445D01*
X67275445Y-70340451D01*
X67231134Y-70406766D01*
X67231132Y-70406772D01*
X67219501Y-70465241D01*
X67219500Y-70465253D01*
X67219500Y-72204746D01*
X67219501Y-72204758D01*
X67231132Y-72263227D01*
X67231134Y-72263233D01*
X67272775Y-72325552D01*
X67275448Y-72329552D01*
X67341769Y-72373867D01*
X67386231Y-72382711D01*
X67400241Y-72385498D01*
X67400246Y-72385498D01*
X67400252Y-72385500D01*
X67400253Y-72385500D01*
X69139747Y-72385500D01*
X69139748Y-72385500D01*
X69198231Y-72373867D01*
X69264552Y-72329552D01*
X69308867Y-72263231D01*
X69320500Y-72204748D01*
X69320500Y-70465252D01*
X69318921Y-70457316D01*
X69309510Y-70410003D01*
X69308867Y-70406769D01*
X69264552Y-70340448D01*
X69264548Y-70340445D01*
X69198233Y-70296134D01*
X69198231Y-70296133D01*
X69198228Y-70296132D01*
X69198227Y-70296132D01*
X69139758Y-70284501D01*
X69139748Y-70284500D01*
X69139747Y-70284500D01*
X68844500Y-70284500D01*
X68786309Y-70265593D01*
X68750345Y-70216093D01*
X68745500Y-70185500D01*
X68745500Y-70157611D01*
X68764407Y-70099420D01*
X68774496Y-70087607D01*
X68927607Y-69934496D01*
X68982124Y-69906719D01*
X68997611Y-69905500D01*
X71167389Y-69905500D01*
X71225580Y-69924407D01*
X71237393Y-69934496D01*
X71950504Y-70647607D01*
X71978281Y-70702124D01*
X71979500Y-70717611D01*
X71979500Y-70904059D01*
X71960593Y-70962250D01*
X71911093Y-70998214D01*
X71849907Y-70998214D01*
X71800407Y-70962250D01*
X71787118Y-70935523D01*
X71787091Y-70935535D01*
X71786927Y-70935139D01*
X71785763Y-70932798D01*
X71785232Y-70931046D01*
X71687685Y-70748550D01*
X71662294Y-70717611D01*
X71556414Y-70588595D01*
X71556410Y-70588590D01*
X71491110Y-70535000D01*
X71396452Y-70457316D01*
X71213954Y-70359768D01*
X71015934Y-70299699D01*
X71015929Y-70299698D01*
X70810003Y-70279417D01*
X70809997Y-70279417D01*
X70604070Y-70299698D01*
X70604065Y-70299699D01*
X70406045Y-70359768D01*
X70223547Y-70457316D01*
X70063595Y-70588585D01*
X70063585Y-70588595D01*
X69932316Y-70748547D01*
X69834768Y-70931045D01*
X69774699Y-71129065D01*
X69774698Y-71129070D01*
X69754417Y-71334996D01*
X69754417Y-71335003D01*
X69774698Y-71540929D01*
X69774699Y-71540932D01*
X69834768Y-71738954D01*
X69932316Y-71921452D01*
X70063585Y-72081404D01*
X70063590Y-72081410D01*
X70063595Y-72081414D01*
X70223547Y-72212683D01*
X70223548Y-72212683D01*
X70223550Y-72212685D01*
X70406046Y-72310232D01*
X70513334Y-72342777D01*
X70604065Y-72370300D01*
X70604070Y-72370301D01*
X70809997Y-72390583D01*
X70810000Y-72390583D01*
X70810003Y-72390583D01*
X71015929Y-72370301D01*
X71015934Y-72370300D01*
X71102706Y-72343978D01*
X71106665Y-72342777D01*
X71167838Y-72343978D01*
X71205407Y-72367510D01*
X80321392Y-81483496D01*
X80349169Y-81538013D01*
X80339598Y-81598445D01*
X80296333Y-81641710D01*
X80251388Y-81652500D01*
X79285375Y-81652500D01*
X79227184Y-81633593D01*
X79215371Y-81623504D01*
X75701960Y-78110093D01*
X72177407Y-74585540D01*
X72177404Y-74585538D01*
X72108888Y-74545980D01*
X72108884Y-74545978D01*
X72032460Y-74525500D01*
X72032458Y-74525500D01*
X71926479Y-74525500D01*
X71868288Y-74506593D01*
X71856475Y-74496504D01*
X71786187Y-74426216D01*
X71758410Y-74371699D01*
X71767981Y-74311267D01*
X71768882Y-74309542D01*
X71785230Y-74278957D01*
X71785232Y-74278954D01*
X71845300Y-74080934D01*
X71845301Y-74080929D01*
X71865583Y-73875003D01*
X71865583Y-73874996D01*
X71845301Y-73669070D01*
X71845300Y-73669065D01*
X71827078Y-73608997D01*
X71785232Y-73471046D01*
X71687685Y-73288550D01*
X71636683Y-73226404D01*
X71556414Y-73128595D01*
X71556410Y-73128590D01*
X71556404Y-73128585D01*
X71396452Y-72997316D01*
X71213954Y-72899768D01*
X71015934Y-72839699D01*
X71015929Y-72839698D01*
X70810003Y-72819417D01*
X70809997Y-72819417D01*
X70604070Y-72839698D01*
X70604065Y-72839699D01*
X70406045Y-72899768D01*
X70223547Y-72997316D01*
X70063595Y-73128585D01*
X70063585Y-73128595D01*
X69932316Y-73288547D01*
X69834768Y-73471045D01*
X69774699Y-73669065D01*
X69774698Y-73669070D01*
X69754417Y-73874996D01*
X69754417Y-73875003D01*
X69774698Y-74080929D01*
X69774699Y-74080934D01*
X69834768Y-74278954D01*
X69932316Y-74461452D01*
X70034151Y-74585538D01*
X70063590Y-74621410D01*
X70063595Y-74621414D01*
X70131293Y-74676972D01*
X70164280Y-74728503D01*
X70160678Y-74789582D01*
X70121863Y-74836879D01*
X70068488Y-74852500D01*
X69713479Y-74852500D01*
X69655288Y-74833593D01*
X69643475Y-74823504D01*
X69246187Y-74426216D01*
X69218410Y-74371699D01*
X69227981Y-74311267D01*
X69228882Y-74309542D01*
X69245230Y-74278957D01*
X69245232Y-74278954D01*
X69305300Y-74080934D01*
X69305301Y-74080929D01*
X69325583Y-73875003D01*
X69325583Y-73874996D01*
X69305301Y-73669070D01*
X69305300Y-73669065D01*
X69287078Y-73608997D01*
X69245232Y-73471046D01*
X69147685Y-73288550D01*
X69096683Y-73226404D01*
X69016414Y-73128595D01*
X69016410Y-73128590D01*
X69016404Y-73128585D01*
X68856452Y-72997316D01*
X68673954Y-72899768D01*
X68475934Y-72839699D01*
X68475929Y-72839698D01*
X68270003Y-72819417D01*
X68269997Y-72819417D01*
X68064070Y-72839698D01*
X68064065Y-72839699D01*
X67866045Y-72899768D01*
X67683547Y-72997316D01*
X67523595Y-73128585D01*
X67523585Y-73128595D01*
X67392316Y-73288547D01*
X67294768Y-73471045D01*
X67234699Y-73669065D01*
X67234698Y-73669070D01*
X67214417Y-73874996D01*
X67214417Y-73875003D01*
X67234698Y-74080929D01*
X67234699Y-74080934D01*
X67294768Y-74278954D01*
X67392316Y-74461452D01*
X67494151Y-74585538D01*
X67523590Y-74621410D01*
X67523595Y-74621414D01*
X67683547Y-74752683D01*
X67683548Y-74752683D01*
X67683550Y-74752685D01*
X67866046Y-74850232D01*
X68003997Y-74892078D01*
X68064065Y-74910300D01*
X68064070Y-74910301D01*
X68269997Y-74930583D01*
X68270000Y-74930583D01*
X68270003Y-74930583D01*
X68475929Y-74910301D01*
X68475934Y-74910300D01*
X68492611Y-74905241D01*
X68673954Y-74850232D01*
X68704542Y-74833881D01*
X68764775Y-74823124D01*
X68819826Y-74849825D01*
X68821216Y-74851187D01*
X69307540Y-75337511D01*
X69307539Y-75337511D01*
X69363489Y-75393460D01*
X69432007Y-75433019D01*
X69432011Y-75433021D01*
X69508435Y-75453499D01*
X69508437Y-75453500D01*
X69508438Y-75453500D01*
X70048992Y-75453500D01*
X70107183Y-75472407D01*
X70143147Y-75521907D01*
X70143147Y-75583093D01*
X70111797Y-75629028D01*
X70063595Y-75668585D01*
X70063585Y-75668595D01*
X69932316Y-75828547D01*
X69834768Y-76011045D01*
X69774699Y-76209065D01*
X69774698Y-76209070D01*
X69754417Y-76414996D01*
X69754417Y-76415003D01*
X69774698Y-76620929D01*
X69774699Y-76620934D01*
X69834768Y-76818954D01*
X69932316Y-77001452D01*
X70063585Y-77161404D01*
X70063590Y-77161410D01*
X70063595Y-77161414D01*
X70115452Y-77203972D01*
X70148439Y-77255503D01*
X70144837Y-77316583D01*
X70106022Y-77363880D01*
X70052647Y-77379500D01*
X69710479Y-77379500D01*
X69652288Y-77360593D01*
X69640475Y-77350504D01*
X69249670Y-76959699D01*
X69221893Y-76905182D01*
X69231464Y-76844750D01*
X69232340Y-76843070D01*
X69245232Y-76818954D01*
X69305300Y-76620934D01*
X69305301Y-76620929D01*
X69325583Y-76415003D01*
X69325583Y-76414996D01*
X69305301Y-76209070D01*
X69305300Y-76209065D01*
X69273341Y-76103710D01*
X69245232Y-76011046D01*
X69147685Y-75828550D01*
X69103740Y-75775003D01*
X69016414Y-75668595D01*
X69016410Y-75668590D01*
X69016404Y-75668585D01*
X68856452Y-75537316D01*
X68673954Y-75439768D01*
X68475934Y-75379699D01*
X68475929Y-75379698D01*
X68270003Y-75359417D01*
X68269997Y-75359417D01*
X68064070Y-75379698D01*
X68064065Y-75379699D01*
X67866045Y-75439768D01*
X67683547Y-75537316D01*
X67523595Y-75668585D01*
X67523585Y-75668595D01*
X67392316Y-75828547D01*
X67294768Y-76011045D01*
X67234699Y-76209065D01*
X67234698Y-76209070D01*
X67214417Y-76414996D01*
X67214417Y-76415003D01*
X67234698Y-76620929D01*
X67234699Y-76620934D01*
X67294768Y-76818954D01*
X67392316Y-77001452D01*
X67523585Y-77161404D01*
X67523590Y-77161410D01*
X67523595Y-77161414D01*
X67683547Y-77292683D01*
X67683548Y-77292683D01*
X67683550Y-77292685D01*
X67866046Y-77390232D01*
X68003997Y-77432078D01*
X68064065Y-77450300D01*
X68064070Y-77450301D01*
X68269997Y-77470583D01*
X68270000Y-77470583D01*
X68270003Y-77470583D01*
X68475929Y-77450301D01*
X68475934Y-77450300D01*
X68673954Y-77390232D01*
X68673958Y-77390230D01*
X68711059Y-77370399D01*
X68771292Y-77359641D01*
X68826343Y-77386342D01*
X68827733Y-77387704D01*
X69304540Y-77864511D01*
X69304539Y-77864511D01*
X69360489Y-77920460D01*
X69429007Y-77960019D01*
X69429011Y-77960021D01*
X69505435Y-77980499D01*
X69505437Y-77980500D01*
X69505438Y-77980500D01*
X69584562Y-77980500D01*
X70065619Y-77980500D01*
X70123810Y-77999407D01*
X70159774Y-78048907D01*
X70159774Y-78110093D01*
X70128424Y-78156028D01*
X70063949Y-78208940D01*
X70063940Y-78208949D01*
X69932731Y-78368829D01*
X69932724Y-78368839D01*
X69835234Y-78551232D01*
X69835232Y-78551237D01*
X69775191Y-78749163D01*
X69775190Y-78749168D01*
X69764767Y-78854999D01*
X69764768Y-78855000D01*
X70319157Y-78855000D01*
X70310000Y-78889174D01*
X70310000Y-79020826D01*
X70319157Y-79055000D01*
X69764767Y-79055000D01*
X69775190Y-79160831D01*
X69775191Y-79160836D01*
X69835232Y-79358762D01*
X69835234Y-79358767D01*
X69932724Y-79541160D01*
X69932731Y-79541170D01*
X70063940Y-79701050D01*
X70063949Y-79701059D01*
X70223829Y-79832268D01*
X70223839Y-79832275D01*
X70406232Y-79929765D01*
X70406237Y-79929767D01*
X70604166Y-79989808D01*
X70709998Y-80000231D01*
X70710000Y-80000230D01*
X70710000Y-79445842D01*
X70744174Y-79455000D01*
X70875826Y-79455000D01*
X70910000Y-79445842D01*
X70910000Y-80000230D01*
X70910001Y-80000231D01*
X71015833Y-79989808D01*
X71213762Y-79929767D01*
X71213767Y-79929765D01*
X71396160Y-79832275D01*
X71396170Y-79832268D01*
X71556050Y-79701059D01*
X71556059Y-79701050D01*
X71687268Y-79541170D01*
X71687275Y-79541160D01*
X71784765Y-79358767D01*
X71784767Y-79358762D01*
X71844808Y-79160836D01*
X71844809Y-79160831D01*
X71855232Y-79055000D01*
X71300843Y-79055000D01*
X71310000Y-79020826D01*
X71310000Y-78889174D01*
X71300843Y-78855000D01*
X71855232Y-78855000D01*
X71855232Y-78854999D01*
X71844809Y-78749168D01*
X71844808Y-78749163D01*
X71784767Y-78551237D01*
X71784765Y-78551232D01*
X71687275Y-78368839D01*
X71687268Y-78368829D01*
X71556059Y-78208949D01*
X71556050Y-78208940D01*
X71491576Y-78156028D01*
X71458589Y-78104497D01*
X71462191Y-78043418D01*
X71501006Y-77996121D01*
X71554381Y-77980500D01*
X73294073Y-77980500D01*
X73352264Y-77999407D01*
X73364077Y-78009496D01*
X78365077Y-83010496D01*
X78392854Y-83065013D01*
X78383283Y-83125445D01*
X78340018Y-83168710D01*
X78295073Y-83179500D01*
X68073540Y-83179500D01*
X68066477Y-83179248D01*
X67863662Y-83164742D01*
X67849681Y-83162732D01*
X67654457Y-83120264D01*
X67640904Y-83116284D01*
X67453715Y-83046466D01*
X67440875Y-83040602D01*
X67265525Y-82944854D01*
X67253643Y-82937218D01*
X67093709Y-82817493D01*
X67083033Y-82808243D01*
X66941756Y-82666966D01*
X66932506Y-82656290D01*
X66812781Y-82496356D01*
X66805145Y-82484474D01*
X66772815Y-82425266D01*
X66709394Y-82309118D01*
X66703537Y-82296292D01*
X66633713Y-82109088D01*
X66629737Y-82095549D01*
X66587265Y-81900308D01*
X66585258Y-81886345D01*
X66570752Y-81683522D01*
X66570500Y-81676460D01*
X66570500Y-78854999D01*
X67224767Y-78854999D01*
X67224768Y-78855000D01*
X67779157Y-78855000D01*
X67770000Y-78889174D01*
X67770000Y-79020826D01*
X67779157Y-79055000D01*
X67224767Y-79055000D01*
X67235190Y-79160831D01*
X67235191Y-79160836D01*
X67295232Y-79358762D01*
X67295234Y-79358767D01*
X67392724Y-79541160D01*
X67392731Y-79541170D01*
X67523940Y-79701050D01*
X67523949Y-79701059D01*
X67683829Y-79832268D01*
X67683839Y-79832275D01*
X67866232Y-79929765D01*
X67866237Y-79929767D01*
X68064166Y-79989808D01*
X68169998Y-80000231D01*
X68170000Y-80000230D01*
X68170000Y-79445842D01*
X68204174Y-79455000D01*
X68335826Y-79455000D01*
X68370000Y-79445842D01*
X68370000Y-80000230D01*
X68370001Y-80000231D01*
X68475833Y-79989808D01*
X68673762Y-79929767D01*
X68673767Y-79929765D01*
X68856160Y-79832275D01*
X68856170Y-79832268D01*
X69016050Y-79701059D01*
X69016059Y-79701050D01*
X69147268Y-79541170D01*
X69147275Y-79541160D01*
X69244765Y-79358767D01*
X69244767Y-79358762D01*
X69304808Y-79160836D01*
X69304809Y-79160831D01*
X69315232Y-79055000D01*
X68760843Y-79055000D01*
X68770000Y-79020826D01*
X68770000Y-78889174D01*
X68760843Y-78855000D01*
X69315232Y-78855000D01*
X69315232Y-78854999D01*
X69304809Y-78749168D01*
X69304808Y-78749163D01*
X69244767Y-78551237D01*
X69244765Y-78551232D01*
X69147275Y-78368839D01*
X69147268Y-78368829D01*
X69016059Y-78208949D01*
X69016050Y-78208940D01*
X68856170Y-78077731D01*
X68856160Y-78077724D01*
X68673767Y-77980234D01*
X68673762Y-77980232D01*
X68475836Y-77920191D01*
X68475831Y-77920190D01*
X68370000Y-77909767D01*
X68370000Y-78464157D01*
X68335826Y-78455000D01*
X68204174Y-78455000D01*
X68170000Y-78464157D01*
X68170000Y-77909767D01*
X68169999Y-77909767D01*
X68064168Y-77920190D01*
X68064163Y-77920191D01*
X67866237Y-77980232D01*
X67866232Y-77980234D01*
X67683839Y-78077724D01*
X67683829Y-78077731D01*
X67523949Y-78208940D01*
X67523940Y-78208949D01*
X67392731Y-78368829D01*
X67392724Y-78368839D01*
X67295234Y-78551232D01*
X67295232Y-78551237D01*
X67235191Y-78749163D01*
X67235190Y-78749168D01*
X67224767Y-78854999D01*
X66570500Y-78854999D01*
X66570500Y-68319997D01*
X99644353Y-68319997D01*
X99644353Y-68320002D01*
X99664834Y-68462456D01*
X99719178Y-68581450D01*
X99724623Y-68593373D01*
X99818872Y-68702143D01*
X99818873Y-68702144D01*
X99873866Y-68737485D01*
X99939947Y-68779953D01*
X99962280Y-68786510D01*
X100004393Y-68811496D01*
X100373386Y-69180490D01*
X100476113Y-69239799D01*
X100500320Y-69246284D01*
X100500325Y-69246287D01*
X100500326Y-69246286D01*
X100590688Y-69270499D01*
X100590690Y-69270500D01*
X100590691Y-69270500D01*
X101909309Y-69270500D01*
X101999669Y-69246287D01*
X101999672Y-69246287D01*
X102012903Y-69242741D01*
X102023887Y-69239799D01*
X102126614Y-69180489D01*
X102952103Y-68355000D01*
X112390000Y-68355000D01*
X115630000Y-71570000D01*
X115630000Y-71569999D01*
X115630001Y-71570000D01*
X115829388Y-71569289D01*
X127999461Y-71525912D01*
X128057719Y-71544611D01*
X128069925Y-71555015D01*
X128594704Y-72081404D01*
X129670000Y-73160000D01*
X130640000Y-71940000D01*
X130639999Y-71939999D01*
X130640000Y-71939999D01*
X128870000Y-70155000D01*
X116448816Y-70155000D01*
X116390625Y-70136093D01*
X116381527Y-70128616D01*
X116337271Y-70087607D01*
X115422342Y-69239796D01*
X113851711Y-67784384D01*
X113821879Y-67730964D01*
X113820000Y-67711768D01*
X113820000Y-67079999D01*
X113445304Y-67073308D01*
X113387460Y-67053365D01*
X113372255Y-67039158D01*
X113371128Y-67037857D01*
X113342981Y-67019768D01*
X113250057Y-66960049D01*
X113250054Y-66960047D01*
X113250053Y-66960047D01*
X113250050Y-66960046D01*
X113111964Y-66919500D01*
X113111961Y-66919500D01*
X112968039Y-66919500D01*
X112968035Y-66919500D01*
X112829949Y-66960046D01*
X112829942Y-66960049D01*
X112702915Y-67041685D01*
X112701479Y-67039451D01*
X112655950Y-67058684D01*
X112645726Y-67059030D01*
X112420000Y-67054999D01*
X112390335Y-68340504D01*
X112390000Y-68355000D01*
X102952103Y-68355000D01*
X105777607Y-65529496D01*
X105832124Y-65501719D01*
X105847611Y-65500500D01*
X106839970Y-65500500D01*
X106930330Y-65476287D01*
X106930333Y-65476287D01*
X106943564Y-65472741D01*
X106954548Y-65469799D01*
X107042801Y-65418845D01*
X107057270Y-65410492D01*
X107057270Y-65410491D01*
X107057275Y-65410489D01*
X108380489Y-64087275D01*
X108439799Y-63984548D01*
X108448785Y-63951011D01*
X108470500Y-63869970D01*
X108470500Y-63679897D01*
X108479446Y-63638771D01*
X108505165Y-63582457D01*
X108505165Y-63582455D01*
X108505166Y-63582454D01*
X108525647Y-63440002D01*
X108525647Y-63439997D01*
X108505165Y-63297543D01*
X108467197Y-63214406D01*
X108445377Y-63166627D01*
X108351128Y-63057857D01*
X108351127Y-63057856D01*
X108351126Y-63057855D01*
X108230057Y-62980049D01*
X108230054Y-62980047D01*
X108230053Y-62980047D01*
X108230050Y-62980046D01*
X108091964Y-62939500D01*
X108091961Y-62939500D01*
X107948039Y-62939500D01*
X107948035Y-62939500D01*
X107809949Y-62980046D01*
X107809942Y-62980049D01*
X107688873Y-63057855D01*
X107594622Y-63166628D01*
X107534834Y-63297543D01*
X107514353Y-63439997D01*
X107514353Y-63440002D01*
X107534833Y-63582453D01*
X107535597Y-63585053D01*
X107535532Y-63587312D01*
X107535842Y-63589466D01*
X107535469Y-63589519D01*
X107533848Y-63646213D01*
X107510610Y-63682945D01*
X106623054Y-64570503D01*
X106568537Y-64598281D01*
X106553050Y-64599500D01*
X105560691Y-64599500D01*
X105515508Y-64611606D01*
X105470325Y-64623713D01*
X105470324Y-64623712D01*
X105446112Y-64630201D01*
X105446109Y-64630202D01*
X105343390Y-64689507D01*
X101692393Y-68340504D01*
X101637876Y-68368281D01*
X101622389Y-68369500D01*
X100877612Y-68369500D01*
X100819421Y-68350593D01*
X100807608Y-68340504D01*
X100639823Y-68172719D01*
X100619774Y-68143841D01*
X100575378Y-68046629D01*
X100575377Y-68046628D01*
X100575377Y-68046627D01*
X100481128Y-67937857D01*
X100481127Y-67937856D01*
X100481126Y-67937855D01*
X100360057Y-67860049D01*
X100360054Y-67860047D01*
X100360053Y-67860047D01*
X100360050Y-67860046D01*
X100221964Y-67819500D01*
X100221961Y-67819500D01*
X100078039Y-67819500D01*
X100078035Y-67819500D01*
X99939949Y-67860046D01*
X99939942Y-67860049D01*
X99818873Y-67937855D01*
X99724622Y-68046628D01*
X99664834Y-68177543D01*
X99644353Y-68319997D01*
X66570500Y-68319997D01*
X66570500Y-63720000D01*
X69201280Y-63720000D01*
X69710960Y-63720000D01*
X69700040Y-63760755D01*
X69700040Y-63879245D01*
X69710960Y-63920000D01*
X69201281Y-63920000D01*
X69236508Y-64097104D01*
X69236508Y-64097106D01*
X69308118Y-64269989D01*
X69308124Y-64270001D01*
X69412087Y-64425589D01*
X69412090Y-64425593D01*
X69544406Y-64557909D01*
X69544410Y-64557912D01*
X69699998Y-64661875D01*
X69700010Y-64661881D01*
X69872894Y-64733491D01*
X70056430Y-64769999D01*
X70056434Y-64770000D01*
X70649999Y-64770000D01*
X70650000Y-64769999D01*
X70650000Y-64270012D01*
X70850000Y-64270012D01*
X70850000Y-64769999D01*
X70850001Y-64770000D01*
X71443566Y-64770000D01*
X71443569Y-64769999D01*
X71627104Y-64733491D01*
X71627106Y-64733491D01*
X71799989Y-64661881D01*
X71800001Y-64661875D01*
X71955589Y-64557912D01*
X71955593Y-64557909D01*
X72087909Y-64425593D01*
X72087912Y-64425589D01*
X72191875Y-64270001D01*
X72191881Y-64269989D01*
X72263491Y-64097106D01*
X72263491Y-64097104D01*
X72298719Y-63920000D01*
X71789040Y-63920000D01*
X71799960Y-63879245D01*
X71799960Y-63760755D01*
X71790750Y-63726381D01*
X74859500Y-63726381D01*
X74859500Y-63913618D01*
X74896026Y-64097249D01*
X74967677Y-64270229D01*
X74967681Y-64270238D01*
X75038770Y-64376628D01*
X75071698Y-64425908D01*
X75204092Y-64558302D01*
X75263925Y-64598281D01*
X75359761Y-64662318D01*
X75359767Y-64662320D01*
X75359769Y-64662322D01*
X75532749Y-64733973D01*
X75716384Y-64770500D01*
X75716385Y-64770500D01*
X77703615Y-64770500D01*
X77703616Y-64770500D01*
X77887251Y-64733973D01*
X78060231Y-64662322D01*
X78060234Y-64662319D01*
X78060238Y-64662318D01*
X78078677Y-64649997D01*
X95690300Y-64649997D01*
X95690300Y-64650002D01*
X95710781Y-64792456D01*
X95759590Y-64899331D01*
X95770570Y-64923373D01*
X95817512Y-64977547D01*
X95864820Y-65032144D01*
X95894234Y-65051047D01*
X95985894Y-65109953D01*
X96069270Y-65134434D01*
X96123982Y-65150499D01*
X96123983Y-65150499D01*
X96123986Y-65150500D01*
X96123988Y-65150500D01*
X96267906Y-65150500D01*
X96267908Y-65150500D01*
X96406000Y-65109953D01*
X96527075Y-65032143D01*
X96621324Y-64923373D01*
X96681112Y-64792457D01*
X96691027Y-64723496D01*
X96701594Y-64650002D01*
X96701594Y-64649997D01*
X96681112Y-64507543D01*
X96643830Y-64425908D01*
X96621324Y-64376627D01*
X96527075Y-64267857D01*
X96527074Y-64267856D01*
X96522438Y-64262506D01*
X96524471Y-64260743D01*
X96499014Y-64218505D01*
X96496447Y-64196105D01*
X96496447Y-64028874D01*
X96515354Y-63970683D01*
X96564854Y-63934719D01*
X96623335Y-63933884D01*
X96748039Y-63970500D01*
X96748041Y-63970500D01*
X96891959Y-63970500D01*
X96891961Y-63970500D01*
X97030053Y-63929953D01*
X97151128Y-63852143D01*
X97179514Y-63819382D01*
X97231907Y-63787788D01*
X97292868Y-63793023D01*
X97329150Y-63819382D01*
X97341171Y-63833255D01*
X97348873Y-63842144D01*
X97469942Y-63919950D01*
X97469947Y-63919953D01*
X97573301Y-63950300D01*
X97608035Y-63960499D01*
X97608036Y-63960499D01*
X97608039Y-63960500D01*
X97608041Y-63960500D01*
X97751959Y-63960500D01*
X97751961Y-63960500D01*
X97890053Y-63919953D01*
X98011128Y-63842143D01*
X98105377Y-63733373D01*
X98146037Y-63644340D01*
X98187407Y-63599265D01*
X98247374Y-63587114D01*
X98303030Y-63612532D01*
X98310908Y-63620638D01*
X98398803Y-63722074D01*
X98398802Y-63722074D01*
X98403047Y-63724802D01*
X98441778Y-63772169D01*
X98445270Y-63833255D01*
X98412190Y-63884727D01*
X98400107Y-63892251D01*
X98400336Y-63892608D01*
X98273306Y-63974244D01*
X98179055Y-64083017D01*
X98119267Y-64213932D01*
X98098786Y-64356386D01*
X98098786Y-64356391D01*
X98119267Y-64498845D01*
X98174369Y-64619500D01*
X98179056Y-64629762D01*
X98268937Y-64733491D01*
X98273306Y-64738533D01*
X98357214Y-64792457D01*
X98394380Y-64816342D01*
X98497522Y-64846627D01*
X98532468Y-64856888D01*
X98532469Y-64856888D01*
X98532472Y-64856889D01*
X98532474Y-64856889D01*
X98568013Y-64856889D01*
X98626204Y-64875796D01*
X98662168Y-64925296D01*
X98662817Y-64970099D01*
X98665842Y-64970534D01*
X98644353Y-65119997D01*
X98644353Y-65120002D01*
X98664834Y-65262456D01*
X98724622Y-65393371D01*
X98724623Y-65393373D01*
X98790846Y-65469799D01*
X98818873Y-65502144D01*
X98861434Y-65529496D01*
X98939947Y-65579953D01*
X99046403Y-65611211D01*
X99078035Y-65620499D01*
X99078036Y-65620499D01*
X99078039Y-65620500D01*
X99078041Y-65620500D01*
X99221959Y-65620500D01*
X99221961Y-65620500D01*
X99360053Y-65579953D01*
X99481128Y-65502143D01*
X99575377Y-65393373D01*
X99635165Y-65262457D01*
X99647742Y-65174979D01*
X99655647Y-65120002D01*
X99655647Y-65119997D01*
X99635166Y-64977547D01*
X99635164Y-64977539D01*
X99599447Y-64899331D01*
X99590500Y-64858205D01*
X99590500Y-64829997D01*
X100014353Y-64829997D01*
X100014353Y-64830002D01*
X100034834Y-64972456D01*
X100062093Y-65032143D01*
X100094623Y-65103373D01*
X100188872Y-65212143D01*
X100188873Y-65212144D01*
X100267162Y-65262457D01*
X100309947Y-65289953D01*
X100416403Y-65321211D01*
X100448035Y-65330499D01*
X100448036Y-65330499D01*
X100448039Y-65330500D01*
X100448041Y-65330500D01*
X100591959Y-65330500D01*
X100591961Y-65330500D01*
X100730053Y-65289953D01*
X100793668Y-65249070D01*
X100813670Y-65236216D01*
X100867193Y-65220500D01*
X101833563Y-65220500D01*
X101833563Y-65220499D01*
X101909989Y-65200021D01*
X101978511Y-65160460D01*
X102034460Y-65104511D01*
X102415475Y-64723496D01*
X102469992Y-64695719D01*
X102485479Y-64694500D01*
X103732907Y-64694500D01*
X103732907Y-64694499D01*
X103809333Y-64674021D01*
X103877855Y-64634460D01*
X103933804Y-64578511D01*
X104757819Y-63754496D01*
X104812336Y-63726719D01*
X104827823Y-63725500D01*
X105836803Y-63725500D01*
X105836803Y-63725499D01*
X105913229Y-63705021D01*
X105981751Y-63665460D01*
X106037700Y-63609511D01*
X107427214Y-62219997D01*
X116524353Y-62219997D01*
X116524353Y-62220002D01*
X116544834Y-62362456D01*
X116604622Y-62493371D01*
X116604623Y-62493373D01*
X116681164Y-62581707D01*
X116698873Y-62602144D01*
X116758759Y-62640630D01*
X116819947Y-62679953D01*
X116919095Y-62709065D01*
X116958035Y-62720499D01*
X116958036Y-62720499D01*
X116958039Y-62720500D01*
X116958041Y-62720500D01*
X117101959Y-62720500D01*
X117101961Y-62720500D01*
X117240053Y-62679953D01*
X117361128Y-62602143D01*
X117455377Y-62493373D01*
X117515165Y-62362457D01*
X117521992Y-62314971D01*
X117535647Y-62220002D01*
X117535647Y-62219998D01*
X117532558Y-62198516D01*
X117542991Y-62138227D01*
X117560543Y-62114426D01*
X117775475Y-61899496D01*
X117829991Y-61871719D01*
X117845478Y-61870500D01*
X121446008Y-61870500D01*
X121504199Y-61889407D01*
X121516012Y-61899496D01*
X121639215Y-62022699D01*
X121666992Y-62077216D01*
X121667203Y-62106789D01*
X121665624Y-62117783D01*
X121664115Y-62128277D01*
X121684596Y-62270731D01*
X121726235Y-62361905D01*
X121744385Y-62401648D01*
X121807926Y-62474979D01*
X121838634Y-62510418D01*
X121907365Y-62554589D01*
X121959709Y-62588228D01*
X122066165Y-62619486D01*
X122097797Y-62628774D01*
X122097798Y-62628774D01*
X122097801Y-62628775D01*
X122097803Y-62628775D01*
X122241721Y-62628775D01*
X122241723Y-62628775D01*
X122379815Y-62588228D01*
X122500890Y-62510418D01*
X122595139Y-62401648D01*
X122654927Y-62270732D01*
X122669613Y-62168590D01*
X122675409Y-62128277D01*
X122675409Y-62128275D01*
X122672320Y-62106793D01*
X122682752Y-62046503D01*
X122700309Y-62022698D01*
X123343513Y-61379496D01*
X123398029Y-61351719D01*
X123413516Y-61350500D01*
X129009563Y-61350500D01*
X129009563Y-61350499D01*
X129085989Y-61330021D01*
X129154511Y-61290460D01*
X129210460Y-61234511D01*
X129715474Y-60729495D01*
X129769991Y-60701719D01*
X129785478Y-60700500D01*
X129891959Y-60700500D01*
X129891961Y-60700500D01*
X130030053Y-60659953D01*
X130151128Y-60582143D01*
X130245377Y-60473373D01*
X130305165Y-60342457D01*
X130322558Y-60221483D01*
X130325647Y-60200002D01*
X130325647Y-60199997D01*
X130305165Y-60057543D01*
X130279116Y-60000504D01*
X130245377Y-59926627D01*
X130151128Y-59817857D01*
X130151127Y-59817856D01*
X130151126Y-59817855D01*
X130030057Y-59740049D01*
X130030054Y-59740047D01*
X130030053Y-59740047D01*
X130030050Y-59740046D01*
X129891964Y-59699500D01*
X129891961Y-59699500D01*
X129748039Y-59699500D01*
X129748035Y-59699500D01*
X129609949Y-59740046D01*
X129609942Y-59740049D01*
X129488873Y-59817855D01*
X129394622Y-59926628D01*
X129334834Y-60057543D01*
X129314353Y-60199996D01*
X129314353Y-60199997D01*
X129314353Y-60200000D01*
X129315863Y-60210500D01*
X129317442Y-60221483D01*
X129307007Y-60281772D01*
X129289453Y-60305574D01*
X128874526Y-60720503D01*
X128820009Y-60748281D01*
X128804522Y-60749500D01*
X123208472Y-60749500D01*
X123132048Y-60769978D01*
X123077785Y-60801308D01*
X123077781Y-60801310D01*
X123063528Y-60809538D01*
X123063526Y-60809539D01*
X122274285Y-61598779D01*
X122219769Y-61626556D01*
X122204282Y-61627775D01*
X122135241Y-61627775D01*
X122077050Y-61608868D01*
X122065238Y-61598779D01*
X121796000Y-61329542D01*
X121795998Y-61329540D01*
X121765865Y-61312143D01*
X121765864Y-61312142D01*
X121765863Y-61312142D01*
X121727476Y-61289979D01*
X121727473Y-61289978D01*
X121651051Y-61269500D01*
X121651049Y-61269500D01*
X117640438Y-61269500D01*
X117640435Y-61269500D01*
X117564011Y-61289978D01*
X117542400Y-61302456D01*
X117525622Y-61312143D01*
X117495489Y-61329540D01*
X117495486Y-61329542D01*
X117134524Y-61690504D01*
X117080008Y-61718281D01*
X117064521Y-61719500D01*
X116958035Y-61719500D01*
X116819949Y-61760046D01*
X116819942Y-61760049D01*
X116698873Y-61837855D01*
X116604622Y-61946628D01*
X116544834Y-62077543D01*
X116524353Y-62219997D01*
X107427214Y-62219997D01*
X109417715Y-60229496D01*
X109472232Y-60201719D01*
X109487719Y-60200500D01*
X122709563Y-60200500D01*
X122709563Y-60200499D01*
X122785989Y-60180021D01*
X122854511Y-60140460D01*
X122910460Y-60084511D01*
X126316769Y-56678200D01*
X126371284Y-56650425D01*
X126431716Y-56659996D01*
X126440285Y-56664916D01*
X126537182Y-56727188D01*
X126643638Y-56758446D01*
X126675270Y-56767734D01*
X126675271Y-56767734D01*
X126675274Y-56767735D01*
X126675276Y-56767735D01*
X126819194Y-56767735D01*
X126819196Y-56767735D01*
X126957288Y-56727188D01*
X127078363Y-56649378D01*
X127172612Y-56540608D01*
X127232400Y-56409692D01*
X127247656Y-56303582D01*
X127252882Y-56267237D01*
X127252882Y-56267232D01*
X127232400Y-56124778D01*
X127220105Y-56097857D01*
X127172612Y-55993862D01*
X127078363Y-55885092D01*
X127078362Y-55885091D01*
X127078361Y-55885090D01*
X126957292Y-55807284D01*
X126957289Y-55807282D01*
X126957288Y-55807282D01*
X126957285Y-55807281D01*
X126819199Y-55766735D01*
X126819196Y-55766735D01*
X126701677Y-55766735D01*
X126643486Y-55747828D01*
X126607522Y-55698328D01*
X126603685Y-55653644D01*
X126605647Y-55639999D01*
X126605647Y-55639997D01*
X126585165Y-55497543D01*
X126543363Y-55406011D01*
X126525377Y-55366627D01*
X126431128Y-55257857D01*
X126431127Y-55257856D01*
X126431126Y-55257855D01*
X126310057Y-55180049D01*
X126310054Y-55180047D01*
X126310053Y-55180047D01*
X126310050Y-55180046D01*
X126171964Y-55139500D01*
X126171961Y-55139500D01*
X126028039Y-55139500D01*
X126028035Y-55139500D01*
X125889949Y-55180046D01*
X125889942Y-55180049D01*
X125768873Y-55257855D01*
X125674620Y-55366630D01*
X125670793Y-55372586D01*
X125668957Y-55371406D01*
X125634511Y-55408934D01*
X125574543Y-55421080D01*
X125532315Y-55406011D01*
X125530053Y-55404558D01*
X125530050Y-55404557D01*
X125391964Y-55364011D01*
X125391961Y-55364011D01*
X125248039Y-55364011D01*
X125248035Y-55364011D01*
X125109949Y-55404557D01*
X125109942Y-55404560D01*
X124988873Y-55482366D01*
X124894622Y-55591139D01*
X124834834Y-55722054D01*
X124814353Y-55864508D01*
X124814353Y-55864513D01*
X124834834Y-56006967D01*
X124894623Y-56137884D01*
X124921366Y-56168749D01*
X124945182Y-56225109D01*
X124931322Y-56284704D01*
X124916549Y-56303582D01*
X124832346Y-56387785D01*
X124777829Y-56415562D01*
X124717397Y-56405991D01*
X124674132Y-56362726D01*
X124668205Y-56344031D01*
X124667161Y-56344338D01*
X124665166Y-56337544D01*
X124623125Y-56245489D01*
X124605377Y-56206627D01*
X124511128Y-56097857D01*
X124511127Y-56097856D01*
X124511126Y-56097855D01*
X124390057Y-56020049D01*
X124390054Y-56020047D01*
X124390053Y-56020047D01*
X124390050Y-56020046D01*
X124251964Y-55979500D01*
X124251961Y-55979500D01*
X124108039Y-55979500D01*
X124108035Y-55979500D01*
X123969949Y-56020046D01*
X123969942Y-56020049D01*
X123848873Y-56097855D01*
X123754622Y-56206628D01*
X123694834Y-56337543D01*
X123691580Y-56360175D01*
X123664583Y-56415082D01*
X123610468Y-56443634D01*
X123565697Y-56441074D01*
X123477699Y-56415235D01*
X123477696Y-56415235D01*
X123333774Y-56415235D01*
X123333770Y-56415235D01*
X123228710Y-56446084D01*
X123167550Y-56444336D01*
X123119097Y-56406974D01*
X123110768Y-56392226D01*
X123085377Y-56336627D01*
X122991128Y-56227857D01*
X122991127Y-56227856D01*
X122991126Y-56227855D01*
X122870057Y-56150049D01*
X122870054Y-56150047D01*
X122870053Y-56150047D01*
X122870050Y-56150046D01*
X122731964Y-56109500D01*
X122731961Y-56109500D01*
X122588039Y-56109500D01*
X122588035Y-56109500D01*
X122449949Y-56150046D01*
X122449942Y-56150049D01*
X122328873Y-56227855D01*
X122234622Y-56336628D01*
X122174834Y-56467543D01*
X122154353Y-56609997D01*
X122154353Y-56610002D01*
X122174834Y-56752456D01*
X122226002Y-56864496D01*
X122234623Y-56883373D01*
X122251598Y-56902963D01*
X122275415Y-56959320D01*
X122261557Y-57018916D01*
X122246782Y-57037796D01*
X121349077Y-57935503D01*
X121294560Y-57963281D01*
X121279073Y-57964500D01*
X108605435Y-57964500D01*
X108529012Y-57984978D01*
X108467556Y-58020460D01*
X108467555Y-58020460D01*
X108460492Y-58024537D01*
X105024525Y-61460504D01*
X104970008Y-61488281D01*
X104954521Y-61489500D01*
X103607083Y-61489500D01*
X103548892Y-61470593D01*
X103532264Y-61455331D01*
X103491128Y-61407857D01*
X103446997Y-61379496D01*
X103370057Y-61330049D01*
X103370054Y-61330047D01*
X103370053Y-61330047D01*
X103370050Y-61330046D01*
X103231964Y-61289500D01*
X103231961Y-61289500D01*
X103088039Y-61289500D01*
X103088035Y-61289500D01*
X102949949Y-61330046D01*
X102949942Y-61330049D01*
X102828873Y-61407855D01*
X102734622Y-61516628D01*
X102674834Y-61647543D01*
X102654353Y-61789997D01*
X102654353Y-61790002D01*
X102674834Y-61932456D01*
X102701459Y-61990755D01*
X102708434Y-62051542D01*
X102678348Y-62104819D01*
X102658796Y-62117783D01*
X102658888Y-62117926D01*
X102531858Y-62199562D01*
X102437607Y-62308335D01*
X102377819Y-62439250D01*
X102361236Y-62554589D01*
X102334240Y-62609497D01*
X102280126Y-62638050D01*
X102263244Y-62639500D01*
X102218035Y-62639500D01*
X102079949Y-62680046D01*
X102079942Y-62680049D01*
X101958873Y-62757855D01*
X101864622Y-62866628D01*
X101804834Y-62997543D01*
X101795195Y-63064589D01*
X101768200Y-63119496D01*
X101714085Y-63148050D01*
X101697203Y-63149500D01*
X101588035Y-63149500D01*
X101449949Y-63190046D01*
X101449942Y-63190049D01*
X101328873Y-63267855D01*
X101234622Y-63376628D01*
X101174834Y-63507543D01*
X101169255Y-63546346D01*
X101142258Y-63601253D01*
X101088144Y-63629806D01*
X101057183Y-63630250D01*
X101051963Y-63629500D01*
X101051961Y-63629500D01*
X100908039Y-63629500D01*
X100908035Y-63629500D01*
X100769949Y-63670046D01*
X100769942Y-63670049D01*
X100648873Y-63747855D01*
X100554622Y-63856628D01*
X100494834Y-63987543D01*
X100474353Y-64129997D01*
X100474353Y-64130004D01*
X100488599Y-64229095D01*
X100478165Y-64289384D01*
X100434287Y-64332026D01*
X100418499Y-64338173D01*
X100309947Y-64370047D01*
X100309942Y-64370049D01*
X100188873Y-64447855D01*
X100094622Y-64556628D01*
X100034834Y-64687543D01*
X100014353Y-64829997D01*
X99590500Y-64829997D01*
X99590500Y-64415478D01*
X99609407Y-64357287D01*
X99619490Y-64345480D01*
X99997460Y-63967511D01*
X100001508Y-63960500D01*
X100037020Y-63898992D01*
X100037020Y-63898990D01*
X100037022Y-63898988D01*
X100057500Y-63822562D01*
X100057500Y-63743438D01*
X100057500Y-62162190D01*
X100076407Y-62103999D01*
X100086496Y-62092186D01*
X100460401Y-61718281D01*
X100886137Y-61292544D01*
X100940652Y-61264769D01*
X101001084Y-61274340D01*
X101044349Y-61317605D01*
X101054131Y-61348461D01*
X101074834Y-61492456D01*
X101109550Y-61568472D01*
X101134623Y-61623373D01*
X101192792Y-61690504D01*
X101228873Y-61732144D01*
X101349942Y-61809950D01*
X101349947Y-61809953D01*
X101456403Y-61841211D01*
X101488035Y-61850499D01*
X101488036Y-61850499D01*
X101488039Y-61850500D01*
X101488041Y-61850500D01*
X101631959Y-61850500D01*
X101631961Y-61850500D01*
X101770053Y-61809953D01*
X101891128Y-61732143D01*
X101985377Y-61623373D01*
X102045165Y-61492457D01*
X102045165Y-61492453D01*
X102046586Y-61489343D01*
X102066634Y-61460468D01*
X102305608Y-61221496D01*
X102360124Y-61193719D01*
X102375611Y-61192500D01*
X102684127Y-61192500D01*
X102684129Y-61192500D01*
X102783073Y-61165988D01*
X102798707Y-61161799D01*
X102798709Y-61161797D01*
X102798711Y-61161797D01*
X102901429Y-61102492D01*
X102901429Y-61102491D01*
X102901434Y-61102489D01*
X103814427Y-60189496D01*
X103868944Y-60161719D01*
X103884431Y-60160500D01*
X104097712Y-60160500D01*
X104133083Y-60168195D01*
X104133153Y-60167958D01*
X104136468Y-60168931D01*
X104138838Y-60169447D01*
X104139943Y-60169951D01*
X104139944Y-60169951D01*
X104139947Y-60169953D01*
X104243982Y-60200500D01*
X104278035Y-60210499D01*
X104278036Y-60210499D01*
X104278039Y-60210500D01*
X104278041Y-60210500D01*
X104421959Y-60210500D01*
X104421961Y-60210500D01*
X104560053Y-60169953D01*
X104681128Y-60092143D01*
X104775377Y-59983373D01*
X104835165Y-59852457D01*
X104850204Y-59747857D01*
X104855647Y-59710002D01*
X104855647Y-59709997D01*
X104835165Y-59567543D01*
X104803093Y-59497316D01*
X104775377Y-59436627D01*
X104681128Y-59327857D01*
X104681127Y-59327856D01*
X104681126Y-59327855D01*
X104560057Y-59250049D01*
X104560054Y-59250047D01*
X104560053Y-59250047D01*
X104560050Y-59250046D01*
X104421964Y-59209500D01*
X104421961Y-59209500D01*
X104278039Y-59209500D01*
X104278035Y-59209500D01*
X104139943Y-59250048D01*
X104138838Y-59250553D01*
X104136468Y-59251068D01*
X104133153Y-59252042D01*
X104133083Y-59251804D01*
X104097712Y-59259500D01*
X104096719Y-59259500D01*
X104038528Y-59240593D01*
X104002564Y-59191093D01*
X104002564Y-59129907D01*
X104026715Y-59090496D01*
X106252715Y-56864496D01*
X106307232Y-56836719D01*
X106322719Y-56835500D01*
X108427922Y-56835500D01*
X108486113Y-56854407D01*
X108522077Y-56903907D01*
X108525914Y-56920412D01*
X108534834Y-56982455D01*
X108589962Y-57103166D01*
X108594623Y-57113373D01*
X108650728Y-57178122D01*
X108688873Y-57222144D01*
X108809942Y-57299950D01*
X108809947Y-57299953D01*
X108913978Y-57330499D01*
X108948035Y-57340499D01*
X108948036Y-57340499D01*
X108948039Y-57340500D01*
X108948041Y-57340500D01*
X109091959Y-57340500D01*
X109091961Y-57340500D01*
X109230053Y-57299953D01*
X109351128Y-57222143D01*
X109395181Y-57171302D01*
X109447576Y-57139707D01*
X109508537Y-57144942D01*
X109544817Y-57171301D01*
X109580206Y-57212142D01*
X109588873Y-57222144D01*
X109709942Y-57299950D01*
X109709947Y-57299953D01*
X109813978Y-57330499D01*
X109848035Y-57340499D01*
X109848036Y-57340499D01*
X109848039Y-57340500D01*
X109848041Y-57340500D01*
X109991959Y-57340500D01*
X109991961Y-57340500D01*
X110130053Y-57299953D01*
X110251128Y-57222143D01*
X110299512Y-57166303D01*
X110351908Y-57134707D01*
X110412869Y-57139942D01*
X110449151Y-57166303D01*
X110488870Y-57212141D01*
X110488872Y-57212143D01*
X110609947Y-57289953D01*
X110716403Y-57321211D01*
X110748035Y-57330499D01*
X110748036Y-57330499D01*
X110748039Y-57330500D01*
X110748041Y-57330500D01*
X110891959Y-57330500D01*
X110891961Y-57330500D01*
X111030053Y-57289953D01*
X111151128Y-57212143D01*
X111218178Y-57134762D01*
X111270573Y-57103166D01*
X111331534Y-57108401D01*
X111367815Y-57134760D01*
X111391541Y-57162142D01*
X111408873Y-57182144D01*
X111498826Y-57239953D01*
X111529947Y-57259953D01*
X111632109Y-57289950D01*
X111668035Y-57300499D01*
X111668036Y-57300499D01*
X111668039Y-57300500D01*
X111668041Y-57300500D01*
X111811959Y-57300500D01*
X111811961Y-57300500D01*
X111950053Y-57259953D01*
X112071128Y-57182143D01*
X112113846Y-57132842D01*
X112166238Y-57101247D01*
X112227199Y-57106482D01*
X112263483Y-57132843D01*
X112288870Y-57162142D01*
X112288872Y-57162143D01*
X112382235Y-57222144D01*
X112409947Y-57239953D01*
X112478062Y-57259953D01*
X112548035Y-57280499D01*
X112548036Y-57280499D01*
X112548039Y-57280500D01*
X112548041Y-57280500D01*
X112691959Y-57280500D01*
X112691961Y-57280500D01*
X112830053Y-57239953D01*
X112951128Y-57162143D01*
X112953311Y-57159623D01*
X112955696Y-57158184D01*
X112956481Y-57157505D01*
X112956598Y-57157640D01*
X113005704Y-57128025D01*
X113066665Y-57133257D01*
X113102951Y-57159620D01*
X113106871Y-57164144D01*
X113134880Y-57182144D01*
X113224827Y-57239950D01*
X113227946Y-57241954D01*
X113334402Y-57273212D01*
X113366034Y-57282500D01*
X113366035Y-57282500D01*
X113366038Y-57282501D01*
X113366040Y-57282501D01*
X113509958Y-57282501D01*
X113509960Y-57282501D01*
X113648052Y-57241954D01*
X113769127Y-57164144D01*
X113863376Y-57055374D01*
X113923164Y-56924458D01*
X113942804Y-56787857D01*
X113943646Y-56782003D01*
X113943646Y-56781998D01*
X113923164Y-56639544D01*
X113909672Y-56610002D01*
X113863376Y-56508628D01*
X113769127Y-56399858D01*
X113769126Y-56399857D01*
X113764490Y-56394507D01*
X113766523Y-56392744D01*
X113741066Y-56350506D01*
X113738499Y-56328106D01*
X113738499Y-55498436D01*
X113738498Y-55498434D01*
X113718020Y-55422010D01*
X113718018Y-55422006D01*
X113678459Y-55353488D01*
X113622510Y-55297538D01*
X113622510Y-55297539D01*
X112984511Y-54659540D01*
X112984508Y-54659538D01*
X112967121Y-54649499D01*
X112967121Y-54649500D01*
X112915989Y-54619979D01*
X112915988Y-54619978D01*
X112915987Y-54619978D01*
X112839564Y-54599500D01*
X112839562Y-54599500D01*
X105289562Y-54599500D01*
X105210438Y-54599500D01*
X105163661Y-54612033D01*
X105134007Y-54619979D01*
X105065493Y-54659536D01*
X101424525Y-58300504D01*
X101370008Y-58328281D01*
X101354521Y-58329500D01*
X100851033Y-58329500D01*
X100771909Y-58329500D01*
X100725132Y-58342033D01*
X100695478Y-58349979D01*
X100626964Y-58389536D01*
X96011436Y-63005064D01*
X96011435Y-63005063D01*
X95955486Y-63061013D01*
X95915927Y-63129531D01*
X95915925Y-63129535D01*
X95895447Y-63205959D01*
X95895447Y-64196105D01*
X95876540Y-64254296D01*
X95869205Y-64262289D01*
X95869456Y-64262506D01*
X95864819Y-64267856D01*
X95864819Y-64267857D01*
X95809217Y-64332026D01*
X95770569Y-64376628D01*
X95710781Y-64507543D01*
X95690300Y-64649997D01*
X78078677Y-64649997D01*
X78108303Y-64630201D01*
X78215908Y-64558302D01*
X78348302Y-64425908D01*
X78422282Y-64315187D01*
X78452318Y-64270238D01*
X78452319Y-64270234D01*
X78452322Y-64270231D01*
X78523973Y-64097251D01*
X78560500Y-63913616D01*
X78560500Y-63726384D01*
X78523973Y-63542749D01*
X78477269Y-63429997D01*
X82044353Y-63429997D01*
X82044353Y-63430002D01*
X82064834Y-63572456D01*
X82109403Y-63670046D01*
X82124623Y-63703373D01*
X82210491Y-63802471D01*
X82218873Y-63812144D01*
X82323285Y-63879245D01*
X82339947Y-63889953D01*
X82420530Y-63913614D01*
X82478035Y-63930499D01*
X82478036Y-63930499D01*
X82478039Y-63930500D01*
X82478041Y-63930500D01*
X82621959Y-63930500D01*
X82621961Y-63930500D01*
X82760053Y-63889953D01*
X82881128Y-63812143D01*
X82881136Y-63812133D01*
X82885165Y-63808644D01*
X82941523Y-63784824D01*
X83001119Y-63798679D01*
X83014835Y-63808644D01*
X83018866Y-63812137D01*
X83018872Y-63812143D01*
X83139947Y-63889953D01*
X83220530Y-63913614D01*
X83278035Y-63930499D01*
X83278036Y-63930499D01*
X83278039Y-63930500D01*
X83278041Y-63930500D01*
X83421959Y-63930500D01*
X83421961Y-63930500D01*
X83560053Y-63889953D01*
X83681128Y-63812143D01*
X83775377Y-63703373D01*
X83835165Y-63572457D01*
X83855647Y-63430000D01*
X83847973Y-63376628D01*
X83835166Y-63287547D01*
X83835165Y-63287546D01*
X83835165Y-63287543D01*
X83816048Y-63245684D01*
X83809073Y-63184901D01*
X83836097Y-63134558D01*
X83991161Y-62979496D01*
X84045678Y-62951719D01*
X84061164Y-62950500D01*
X86122407Y-62950500D01*
X86122407Y-62950499D01*
X86198833Y-62930021D01*
X86267355Y-62890460D01*
X86323304Y-62834511D01*
X87068320Y-62089495D01*
X87122837Y-62061718D01*
X87138324Y-62060499D01*
X88098662Y-62060499D01*
X88156853Y-62079406D01*
X88188714Y-62118370D01*
X88241234Y-62233372D01*
X88323703Y-62328547D01*
X88335484Y-62342143D01*
X88428073Y-62401646D01*
X88456558Y-62419952D01*
X88563014Y-62451210D01*
X88594646Y-62460498D01*
X88594647Y-62460498D01*
X88594650Y-62460499D01*
X88594652Y-62460499D01*
X88738570Y-62460499D01*
X88738572Y-62460499D01*
X88876664Y-62419952D01*
X88997739Y-62342142D01*
X89091988Y-62233372D01*
X89151776Y-62102456D01*
X89165135Y-62009540D01*
X89172258Y-61960001D01*
X89172258Y-61959996D01*
X89151776Y-61817542D01*
X89139196Y-61789997D01*
X89091988Y-61686626D01*
X89038439Y-61624827D01*
X89014623Y-61568472D01*
X89028481Y-61508876D01*
X89038431Y-61495179D01*
X89091988Y-61433372D01*
X89151776Y-61302456D01*
X89171999Y-61161799D01*
X89172258Y-61160001D01*
X89172258Y-61159996D01*
X89151776Y-61017542D01*
X89111795Y-60929997D01*
X89091988Y-60886626D01*
X88997739Y-60777856D01*
X88997738Y-60777855D01*
X88997737Y-60777854D01*
X88876668Y-60700048D01*
X88876665Y-60700046D01*
X88876664Y-60700046D01*
X88875452Y-60699690D01*
X88738575Y-60659499D01*
X88738572Y-60659499D01*
X88594650Y-60659499D01*
X88594646Y-60659499D01*
X88456560Y-60700045D01*
X88456553Y-60700048D01*
X88335484Y-60777854D01*
X88242918Y-60884683D01*
X88241234Y-60886626D01*
X88188714Y-61001626D01*
X88147343Y-61046703D01*
X88098662Y-61059499D01*
X86767592Y-61059499D01*
X86691169Y-61079977D01*
X86631355Y-61114511D01*
X86631354Y-61114511D01*
X86622649Y-61119536D01*
X85821681Y-61920504D01*
X85767164Y-61948281D01*
X85751677Y-61949500D01*
X83690435Y-61949500D01*
X83614014Y-61969977D01*
X83614009Y-61969979D01*
X83562773Y-61999559D01*
X83562774Y-61999560D01*
X83545490Y-62009538D01*
X83545488Y-62009540D01*
X83030967Y-62524060D01*
X82991263Y-62546983D01*
X82991476Y-62547496D01*
X82987580Y-62549109D01*
X82986589Y-62549682D01*
X82985483Y-62549978D01*
X82985481Y-62549978D01*
X82945252Y-62573205D01*
X82930527Y-62581707D01*
X82922464Y-62586361D01*
X82916959Y-62589540D01*
X82605995Y-62900504D01*
X82551479Y-62928281D01*
X82535992Y-62929500D01*
X82478035Y-62929500D01*
X82339949Y-62970046D01*
X82339942Y-62970049D01*
X82218873Y-63047855D01*
X82124622Y-63156628D01*
X82064834Y-63287543D01*
X82044353Y-63429997D01*
X78477269Y-63429997D01*
X78452322Y-63369769D01*
X78452320Y-63369767D01*
X78452318Y-63369761D01*
X78392026Y-63279529D01*
X78348302Y-63214092D01*
X78215908Y-63081698D01*
X78165258Y-63047855D01*
X78060238Y-62977681D01*
X78060229Y-62977677D01*
X77887249Y-62906026D01*
X77703618Y-62869500D01*
X77703616Y-62869500D01*
X75716384Y-62869500D01*
X75716381Y-62869500D01*
X75532750Y-62906026D01*
X75359770Y-62977677D01*
X75359761Y-62977681D01*
X75204092Y-63081698D01*
X75204088Y-63081701D01*
X75071701Y-63214088D01*
X75071698Y-63214092D01*
X74967681Y-63369761D01*
X74967677Y-63369770D01*
X74896026Y-63542750D01*
X74859500Y-63726381D01*
X71790750Y-63726381D01*
X71789040Y-63720000D01*
X72298719Y-63720000D01*
X72263491Y-63542895D01*
X72263491Y-63542893D01*
X72191881Y-63370010D01*
X72191875Y-63369998D01*
X72087912Y-63214410D01*
X72087909Y-63214406D01*
X71955593Y-63082090D01*
X71955589Y-63082087D01*
X71800001Y-62978124D01*
X71799989Y-62978118D01*
X71627105Y-62906508D01*
X71443569Y-62870000D01*
X70850001Y-62870000D01*
X70850000Y-62870001D01*
X70850000Y-63369988D01*
X70650000Y-63369988D01*
X70650000Y-62870001D01*
X70649999Y-62870000D01*
X70056430Y-62870000D01*
X69872895Y-62906508D01*
X69872893Y-62906508D01*
X69700010Y-62978118D01*
X69699998Y-62978124D01*
X69544410Y-63082087D01*
X69544406Y-63082090D01*
X69412090Y-63214406D01*
X69412087Y-63214410D01*
X69308124Y-63369998D01*
X69308118Y-63370010D01*
X69236508Y-63542893D01*
X69236508Y-63542895D01*
X69201280Y-63720000D01*
X66570500Y-63720000D01*
X66570500Y-57169997D01*
X79046137Y-57169997D01*
X79046137Y-57170002D01*
X79066618Y-57312456D01*
X79126407Y-57443373D01*
X79179953Y-57505170D01*
X79203770Y-57561529D01*
X79189911Y-57621124D01*
X79179953Y-57634830D01*
X79126407Y-57696626D01*
X79066618Y-57827543D01*
X79046137Y-57969997D01*
X79046137Y-57970002D01*
X79066618Y-58112456D01*
X79122628Y-58235099D01*
X79126407Y-58243373D01*
X79175911Y-58300504D01*
X79220657Y-58352144D01*
X79341726Y-58429950D01*
X79341731Y-58429953D01*
X79448187Y-58461211D01*
X79479819Y-58470499D01*
X79479820Y-58470499D01*
X79479823Y-58470500D01*
X79479825Y-58470500D01*
X79623743Y-58470500D01*
X79623745Y-58470500D01*
X79694638Y-58449684D01*
X79755797Y-58451431D01*
X79804249Y-58488794D01*
X79821488Y-58547501D01*
X79820520Y-58558762D01*
X79804528Y-58669995D01*
X79804528Y-58670002D01*
X79825009Y-58812456D01*
X79884798Y-58943373D01*
X79938344Y-59005170D01*
X79962161Y-59061529D01*
X79948302Y-59121124D01*
X79938344Y-59134830D01*
X79884798Y-59196626D01*
X79825009Y-59327543D01*
X79804528Y-59469997D01*
X79804528Y-59470004D01*
X79811200Y-59516412D01*
X79800766Y-59576701D01*
X79756888Y-59619343D01*
X79720814Y-59627731D01*
X79720924Y-59628493D01*
X79713913Y-59629500D01*
X79575827Y-59670046D01*
X79575820Y-59670049D01*
X79454751Y-59747855D01*
X79360500Y-59856628D01*
X79300712Y-59987543D01*
X79280231Y-60129997D01*
X79280231Y-60130002D01*
X79300712Y-60272456D01*
X79360501Y-60403373D01*
X79414047Y-60465170D01*
X79437864Y-60521529D01*
X79424005Y-60581124D01*
X79414047Y-60594830D01*
X79360501Y-60656626D01*
X79300712Y-60787543D01*
X79280231Y-60929997D01*
X79280231Y-60930002D01*
X79300712Y-61072456D01*
X79343428Y-61165989D01*
X79360501Y-61203373D01*
X79403228Y-61252683D01*
X79454750Y-61312143D01*
X79559553Y-61379496D01*
X79575825Y-61389953D01*
X79645125Y-61410301D01*
X79713913Y-61430499D01*
X79713914Y-61430499D01*
X79713917Y-61430500D01*
X79713919Y-61430500D01*
X79857837Y-61430500D01*
X79857839Y-61430500D01*
X79995931Y-61389953D01*
X80117006Y-61312143D01*
X80211255Y-61203373D01*
X80263774Y-61088372D01*
X80305146Y-61043296D01*
X80353827Y-61030500D01*
X85679563Y-61030500D01*
X85679563Y-61030499D01*
X85755989Y-61010021D01*
X85824511Y-60970460D01*
X85880460Y-60914511D01*
X86835475Y-59959496D01*
X86889992Y-59931719D01*
X86905479Y-59930500D01*
X91612407Y-59930500D01*
X91612407Y-59930499D01*
X91688833Y-59910021D01*
X91757355Y-59870460D01*
X91813304Y-59814511D01*
X93172457Y-58455358D01*
X93187125Y-58429953D01*
X93212017Y-58386839D01*
X93212017Y-58386837D01*
X93212019Y-58386835D01*
X93232497Y-58310409D01*
X93232497Y-58231285D01*
X93232497Y-58017725D01*
X93251404Y-57959534D01*
X93300904Y-57923570D01*
X93303584Y-57922742D01*
X93342050Y-57911448D01*
X93463125Y-57833638D01*
X93557374Y-57724868D01*
X93617162Y-57593952D01*
X93637644Y-57451495D01*
X93636476Y-57443373D01*
X93617162Y-57309038D01*
X93604129Y-57280500D01*
X93557374Y-57178122D01*
X93463125Y-57069352D01*
X93463124Y-57069351D01*
X93463123Y-57069350D01*
X93342054Y-56991544D01*
X93342051Y-56991542D01*
X93342050Y-56991542D01*
X93342047Y-56991541D01*
X93203961Y-56950995D01*
X93203958Y-56950995D01*
X93060036Y-56950995D01*
X93060032Y-56950995D01*
X92921946Y-56991541D01*
X92921939Y-56991544D01*
X92800869Y-57069351D01*
X92796827Y-57072854D01*
X92740468Y-57096671D01*
X92680873Y-57082812D01*
X92667167Y-57072854D01*
X92663124Y-57069351D01*
X92542054Y-56991544D01*
X92542051Y-56991542D01*
X92542050Y-56991542D01*
X92542047Y-56991541D01*
X92403961Y-56950995D01*
X92403958Y-56950995D01*
X92260036Y-56950995D01*
X92260032Y-56950995D01*
X92121946Y-56991541D01*
X92121939Y-56991544D01*
X92000870Y-57069350D01*
X91906619Y-57178123D01*
X91846831Y-57309038D01*
X91826350Y-57451492D01*
X91826350Y-57451497D01*
X91846831Y-57593951D01*
X91906619Y-57724866D01*
X91906620Y-57724868D01*
X91995588Y-57827543D01*
X92000870Y-57833639D01*
X92127437Y-57914978D01*
X92166168Y-57962344D01*
X92169662Y-58023429D01*
X92143918Y-58068266D01*
X91311681Y-58900504D01*
X91257164Y-58928281D01*
X91241677Y-58929500D01*
X86530435Y-58929500D01*
X86454011Y-58949978D01*
X86454007Y-58949980D01*
X86395952Y-58983499D01*
X86395951Y-58983500D01*
X86385493Y-58989537D01*
X86385489Y-58989540D01*
X85374525Y-60000504D01*
X85320008Y-60028281D01*
X85304521Y-60029500D01*
X80702051Y-60029500D01*
X80643860Y-60010593D01*
X80607896Y-59961093D01*
X80607896Y-59899907D01*
X80637222Y-59855679D01*
X80641301Y-59852144D01*
X80641300Y-59852144D01*
X80641303Y-59852143D01*
X80735552Y-59743373D01*
X80788071Y-59628372D01*
X80829443Y-59583296D01*
X80878124Y-59570500D01*
X84738734Y-59570500D01*
X84738734Y-59570499D01*
X84815160Y-59550021D01*
X84883682Y-59510460D01*
X84939631Y-59454511D01*
X85780460Y-58613682D01*
X85805969Y-58569500D01*
X85820020Y-58545163D01*
X85820020Y-58545161D01*
X85820022Y-58545159D01*
X85840500Y-58468733D01*
X85840500Y-58389609D01*
X85840500Y-55666230D01*
X85859407Y-55608039D01*
X85908907Y-55572075D01*
X85911587Y-55571247D01*
X85950053Y-55559953D01*
X86071128Y-55482143D01*
X86165377Y-55373373D01*
X86225165Y-55242457D01*
X86245647Y-55100000D01*
X86242771Y-55080000D01*
X86225165Y-54957543D01*
X86165377Y-54826628D01*
X86165377Y-54826627D01*
X86071128Y-54717857D01*
X86071127Y-54717856D01*
X86071126Y-54717855D01*
X85950057Y-54640049D01*
X85950054Y-54640047D01*
X85950053Y-54640047D01*
X85950050Y-54640046D01*
X85811964Y-54599500D01*
X85811961Y-54599500D01*
X85668039Y-54599500D01*
X85668035Y-54599500D01*
X85529949Y-54640046D01*
X85529942Y-54640049D01*
X85408872Y-54717856D01*
X85404830Y-54721359D01*
X85348471Y-54745176D01*
X85288876Y-54731317D01*
X85275170Y-54721359D01*
X85271127Y-54717856D01*
X85150057Y-54640049D01*
X85150054Y-54640047D01*
X85150053Y-54640047D01*
X85150050Y-54640046D01*
X85011964Y-54599500D01*
X85011961Y-54599500D01*
X84868039Y-54599500D01*
X84868035Y-54599500D01*
X84729949Y-54640046D01*
X84729942Y-54640049D01*
X84608873Y-54717855D01*
X84514622Y-54826628D01*
X84454834Y-54957543D01*
X84434353Y-55099997D01*
X84434353Y-55100002D01*
X84454834Y-55242456D01*
X84514622Y-55373371D01*
X84514623Y-55373373D01*
X84556767Y-55422010D01*
X84608873Y-55482144D01*
X84729942Y-55559950D01*
X84729947Y-55559953D01*
X84768389Y-55571240D01*
X84818897Y-55605774D01*
X84839460Y-55663401D01*
X84839500Y-55666230D01*
X84839500Y-58098004D01*
X84820593Y-58156195D01*
X84810504Y-58168008D01*
X84438008Y-58540504D01*
X84383491Y-58568281D01*
X84368004Y-58569500D01*
X80878124Y-58569500D01*
X80819933Y-58550593D01*
X80788071Y-58511628D01*
X80735552Y-58396627D01*
X80641303Y-58287857D01*
X80641302Y-58287856D01*
X80641301Y-58287855D01*
X80602289Y-58262784D01*
X80563558Y-58215418D01*
X80560064Y-58154333D01*
X80593144Y-58102860D01*
X80650160Y-58080661D01*
X80655812Y-58080500D01*
X82172407Y-58080500D01*
X82172407Y-58080499D01*
X82248833Y-58060021D01*
X82317355Y-58020460D01*
X82373304Y-57964511D01*
X83590460Y-56747355D01*
X83590463Y-56747350D01*
X83630020Y-56678836D01*
X83630020Y-56678834D01*
X83630022Y-56678832D01*
X83650500Y-56602406D01*
X83650500Y-56523282D01*
X83650500Y-55646230D01*
X83669407Y-55588039D01*
X83718907Y-55552075D01*
X83721587Y-55551247D01*
X83760053Y-55539953D01*
X83881128Y-55462143D01*
X83975377Y-55353373D01*
X84035165Y-55222457D01*
X84052771Y-55100002D01*
X84055647Y-55080002D01*
X84055647Y-55079997D01*
X84035165Y-54937543D01*
X83984511Y-54826628D01*
X83975377Y-54806627D01*
X83881128Y-54697857D01*
X83881127Y-54697856D01*
X83881126Y-54697855D01*
X83760057Y-54620049D01*
X83760054Y-54620047D01*
X83760053Y-54620047D01*
X83760050Y-54620046D01*
X83621964Y-54579500D01*
X83621961Y-54579500D01*
X83478039Y-54579500D01*
X83478035Y-54579500D01*
X83339949Y-54620046D01*
X83339942Y-54620049D01*
X83218872Y-54697856D01*
X83214830Y-54701359D01*
X83158471Y-54725176D01*
X83098876Y-54711317D01*
X83085170Y-54701359D01*
X83081127Y-54697856D01*
X82960057Y-54620049D01*
X82960054Y-54620047D01*
X82960053Y-54620047D01*
X82960050Y-54620046D01*
X82821964Y-54579500D01*
X82821961Y-54579500D01*
X82678039Y-54579500D01*
X82678035Y-54579500D01*
X82539949Y-54620046D01*
X82539942Y-54620049D01*
X82418873Y-54697855D01*
X82324622Y-54806628D01*
X82264834Y-54937543D01*
X82244353Y-55079997D01*
X82244353Y-55080002D01*
X82264834Y-55222456D01*
X82299124Y-55297539D01*
X82324623Y-55353373D01*
X82384097Y-55422010D01*
X82418873Y-55462144D01*
X82525141Y-55530438D01*
X82539947Y-55539953D01*
X82578389Y-55551240D01*
X82628897Y-55585774D01*
X82649460Y-55643401D01*
X82649500Y-55646230D01*
X82649500Y-56231677D01*
X82630593Y-56289868D01*
X82620504Y-56301681D01*
X81871681Y-57050504D01*
X81817164Y-57078281D01*
X81801677Y-57079500D01*
X80509917Y-57079500D01*
X80484294Y-57076127D01*
X80474016Y-57073373D01*
X80459562Y-57069500D01*
X80459561Y-57069500D01*
X80119733Y-57069500D01*
X80061542Y-57050593D01*
X80029680Y-57011628D01*
X79977161Y-56896627D01*
X79882912Y-56787857D01*
X79882911Y-56787856D01*
X79882910Y-56787855D01*
X79761841Y-56710049D01*
X79761838Y-56710047D01*
X79761837Y-56710047D01*
X79761834Y-56710046D01*
X79623748Y-56669500D01*
X79623745Y-56669500D01*
X79479823Y-56669500D01*
X79479819Y-56669500D01*
X79341733Y-56710046D01*
X79341726Y-56710049D01*
X79220657Y-56787855D01*
X79126406Y-56896628D01*
X79066618Y-57027543D01*
X79046137Y-57169997D01*
X66570500Y-57169997D01*
X66570500Y-52849997D01*
X102854353Y-52849997D01*
X102854353Y-52850002D01*
X102874834Y-52992456D01*
X102923265Y-53098503D01*
X102934623Y-53123373D01*
X103007828Y-53207857D01*
X103028873Y-53232144D01*
X103149307Y-53309542D01*
X103149947Y-53309953D01*
X103255429Y-53340925D01*
X103288035Y-53350499D01*
X103288036Y-53350499D01*
X103288039Y-53350500D01*
X103288041Y-53350500D01*
X103431959Y-53350500D01*
X103431961Y-53350500D01*
X103570053Y-53309953D01*
X103570056Y-53309950D01*
X103571162Y-53309447D01*
X103573531Y-53308931D01*
X103576847Y-53307958D01*
X103576916Y-53308195D01*
X103612288Y-53300500D01*
X106572389Y-53300500D01*
X106630580Y-53319407D01*
X106642393Y-53329496D01*
X107050175Y-53737278D01*
X107070224Y-53766155D01*
X107113485Y-53860882D01*
X107114623Y-53863373D01*
X107194050Y-53955037D01*
X107208873Y-53972144D01*
X107329942Y-54049950D01*
X107329947Y-54049953D01*
X107436403Y-54081211D01*
X107468035Y-54090499D01*
X107468036Y-54090499D01*
X107468039Y-54090500D01*
X107468041Y-54090500D01*
X107611959Y-54090500D01*
X107611961Y-54090500D01*
X107750053Y-54049953D01*
X107871128Y-53972143D01*
X107965377Y-53863373D01*
X108025165Y-53732457D01*
X108031992Y-53684971D01*
X108045647Y-53590002D01*
X108045647Y-53589997D01*
X108025165Y-53447543D01*
X107980846Y-53350499D01*
X107965377Y-53316627D01*
X107871128Y-53207857D01*
X107871127Y-53207856D01*
X107871126Y-53207855D01*
X107750057Y-53130049D01*
X107750054Y-53130048D01*
X107750053Y-53130047D01*
X107727717Y-53123488D01*
X107685606Y-53098503D01*
X107396277Y-52809174D01*
X107076614Y-52489511D01*
X107076611Y-52489509D01*
X107076610Y-52489508D01*
X107076609Y-52489507D01*
X106973890Y-52430202D01*
X106973886Y-52430200D01*
X106949673Y-52423712D01*
X106949673Y-52423713D01*
X106859309Y-52399500D01*
X106859307Y-52399500D01*
X103612288Y-52399500D01*
X103576916Y-52391804D01*
X103576847Y-52392042D01*
X103573531Y-52391068D01*
X103571162Y-52390553D01*
X103570056Y-52390048D01*
X103570049Y-52390046D01*
X103553605Y-52385217D01*
X103431964Y-52349500D01*
X103431961Y-52349500D01*
X103288039Y-52349500D01*
X103288035Y-52349500D01*
X103149949Y-52390046D01*
X103149942Y-52390049D01*
X103028873Y-52467855D01*
X102934622Y-52576628D01*
X102874834Y-52707543D01*
X102854353Y-52849997D01*
X66570500Y-52849997D01*
X66570500Y-49226381D01*
X69199500Y-49226381D01*
X69199500Y-49413618D01*
X69236026Y-49597249D01*
X69307677Y-49770229D01*
X69307681Y-49770238D01*
X69382065Y-49881559D01*
X69411698Y-49925908D01*
X69544092Y-50058302D01*
X69610463Y-50102649D01*
X69699761Y-50162318D01*
X69699767Y-50162320D01*
X69699769Y-50162322D01*
X69872749Y-50233973D01*
X70056384Y-50270500D01*
X70056385Y-50270500D01*
X71443615Y-50270500D01*
X71443616Y-50270500D01*
X71627251Y-50233973D01*
X71800231Y-50162322D01*
X71800234Y-50162319D01*
X71800238Y-50162318D01*
X71845187Y-50132282D01*
X71955908Y-50058302D01*
X72088302Y-49925908D01*
X72162282Y-49815187D01*
X72192318Y-49770238D01*
X72192319Y-49770234D01*
X72192322Y-49770231D01*
X72263973Y-49597251D01*
X72300500Y-49413616D01*
X72300500Y-49226384D01*
X72300499Y-49226381D01*
X74859500Y-49226381D01*
X74859500Y-49413618D01*
X74896026Y-49597249D01*
X74967677Y-49770229D01*
X74967681Y-49770238D01*
X75042065Y-49881559D01*
X75071698Y-49925908D01*
X75204092Y-50058302D01*
X75270463Y-50102649D01*
X75359761Y-50162318D01*
X75359767Y-50162320D01*
X75359769Y-50162322D01*
X75532749Y-50233973D01*
X75716384Y-50270500D01*
X75716385Y-50270500D01*
X77703615Y-50270500D01*
X77703616Y-50270500D01*
X77887251Y-50233973D01*
X78060231Y-50162322D01*
X78060234Y-50162319D01*
X78060238Y-50162318D01*
X78105187Y-50132282D01*
X78215908Y-50058302D01*
X78348302Y-49925908D01*
X78422282Y-49815187D01*
X78452318Y-49770238D01*
X78452319Y-49770234D01*
X78452322Y-49770231D01*
X78523973Y-49597251D01*
X78560500Y-49413616D01*
X78560500Y-49226384D01*
X78523973Y-49042749D01*
X78452322Y-48869769D01*
X78452320Y-48869767D01*
X78452318Y-48869761D01*
X78392649Y-48780463D01*
X78348302Y-48714092D01*
X78215908Y-48581698D01*
X78171559Y-48552065D01*
X78060238Y-48477681D01*
X78060229Y-48477677D01*
X77887249Y-48406026D01*
X77703618Y-48369500D01*
X77703616Y-48369500D01*
X75716384Y-48369500D01*
X75716381Y-48369500D01*
X75532750Y-48406026D01*
X75359770Y-48477677D01*
X75359761Y-48477681D01*
X75204092Y-48581698D01*
X75204088Y-48581701D01*
X75071701Y-48714088D01*
X75071698Y-48714092D01*
X74967681Y-48869761D01*
X74967677Y-48869770D01*
X74896026Y-49042750D01*
X74859500Y-49226381D01*
X72300499Y-49226381D01*
X72263973Y-49042749D01*
X72192322Y-48869769D01*
X72192320Y-48869767D01*
X72192318Y-48869761D01*
X72132649Y-48780463D01*
X72088302Y-48714092D01*
X71955908Y-48581698D01*
X71911559Y-48552065D01*
X71800238Y-48477681D01*
X71800229Y-48477677D01*
X71627249Y-48406026D01*
X71443618Y-48369500D01*
X71443616Y-48369500D01*
X70056384Y-48369500D01*
X70056381Y-48369500D01*
X69872750Y-48406026D01*
X69699770Y-48477677D01*
X69699761Y-48477681D01*
X69544092Y-48581698D01*
X69544088Y-48581701D01*
X69411701Y-48714088D01*
X69411698Y-48714092D01*
X69307681Y-48869761D01*
X69307677Y-48869770D01*
X69236026Y-49042750D01*
X69199500Y-49226381D01*
X66570500Y-49226381D01*
X66570500Y-48183539D01*
X66570752Y-48176477D01*
X66575213Y-48114108D01*
X66585258Y-47973652D01*
X66587265Y-47959693D01*
X66629737Y-47764447D01*
X66633711Y-47750914D01*
X66703539Y-47563701D01*
X66709391Y-47550886D01*
X66805150Y-47375516D01*
X66812777Y-47363648D01*
X66932515Y-47203698D01*
X66941749Y-47193040D01*
X67083040Y-47051749D01*
X67093698Y-47042515D01*
X67253648Y-46922777D01*
X67265516Y-46915150D01*
X67440886Y-46819391D01*
X67453701Y-46813539D01*
X67640914Y-46743711D01*
X67654447Y-46739737D01*
X67849693Y-46697265D01*
X67863652Y-46695258D01*
X68043568Y-46682390D01*
X68066478Y-46680752D01*
X68073540Y-46680500D01*
X68135892Y-46680500D01*
X153104108Y-46680500D01*
X153166460Y-46680500D01*
X153173522Y-46680752D01*
G37*
G04 #@! TD.AperFunction*
M02*
